<svg width="22" height="22" viewBox="0 0 22 22" fill="none" xmlns="http://www.w3.org/2000/svg">
<path d="M9 12.9445C9 14.0223 9.75001 14.889 10.67 14.889H12.55C13.35 14.889 14 14.1334 14 13.189C14 12.1779 13.6 11.8112 13.01 11.5779L10 10.4112C9.41 10.1779 9.01001 9.82232 9.01001 8.8001C9.01001 7.86676 9.65999 7.1001 10.46 7.1001H12.34C13.26 7.1001 14.01 7.96676 14.01 9.04454" stroke="white" stroke-width="1.5" stroke-linecap="round" stroke-linejoin="round"/>
<path d="M11.5 6V16" stroke="white" stroke-width="1.5" stroke-linecap="round" stroke-linejoin="round"/>
<path d="M21 11C21 16.52 16.52 21 11 21C5.48 21 2.11 15.44 2.11 15.44M2.11 15.44H6.63M2.11 15.44V20.44M1 11C1 5.48 5.44 1 11 1C17.67 1 21 6.56 21 6.56M21 6.56V1.56M21 6.56H16.56" stroke="white" stroke-width="1.5" stroke-linecap="round" stroke-linejoin="round"/>
</svg>
