<svg width="24" height="24" viewBox="0 0 24 24" fill="none" xmlns="http://www.w3.org/2000/svg">
<path d="M17.0801 10C14.8745 10 13.0801 8.20561 13.0801 6C13.0801 3.79439 14.8745 2 17.0801 2C19.2857 2 21.0801 3.79439 21.0801 6C21.0801 8.20561 19.2857 10 17.0801 10ZM17.0801 3.8567C15.9087 3.8567 14.9492 4.8162 14.9492 5.98754C14.9492 7.15888 15.9087 8.11838 17.0801 8.11838C18.2514 8.11838 19.2109 7.15888 19.2109 5.98754C19.2109 4.8162 18.2514 3.8567 17.0801 3.8567Z" fill="white" fill-opacity="0.5"/>
<path d="M6.00001 10C3.7944 10 2 8.20561 2 6C2 3.79439 3.7944 2 6.00001 2C8.20562 2 10 3.79439 10 6C10 8.20561 8.20562 10 6.00001 10ZM6.00001 3.8567C4.82867 3.8567 3.86916 4.8162 3.86916 5.98754C3.86916 7.15888 4.82867 8.11838 6.00001 8.11838C7.17135 8.11838 8.13084 7.15888 8.13084 5.98754C8.13084 4.8162 7.18381 3.8567 6.00001 3.8567Z" fill="white"/>
<path d="M17.0801 22.3101C14.8745 22.3101 13.0801 20.5157 13.0801 18.3101C13.0801 16.1045 14.8745 14.3101 17.0801 14.3101C19.2857 14.3101 21.0801 16.1045 21.0801 18.3101C21.0801 20.5157 19.2857 22.3101 17.0801 22.3101ZM17.0801 16.1668C15.9087 16.1668 14.9492 17.1263 14.9492 18.2976C14.9492 19.4689 15.9087 20.4284 17.0801 20.4284C18.2514 20.4284 19.2109 19.4689 19.2109 18.2976C19.2109 17.1263 18.2514 16.1668 17.0801 16.1668Z" fill="white"/>
<path opacity="0.8" d="M6.00001 22.3101C3.7944 22.3101 2 20.5157 2 18.3101C2 16.1045 3.7944 14.3101 6.00001 14.3101C8.20562 14.3101 10 16.1045 10 18.3101C10 20.5157 8.20562 22.3101 6.00001 22.3101ZM6.00001 16.1668C4.82867 16.1668 3.86916 17.1263 3.86916 18.2976C3.86916 19.4689 4.82867 20.4284 6.00001 20.4284C7.17135 20.4284 8.13084 19.4689 8.13084 18.2976C8.13084 17.1263 7.18381 16.1668 6.00001 16.1668Z" fill="white" fill-opacity="0.5"/>
</svg>
