<svg class="svg-icon" style="width:1em;height:1em;vertical-align:middle;fill:currentColor;overflow:hidden" viewBox="0 0 1024 1024" xmlns="http://www.w3.org/2000/svg">
  <path d="M512 81.86C274.46 81.86 81.88 274.44 81.88 512c0 237.56 192.58 430.14 430.14 430.14 237.54 0 430.13-192.58 430.13-430.14 0-237.56-192.59-430.14-430.13-430.14z" fill="#EDF3FC"/>
  <path d="M512 2C230.8 2 2 230.79 2 512s228.79 510 510 510c281.22 0 510-228.78 510-510S793.22 2 512 2zm0 1003.66c-272.2 0-493.66-221.45-493.66-493.66 0-272.2 221.46-493.66 493.67-493.66 272.2 0 493.65 221.46 493.65 493.66 0 272.2-221.45 493.66-493.65 493.66z" fill="#EDF3FC"/>
  <path d="M475.96 588.24h-163.3a100.64 100.64 0 0 0-19.47 59.64c0 55.84 45.27 101.11 101.12 101.11s101.12-45.27 101.12-101.11a100.63 100.63 0 0 0-19.47-59.64z" fill="#FFBE1B"/>
  <path d="M441.24 588.24h-93.87a75.9 75.9 0 1 0 93.87 0z" fill="#FFE37B"/>
  <path d="M424.91 652.61c-2.7-3.12-6.34-5.18-10.9-6.16 1.26-.56 2.14-.96 2.63-1.21.49-.24 1.37-.86 2.63-1.85 3.73-2.8 5.58-7.1 5.58-12.85 0-4.78-1.64-9.05-4.94-12.85-1.83-2.04-4.55-3.65-8.17-4.85a29.83 29.83 0 0 0-3.45-.89v-9.37h-12.91v8.47h-8.67v-8.47H373.8v8.47h-14.15v13.9h10.54v45.83h-10.54v13.91h14.15v8.47h12.92v-8.47h8.67v8.47h12.91v-8.78c7.03-.76 12.18-2.92 15.4-6.53a19.8 19.8 0 0 0 5.27-13.6c0-4.63-1.35-8.5-4.05-11.64zm-38.29-27.66h7.9c4.85 0 8.28.54 10.32 1.59 2.04 1.05 3.05 3.2 3.05 6.48 0 3.26-1.1 5.39-3.31 6.37-2.22.98-5.6 1.47-10.16 1.47h-7.8v-15.9zm21.86 44.1c-2.36 1.15-5.89 1.73-10.6 1.73h-11.26v-16.96h9.69c5.47 0 9.46.55 11.95 1.63 2.5 1.1 3.75 3.34 3.75 6.75 0 3.4-1.18 5.69-3.53 6.85z" fill="#FFF"/>
  <path d="M602.95 630.34c-55.85 0-101.12 45.27-101.12 101.12s45.27 101.12 101.12 101.12 101.12-45.27 101.12-101.12-45.28-101.12-101.12-101.12z" fill="#FFBE1B"/>
  <path d="M602.95 655.56a75.9 75.9 0 1 0 0 151.8 75.9 75.9 0 1 0 0-151.8z" fill="#FFE37B"/>
  <path d="M633.55 736.2c-2.71-3.13-6.34-5.19-10.9-6.17 1.26-.56 2.14-.96 2.63-1.2a20 20 0 0 0 2.63-1.85c3.72-2.8 5.58-7.1 5.58-12.86 0-4.77-1.64-9.05-4.95-12.84-1.82-2.04-4.54-3.65-8.16-4.86a29.83 29.83 0 0 0-3.45-.88v-9.37h-12.92v8.47h-8.66v-8.47h-12.92v8.47h-14.15v13.9h10.54v45.83h-10.54v13.9h14.15v8.48h12.92v-8.48h8.66v8.48h12.92v-8.8c7.03-.75 12.18-2.9 15.4-6.52a19.8 19.8 0 0 0 5.27-13.6c0-4.63-1.35-8.5-4.05-11.63zm-38.29-27.66h7.9c4.84 0 8.28.53 10.32 1.58 2.04 1.05 3.05 3.21 3.05 6.48 0 3.26-1.1 5.4-3.31 6.37-2.22.99-5.6 1.48-10.17 1.48h-7.79v-15.91zm21.86 44.09c-2.36 1.16-5.89 1.74-10.6 1.74h-11.26V737.4h9.69c5.47 0 9.46.54 11.95 1.63 2.5 1.1 3.75 3.34 3.75 6.74s-1.18 5.7-3.53 6.85z" fill="#FFF"/>
  <path d="M609.2 184.25a63.43 63.43 0 0 1-46.11-46.13l-.98-3.87-.97 3.87A63.45 63.45 0 0 1 515 184.25l-3.87.97 3.87.97a63.44 63.44 0 0 1 46.13 46.13l.97 3.87.98-3.87a63.43 63.43 0 0 1 46.12-46.13l3.88-.97-3.88-.97zm-120.4 35.77a50.37 50.37 0 0 1-36.62-36.62l-.78-3.07-.77 3.07A50.38 50.38 0 0 1 414 220.02l-3.07.78 3.07.77a50.38 50.38 0 0 1 36.63 36.62l.77 3.08.78-3.08a50.37 50.37 0 0 1 36.62-36.62l3.08-.77-3.08-.78z" fill="#330D84"/>
  <path d="M254.01 676.46a65.88 65.88 0 0 1-47.85-47.86l-1.01-4.02-1 4.02a65.87 65.87 0 0 1-47.87 47.86l-4.01 1 4 1.01a65.84 65.84 0 0 1 47.88 47.86l1 4.02 1-4.02a65.85 65.85 0 0 1 47.86-47.86l4.03-1-4.03-1zm45.72 72.04a32.48 32.48 0 0 1-23.6-23.59l-.5-1.99-.49 1.99a32.48 32.48 0 0 1-23.6 23.6l-1.97.49 1.98.5a32.45 32.45 0 0 1 23.6 23.58l.49 1.98.5-1.98a32.45 32.45 0 0 1 23.59-23.59l1.98-.5-1.98-.49z" fill="#FFBE1B"/>
  <path d="M860.98 520.53a49.22 49.22 0 0 1-35.76-35.77l-.76-3-.75 3a49.22 49.22 0 0 1-35.77 35.77l-3 .75 3 .75a49.2 49.2 0 0 1 35.77 35.76l.75 3.01.76-3a49.2 49.2 0 0 1 35.76-35.77l3.01-.75-3.01-.75z" fill="#5D8EF9"/>
  <path d="m612.56 493.58-66.31-70.05-1.4 1.33a6.86 6.86 0 0 1-9.7-.27l-1-1.04a2004.54 2004.54 0 0 0-69.43 77c-4.48 5.25-12.93 4.95-18.22-.64l-34.2-36.14c-4.72-4.97-5.19-12.35-1.06-16.91a935.16 935.16 0 0 1 75.74-74.3 6.83 6.83 0 0 1 1.84-6.88l1.4-1.33-7.32-7.75a26.69 26.69 0 0 1 1.03-37.72l8.23-7.8a26.8 26.8 0 0 1 4.08-3.16 111.27 111.27 0 0 0-80.71-34.56c-57.49 0-104.8 43.45-110.94 99.31a111.24 111.24 0 0 0-40.7-7.69c-61.65 0-111.62 49.98-111.62 111.63 0 61.66 49.97 111.63 111.62 111.63h263.27v-.02a86.62 86.62 0 0 0 85.4-94.64zm207.64-133.2c-.5 0-.98.03-1.48.04a49.96 49.96 0 1 0-97.75-18.97 49.85 49.85 0 0 0-18.21-3.44 49.96 49.96 0 0 0 0 99.92h117.81v-.01a38.76 38.76 0 0 0-.37-77.53z" fill="#8AC9F9"/>
  <path d="M529.89 312.12a26.7 26.7 0 0 0-37.73-1.03l-8.23 7.79a26.69 26.69 0 0 0-1.03 37.72l7.33 7.75 46.99-44.49-7.33-7.74zm295.84 312.52-232.49-245.6-46.99 44.49 232.49 245.6a26.69 26.69 0 0 0 37.72 1.03l8.23-7.8a26.69 26.69 0 0 0 1.04-37.72z" fill="#FFBE1B"/>
  <path d="M488.56 375.38a6.74 6.74 0 0 1-1.58-2.81 934.81 934.81 0 0 0-75.74 74.29c-4.13 4.56-3.66 11.94 1.05 16.91l34.21 36.14c5.3 5.6 13.74 5.89 18.22.63a2002.8 2002.8 0 0 1 69.44-77l-45.6-48.16zm255.5-137.29c-8.14-8.59-99.7 23.3-179.25 74.96a566.13 566.13 0 0 0-13.42 8.99l40.98 43.29 6.01-5.63c70.34-65.42 154.71-112.07 145.68-121.61z" fill="#6857E5"/>
  <path d="m594.92 368.02-46.6-49.22a6.87 6.87 0 0 0-9.7-.27l-49.8 47.15a6.86 6.86 0 0 0-.26 9.7l46.59 49.21a6.86 6.86 0 0 0 9.7.27l49.8-47.15a6.86 6.86 0 0 0 .27-9.7z" fill="#330D84"/>
</svg>
