<svg width="65" height="90" viewBox="0 0 65 90" fill="none" xmlns="http://www.w3.org/2000/svg">
<path d="M52.8262 41.492C57.6231 39.0504 60.6245 34.7504 59.9234 27.5868C58.9792 17.7969 50.519 14.5142 39.8391 13.5793L39.837 0H31.5621L31.5598 13.2222C29.3826 13.2222 27.1632 13.2649 24.9539 13.3092L24.9521 0.00180229L16.6847 0.00102993L16.6831 13.577C14.8914 13.6135 13.1318 13.6483 11.4137 13.6483V13.6081L0 13.6035L0.00154496 22.4301C0.00154496 22.4301 6.11237 22.3153 6.0117 22.4268C9.36217 22.4291 10.4562 24.373 10.7708 26.0509L10.7734 41.5206V63.2504C10.6258 64.3035 10.0051 65.986 7.66235 65.9891C7.76894 66.0828 1.64292 65.9881 1.64292 65.9881L0.00154496 75.8583H10.7682C12.7744 75.8606 14.7456 75.8917 16.6795 75.9072L16.6867 89.6402L24.9521 89.6425L24.9497 76.0534C27.2237 76.0998 29.4187 76.1199 31.5626 76.117L31.5603 89.6425H39.8349L39.8396 75.9324C53.7487 75.1342 63.4863 71.6334 64.6969 58.5827C65.6727 48.0756 60.7231 43.3855 52.8262 41.492ZM25.1516 23.0259C29.8185 23.0259 44.4959 21.5411 44.498 31.2815C44.4959 40.6197 29.8232 39.5288 25.1516 39.5288V23.0259ZM25.148 66.0561L25.1516 47.8601C30.7588 47.8585 48.3459 46.248 48.3482 56.9539C48.3505 67.2209 30.7588 66.0519 25.148 66.0561Z" fill="white" fill-opacity="0.15"/>
</svg>
