<svg width="82" height="82" viewBox="0 0 82 82" fill="none" xmlns="http://www.w3.org/2000/svg">
<path fill-rule="evenodd" clip-rule="evenodd" d="M69.0308 82L12.8762 82C10.7302 82 8.94181 81.6419 6.79578 80.5677C4.29207 79.4935 2.86137 77.7031 2.14603 76.2707C2.14603 76.2707 2.14603 75.9127 1.78836 75.9127C0.715339 74.1223 -8.76518e-07 71.9738 -1.09565e-06 69.4673C-1.28347e-06 67.3188 0.357672 65.1703 1.78836 63.0218L37.1979 2.14849C37.9133 0.716167 39.3439 3.72911e-06 41.1323 3.57277e-06C42.563 3.44769e-06 43.9937 0.716167 45.0667 2.14849L79.7609 63.0218C80.4763 64.4542 81.907 66.2445 81.907 69.1092C82.2646 71.6157 81.5493 73.7642 80.4763 75.9127C79.4033 78.0611 77.6149 79.8515 75.1112 80.5677C72.9652 82 70.4614 82 69.0308 82ZM45.4244 73.4061L69.0308 73.4061C70.4614 73.4061 71.1768 73.4061 71.5345 73.048C72.2498 72.69 72.6075 72.3319 72.9651 71.6157C73.3228 71.2576 73.3228 70.5415 73.3228 69.8253C73.3228 69.4673 72.9652 69.1092 72.2498 67.6769L45.4244 21.1266L45.4244 73.4061ZM36.8402 73.4061L36.8402 20.7686L9.65715 67.6769C9.29948 68.393 9.29948 69.1092 9.29948 69.8253C9.29948 70.5415 9.29948 71.2577 9.65715 71.6157C10.0148 71.9738 10.0148 72.3319 10.3725 72.3319L10.7302 72.69C11.4455 73.048 12.1609 73.048 13.2339 73.048L36.8402 73.048L36.8402 73.4061Z" fill="white" fill-opacity="0.15"/>
</svg>
