<svg width="109" height="111" viewBox="0 0 109 111" fill="none" xmlns="http://www.w3.org/2000/svg">
<g opacity="0.15">
<path d="M80.0356 10.4424C77.2221 13.2559 74.6445 16.3052 72.3533 19.5567L71.6289 19.3208C67.4508 17.9562 63.1211 17.1138 58.7577 16.8274C57.4437 16.7264 52.5412 16.7264 50.9407 16.8274C46.1056 17.1475 42.3992 17.872 38.1875 19.3377C38.019 19.405 37.8674 19.4556 37.7157 19.5061C35.3403 16.2715 32.6953 13.239 29.7808 10.4592C43.7638 3.29924 60.1223 2.44004 74.7624 8.08381C76.3292 8.67346 77.8623 9.36419 79.3617 10.1055L80.0356 10.4424Z" fill="#474747"/>
<path d="M106.115 74.3435C103.992 80.3916 100.808 86.0017 96.6806 90.8873C94.4399 93.5155 91.9634 95.9246 89.3016 98.1147C83.0682 103.135 75.7902 106.724 68.0237 108.61C59.4317 110.683 50.4691 110.683 41.8771 108.61C34.0937 106.724 26.8326 103.135 20.5992 98.1147C17.9374 95.9246 15.4609 93.5155 13.2202 90.8873C1.34301 76.8537 -2.26226 57.5807 3.78584 40.2113C4.93144 36.9935 6.36344 33.8937 8.08184 30.9454C8.87366 29.5977 9.85079 28.0814 10.3225 27.4581C11.9398 34.4159 13.9278 40.5314 14.669 42.7384C14.6185 42.8563 14.5511 42.9911 14.4837 43.109C10.5584 51.0608 8.43564 58.7262 7.93023 66.8802C7.93023 66.9813 7.91337 67.0993 7.91337 67.2003C7.7786 69.6432 7.84598 70.8056 8.25031 72.3387C9.51384 77.1401 13.4055 82.4301 19.5042 87.619C29.4945 96.1099 43.0395 102.242 53.2994 102.95C63.9973 103.674 79.783 97.424 90.2956 88.2929C91.9466 86.8272 93.4965 85.2772 94.9454 83.6262C95.9899 82.4132 97.5398 80.3242 97.4219 80.3242C97.3882 80.3242 97.4219 80.2905 97.4893 80.2568C97.5398 80.2231 97.5903 80.1726 97.5566 80.1389C97.5398 80.122 97.5735 80.0715 97.624 80.0546C97.6746 80.0378 97.7083 80.0041 97.6914 79.9704C97.6746 79.9367 97.6914 79.903 97.7588 79.8862C97.8094 79.8693 97.8262 79.8188 97.8094 79.7851C97.7925 79.7514 97.8094 79.7177 97.8431 79.7177C97.8768 79.7177 97.9105 79.6672 97.9105 79.6335C97.9105 79.5998 97.9441 79.5492 97.9778 79.5492C98.0115 79.5492 98.0452 79.5155 98.0452 79.4819C98.0958 79.3471 98.18 79.2123 98.2642 79.0944C98.5169 78.7069 99.5278 76.9042 99.6625 76.601C100.623 74.4277 101.229 72.4903 101.516 70.5529C101.65 69.6263 101.735 67.9248 101.667 67.5204C101.65 67.453 101.65 67.3351 101.634 67.1498C101.6 66.8129 101.583 66.3074 101.549 65.802C101.516 65.0439 101.448 63.9825 101.398 63.4603C100.673 55.8117 98.7191 49.5614 95.0127 42.9405C94.8611 42.6878 94.7263 42.4351 94.6421 42.233C94.6084 42.1824 94.5916 42.1319 94.5747 42.0982C95.097 40.5314 97.2366 33.9779 98.9381 26.481L98.9718 26.5147L99.2245 26.8516C99.6625 27.4412 100.825 29.1933 101.347 30.0357C103.723 33.9105 105.576 38.0717 106.89 42.4183C109.939 52.8803 109.687 64.0331 106.115 74.3435Z" fill="#474747"/>
<path d="M84.2473 54.2111C84.1968 54.4806 83.405 55.2893 82.6132 55.8789C80.2883 57.5805 76.1271 59.1641 71.8984 59.9222C69.4893 60.3602 67.0802 60.4276 66.3558 60.0738C65.884 59.838 65.8167 59.6527 65.9851 59.0462C66.3389 57.7826 67.4845 56.4012 69.2703 55.104C70.18 54.4469 73.8696 52.2063 75.588 51.2628C78.4183 49.7129 80.7095 48.7863 82.2594 48.5673C82.748 48.4999 83.3376 48.4831 83.5229 48.5673C83.8262 48.6852 84.1631 49.5781 84.2979 50.6563C84.3653 51.2291 84.3316 53.7562 84.2473 54.2111Z" fill="black"/>
<path d="M44.5559 59.7873C44.4548 59.9894 43.9494 60.2085 43.3766 60.2927C42.8038 60.3769 41.0517 60.3264 40.0578 60.2085C36.4862 59.7367 32.6956 58.6417 29.9327 57.2939C28.3827 56.5358 27.2708 55.7777 26.4453 54.9522L25.9736 54.4636L25.9231 53.8234C25.8388 52.7115 25.8557 50.9594 25.9905 50.3361C26.0747 49.8138 26.26 49.3084 26.5127 48.8535C26.6475 48.6851 26.6475 48.6851 27.254 48.6851C27.9953 48.6851 28.6186 48.803 29.6294 49.1231C31.7016 49.7633 34.7846 51.3132 38.5415 53.5707C41.6414 55.4239 42.8038 56.3336 43.6967 57.5803C44.3032 58.3553 44.7076 59.4503 44.5559 59.7873Z" fill="black"/>
<path d="M68.4112 83.2388C68.4112 83.2894 68.209 84.098 67.9563 85.0583C67.7036 86.0186 67.5015 86.7936 67.5015 86.8273C67.3161 86.8441 67.1477 86.861 66.9623 86.8441H66.4232L65.682 88.5962C65.2776 89.5565 64.907 90.4494 64.8565 90.5842L64.7554 90.82L64.4016 90.2472L64.0478 89.6744V85.0078L63.913 85.0415C63.6266 85.1089 61.5881 85.3784 60.6952 85.4627C57.0057 85.8333 53.2994 85.7491 49.6267 85.2268C49.037 85.1426 48.5316 85.0752 48.5148 85.092C48.4979 85.1089 48.5148 86.1871 48.5485 87.518L48.599 89.9103L48.3126 90.3483C48.161 90.5842 48.0094 90.7863 48.0094 90.8032C47.9588 90.8537 47.7904 90.5842 47.4029 89.8092C46.9817 89.0005 46.6785 88.1413 46.4595 87.2484L46.3415 86.7599L45.8193 86.7936L45.297 86.8441L45.1622 86.2208C45.0948 85.8838 45.0106 85.3616 44.9769 85.0752L44.9264 84.5361L44.4883 84.1486C44.2356 83.9296 43.9829 83.7106 43.9324 83.6769C43.8482 83.6095 43.8145 83.4915 43.8145 83.3905V83.1883L45.9203 83.2051L48.0262 83.222L48.0936 83.441L48.161 83.66L48.8854 83.6937C49.2898 83.7106 50.5701 83.7443 51.7157 83.7779L53.8216 83.8285L54.3607 82.9861L54.9167 82.1438H55.6243L55.6074 80.3917L55.5906 78.6396L54.664 78.2353C51.682 76.9212 49.9299 75.4218 49.2729 73.6023C49.1381 73.2317 49.1381 73.0969 49.1044 71.4122C49.0876 69.7443 49.0876 69.5927 49.2055 69.2221C49.4414 68.3797 50.0984 67.7227 50.9408 67.5037C51.2272 67.4194 51.9853 67.4194 55.9612 67.4194L60.6447 67.4363L61.1669 67.689C61.7903 67.9922 62.0767 68.2112 62.4305 68.683C62.8348 69.2221 62.9527 69.6432 62.9527 70.6709C62.9527 72.1366 62.8517 73.4001 62.7 73.9056C62.481 74.5963 62.1441 75.2533 61.7229 75.843C60.8805 76.9212 59.3475 77.9994 57.9492 78.488L57.5448 78.6396L57.5617 80.4085L57.5785 82.1775L57.9492 82.2112L58.3198 82.2449L58.8252 83.003L59.3138 83.7611H61.5713C62.818 83.7611 63.913 83.7779 64.0141 83.7948C64.1826 83.8285 64.2163 83.8116 64.3847 83.5252L64.5869 83.222H66.5243C67.9732 83.1546 68.4112 83.1883 68.4112 83.2388Z" fill="black"/>
<path d="M59.516 88.0736C59.196 88.2589 58.9769 88.3431 58.9264 88.3095C58.8759 88.2926 58.64 88.0904 58.3873 87.9051L57.9324 87.5345L57.4607 88.0399C56.433 89.1518 56.3993 89.2024 56.0961 89.2192C55.6244 89.2697 55.5233 89.1855 54.9505 88.3263C54.6472 87.8883 54.4114 87.5176 54.4114 87.5176C54.4114 87.5176 54.1924 87.4839 53.9397 87.4671L53.4679 87.4166L53.2489 87.8714L53.0299 88.3263L52.6424 88.2084C52.3392 88.1073 52.036 87.9894 51.7496 87.8546L51.2441 87.6019V86.6416L55.7255 86.6584L60.2068 86.6753L60.2236 87.1302C60.2405 87.6693 60.2573 87.6524 59.516 88.0736Z" fill="black"/>
<path d="M101.633 67.5204C101.617 67.453 101.617 67.3351 101.6 67.1498C97.5565 66.7118 86.0162 66.4422 75.3015 75.2869C75.3015 75.2869 71.8478 59.4507 55.6746 59.4507C39.5014 59.4507 33.5039 75.2869 33.5039 75.2869C24.4402 65.5325 12.3103 66.2401 7.93003 66.8802C7.93003 66.9813 7.91318 67.0993 7.91318 67.2003C7.7784 69.6432 7.84579 70.8056 8.25012 72.3387C9.51365 77.1401 13.4053 82.4301 19.504 87.619C29.4943 96.1099 43.0393 102.242 53.2992 102.95C63.9971 103.674 79.7828 97.424 90.2954 88.2929C91.9464 86.8272 93.4963 85.2772 94.9452 83.6262C95.9897 82.4132 97.5396 80.3242 97.4217 80.3242C97.388 80.3242 97.4217 80.2905 97.4891 80.2568C97.5396 80.2231 97.5901 80.1726 97.5565 80.1389C97.5396 80.122 97.5733 80.0715 97.6238 80.0547C97.6744 80.0378 97.7081 80.0041 97.6912 79.9704C97.6744 79.9367 97.6912 79.903 97.7586 79.8862C97.8092 79.8693 97.826 79.8188 97.8092 79.7851C97.7923 79.7514 97.8092 79.7177 97.8429 79.7177C97.8766 79.7177 97.9103 79.6672 97.9103 79.6335C97.9103 79.5998 97.9439 79.5492 97.9776 79.5492C98.0113 79.5492 98.045 79.5156 98.045 79.4819C98.0956 79.3471 98.1798 79.2123 98.264 79.0944C98.5168 78.7069 99.5276 76.9043 99.6623 76.601C100.623 74.4277 101.229 72.4903 101.516 70.5529C101.617 69.6263 101.701 67.9248 101.633 67.5204ZM59.5158 88.0739C59.1957 88.2592 58.9767 88.3434 58.9261 88.3097C58.8756 88.2929 58.6397 88.0907 58.387 87.9054L57.9321 87.5348L57.4604 88.0402C56.4327 89.1521 56.3991 89.2026 56.0958 89.2195C55.6241 89.27 55.523 89.1858 54.9502 88.3266C54.647 87.8885 54.4111 87.5179 54.4111 87.5179C54.4111 87.5179 54.1921 87.4842 53.9394 87.4674L53.4677 87.4168L53.2486 87.8717L53.0296 88.3266L52.6422 88.2086C52.3389 88.1076 52.0357 87.9896 51.7493 87.8548L51.2439 87.6021V86.6419L55.7252 86.6587L60.2065 86.6756L60.2233 87.1304C60.2402 87.6695 60.257 87.6527 59.5158 88.0739ZM67.9393 85.0414C67.6866 86.0017 67.4844 86.7766 67.4844 86.8103C67.2991 86.8272 67.1306 86.844 66.9453 86.8272H66.4062L65.6818 88.5961C65.2775 89.5564 64.9068 90.4493 64.8563 90.5841L64.7552 90.8199L64.4014 90.2471L64.0476 89.6743V85.0077L63.9129 85.0414C63.6265 85.1088 61.588 85.3783 60.6951 85.4626C57.0056 85.8332 53.2992 85.749 49.6265 85.2267C49.0369 85.1425 48.5315 85.0751 48.5146 85.0919C48.4978 85.1088 48.5146 86.187 48.5483 87.5179L48.5989 89.9102L48.3125 90.3482C48.1608 90.5841 48.0092 90.7862 48.0092 90.8031C47.9587 90.8536 47.7902 90.5841 47.4027 89.8091C46.9815 89.0005 46.6783 88.1413 46.4593 87.2484L46.3414 86.7598L45.8191 86.7935L45.2968 86.844L45.1621 86.2207C45.0947 85.8837 45.0104 85.3615 44.9767 85.0751L44.9262 84.536L44.4882 84.1485C44.2355 83.9295 43.9828 83.7105 43.9322 83.6768C43.848 83.6094 43.8143 83.4915 43.8143 83.3904V83.1882L45.9202 83.2051L48.0261 83.2219L48.0935 83.4409L48.1608 83.6599L48.8853 83.6936C49.2896 83.7105 50.57 83.7442 51.7156 83.7779L53.8215 83.8284L54.3606 82.986L54.9165 82.1437H55.6241L55.6072 80.3916L55.5904 78.6395L54.6638 78.2352C51.6819 76.9211 49.9298 75.4217 49.2727 73.6022C49.138 73.2316 49.138 73.0968 49.1043 71.4121C49.0874 69.7442 49.0874 69.5926 49.2054 69.222C49.4412 68.3796 50.0983 67.7226 50.9406 67.5036C51.227 67.4193 51.9851 67.4193 55.961 67.4193L60.6445 67.4362L61.1668 67.6889C61.7901 67.9922 62.0765 68.2112 62.4303 68.6829C62.8346 69.222 62.9526 69.6432 62.9526 70.6708C62.9526 72.1365 62.8515 73.4001 62.6999 73.9055C62.4809 74.5962 62.1439 75.2532 61.7227 75.8429C60.8804 76.9211 59.3473 77.9993 57.949 78.4879L57.5447 78.6395L57.5615 80.4084L57.5784 82.1774L57.949 82.2111L58.3196 82.2448L58.825 83.0029L59.3136 83.761H61.5711C62.8178 83.761 63.9128 83.7779 64.0139 83.7947C64.1824 83.8284 64.2161 83.8116 64.3846 83.5252L64.5867 83.2219H66.5242C68.0235 83.2219 68.4616 83.2388 68.4616 83.2893C68.411 83.2724 68.192 84.098 67.9393 85.0414Z" fill="white"/>
<path d="M101.499 65.8019C101.465 65.0438 101.398 63.9824 101.347 63.4601C100.623 55.8116 98.6685 49.5613 94.9622 42.9404C94.8105 42.6877 94.6758 42.435 94.5915 42.2328C94.5578 42.1823 94.541 42.1317 94.5241 42.098C95.0464 40.5313 97.186 33.9777 98.8875 26.4808C101.196 16.3052 102.661 4.41114 98.1799 0.839558C98.1799 0.839558 90.4303 0.266757 80.0525 10.4424C77.239 13.2559 74.6614 16.3052 72.3702 19.5567L71.6458 19.3208C67.4677 17.9562 63.138 17.1138 58.7746 16.8274C57.4606 16.7263 52.5581 16.7263 50.9576 16.8274C46.1225 17.1475 42.4161 17.8719 38.2044 19.3376C38.0359 19.405 37.8843 19.4556 37.7326 19.5061C35.3572 16.2715 32.7122 13.239 29.7977 10.4592C18.9987 0.233064 10.9627 0.82271 10.9627 0.82271C6.21178 4.51222 7.8291 16.9454 10.2888 27.4579C11.9061 34.4158 13.894 40.5313 14.6353 42.7382C14.5848 42.8562 14.5174 42.9909 14.45 43.1089C10.5246 51.0607 8.4019 58.7261 7.89648 66.8801C12.2936 66.2399 24.4066 65.5155 33.4872 75.2868C33.4872 75.2868 39.4847 59.4505 55.6579 59.4505C71.8311 59.4505 75.2848 75.2868 75.2848 75.2868C85.9995 66.4421 97.5398 66.7285 101.583 67.1496C101.566 66.8127 101.533 66.3073 101.499 65.8019ZM17.8194 36.3869C17.8194 36.3869 11.5186 20.6349 13.1359 11.6385C13.4055 10.1223 13.9109 8.79137 14.7027 7.78055C14.7027 7.78055 21.8459 8.48813 33.3692 21.2919C33.3692 21.2919 31.1791 22.3533 28.2478 24.6108C28.2478 24.6108 28.2309 24.6276 28.2141 24.6276C25.03 27.0704 20.953 30.9453 17.8194 36.3869ZM44.5557 59.7875C44.4546 59.9896 43.9492 60.2086 43.3764 60.2929C42.8036 60.3771 41.0515 60.3266 40.0575 60.2086C36.486 59.7369 32.6954 58.6419 29.9325 57.2941C28.3825 56.536 27.2706 55.7779 26.4451 54.9524L25.9734 54.4638L25.9229 53.8236C25.8386 52.7117 25.8555 50.9596 25.9902 50.3363C26.0745 49.814 26.2598 49.3086 26.5125 48.8537C26.6473 48.6852 26.6473 48.6852 27.2538 48.6852C27.995 48.6852 28.6184 48.8032 29.6292 49.1233C31.7014 49.7635 34.7844 51.3134 38.5413 53.5709C41.6412 55.4241 42.8036 56.3338 43.6965 57.5805C44.303 58.3555 44.7073 59.4505 44.5557 59.7875ZM84.2474 54.2111C84.1969 54.4806 83.4051 55.2893 82.6133 55.8789C80.2884 57.5805 76.1271 59.1641 71.8985 59.9222C69.4894 60.3603 67.0802 60.4277 66.3558 60.0739C65.8841 59.838 65.8167 59.6527 65.9852 59.0462C66.339 57.7827 67.4846 56.4012 69.2704 55.104C70.1801 54.4469 73.8696 52.2063 75.588 51.2629C78.4183 49.7129 80.7095 48.7863 82.2595 48.5673C82.748 48.4999 83.3377 48.4831 83.523 48.5673C83.8262 48.6852 84.1632 49.5781 84.298 50.6564C84.3653 51.2292 84.3316 53.7562 84.2474 54.2111ZM81.4508 24.6108L81.4171 24.5939C78.5868 22.3364 76.4641 21.2751 76.4641 21.2751C87.6 8.47128 94.4904 7.76371 94.4904 7.76371C95.2486 8.79138 95.7371 10.1054 96.0067 11.6217C97.5734 20.618 91.4917 36.3869 91.4917 36.3869C88.9477 31.855 85.5278 27.8454 81.4508 24.6108Z" fill="#A7A7A7"/>
<path d="M96.0233 11.6217C94.7092 11.4532 88.4927 11.4195 81.4506 24.6107L81.4169 24.5939C78.5866 22.3364 76.4639 21.275 76.4639 21.275C87.5998 8.47125 94.4902 7.76367 94.4902 7.76367C95.2652 8.79134 95.7538 10.1054 96.0233 11.6217Z" fill="#717171"/>
<path d="M91.5084 36.387C88.9476 31.8383 85.5445 27.8456 81.4507 24.6109C88.4928 11.4197 94.6925 11.4534 96.0234 11.6218C97.5902 20.635 91.5084 36.387 91.5084 36.387Z" fill="#BFBFBF"/>
<path d="M96.2761 11.6721C96.1919 11.6553 96.1077 11.6384 96.0234 11.6216L96.2761 11.6721Z" fill="#BFBFBF"/>
<path d="M33.3688 21.275C33.3688 21.275 31.1787 22.3364 28.2473 24.5939C28.2473 24.5939 28.2305 24.6107 28.2136 24.6107C20.9188 11.4026 14.5001 11.4532 13.1187 11.6217C13.3882 10.1054 13.8936 8.7745 14.6854 7.76367C14.7023 7.76367 21.8454 8.47125 33.3688 21.275Z" fill="#717171"/>
<path d="M28.2306 24.6109C25.0296 27.0706 20.9526 30.9286 17.8191 36.387C17.8191 36.387 11.5183 20.635 13.1356 11.6218C14.5002 11.4534 20.9358 11.4197 28.2306 24.6109Z" fill="#BFBFBF"/>
<path d="M13.1358 11.6216C13.0515 11.6384 12.9504 11.6553 12.8662 11.6721L13.1358 11.6216Z" fill="#BFBFBF"/>
<path d="M74.4591 45.1305C74.4591 45.1305 69.068 45.4675 69.7419 41.2557C70.4158 37.0439 74.6275 36.5385 75.8068 36.707C76.9861 36.8755 81.7033 38.5602 80.861 42.0981C80.0186 45.6359 78.8393 44.9621 78.1654 45.1305C77.4915 45.299 74.4591 45.1305 74.4591 45.1305Z" fill="white"/>
<path d="M34.6998 45.1305C34.6998 45.1305 29.3087 45.4675 29.9826 41.2557C30.6565 37.0439 34.8683 36.5385 36.0476 36.707C37.2269 36.8755 41.944 38.5602 41.1017 42.0981C40.2593 45.6359 39.08 44.9621 38.4061 45.1305C37.7323 45.299 34.6998 45.1305 34.6998 45.1305Z" fill="white"/>
</g>
</svg>
