<svg width="82" height="82" viewBox="0 0 82 82" fill="none" xmlns="http://www.w3.org/2000/svg">
<path fill-rule="evenodd" clip-rule="evenodd" d="M12.9692 0H69.1238C71.2698 0 73.0582 0.358077 75.2042 1.43231C77.7079 2.50655 79.1386 4.29694 79.854 5.72926C79.854 5.72926 79.854 6.08734 80.2116 6.08734C81.2847 7.87773 82 10.0262 82 12.5328C82 14.6812 81.6423 16.8297 80.2116 18.9782L44.8021 79.8515C44.0867 81.2838 42.656 82 40.8677 82C39.437 82 38.0063 81.2838 36.9333 79.8515L2.23908 18.9782C1.52373 17.5458 0.0930413 15.7555 0.0930413 12.8908C-0.264631 10.3843 0.450712 8.23581 1.52373 6.08734C2.59675 3.93887 4.38511 2.14847 6.88881 1.43231C9.03485 -1.3873e-06 11.5386 0 12.9692 0ZM36.5756 8.59388H12.9692C11.5386 8.59388 10.8232 8.59389 10.4655 8.95196C9.75019 9.31004 9.39252 9.66812 9.03485 10.3843C8.67718 10.7424 8.67718 11.4585 8.67718 12.1747C8.67718 12.5327 9.03485 12.8908 9.75019 14.3231L36.5756 60.8734V8.59388ZM45.1598 8.59388V61.2314L72.3428 14.3231C72.7005 13.607 72.7005 12.8908 72.7005 12.1747C72.7005 11.4585 72.7005 10.7424 72.3428 10.3843C71.9852 10.0262 71.9852 9.66812 71.6275 9.66812L71.2698 9.31004C70.5545 8.95197 69.8391 8.95196 68.7661 8.95196H45.1598V8.59388Z" fill="white" fill-opacity="0.15"/>
</svg>
