<svg width="160" height="161" viewBox="0 0 160 161" fill="none" xmlns="http://www.w3.org/2000/svg">
<path d="M68.9421 122.928C68.0555 122.928 67.1564 122.928 66.2324 122.815C65.9012 122.786 65.5955 122.626 65.3824 122.37C65.1693 122.115 65.0663 121.786 65.0961 121.454C65.1259 121.123 65.2861 120.817 65.5413 120.604C65.7966 120.391 66.126 120.288 66.4572 120.318C70.9191 120.626 75.3988 120.079 79.6557 118.707C79.9644 118.605 80.3006 118.628 80.593 118.77C80.8853 118.912 81.1107 119.163 81.2213 119.468C81.3319 119.774 81.3189 120.111 81.1851 120.407C81.0513 120.703 80.8072 120.936 80.5048 121.055C76.7706 122.273 72.87 122.905 68.9421 122.928Z" fill="white"/>
<path d="M80.0802 130.62C78.7229 130.654 77.3659 130.536 76.0345 130.27C75.8699 130.236 75.7139 130.169 75.5758 130.073C75.4377 129.978 75.3204 129.855 75.2308 129.713C75.1412 129.571 75.0812 129.412 75.0545 129.246C75.0277 129.08 75.0348 128.91 75.0751 128.747C75.1155 128.584 75.1884 128.431 75.2894 128.297C75.3904 128.162 75.5175 128.05 75.663 127.966C75.8086 127.882 75.9696 127.828 76.1364 127.808C76.3032 127.787 76.4724 127.801 76.6339 127.848C77.7698 128.06 78.925 128.152 80.0802 128.122C81.2354 128.149 82.3902 128.056 83.5266 127.848C83.688 127.801 83.8572 127.787 84.0241 127.808C84.1909 127.828 84.3519 127.882 84.4974 127.966C84.643 128.05 84.7701 128.162 84.8711 128.297C84.9721 128.431 85.045 128.584 85.0854 128.747C85.1257 128.91 85.1327 129.08 85.106 129.246C85.0792 129.412 85.0193 129.571 84.9297 129.713C84.8401 129.855 84.7228 129.978 84.5847 130.073C84.4465 130.169 84.2905 130.236 84.126 130.27C82.7945 130.536 81.4376 130.654 80.0802 130.62Z" fill="white"/>
<path d="M80.0802 121.13C79.7491 121.13 79.4314 120.998 79.1973 120.764C78.9631 120.53 78.8315 120.212 78.8315 119.881V112.826C78.8315 112.495 78.9631 112.177 79.1973 111.943C79.4314 111.709 79.7491 111.577 80.0802 111.577C80.4114 111.577 80.729 111.709 80.9632 111.943C81.1973 112.177 81.3289 112.495 81.3289 112.826V119.881C81.3289 120.212 81.1973 120.53 80.9632 120.764C80.729 120.998 80.4114 121.13 80.0802 121.13Z" fill="white"/>
<path d="M79.9803 101.738C76.5464 101.738 73.0252 102.824 72.9377 105.409C72.7754 110.029 76.9085 114.699 79.9803 114.587C83.1395 114.699 87.385 110.029 87.2226 105.409C87.1228 102.837 83.5141 101.738 79.9803 101.738Z" fill="white"/>
<path d="M91.2185 122.928C87.2905 122.905 83.3899 122.273 79.6557 121.055C79.4971 121.002 79.3507 120.919 79.225 120.809C79.0994 120.699 78.997 120.565 78.924 120.415C78.851 120.265 78.8089 120.101 78.8001 119.935C78.7913 119.768 78.816 119.601 78.8728 119.444C78.9296 119.287 79.0173 119.143 79.1307 119.021C79.2441 118.898 79.3809 118.8 79.5331 118.731C79.6852 118.662 79.8496 118.625 80.0165 118.621C80.1834 118.617 80.3494 118.646 80.5048 118.707C84.7641 120.068 89.2417 120.615 93.7033 120.318C94.0345 120.288 94.364 120.391 94.6192 120.604C94.8745 120.817 95.0346 121.123 95.0644 121.454C95.0942 121.785 94.9912 122.115 94.7781 122.37C94.565 122.625 94.2593 122.786 93.9281 122.815C93.0041 122.89 92.105 122.928 91.2185 122.928Z" fill="white"/>
<path d="M93.0166 121.579L88.2841 121.654L87.9719 131.019L93.0166 121.579Z" fill="white"/>
<path d="M67.144 121.579L72.1887 131.019L71.8765 121.654L67.144 121.579Z" fill="white"/>
<path d="M124.546 72.0566C124.546 72.0566 133.761 43.9238 131.676 33.797C130.539 28.3028 127.642 25.9803 121.424 28.3902C111.185 32.361 101.632 47.3827 101.632 47.3827C94.5702 45.6762 87.3442 44.7384 80.0803 44.5856V44.5856C72.8164 44.7384 65.5903 45.6762 58.528 47.3827C58.528 47.3827 48.9756 32.3985 38.7365 28.3902C32.4931 25.9803 29.6211 28.3028 28.4848 33.797C26.387 43.9238 35.6148 72.0566 35.6148 72.0566C33.2674 77.5478 31.2207 83.1626 29.4837 88.8763C28.1601 93.871 28.3724 102.212 28.3724 102.212V103.136C28.2923 109.262 30.3153 115.229 34.1039 120.043C43.7562 132.805 66.7444 142.794 80.0803 142.794C93.4162 142.794 116.404 132.805 126.044 120.043C129.832 115.229 131.855 109.262 131.776 103.136V102.212C131.776 102.212 131.988 93.8336 130.664 88.8763C128.931 83.1629 126.889 77.548 124.546 72.0566V72.0566ZM98.8105 74.017C99.1976 71.8318 101.121 68.8724 103.955 68.8724C106.452 68.8724 109.524 72.0815 109.587 74.2168C109.649 76.352 107.089 77.3759 104.105 77.2511C101.121 77.1262 98.4484 76.2147 98.8105 74.017ZM100.209 85.1303C104.917 82.3956 110.71 80.198 112.246 81.5965C113.782 82.995 113.707 89.0886 105.616 92.2977C98.4733 95.1072 92.8293 93.9959 92.1675 92.6848C91.0562 90.4247 97.5618 86.7036 100.234 85.1303H100.209ZM56.1556 68.8974C58.9901 68.8974 60.913 71.8568 61.3001 74.042C61.6872 76.2272 58.9776 77.1387 56.0057 77.2761C53.0339 77.4134 50.4616 76.3645 50.524 74.2418C50.5864 72.119 53.6332 68.8724 56.1805 68.8724L56.1556 68.8974ZM47.8893 81.609C49.4252 80.2105 55.219 82.4081 59.9266 85.1427C62.6237 86.7161 69.1044 90.4371 67.9681 92.6973C67.3063 93.9459 61.7247 95.1197 54.5198 92.3102C46.4283 89.1011 46.3659 82.9825 47.8893 81.609ZM124.059 118.557C115.043 130.582 92.5671 140.297 80.0803 140.297C67.5935 140.297 45.1797 130.595 36.1142 118.557C32.7747 114.373 30.9366 109.189 30.8948 103.835C35.8038 103.625 40.7187 104.083 45.5043 105.197C50.2618 106.52 56.8923 112.976 56.9672 113.038L58.4531 114.499L59.04 112.501C59.04 112.414 61.6123 103.761 66.095 100.015C69.7537 96.9303 74.0741 95.5443 80.0803 95.5443C86.0864 95.5443 90.4068 96.9303 94.0655 100.015C98.5482 103.761 101.096 112.414 101.121 112.501L101.707 114.499L103.193 113.038C103.268 113.038 109.899 106.52 114.656 105.197C119.443 104.089 124.357 103.631 129.266 103.835C129.221 109.185 127.383 114.364 124.046 118.545L124.059 118.557Z" fill="white"/>
</svg>
