<svg width="134" height="124" viewBox="0 0 134 124" fill="none" xmlns="http://www.w3.org/2000/svg">
<path fill-rule="evenodd" clip-rule="evenodd" d="M80.2142 66.5103V66.4966C79.458 66.5516 75.5599 66.7853 66.863 66.7853C59.9192 66.7853 55.0311 66.5791 53.3124 66.4966V66.5172C26.5824 65.3416 6.63111 60.6872 6.63111 55.1184C6.63111 49.5566 26.5824 44.9022 53.3124 43.7059V61.8834C55.0586 62.0072 60.0636 62.3028 66.9799 62.3028C75.278 62.3028 79.4374 61.9591 80.2142 61.8903V43.7197C106.889 44.9091 126.792 49.5634 126.792 55.1184C126.792 60.6872 106.889 65.3278 80.2142 66.5103ZM80.2142 41.8291V25.5628H117.435V0.757812H16.0911V25.5628H53.3124V41.8222C23.0624 43.2109 0.312988 49.2059 0.312988 56.3834C0.312988 63.5609 23.0624 69.5491 53.3124 70.9447V123.071H80.2142V70.9309C110.416 69.5422 133.11 63.5541 133.11 56.3834C133.11 49.2128 110.416 43.2247 80.2142 41.8291Z" fill="white"/>
</svg>
