<svg width="96" height="189" fill="none" xmlns="http://www.w3.org/2000/svg">
  <path d="M34.38 185.01c18.72 0 33.9-8.76 33.9-19.57 0-10.8-15.18-19.57-33.9-19.57S.48 154.63.48 165.44c0 10.8 15.18 19.57 33.9 19.57Z" fill="#EBEBEB"/>
  <path d="M21.7 170.73h6.33v-10.85H21.7v10.85Z" fill="#FFA8A7"/>
  <path d="M28.03 167.6v-.9c.62.26.63 2.93 1.15 7.7.23 2.69.6 5.36 1.14 8.01.56 2.81 1.44 8.1-4.1 5.96-2.86-1.1-4.5-2.63-4.8-5.1-.18-1.68-.26-4.6-.26-6.55-.1-1.33-.33-2.65-.67-3.93-.15-1.26-.07-2.54.23-3.77.28-1.11.6-2.35 1-2.24v.7c.9.7 2 1.08 3.15 1.06.93-.04 3.18-.23 3.16-.94Z" fill="#263238"/>
  <path d="m39.24 162.62 6.32.22.33-11.47-6.65-.23v11.48Z" fill="#FFA8A7"/>
  <path d="M45.64 160.89c.32 0 .59.47 1.3 1.31a13.93 13.93 0 0 0 3.73 2.62c2.38 1.2 7 3.02 9.08 3.94 1.31.58 1.25 2.15-.1 3.06-1.36.9-4.6 1.53-8.52.66-2.12-.48-4.89-2.44-6.65-2.33-1.76.1-5.03.08-6.33-.81-1.3-.9-.78-2.81-.41-4.44.37-1.62.9-4.58 1.5-4.46v.62c.76 1.15 4.68 1.63 6.36.77l.04-.94Z" fill="#263238"/>
  <path d="M19.01 78.92c0 6.05 1.06 41.23 1.06 41.23-.14 1.74-1.82 4.84-1.95 11.1-.19 9.1 3.32 34.11 3.32 34.11a8.35 8.35 0 0 0 7.05.15s2.88-33.84 3.94-42.84c1-7.87 2.62-29.19 2.62-29.19l3.14 25.58c-.74 3.3-1 6.7-.79 10.07.3 4.16 1.39 28.52 1.39 28.52a8.08 8.08 0 0 0 7.38 1s4.48-35.76 4.56-39.59c.07-4.35-1.66-48.8-1.66-48.8l-30.06 8.66Z" fill="#5E4F1D"/>
  <path opacity=".3" d="M19.01 78.92c0 6.05 1.06 41.23 1.06 41.23-.14 1.74-1.82 4.84-1.95 11.1-.19 9.1 3.32 34.11 3.32 34.11a8.35 8.35 0 0 0 7.05.15s2.88-33.84 3.94-42.84c1-7.87 2.62-29.19 2.62-29.19l3.14 25.58c-.74 3.3-1 6.7-.79 10.07.3 4.16 1.39 28.52 1.39 28.52a8.08 8.08 0 0 0 7.38 1s4.48-35.76 4.56-39.59c.07-4.35-1.66-48.8-1.66-48.8l-30.06 8.66Z" fill="#000"/>
  <path opacity=".2" d="M35.17 93.48a23.44 23.44 0 0 0 8.81-5.06 18.28 18.28 0 0 1-6.75 6.15l.67 22.4-2.73-23.49Z" fill="#000"/>
  <path d="M52.52 40.68c3.33 5.65 6.56 10.49 8.8 12.9a92.93 92.93 0 0 0 18.37 5.58c.7.08 1.4-.09 1.98-.48a16.7 16.7 0 0 1 4.37-1.74c1.3-.43 1.82-1.05 2.06-.81a1.43 1.43 0 0 1-.14 2.02c-.6.58-1.28 1.1-2.02 1.52 1.75.43 3.58.45 5.34.08 3.4-.9 5.01.74 2.7 4.44-.82 1.32-4.06 3.45-10.66 2.89a58.4 58.4 0 0 1-6.99-.84c-6.32-1.31-13.35-2.62-17.67-3.94a11.28 11.28 0 0 1-4.2-2.9c-7.25-8.28-9.66-14.19-12.85-19.55l.28-8.76c5.08-.16 7.84 4.86 10.63 9.59Z" fill="#FFA8A7"/>
  <path d="M40.94 30.93a8.29 8.29 0 0 1 7.87 3.37c3.54 4.53 9.79 15.39 9.79 15.39s-2.05 5.45-7.57 6.34l-8.9-11.97s-4.17-8.29-1.19-13.13Z" fill="#7EC972"/>
  <path opacity=".3" d="M40.94 30.93a8.29 8.29 0 0 1 7.87 3.37c3.54 4.53 9.79 15.39 9.79 15.39s-2.05 5.45-7.57 6.34l-8.9-11.97s-4.17-8.29-1.19-13.13Z" fill="#000"/>
  <path d="M21.95 34.18c-1.4.62-1.31 2.01-1.84 3.43-.52 1.41-2 3.31-2 5.73L19.2 55.5l-.17 25.17a28.25 28.25 0 0 0 30.33-1.96s-.54-31.92-.54-36.85v-.67c-.26-5.17-3.1-9.18-7.87-10.25-1.1-.04-2.22.02-3.32.16-3.51.4-9.45 1.67-9.45 1.67l-6.27 1.41h.05Z" fill="#F5F5F5"/>
  <path d="M30.72 11.35a8.7 8.7 0 1 0 17.42.02 8.7 8.7 0 0 0-17.42-.02Zm-6.33 6.19c.52 2.61 1.19 5.2 2 7.74.37.67.99 1.17 1.72 1.4l-.1-4.66-3.62-4.48Zm1.77-9.5a3.3 3.3 0 0 0-2.7.96c-1.17 1.18-.52 4.9.93 8.54l2.62.3-.85-9.8Z" fill="#263238"/>
  <path d="M27.84 17.85c-.53.32-1.31-.7-1.94-1.4a2.32 2.32 0 0 0-3.94.63c-1.09 2.3.95 5.34 2.62 5.86 2.92.92 3.35-.94 3.35-.94l.22 10.77c3.6 4.64 13.66 4.29 9.47-.55v-3.2c1.3.2 2.62.28 3.94.2 2.15-.34 3.49-2.02 4.14-4.34 1.04-3.72 1.43-6.73.55-14.04-.97-8.02-10.3-8.1-15.33-4.94-5.04 3.16-3.08 11.95-3.08 11.95Z" fill="#FFA8A7"/>
  <path d="M27.84 18.72c-.26 0-1.31-1.7-1.94-2.3-.93-.82.26-8.4.26-8.4a3.6 3.6 0 0 1 .88-3.83c1.3-1.38 2.62-2.26 6.27-2.46 2.12-.1 5.52.23 7.42.36 3.6.23 4.92-.65 6.97-1.22C49.28.42 49.45 6.1 45.48 8a12.45 12.45 0 0 1-4.7 1.31 49.7 49.7 0 0 1-9.45-.18c-.99-.13-1.2.83-1.73 3.45-.48 2.2-.86 6.14-1.76 6.14Z" fill="#263238"/>
  <path d="m26.16 8.63-3.21-1.72a1.78 1.78 0 0 1 2.43-.8 1.91 1.91 0 0 1 .78 2.52Z" fill="#263238"/>
  <path d="M37.67 29.01a36.13 36.13 0 0 1-6.44-1.84 5.47 5.47 0 0 1-2.3-2.29c.25.98.7 1.9 1.3 2.7 1.23 1.55 7.44 2.7 7.44 2.7v-1.27Z" fill="#F28F8F"/>
  <path d="M37.45 16.66a.96.96 0 1 1-.96-1.01 1 1 0 0 1 .96 1Zm-1.02-3.62-2.05 1.13a1.22 1.22 0 0 1 .47-1.63 1.14 1.14 0 0 1 1.58.5Z" fill="#263238"/>
  <path d="m37.24 23.27 2.2.81a1.13 1.13 0 0 1-1.49.72 1.22 1.22 0 0 1-.7-1.53Z" fill="#F28F8F"/>
  <path d="m45.7 13.84-1.86-1.44a1.13 1.13 0 0 1 1.63-.25 1.31 1.31 0 0 1 .23 1.69Zm-.57 2.54a.96.96 0 0 1-.96.99.98.98 0 0 1-.68-1.68.96.96 0 0 1 1.64.68v.01Z" fill="#263238"/>
  <path d="m40.26 15.48.31 5.74 3-1.02-3.31-4.72Z" fill="#F28F8F"/>
  <path d="M3.48 65.19c1.5-5.86 7.45-18.87 9.26-23.6 2.07-5.37 4.98-7.4 8.83-7.45 1.41 1.83 3.04 9.74-1.31 16.54-1.85 3.94-7.4 14.81-7.4 14.81.14 1.05 4.01 15.32 5.66 18.9a2.9 2.9 0 0 0 1.47 1.4c1.6.92 3.08 2.02 4.41 3.3 1.06.83 1.89.96 1.81 1.31a1.53 1.53 0 0 1-1.85.98c-.83-.2-1.63-.5-2.4-.87a14.52 14.52 0 0 0 2.86 3.58c2.62 2.36 2.47 4.34-1.97 5.05-2.78.43-5.24-.95-8.26-6.77a75.22 75.22 0 0 1-2.86-6.35c-2.06-5.25-4.28-8.4-5.7-11.88-2.26-5.5-3.13-6.7-2.55-8.95Z" fill="#FFA8A7"/>
  <path d="M22.64 33.92c-1.86-.12-3.71.28-5.36 1.14-2.38 1.4-3.75 4.21-5.7 8.6-1.94 4.37-5.07 11.02-5.07 11.02a10.3 10.3 0 0 0 9.63 5.58s5.6-11.52 6.56-13.31c.95-1.8 1.6-8.94-.06-13.03Z" fill="#7EC972"/>
  <path opacity=".3" d="M22.64 33.92c-1.86-.12-3.71.28-5.36 1.14-2.38 1.4-3.75 4.21-5.7 8.6-1.94 4.37-5.07 11.02-5.07 11.02a10.3 10.3 0 0 0 9.63 5.58s5.6-11.52 6.56-13.31c.95-1.8 1.6-8.94-.06-13.03Z" fill="#000"/>
</svg>
