<svg width="90" height="186" fill="none" xmlns="http://www.w3.org/2000/svg">
  <path d="M34.5 185.98c18.92 0 34.27-8.86 34.27-19.8 0-10.92-15.35-19.78-34.27-19.78-18.93 0-34.28 8.86-34.28 19.79s15.35 19.8 34.28 19.8Z" fill="#EBEBEB"/>
  <path d="M24.33 30.6c-3.42-.76-8.34 1.08-10.5 6.47-2.14 5.39-7.02 18.98-7.18 22.66-.16 3.69 11.93 15.61 11.5 15.42-.13-.07 3.87-6.97 3.87-6.97l-6-8.98 3.57-9.9 4.74-18.7Z" fill="#FFBDA7"/>
  <path d="M15.32 156.26c-.46.18-.54 1.7-.58 3.45 0 1.31-.29 3.63 1.31 4.08 1.6.44 3.83.17 4.8-1.1 1.22-1.56 2.05-2.94 3.8-4.87 1.5-1.67 3.14-3.23 3.73-5.55.54-2.08 0-2.99-1.37-3.58-1.97-.81-4.8.72-6.56 2.41-1.03.94-4.67 4.97-5.13 5.16Z" fill="#263238"/>
  <path d="M20.7 152.2c.64-.93 2.49-2.26 3.56-1.95 1.47.43 1.21 2.34.1 3.53-1.12 1.2-3.85 3.8-3.85 3.8l-1.3-3.32 1.49-2.05Z" fill="#FFBDA7"/>
  <path d="M31.68 167.67c-.69 0-.99 2.22-1.1 3.94-.1 1.3-.61 3.47-.14 4.44.47.97 2.25 1.58 5 1.52 2.3.26 4.5 1 6.48 2.18a10 10 0 0 0 6.18.77c2.44-.32 4.96-1.77 5.34-2.79.38-1.02-.14-1.5-5.93-3.93 0 0-6.12-2.63-8.94-5.71l-6.9-.42Z" fill="#263238"/>
  <path d="m47.5 173.84 2.12.89c.16.53 0 1.41-2.62 1.83-3.94.66-14.04-6.42-14.04-6.42s.3-1.1.62-2.04h4.98c2.82 3.07 8.9 5.72 8.95 5.74Z" fill="#FFBDA7"/>
  <path d="M14.5 125.6a50.1 50.1 0 0 1 2.37-11.16s-1.32-9.48-2.15-18.6c-1.47-16.33-.53-21.7 2.62-29.06 0 0 27.4-3.14 28.38 8.25 1.24 14.19.2 41.66-.1 46.68-.3 5.02-2.63 7.95-4.28 18.45-1.3 8-3.5 25.99-2.74 27.97.53 1.38-3.02 3.71-5.25 2.3-.86-.56-1.6-.95-1.78-1.71.66-6.83-1.08-23.3-1.31-29.05-.28-7.07 3.13-14.8 3.13-14.8s-2.79-23.5-3.33-27.18c0 0-.76 7.36-1.07 12.39-.32 5.02-3.06 9.86-4.63 19.16-1.32 7.45-3.48 23.32-3.85 28.36-2.62 2.62-5 1.06-5.24-.19-.02-6.49-1.56-25-.78-31.8Z" fill="#FFBDA7"/>
  <path d="M13.47 125.51c.26-8.04 3.4-11.07 3.4-11.07s-1.32-9.48-2.15-18.6c-1.47-16.33-1.42-21.26 2.62-29.06 0 0 27.4-3.14 28.38 8.25 1.24 14.19.2 41.66-.1 46.68-.3 5.02-1.48 8.67-3.12 19.18-.78 4.98-2.27 12.4-3.26 19.54-1.3 2.2-6.07 2.26-8.1.52-.6-8.46-1.66-18.94-1.25-23.19.36-4.52 1.3-8.98 2.8-13.27 0 0-2.26-20.6-2.8-24.27 0 0-.51 4.83-.82 9.86-.32 5.02-2.14 10.08-3.7 19.38-.94 5.47-3.11 15.23-3.94 22.16-.86 1.5-5.63 1.1-6.69-.46a241.4 241.4 0 0 1-1.27-25.65Z" fill="#573328"/>
  <path opacity=".15" d="M29.81 98.66v-.48l-2.07-11.8a16.02 16.02 0 0 1-9.18-4.83 9.84 9.84 0 0 0 7.3 6.3l2.43 10.6.26 13.12c.15-.85.28-1.68.36-2.5 0-.35 0-.71.09-1.08v-.93c0-.3 0-.63.07-.93 0-.62.09-1.22.13-1.8.14-1.73.27-3.28.38-4.4 0-.36 0-.69.09-.95s.13-.21.14-.32Z" fill="#000"/>
  <path d="m36.9 27.78-1.15 10.63-9.33-.73.91-11.79 9.58 1.9Z" fill="#FFBDA7"/>
  <path d="M16.08 68.5a61.92 61.92 0 0 1 4.64-9.19c-3.81-12.17-4.35-15.85-4.18-21.4.1-2.98 4.3-7.96 7.87-7.33.93.15 1.61.2 2.5.36.1 2.44 4.87 3.15 9.43 1.6 1.39.26 2.75.6 4.1 1 1.66.63 6.35 9.44 6.87 15 .32 2.5-.23 5.06-1.56 7.22.25 4.75.1 11.21 0 19.84 0 0-3.83 6.16-17.52 4.62-12.18-1.31-13.74-6.56-13.74-6.56.42-1.75.95-3.48 1.59-5.16Z" fill="#455A64"/>
  <path d="M77.95 55.76c-1.57.54-20.7 10.32-23.33 8.53-2.64-1.8-15.35-18.21-15.35-18.21a11.6 11.6 0 0 1 1.2-12.53 11.8 11.8 0 0 1 6.55 5.14c2.05 3.86 10.91 16.68 10.91 16.68 3.34-.82 12.68-3.77 14.84-4.74.6-.2 1.17-.5 1.7-.84 1.1-.9 1.17-3.34 1.32-4.66 0-.61.09-1.23.08-1.84-.02-.62 0-2.63 1.3-1.9.25.15.46.35.61.6.18.3.32.63.4.97.16.81 0 1.68.16 2.5a.8.8 0 0 0 .14.33c.1.11.26.18.41.18 1.97.12 4.11-2.46 5.15-3.84.4-.66.96-1.2 1.65-1.56a2.7 2.7 0 0 1 2.91 1.57c.73 1.36.92 2.94.55 4.44a8.6 8.6 0 0 1-3.08 5.24 26.66 26.66 0 0 1-8.12 3.94Z" fill="#FFBDA7"/>
  <path d="M43.78 3.49C41.07.64 34.17-1.13 28.62 1.81l.94.22c-1.03.18-2.06.41-3.07.7-3.54 1-7.33 4.88-7.68 11.67-.28 5.25 13.29 8.88 13 12.48l8.01-9.66c7-2.87 6.8-10.8 3.96-13.73Z" fill="#263238"/>
  <path d="M44 16.21s2.04 3.15 1.76 3.48c-.49.31-1.03.54-1.6.67L44 16.2Z" fill="#F28F8F"/>
  <path d="M37.81 6.2c2 1.08 5.45 3.05 6.23 10.5.8 7.45-.91 10.23-1.96 11.21-.71.66-4.32.86-6.2.25-2.34-.77-7.42-3.37-9.75-7.32-2.76-4.65-3.26-10.82 0-13.2A12.17 12.17 0 0 1 37.8 6.2Z" fill="#FFBDA7"/>
  <path d="M38.68 14.97c6.05-6.73 1.31-11.39 1.31-11.39A20.54 20.54 0 0 0 24.9 2.44c-3.93 1.23-6.21 6.56-6.2 11.8v11.48s5.4 7.39 18.97 3.05v-8.54l-.36.11a3.6 3.6 0 0 1-3.26-.93c-1.83-1.62-2-4.74.35-5.5 2.35-.74 3.53 1.99 3.53 1.99l.85 2.5a1.74 1.74 0 0 0-.08-3.34l-.01-.1Z" fill="#263238"/>
</svg>
