<svg width="88" height="188" fill="none" xmlns="http://www.w3.org/2000/svg">
  <path d="M50.57 187.49c20.1 0 36.4-9.4 36.4-21.01 0-11.6-16.3-21.02-36.4-21.02-20.1 0-36.4 9.41-36.4 21.02 0 11.6 16.3 21 36.4 21Z" fill="#EBEBEB"/>
  <path d="M67.77 32.6c3.42-.77 7.87 1 10.49 6.45 2.5 5.25 9.1 19.02 9.26 22.7.16 3.69-15.38 15.74-14.95 15.52.14 0-3.48-7.36-3.48-7.36l8.57-8.54-5.16-10.04-4.73-18.73Z" fill="#9A4A4D"/>
  <path d="M65.97 31.77c2.87-.36 8.58.17 10.68 3.57a115.6 115.6 0 0 1 9 18.6s-3.09 4.01-10.25 4.52l-3.33-6.32-6.1-20.37Z" fill="#E0E0E0"/>
  <path d="M71.61 156.26c.46.18.55 1.06.6 2.78 0 1.31.24 3.6-1.32 4.03a4.75 4.75 0 0 1-4.72-1.13c-1.2-1.56-2-2.93-3.7-4.84-1.48-1.67-3.08-3.23-3.65-5.52-.5-2.08 0-2.96 1.4-3.52 1.96-.79 4.94 1.98 6.43 2.43 1.31.38 4.51 5.56 4.96 5.77Z" fill="#263238"/>
  <path d="M71.7 154.63v2.13a5.24 5.24 0 0 1-5.36 0c-.1-.21-.49-3.05-.49-3.05l5.85.92Z" fill="#9A4A4D"/>
  <path d="M54.18 168.06s.56 1.87.85 3.48c.24 1.31.55 3.45.08 4.4-.47.94-2.23 1.53-4.95 1.45-2.26.23-4.45.94-6.42 2.09a16.81 16.81 0 0 1-8.04 1.08c-2.42-.34-4.88-1.8-5.25-2.8-.37-1.01.17-2.04 5.92-4.33 0 0 7.97-2.4 10.8-5.38l7 .01Z" fill="#263238"/>
  <path d="M54.22 165.78v2.47c0 .9-1.1 2.21-3.85 2.06-1.92-.12-3.26-.67-3.16-2.26v-2.3l7 .03Z" fill="#9A4A4D"/>
  <path d="M73.67 126.54a57.32 57.32 0 0 0-2.26-11.1s.97-9.51 1.54-18.53c.61-9.76.47-22.03.72-24.47 0 0-30.23-6.97-31.06 4.3-.92 12.66.07 40.58.25 44.12.26 4.95.27 10.12 1.11 18.18a1685 1685 0 0 0 3.24 26.72 7.42 7.42 0 0 0 7 0s2.74-22.51 2.63-28.23A48.3 48.3 0 0 0 54.95 125l3.77-31.41s.36 13.97.63 18.94c.26 4.97.94 7.99 2.17 17.22 1.07 8.01 4.38 24.99 4.38 24.99 3.56 2.02 5.75-.13 5.75-.13s2.83-21.14 2.02-28.07Z" fill="#455A64"/>
  <path d="M69.66 87.03a25.34 25.34 0 0 1-8.39 7.04s-2.04 17.3-2.03 16.95l-.52-17.4a59.7 59.7 0 0 0 10.94-6.6Z" fill="#37474F"/>
  <path d="m52.68 27.9 1.63 10.3 10.2-.55-1.46-11.97-10.37 2.22Z" fill="#9A4A4D"/>
  <path d="M72.65 37.72c-.86-2.8-3.58-6.45-7.14-5.87l-1.64.27c-.42 1.73-5.64 3.22-10.19 2.14-1.31.37-2.62.74-3.76 1.12-3.27 1.07-6.29 3.81-6.79 14.42 0 0-.9 24.61-.74 31.26a35.28 35.28 0 0 0 20.03 2.56c9.78-1.92 11.4-6.1 11.4-6.1s.35-19.3.23-27.02c.06-4.3-.41-8.6-1.4-12.78Z" fill="#F0F0F0"/>
  <path d="M45.81 15.27s-2.43 3.68-2.15 4.05c.27.37 2.06.68 2.06.68l.09-4.73Z" fill="#9A4A4D"/>
  <path d="M59.82 10.07a7.35 7.35 0 1 1-14.7.03 7.35 7.35 0 0 1 14.7-.03Z" fill="#263238"/>
  <path d="M52.57 5.05c-4.92 1.04-6.35 3.2-6.81 11.03-.49 8.17.35 10.74 1.43 11.8.72.75 4.75.89 6.78.33 2.54-.7 8.29-2.74 10.98-6.86 3.16-4.82 3.93-11.38.6-14.07-4.76-3.76-10.98-2.65-12.98-2.23Z" fill="#9A4A4D"/>
  <path d="m69.38 6.2 2.06-1.21a1.7 1.7 0 0 0-3.1.36C67.75 2.4 65.35 1.04 62.6.4c-4.26-.97-8.25 1.57-12.47.62-.69-.16-1.4-.31-2.05-.54-.27-.1-.57-.1-.84 0a.94.94 0 0 0-.4.95 2.54 2.54 0 0 0 1.24 2l-.6.07h-.7c-.46 0-.93-.04-1.39-.1a2.94 2.94 0 0 0-.96 0 1.77 1.77 0 0 0-1.09 1.75c.08.74.34 1.44.76 2.05.16.25.33.5.52.73l.15.17a15.74 15.74 0 0 0 3.37 2.14c.7.25 1.36.57 2 .95a2.75 2.75 0 0 1 1.03 2.5v1.92a1.66 1.66 0 0 0 1.25 2.78v-1.72s.77-3.02 3.32-2.62c2.54.39 2.91 3.64 1.31 5.62s-3.12 1.24-3.12 1.24.08 4.31 2 6.75c2.18.72 4.53.81 6.77.28 2.46-.53 5.34-4.03 6.81-7.28 2.85-6.38 3.24-12.12-.13-14.46Z" fill="#FBD40B"/>
  <path opacity=".8" d="m69.38 6.2 2.06-1.21a1.7 1.7 0 0 0-3.1.36C67.75 2.4 65.35 1.04 62.6.4c-4.26-.97-8.25 1.57-12.47.62-.69-.16-1.4-.31-2.05-.54-.27-.1-.57-.1-.84 0a.94.94 0 0 0-.4.95 2.54 2.54 0 0 0 1.24 2l-.6.07h-.7c-.46 0-.93-.04-1.39-.1a2.94 2.94 0 0 0-.96 0 1.77 1.77 0 0 0-1.09 1.75c.08.74.34 1.44.76 2.05.16.25.33.5.52.73l.15.17a15.74 15.74 0 0 0 3.37 2.14c.7.25 1.36.57 2 .95a2.75 2.75 0 0 1 1.03 2.5v1.92a1.66 1.66 0 0 0 1.25 2.78v-1.72s.77-3.02 3.32-2.62c2.54.39 2.91 3.64 1.31 5.62s-3.12 1.24-3.12 1.24.08 4.31 2 6.75c2.18.72 4.53.81 6.77.28 2.46-.53 5.34-4.03 6.81-7.28 2.85-6.38 3.24-12.12-.13-14.46Z" fill="#000"/>
  <path d="M10.34 52.95c1.51.71 19.15 14.43 21.99 12.9C35.16 64.3 50.3 48.06 50.3 48.06a11.44 11.44 0 0 0-.12-12.72 11.8 11.8 0 0 0-7.11 4.33c-2.5 3.59-13.2 16.4-13.2 16.4l-7.6-4.09a169.6 169.6 0 0 1-6.18-3.49 7.51 7.51 0 0 1-1.59-1.03c-1-1.03-.77-3.45-.72-4.76 0-.62 0-1.24.13-1.85.13-.62.29-2.63-1.07-2.05a1.9 1.9 0 0 0-.67.54c-.22.27-.39.58-.5.92-.28.78-.21 1.66-.47 2.46a.58.58 0 0 1-.18.32.57.57 0 0 1-.43.11c-1.97-.1-3.78-2.9-4.65-4.4A4 4 0 0 0 4.47 37a2.62 2.62 0 0 0-3.1 1.12A6.24 6.24 0 0 0 .3 42.46a8.56 8.56 0 0 0 2.45 5.52 26.5 26.5 0 0 0 7.6 4.97Z" fill="#9A4A4D"/>
  <path d="M51.65 34.83a11.57 11.57 0 0 0-8.58 3.83c-3.87 4.18-9.81 12.43-9.81 12.43a10.98 10.98 0 0 0 7.01 8.53s9.27-8.36 11.23-12.15c1.97-3.8 2.42-10 .15-12.64Z" fill="#E0E0E0"/>
</svg>
