<svg width="396" height="290" fill="none" xmlns="http://www.w3.org/2000/svg">
  <path d="M197.75 289.87c109.22 0 197.76-51.12 197.76-114.17 0-63.06-88.54-114.18-197.76-114.18C88.54 61.52 0 112.64 0 175.7c0 63.05 88.54 114.17 197.75 114.17Z" fill="#F5F5F5"/>
  <path d="M276.66 275.55c-1.1 0-2.17-.28-3.13-.82l-49.55-28.66a2.3 2.3 0 0 1 0-3.97l89.22-51.52a4.6 4.6 0 0 1 4.59 0l44.48 25.68a6.28 6.28 0 0 1 0 10.85l-82.47 47.6c-.96.55-2.04.84-3.14.84Zm-157.82 0c1.1 0 2.18-.28 3.13-.82l49.6-28.64a2.32 2.32 0 0 0 1.14-1.99 2.3 2.3 0 0 0-1.14-1.99l-89.22-51.53a4.6 4.6 0 0 0-4.59 0l-44.48 25.68a6.27 6.27 0 0 0 0 10.85l82.43 47.6a6.3 6.3 0 0 0 3.13.84ZM83.31 163.61a6.18 6.18 0 0 1-3.06-.76L31.48 134.7a2.98 2.98 0 0 1 0-5.43l85.88-49.58a6.55 6.55 0 0 1 6.12 0l48.77 28.16a2.97 2.97 0 0 1 0 5.43l-85.88 49.59c-.94.5-2 .77-3.06.75Zm229.85 0a6.13 6.13 0 0 0 3.05-.76l48.76-28.16a2.98 2.98 0 0 0 0-5.43L279.1 79.68a6.56 6.56 0 0 0-6.13 0l-48.78 28.16a2.98 2.98 0 0 0 0 5.43l85.9 49.59c.94.5 1.99.77 3.06.75Z" fill="#EBEBEB"/>
  <path d="M27.16 216.47v1.2a4.97 4.97 0 0 0 2.46 4.3l86.73 50.06a4.85 4.85 0 0 0 4.92 0l47.28-27.2a4.98 4.98 0 0 0 2.46-4.3v-1.64a.62.62 0 0 1-.31.55l-51.92 29.98-91.62-52.95Z" fill="#373737"/>
  <path opacity=".3" d="M27.16 216.47v1.2a4.97 4.97 0 0 0 2.46 4.3l86.73 50.06a4.85 4.85 0 0 0 4.92 0l47.28-27.2a4.98 4.98 0 0 0 2.46-4.3v-1.64a.62.62 0 0 1-.31.55l-51.92 29.98-91.62-52.95Z" fill="#000"/>
  <path d="m27.16 216.46 51.42-29.68a2.93 2.93 0 0 1 2.95 0l89.22 51.5a.67.67 0 0 1 .33.58.65.65 0 0 1-.33.57l-51.9 29.97-91.7-52.94Z" fill="#373737"/>
  <path opacity=".2" d="m27.16 216.46 51.42-29.68a2.93 2.93 0 0 1 2.95 0l89.22 51.5a.67.67 0 0 1 .33.58.65.65 0 0 1-.33.57l-51.9 29.97-91.7-52.94Z" fill="#000"/>
  <path opacity=".3" d="m119.32 265.03 27.73-16-81.1-46.82-27.88 15.91 81.25 46.91Z" fill="#000"/>
  <path d="m38.07 218.12 1.06.62 26.82-15.3 80.04 46.2 1.06-.6-81.1-46.83-27.88 15.91Z" fill="#373737"/>
  <path opacity=".6" d="m38.07 218.12 1.06.62 26.82-15.3 80.04 46.2 1.06-.6-81.1-46.83-27.88 15.91Zm94.88 2.41-.52.3-13.59 7.84-24.18-13.96-.5-.28 14.11-8.14 24.68 14.24Z" fill="#000"/>
  <path d="m132.43 220.83-13.59 7.84-24.18-13.96 13.61-7.84 24.16 13.96Z" fill="#373737"/>
  <path opacity=".5" d="m132.43 220.83-13.59 7.84-24.18-13.96 13.61-7.84 24.16 13.96Z" fill="#000"/>
  <path d="M118.84 269.4v3.27c-.86 0-1.7-.23-2.45-.66l-86.75-50.04a4.97 4.97 0 0 1-2.46-4.3v-1.21l91.66 52.93Z" fill="#373737"/>
  <path opacity=".6" d="M118.84 269.4v3.27c-.86 0-1.7-.23-2.45-.66l-86.75-50.04a4.97 4.97 0 0 1-2.46-4.3v-1.21l91.66 52.93Z" fill="#000"/>
  <path d="M117.43 270.13a5.88 5.88 0 0 1-5.06-.4l-86.33-49.85a5.87 5.87 0 0 1-2.86-4.1l-9.45-56.37a5.88 5.88 0 0 1 1.66-5.14l89.74 51.81a4.38 4.38 0 0 1 2.12 3.04l10.18 61.01Z" fill="#373737"/>
  <path d="m118.84 269.4-.59.34c-.26.14-.53.28-.82.4l-10.2-61.02a4.38 4.38 0 0 0-2.1-3.04L15.4 154.27a5.5 5.5 0 0 1 1.22-.92l89.92 51.92a4.35 4.35 0 0 1 2.1 3.03l10.21 61.1Z" fill="#373737"/>
  <path opacity=".1" d="m118.84 269.4-.59.34c-.26.14-.53.28-.82.4l-10.2-61.02a4.38 4.38 0 0 0-2.1-3.04L15.4 154.27a5.5 5.5 0 0 1 1.22-.92l89.92 51.92a4.35 4.35 0 0 1 2.1 3.03l10.21 61.1Z" fill="#000"/>
  <path opacity=".25" d="m106.4 207.23 1.39-.82c.42.55.7 1.2.82 1.88l10.23 61.1-.59.33c-.26.15-.53.28-.82.4l-10.2-61.01a4.43 4.43 0 0 0-.84-1.88Z" fill="#000"/>
  <path d="M368.34 216.47v1.2a4.96 4.96 0 0 1-2.45 4.3l-86.75 50.06a4.98 4.98 0 0 1-4.92 0l-47.28-27.2a4.98 4.98 0 0 1-2.46-4.3v-1.64a.65.65 0 0 0 .32.57l51.92 29.97 91.62-52.96Z" fill="#37474F"/>
  <path d="m368.35 216.46-51.42-29.68a2.93 2.93 0 0 0-2.95 0l-89.18 51.5a.67.67 0 0 0-.33.58.65.65 0 0 0 .33.57l51.9 29.97 91.65-52.94Z" fill="#455A64"/>
  <path d="m368.35 216.46-51.42-29.68a2.93 2.93 0 0 0-2.95 0l-89.18 51.5a.67.67 0 0 0-.33.58.65.65 0 0 0 .33.57l51.9 29.97 91.65-52.94Z" fill="#fff" opacity=".2"/>
  <path d="m276.19 265.03-27.73-16 81.1-46.82 27.87 15.91-81.24 46.91Z" fill="#000" opacity=".3"/>
  <path d="m357.43 218.12-1.05.62-26.82-15.3-80.04 46.2-1.06-.6 81.1-46.83 27.87 15.91Z" fill="#000"/>
  <path d="m262.56 220.53.51.3 13.6 7.84 24.17-13.96.5-.28-14.1-8.14-24.68 14.24Z" fill="#fff"/>
  <path d="m263.07 220.83 13.6 7.84 24.17-13.96-13.6-7.84-24.17 13.96Z" fill="#37474F"/>
  <path d="m263.07 220.83 13.6 7.84 24.17-13.96-13.6-7.84-24.17 13.96Z" fill="#fff" opacity=".5"/>
  <path d="M276.66 269.4v3.27a4.9 4.9 0 0 0 2.46-.66l86.75-50.04a4.97 4.97 0 0 0 2.46-4.3v-1.21l-91.67 52.93Z" fill="#7F97A3"/>
  <path d="M276.66 269.4v3.27a4.9 4.9 0 0 0 2.46-.66l86.75-50.04a4.97 4.97 0 0 0 2.46-4.3v-1.21l-91.67 52.93Z" fill="#fff"/>
  <path d="M278.08 270.13a5.88 5.88 0 0 0 5.06-.4l86.34-49.85a5.88 5.88 0 0 0 2.86-4.1l9.46-56.36a5.86 5.86 0 0 0-1.66-5.14l-89.76 51.8a4.4 4.4 0 0 0-2.12 3.04l-10.18 61.01Z" fill="#455A64"/>
  <path d="M278.08 270.13a5.88 5.88 0 0 0 5.06-.4l86.34-49.85a5.88 5.88 0 0 0 2.86-4.1l9.46-56.36a5.86 5.86 0 0 0-1.66-5.14l-89.76 51.8a4.4 4.4 0 0 0-2.12 3.04l-10.18 61.01Z" fill="#fff" opacity=".2"/>
  <path d="m276.66 269.4.6.34c.26.14.53.28.81.4l10.22-61.02a4.38 4.38 0 0 1 2.09-3.04l89.73-51.81a5.8 5.8 0 0 0-1.2-.92l-89.92 51.92a4.35 4.35 0 0 0-2.1 3.03l-10.23 61.1Z" fill="#455A64"/>
  <path opacity=".5" d="m289.12 207.23-1.4-.82c-.42.55-.7 1.2-.82 1.88l-10.24 61.1.6.33c.26.15.53.28.81.4l10.22-61.01c.12-.69.4-1.33.82-1.88Z" fill="#fff"/>
  <path d="M30.05 128.27a4.82 4.82 0 0 0 2.25 3.72l48.77 28.16a4.96 4.96 0 0 0 4.48 0l85.88-49.59a4.19 4.19 0 0 0 0-7.43l-48.77-28.17a4.97 4.97 0 0 0-4.48 0L32.3 124.55a4.8 4.8 0 0 0-2.25 3.72Z" fill="#37474F"/>
  <path d="M83.31 155.84v4.85a4.5 4.5 0 0 1-2.24-.53L32.3 131.99a4.19 4.19 0 0 1-.23-7.3c-1.01.73-.93 1.78.23 2.47l48.77 28.16c.7.36 1.46.54 2.24.52Z" fill="#263238"/>
  <path d="M27.95 124.63c-1.16-.67-1.1-1.8-1.1-3.23V54.02a4.92 4.92 0 0 1 2.24-3.87L114.97.55a4.8 4.8 0 0 1 4.34-.07c1.16.67 1.1 1.8 1.1 3.23v67.37a4.92 4.92 0 0 1-2.25 3.88L32.3 124.55a4.8 4.8 0 0 1-4.35.08Z" fill="#455A64"/>
  <path d="M32.02 124.69a4.84 4.84 0 0 1-4.1-.06c-1.15-.67-1.1-1.8-1.1-3.23V54.02c.04-.77.26-1.53.66-2.2l3.2 1.85c-.4.67-.63 1.43-.66 2.2v67.38c.03 1.33.9 1.93 2 1.44Z" fill="#263238"/>
  <path d="M30.05 55.88v67.37c0 1.44 1 2.01 2.25 1.3l85.88-49.6a4.92 4.92 0 0 0 2.24-3.87V3.71c0-1.43-1-2-2.24-1.3L32.3 52.02a4.92 4.92 0 0 0-2.25 3.87Z" fill="#37474F"/>
  <path d="m32.3 127.14 48.77 28.16a4.97 4.97 0 0 0 4.48 0l85.88-49.59c1.24-.71 1.24-1.87 0-2.58l-48.77-28.17a4.97 4.97 0 0 0-4.48 0L32.3 124.55c-1.24.71-1.24 1.88 0 2.59Z" fill="#455A64"/>
  <path d="m33.5 54.59 82.8-47.77c.75-.44 1.35-.08 1.35.77v62.03a2.97 2.97 0 0 1-1.35 2.33l-82.78 47.8c-.75.42-1.35.08-1.35-.82V56.92a2.95 2.95 0 0 1 1.33-2.33Z" fill="#FAFAFA"/>
  <path d="M82.58 57.3c.8-1.79 1.22-3.71 1.25-5.66v-.44c0-4.3-2.5-6.43-5.74-4.92V43.2l-4.24 2.46v3.04l-1.47.82v-3.04l-4.24 2.46v3.04l-2.95 1.7v5.66l2-1.17v17.5l-2 1.16v5.65l2.95-1.7v2.46l4.24-2.46v-2.46l1.47-.82v2.46l4.24-2.46v-2.46l.06-.04c3.53-2.03 6.4-7.53 6.4-12.23v-.47c.03-2.3-.69-4.13-1.97-5Zm-2.99-3.65v.44a4.62 4.62 0 0 1-1.93 3.69l-6.2 3.58v-5.6l.77-.44 5.43-3.14c1.07-.61 1.93.04 1.93 1.47ZM71.47 67l6.2-3.58.51-.3c1.2-.69 2.16.04 2.16 1.64v.48a5.17 5.17 0 0 1-2.16 4.1l-5.95 3.43-.76.44V67Z" fill="#E4F149"/>
  <path d="m38.5 124.68 79.75-46.02a2.46 2.46 0 0 1 2.24 0l1.33.72a.69.69 0 0 1 .33 1.05c-.08.11-.2.2-.33.25l-79.8 46.02a2.46 2.46 0 0 1-2.24 0l-1.32-.73a.7.7 0 0 1-.3-1.05c.08-.11.2-.2.33-.24Zm6.25 3.72 79.72-46.03a2.3 2.3 0 0 1 2.05-.1l20.74 11.97c.52.3.43.82-.19 1.19l-79.64 45.95a2.28 2.28 0 0 1-2.05.12l-20.82-11.92c-.52-.3-.44-.83.19-1.18Z" fill="#263238"/>
  <path d="m113.83 101.7 2.46-1.44c.1-.06.11-.15 0-.2l-2.39-1.39a.42.42 0 0 0-.37 0l-2.46 1.44c-.1.06-.11.16 0 .2l2.4 1.39a.4.4 0 0 0 .36 0Zm-3.65-4.98-2.46 1.44c-.1.06-.11.15 0 .2l2.39 1.39a.42.42 0 0 0 .36 0l2.46-1.45c.11-.06.12-.15 0-.21l-2.39-1.38a.37.37 0 0 0-.36.01Zm-8.07 4.66-4.22 2.46c-.1.06-.11.15 0 .2l2.4 1.39a.38.38 0 0 0 .36 0l4.22-2.46c.1-.07.11-.16 0-.22l-2.39-1.37a.41.41 0 0 0-.37 0Zm4.42-2.55-2.46 1.43c-.1.07-.12.16 0 .21l2.39 1.38a.4.4 0 0 0 .36 0l2.46-1.44c.1-.07.11-.16 0-.21l-2.4-1.38a.38.38 0 0 0-.35 0Zm-9.83 5.64-2.46 1.45c-.1.06-.12.15 0 .21l2.4 1.38a.38.38 0 0 0 .35 0l2.46-1.44c.1-.06.12-.15 0-.21l-2.38-1.38a.42.42 0 0 0-.33 0h-.04Zm-3.65 2.11-2.46 1.44c-.1.07-.11.16 0 .22l2.4 1.37a.38.38 0 0 0 .35 0l2.46-1.43c.11-.07.12-.16 0-.21l-2.38-1.38a.4.4 0 0 0-.17-.04l-.16.03h-.04Zm9.36 5.63 2.5-1.44c.1-.07.12-.16 0-.21l-2.38-1.38a.38.38 0 0 0-.37 0l-2.46 1.43c-.1.07-.11.16 0 .22l2.39 1.37c.05.03.12.05.18.05a.4.4 0 0 0 .18-.04h-.04Zm-3.65 2.1 2.5-1.43c.1-.07.12-.16 0-.22l-2.38-1.37a.38.38 0 0 0-.36 0l-2.46 1.43c-.1.07-.12.16 0 .21l2.38 1.38a.4.4 0 0 0 .18.05.4.4 0 0 0 .18-.04h-.04Zm-3.65 2.12 2.46-1.45c.11-.06.12-.15 0-.21l-2.27-1.4a.37.37 0 0 0-.19-.04.37.37 0 0 0-.18.05l-2.45 1.43c-.11.07-.12.16 0 .21l2.38 1.38c.1.05.2.05.3.03h-.05Zm-3.64 2.1 2.5-1.44c.1-.07.11-.16 0-.21l-2.39-1.38a.38.38 0 0 0-.36 0l-2.46 1.43c-.1.07-.11.16 0 .22l2.4 1.37c.05.03.11.05.17.05a.4.4 0 0 0 .18-.04h-.04Zm18.67-14.75 2.46-1.44c.1-.06.11-.16 0-.2l-2.4-1.4a.4.4 0 0 0-.36 0l-2.45 1.45c-.11.06-.12.15 0 .2l2.38 1.38c.06.04.13.07.2.07a.4.4 0 0 0 .21-.03l-.04-.03Zm-4.1 6.3 5.57-3.23c.11-.05.12-.15 0-.2l-5.79-3.36a.45.45 0 0 0-.37 0l-2.88 1.64c-.1.06-.11.16 0 .2l3.08 1.79c.1.05.08.14 0 .2l-2.3 1.33c-.11.07-.12.16 0 .21l2.38 1.38a.4.4 0 0 0 .37.06l-.06-.03Zm-16.65-1.42-2.46 1.44c-.11.06-.12.15 0 .21l2.38 1.43a.42.42 0 0 0 .37 0l2.46-1.44c.1-.06.11-.15 0-.21l-2.4-1.38a.4.4 0 0 0-.3-.02l-.05-.03Zm-3.65 2.1-2.46 1.44c-.1.07-.12.16 0 .22l2.38 1.38a.42.42 0 0 0 .37 0l2.46-1.45c.1-.05.12-.15 0-.2l-2.4-1.38a.4.4 0 0 0-.3.03l-.05-.04ZM65.6 133.3a.4.4 0 0 0 .36 0l2.46-1.44c.1-.06.11-.15 0-.21l-2.4-1.38a.4.4 0 0 0-.36 0l-2.46 1.44c-.1.07-.12.16 0 .22l2.4 1.37Zm-9.02-5.64-2.46 1.44c-.1.06-.11.16 0 .2l2.4 1.39a.4.4 0 0 0 .36 0l2.45-1.44c.11-.06.13-.16 0-.2l-2.38-1.4a.42.42 0 0 0-.35 0h-.02Zm4.62 4.22a.4.4 0 0 0 .36 0l2.46-1.44c.1-.07.12-.16 0-.22l-2.38-1.37a.37.37 0 0 0-.18-.05.37.37 0 0 0-.18.05l-2.46 1.43c-.1.07-.12.16 0 .21l2.38 1.39Zm10.07 2.26 2.46-1.43c.1-.07.12-.16 0-.22l-2.39-1.37a.42.42 0 0 0-.37 0l-2.46 1.44c-.1.06-.11.15 0 .21l2.4 1.38a.38.38 0 0 0 .39 0h-.03Zm-4.01 2.12a.4.4 0 0 0 .36 0l2.46-1.43c.1-.07.11-.16 0-.21l-2.39-1.38a.42.42 0 0 0-.36 0l-2.37 1.46c-.1.06-.12.15 0 .21l2.3 1.35Zm-7.03-10.71-2.5 1.44c-.1.06-.12.16 0 .2l2.4 1.4a.4.4 0 0 0 .35 0l2.46-1.45c.1-.06.12-.16 0-.2l-2.38-1.39a.43.43 0 0 0-.3 0h-.03Zm18.26-10.52-2.5 1.44c-.1.06-.11.15 0 .21l2.39 1.38a.4.4 0 0 0 .36 0l2.45-1.44c.11-.06.12-.15 0-.2l-2.3-1.4a.4.4 0 0 0-.4 0Zm-14.59 8.42-2.46 1.45c-.1.05-.11.15 0 .2l2.33 1.4a.4.4 0 0 0 .36 0l2.47-1.48c.1-.06.11-.16 0-.2l-2.39-1.38a.4.4 0 0 0-.31 0v.01Zm18.27-10.54-2.46 1.44c-.1.06-.12.16 0 .22l2.39 1.37a.4.4 0 0 0 .36 0l2.5-1.44c.1-.06.11-.15 0-.2l-2.4-1.38a.4.4 0 0 0-.4 0Zm-7.3 4.21-2.45 1.45c-.11.05-.12.15 0 .21l2.38 1.38a.4.4 0 0 0 .36 0l2.46-1.45c.1-.05.12-.15 0-.2l-2.38-1.38a.4.4 0 0 0-.4 0h.04Zm-3.64 2.11-2.46 1.44c-.1.06-.12.16 0 .2l2.38 1.4a.4.4 0 0 0 .36 0l2.46-1.45c.11-.06.12-.16 0-.2l-2.38-1.38a.4.4 0 0 0-.4 0h.04Zm-3.65 2.1-2.46 1.45c-.1.06-.11.16 0 .2l2.3 1.39a.4.4 0 0 0 .36 0l2.46-1.44c.1-.06.11-.16 0-.2l-2.39-1.38a.4.4 0 0 0-.3-.01h.03Zm16.66 1.43 2.45-1.45c.11-.06.12-.15 0-.21l-2.38-1.38a.4.4 0 0 0-.37 0l-2.46 1.45c-.1.06-.11.15 0 .2l2.4 1.39a.4.4 0 0 0 .32 0h.04Zm34-30.68-2.46 1.43c-.1.07-.12.16 0 .21l2.38 1.38a.4.4 0 0 0 .36 0l2.5-1.44c.1-.07.12-.16 0-.22l-2.42-1.36a.38.38 0 0 0-.36 0Zm-4.42 2.54-2.46 1.44c-.1.06-.12.15 0 .21l2.38 1.38a.42.42 0 0 0 .37 0l2.46-1.44c.1-.07.12-.16 0-.22l-2.4-1.37a.4.4 0 0 0-.35 0Zm8.06-4.65-2.46 1.43c-.1.07-.12.16 0 .22l2.39 1.37a.42.42 0 0 0 .37 0l2.46-1.44c.1-.07.11-.16 0-.21l-2.4-1.38a.4.4 0 0 0-.36 0Zm-20.16 18.73 2.5-1.44c.1-.06.11-.16 0-.21l-2.38-1.39a.4.4 0 0 0-.36 0l-2.46 1.45c-.1.06-.11.15 0 .2l2.4 1.39c.1.03.2.03.3 0Zm24.17-20.85a.4.4 0 0 0-.36 0l-2.46 1.43c-.1.07-.11.16 0 .21l2.39 1.38a.42.42 0 0 0 .37 0l2.45-1.44c.11-.07.12-.16 0-.22l-2.39-1.36Zm-38.04 32.78 2.46-1.44c.1-.07.12-.16 0-.21l-2.39-1.38a.4.4 0 0 0-.36 0l-2.46 1.44c-.11.07-.12.16 0 .22l2.39 1.37a.4.4 0 0 0 .36.02v-.02ZM132.6 94.8l2.5-1.45c.1-.05.11-.14 0-.2l-2.39-1.38a.4.4 0 0 0-.36 0l-2.46 1.44c-.1.07-.11.16 0 .22l2.4 1.37a.4.4 0 0 0 .3.01v-.01Zm-7.06.14 2.46-1.45c.1-.05.12-.15 0-.2l-2.39-1.39a.42.42 0 0 0-.36 0l-2.46 1.45c-.11.05-.12.15 0 .2l2.38 1.38a.42.42 0 0 0 .37.02v-.01Zm3.78-5.14a.42.42 0 0 0-.37 0l-2.5 1.46c-.11.05-.12.15 0 .2l2.39 1.39a.43.43 0 0 0 .36 0l2.46-1.45c.1-.05.11-.15 0-.2l-2.34-1.4Zm.76-.45 5.8 3.36a.4.4 0 0 0 .37 0l2.46-1.44c.1-.06.11-.15 0-.21L133 87.7a.45.45 0 0 0-.37 0l-2.46 1.44c-.17.07-.18.17-.09.22v-.02Zm-8.42 4.68-2.46 1.44c-.11.06-.12.15 0 .2l2.38 1.38a.41.41 0 0 0 .37 0l2.46-1.44c.1-.06.12-.16 0-.2l-2.4-1.4a.4.4 0 0 0-.35.03v-.01ZM94.2 109.87l-2.46 1.44c-.1.06-.12.16 0 .2l2.4 1.38a.4.4 0 0 0 .35 0l2.46-1.44c.1-.06.12-.16 0-.2l-2.38-1.39a.43.43 0 0 0-.2-.03.43.43 0 0 0-.17.06v-.02Zm34.42-12.96a.4.4 0 0 0 .36 0l2.46-1.44c.1-.06.13-.15 0-.2l-2.38-1.39a.42.42 0 0 0-.37 0l-2.46 1.45c-.1.06-.12.15 0 .21l2.4 1.37Zm-30.74 10.85-2.46 1.44c-.1.06-.12.16 0 .2l2.4 1.4a.43.43 0 0 0 .35 0l2.46-1.45c.1-.05.12-.15 0-.2l-2.38-1.39a.42.42 0 0 0-.4.02l.03-.02Zm-28.63 23.42a.4.4 0 0 0 .37 0l2.46-1.44c.1-.06.12-.15 0-.2l-2.33-1.4a.4.4 0 0 0-.36 0l-2.46 1.43c-.11.07-.13.16 0 .22l2.32 1.39Zm-4.23-4.44-2.46 1.43c-.1.07-.12.16 0 .22l2.33 1.38a.4.4 0 0 0 .36 0l2.45-1.44c.11-.07.12-.16 0-.22l-2.38-1.37a.38.38 0 0 0-.3 0Zm8.25 2.32 2.46-1.44c.1-.06.11-.15 0-.21l-2.4-1.38a.4.4 0 0 0-.35 0l-2.46 1.44c-.11.07-.12.16 0 .22l2.38 1.38a.4.4 0 0 0 .37-.01Zm3.65-2.11 2.46-1.43c.1-.07.11-.16 0-.22l-2.4-1.37a.4.4 0 0 0-.36 0l-2.46 1.44c-.1.06-.11.15 0 .21l2.39 1.38a.4.4 0 0 0 .37-.01Zm3.62-2.1 2.46-1.43c.1-.07.11-.16 0-.22l-2.39-1.37a.42.42 0 0 0-.36 0l-2.46 1.44c-.11.07-.12.16 0 .21l2.39 1.38a.38.38 0 0 0 .36 0Zm-11.9-.21-2.5 1.43c-.1.07-.12.16 0 .22l2.38 1.37a.4.4 0 0 0 .18.05c.07 0 .13-.02.19-.05l2.45-1.44c.11-.06.12-.16 0-.21l-2.27-1.4a.4.4 0 0 0-.4.02h-.03Zm3.7-2.12-2.45 1.45c-.11.05-.12.14 0 .2l2.38 1.38a.4.4 0 0 0 .36 0l2.5-1.44c.1-.07.12-.16 0-.22l-2.4-1.37a.4.4 0 0 0-.39 0Zm14.6-8.42-2.46 1.44c-.11.06-.12.16 0 .2l2.38 1.38a.4.4 0 0 0 .37 0l2.46-1.44c.1-.06.11-.16 0-.2l-2.4-1.39a.4.4 0 0 0-.39 0h.03Zm-3.65 2.1-2.46 1.45c-.1.05-.12.15 0 .2l2.38 1.38a.42.42 0 0 0 .37 0l2.46-1.44c.1-.06.12-.16 0-.22l-2.4-1.37a.4.4 0 0 0-.39 0h.04Zm7.3-4.2-2.47 1.43c-.1.06-.11.16 0 .2l2.4 1.39a.4.4 0 0 0 .36 0l2.46-1.45c.1-.05.11-.15 0-.2l-2.39-1.39a.42.42 0 0 0-.4.01h.03Zm-14.6 8.42-2.46 1.44c-.1.06-.11.15 0 .2l2.39 1.38a.4.4 0 0 0 .36 0l2.46-1.44c.1-.07.11-.16 0-.21l-2.4-1.38a.4.4 0 0 0-.38 0h.03Zm3.65-2.1-2.46 1.43c-.1.06-.12.16 0 .2l2.39 1.39a.42.42 0 0 0 .36 0l2.46-1.45c.11-.05.12-.15 0-.21l-2.42-1.39a.4.4 0 0 0-.18-.04.4.4 0 0 0-.18.05l.03.01Zm-4.66 13.7 2.46-1.43c.1-.07.12-.16 0-.21L75.06 129a.4.4 0 0 0-.36 0l-2.5 1.44c-.11.07-.12.16 0 .22l2.39 1.37a.37.37 0 0 0 .36 0h.03Zm-19.23-.9-2.42-1.35a.42.42 0 0 0-.37 0l-2.46 1.44c-.1.06-.11.16 0 .2l2.4 1.4a.43.43 0 0 0 .35 0l2.46-1.45c.09-.09.1-.19 0-.24h.04Zm4.75 1.2-2.39-1.39a.38.38 0 0 0-.36 0l-3.84 2.22c-.1.06-.11.15 0 .21l2.4 1.38a.4.4 0 0 0 .35 0l3.85-2.22c.05-.06.06-.15-.04-.2h.03Zm-8.32-3.93-2.38-1.37a.4.4 0 0 0-.37 0l-3.07 1.77c-.1.06-.11.15 0 .2l2.39 1.39a.4.4 0 0 0 .36 0l3.08-1.77c.04-.06.06-.16-.04-.22h.03Zm2.36-1.35a.42.42 0 0 0 .36 0l2.46-1.44c.1-.06.12-.16 0-.2L55 124.02a.45.45 0 0 0-.37 0l-2.46 1.44c-.1.06-.11.16 0 .21l2.37 1.36Zm10.34 6.69-2.4-1.38a.4.4 0 0 0-.36 0l-4.8 2.77c-.1.07-.12.16 0 .22l2.38 1.37a.4.4 0 0 0 .37 0l4.8-2.78c.1-.06.1-.14-.03-.2h.04Zm1.68 2.97-2.41-1.38a.42.42 0 0 0-.37 0l-3.08 1.83c-.1.05-.12.15 0 .2l2.39 1.38a.4.4 0 0 0 .36 0l3.07-1.78c.09-.1.09-.2 0-.25h.04Zm15.1-25.32a.38.38 0 0 0 .36 0l2.46-1.44c.11-.06.13-.15 0-.21l-2.38-1.38a.42.42 0 0 0-.37 0l-2.46 1.45c-.1.06-.11.15 0 .2l2.4 1.38Zm-7.3 4.21a.38.38 0 0 0 .37 0l2.46-1.44c.1-.06.11-.15 0-.2l-2.39-1.4a.42.42 0 0 0-.37 0L71.98 114c-.11.06-.12.16 0 .21l2.39 1.38Zm-16.2 9.34a.4.4 0 0 0 .36 0l2.46-1.44c.1-.06.11-.15 0-.2l-2.39-1.39a.45.45 0 0 0-.37 0l-2.46 1.44c-.1.06-.11.16 0 .2l2.4 1.4Zm19.82-11.47a.38.38 0 0 0 .36 0l2.46-1.44c.11-.06.13-.15 0-.2l-2.38-1.39a.42.42 0 0 0-.37 0l-2.46 1.45c-.1.06-.11.15 0 .21l2.4 1.37Zm-7.28 4.24a.42.42 0 0 0 .37 0l2.46-1.44c.1-.06.12-.15 0-.21l-2.38-1.38a.4.4 0 0 0-.37 0l-2.46 1.44c-.1.07-.12.16 0 .22l2.38 1.37Zm-2.36 19.14a.4.4 0 0 0-.36 0l-3.83 2.23c-.1.06-.12.16 0 .2l2.38 1.4a.4.4 0 0 0 .37 0l3.84-2.22c.1-.06.11-.16 0-.21l-2.4-1.4Zm-2.89-16.09a.4.4 0 0 0 .36 0l2.46-1.44c.1-.06.12-.16 0-.2l-2.38-1.38a.4.4 0 0 0-.37 0l-2.45 1.44c-.11.06-.12.16 0 .2l2.38 1.38Zm-3.65 2.11a.4.4 0 0 0 .36 0l2.46-1.44c.1-.06.13-.16 0-.2l-2.38-1.38a.4.4 0 0 0-.37 0l-2.46 1.44c-.1.06-.11.15 0 .2l2.4 1.38Zm74.1-25.06a.4.4 0 0 0-.36 0l-6.15 3.55c-.1.06-.11.15 0 .2l2.39 1.38a.4.4 0 0 0 .36 0l6.15-3.55c.1-.05.11-.15 0-.2l-2.39-1.38Zm-8.06 4.66a.4.4 0 0 0-.37 0l-2.45 1.44c-.11.06-.13.16 0 .2l2.38 1.38a.4.4 0 0 0 .36 0l2.5-1.44c.1-.06.12-.16 0-.2l-2.42-1.38ZM78.6 129.9l2.5-1.43c.1-.07.11-.16 0-.22l-2.39-1.37a.4.4 0 0 0-.18-.05.4.4 0 0 0-.18.05l-2.46 1.44c-.1.06-.11.16 0 .21l2.4 1.38c.05.02.1.04.15.04.06 0 .1-.01.16-.03v-.02Zm41.94-23.23a.4.4 0 0 0-.36 0l-2.5 1.44c-.1.06-.11.15 0 .2l2.39 1.39a.4.4 0 0 0 .36 0l2.5-1.45c.1-.05.11-.15 0-.21l-2.39-1.37Zm19.02-10.96a.4.4 0 0 0-.36 0l-2.5 1.45c-.1.05-.12.15 0 .2l2.38 1.38a.4.4 0 0 0 .36 0l2.46-1.45c.1-.05.12-.15 0-.2l-2.34-1.38Zm6.04-.72-5.8-3.35a.38.38 0 0 0-.37 0l-2.5 1.43c-.1.07-.11.16 0 .22l5.8 3.34a.4.4 0 0 0 .36 0l2.5-1.44c.08-.05.09-.15 0-.2Zm-38.68 19.57a.42.42 0 0 0-.36 0l-3.07 1.78c-.1.07-.11.16 0 .22l2.4 1.37a.4.4 0 0 0 .36 0l3.07-1.78c.1-.05.11-.15 0-.2l-2.4-1.4Zm9.2-5.28a.4.4 0 0 0-.36 0l-3.83 2.21c-.11.07-.13.16 0 .21l2.38 1.38a.41.41 0 0 0 .37 0l3.84-2.22c.1-.06.11-.16 0-.2l-2.4-1.38Zm-17.66 10.16a.4.4 0 0 0-.36 0L77.55 131.3c-.1.07-.12.16 0 .22l2.38 1.37a.38.38 0 0 0 .37 0l20.54-11.86c.11-.06.12-.15 0-.2l-2.38-1.39Zm-21.7 12.53a.4.4 0 0 0-.36 0l-3.07 1.78c-.1.05-.12.15 0 .2l2.38 1.39a.43.43 0 0 0 .36 0l3.08-1.78c.1-.06.11-.15 0-.2l-2.39-1.4ZM102.67 117a.4.4 0 0 0-.37 0l-3.06 1.77c-.1.06-.13.16 0 .2l2.38 1.39a.4.4 0 0 0 .36 0l3.08-1.77c.1-.07.11-.16 0-.21l-2.39-1.38Zm-30.13 17.4a.4.4 0 0 0-.36 0l-3.07 1.77c-.11.07-.12.16 0 .22l2.38 1.37a.42.42 0 0 0 .37 0l3.07-1.78c.1-.05.12-.15 0-.2l-2.39-1.38Zm38.6-22.28a.4.4 0 0 0-.37 0l-3.07 1.78c-.11.06-.12.16 0 .2l2.38 1.4a.4.4 0 0 0 .36 0l3.08-1.78c.1-.06.11-.16 0-.21l-2.39-1.39Zm13.05-7.54a.4.4 0 0 0-.36 0l-2.5 1.44c-.1.06-.12.16 0 .2l2.38 1.39a.4.4 0 0 0 .36 0l2.46-1.45c.1-.05.12-.15 0-.21l-2.34-1.37Zm8.2-5.74 2.5-1.44c.1-.06.11-.15 0-.21l-2.39-1.38a.37.37 0 0 0-.36 0l-2.5 1.44c-.1.06-.11.15 0 .2l2.39 1.39a.4.4 0 0 0 .33.04l.02-.04Zm-14.89.72 2.46-1.45c.1-.05.11-.15 0-.2l-2.39-1.39a.42.42 0 0 0-.36 0l-2.46 1.45c-.11.05-.12.15 0 .2l2.39 1.38a.4.4 0 0 0 .33.05l.03-.04Zm-9.69 13.47 7.3-4.21c.1-.07.11-.16 0-.21l-2.39-1.38a.38.38 0 0 0-.36 0l-7.3 4.2c-.1.07-.1.16 0 .22l2.4 1.37a.41.41 0 0 0 .33.05l.02-.04Zm20.57-12.07a.4.4 0 0 0 .36 0l2.46-1.44c.1-.07.11-.16 0-.22l-2.39-1.37a.4.4 0 0 0-.36 0l-2.47 1.51c-.1.07-.11.16 0 .22l2.4 1.3Zm-3.05-1.99 2.46-1.44c.1-.06.11-.15 0-.2l-2.39-1.38a.42.42 0 0 0-.37 0l-2.46 1.44c-.1.06-.11.16 0 .22l2.4 1.37a.4.4 0 0 0 .33.04l.03-.05Zm-21.2 16.21 2.47-1.44c.1-.07.11-.16 0-.22l-2.4-1.37a.38.38 0 0 0-.36 0l-2.45 1.43c-.11.07-.12.16 0 .22l2.38 1.37a.4.4 0 0 0 .37.01Zm16.16-9.53a.4.4 0 0 0 .36 0l2.46-1.44c.1-.06.11-.15 0-.21l-2.39-1.38a.38.38 0 0 0-.36 0l-2.5 1.44c-.1.06-.11.15 0 .21l2.43 1.39Zm-34.43 20.06 2.46-1.44c.1-.07.11-.16 0-.21l-2.39-1.38a.4.4 0 0 0-.36 0l-2.46 1.44c-.1.07-.11.16 0 .22l2.39 1.37a.4.4 0 0 0 .4 0h-.04Zm3.65-2.1 2.46-1.45c.1-.06.11-.15 0-.21l-2.39-1.38a.38.38 0 0 0-.36 0l-2.46 1.44c-.1.06-.11.15 0 .21l2.39 1.38a.4.4 0 0 0 .4 0h-.04Zm-7.3 4.2 2.46-1.43c.1-.07.12-.16 0-.22l-2.38-1.37a.4.4 0 0 0-.36 0l-2.46 1.44c-.1.06-.12.16 0 .21l2.38 1.38c.06.03.13.05.2.05s.14-.02.2-.06h-.04Zm14.6-8.42 2.5-1.44c.1-.06.1-.16 0-.21l-2.38-1.38a.38.38 0 0 0-.36 0l-2.46 1.44c-.1.06-.11.15 0 .2l2.39 1.39.17.04a.4.4 0 0 0 .17-.04h-.04Zm-3.65 2.1 2.45-1.43c.11-.07.12-.16 0-.22l-2.39-1.37a.38.38 0 0 0-.36 0l-2.4 1.46c-.1.07-.12.16 0 .22l2.38 1.37a.4.4 0 0 0 .35-.02h-.03Zm7.3-4.2 2.46-1.45c.1-.06.11-.15 0-.2l-2.4-1.39a.37.37 0 0 0-.36 0l-2.46 1.44c-.1.06-.12.15 0 .21l2.39 1.38c.06.03.13.05.2.05s.14-.01.2-.04h-.03Zm19.93-29.32a.4.4 0 0 0 .37 0l2.46-1.44c.1-.06.12-.15 0-.21l-.64-.37a.4.4 0 0 0-.36 0l-2.46 1.44c-.1.06-.11.15 0 .2l.63.38Zm-18.13 11.47a.43.43 0 0 0 .36 0l2.5-1.44c.1-.06.12-.16 0-.2l-2.4-1.4a.4.4 0 0 0-.35 0l-2.46 1.45c-.1.06-.11.16 0 .2l2.35 1.4Zm7.3-4.21a.42.42 0 0 0 .37 0l2.45-1.44c.11-.06.12-.16 0-.2l-2.33-1.38a.4.4 0 0 0-.36 0l-2.46 1.45c-.1.05-.12.15 0 .2l2.33 1.37ZM97.8 102a.4.4 0 0 0 .36 0l2.46-1.45c.1-.05.12-.15 0-.2l-2.38-1.39a.42.42 0 0 0-.37 0l-2.46 1.45c-.1.05-.12.14 0 .2l2.4 1.39Zm8.1-4.67a.4.4 0 0 0 .36 0l2.5-1.45c.1-.05.12-.15 0-.2l-2.4-1.39a.42.42 0 0 0-.35 0l-2.46 1.45c-.1.05-.13.15 0 .2l2.35 1.39Zm-15.4 8.9a.4.4 0 0 0 .37 0l2.46-1.44c.1-.06.11-.15 0-.21l-2.39-1.38a.4.4 0 0 0-.37 0l-2.46 1.44c-.1.06-.11.15 0 .21l2.39 1.39Zm3.65-2.1a.4.4 0 0 0 .36 0l2.46-1.44c.11-.07.12-.16 0-.22l-2.32-1.4a.42.42 0 0 0-.37 0l-2.46 1.44c-.1.06-.12.15 0 .2l2.33 1.42ZM113.1 92.2a.4.4 0 0 0 .36 0l2.5-1.45c.1-.05.11-.14 0-.2l-.64-.37a.4.4 0 0 0-.36 0l-2.45 1.44c-.1.06-.12.15 0 .2l.59.38Zm10.94-6.32a.4.4 0 0 0 .37 0l2.46-1.44c.1-.06.11-.15 0-.21l-.64-.37a.4.4 0 0 0-.36 0l-2.5 1.44c-.1.06-.12.16 0 .2l.67.38Zm5.02 2.89a.42.42 0 0 0 .37 0l2.45-1.44c.11-.07.12-.16 0-.22l-2.39-1.37a.4.4 0 0 0-.36 0l-2.46 1.44c-.1.06-.11.15 0 .2l2.39 1.39Zm6.95 8 2.5-1.43c.1-.07.11-.16 0-.22l-2.39-1.37a.38.38 0 0 0-.36 0l-2.46 1.43c-.1.07-.11.16 0 .21l2.39 1.38a.4.4 0 0 0 .32 0Zm-19.26-6.68a.4.4 0 0 0 .36 0l2.46-1.43c.1-.07.11-.16 0-.22l-.64-.37a.4.4 0 0 0-.36 0l-2.5 1.45c-.11.05-.12.14 0 .2l.68.37Zm-29.89 18.26a.42.42 0 0 0 .37 0l2.46-1.44c.1-.07.11-.16 0-.21l-2.4-1.38a.38.38 0 0 0-.36 0l-2.45 1.43c-.11.07-.12.16 0 .22l2.38 1.38Z" fill="#BA68C8"/>
  <path d="m113.83 101.7 2.46-1.44c.1-.06.11-.15 0-.2l-2.39-1.39a.42.42 0 0 0-.37 0l-2.46 1.44c-.1.06-.11.16 0 .2l2.4 1.39a.4.4 0 0 0 .36 0Zm-3.65-4.98-2.46 1.44c-.1.06-.11.15 0 .2l2.39 1.39a.42.42 0 0 0 .36 0l2.46-1.45c.11-.06.12-.15 0-.21l-2.39-1.38a.37.37 0 0 0-.36.01Zm-8.07 4.66-4.22 2.46c-.1.06-.11.15 0 .2l2.4 1.39a.38.38 0 0 0 .36 0l4.22-2.46c.1-.07.11-.16 0-.22l-2.39-1.37a.41.41 0 0 0-.37 0Zm4.42-2.55-2.46 1.43c-.1.07-.12.16 0 .21l2.39 1.38a.4.4 0 0 0 .36 0l2.46-1.44c.1-.07.11-.16 0-.21l-2.4-1.38a.38.38 0 0 0-.35 0Zm-9.83 5.64-2.46 1.45c-.1.06-.12.15 0 .21l2.4 1.38a.38.38 0 0 0 .35 0l2.46-1.44c.1-.06.12-.15 0-.21l-2.38-1.38a.42.42 0 0 0-.33 0h-.04Zm-3.65 2.11-2.46 1.44c-.1.07-.11.16 0 .22l2.4 1.37a.38.38 0 0 0 .35 0l2.46-1.43c.11-.07.12-.16 0-.21l-2.38-1.38a.4.4 0 0 0-.17-.04l-.16.03h-.04Zm9.36 5.63 2.5-1.44c.1-.07.12-.16 0-.21l-2.38-1.38a.38.38 0 0 0-.37 0l-2.46 1.43c-.1.07-.11.16 0 .22l2.39 1.37c.05.03.12.05.18.05a.4.4 0 0 0 .18-.04h-.04Zm-3.65 2.1 2.5-1.43c.1-.07.12-.16 0-.22l-2.38-1.37a.38.38 0 0 0-.36 0l-2.46 1.43c-.1.07-.12.16 0 .21l2.38 1.38a.4.4 0 0 0 .18.05.4.4 0 0 0 .18-.04h-.04Zm-3.65 2.12 2.46-1.45c.11-.06.12-.15 0-.21l-2.27-1.4a.37.37 0 0 0-.19-.04.37.37 0 0 0-.18.05l-2.45 1.43c-.11.07-.12.16 0 .21l2.38 1.38c.1.05.2.05.3.03h-.05Zm-3.64 2.1 2.5-1.44c.1-.07.11-.16 0-.21l-2.39-1.38a.38.38 0 0 0-.36 0l-2.46 1.43c-.1.07-.11.16 0 .22l2.4 1.37c.05.03.11.05.17.05a.4.4 0 0 0 .18-.04h-.04Zm18.67-14.75 2.46-1.44c.1-.06.11-.16 0-.2l-2.4-1.4a.4.4 0 0 0-.36 0l-2.45 1.45c-.11.06-.12.15 0 .2l2.38 1.38c.06.04.13.07.2.07a.4.4 0 0 0 .21-.03l-.04-.03Zm-4.1 6.3 5.57-3.23c.11-.05.12-.15 0-.2l-5.79-3.36a.45.45 0 0 0-.37 0l-2.88 1.64c-.1.06-.11.16 0 .2l3.08 1.79c.1.05.08.14 0 .2l-2.3 1.33c-.11.07-.12.16 0 .21l2.38 1.38a.4.4 0 0 0 .37.06l-.06-.03Zm-16.65-1.42-2.46 1.44c-.11.06-.12.15 0 .21l2.38 1.43a.42.42 0 0 0 .37 0l2.46-1.44c.1-.06.11-.15 0-.21l-2.4-1.38a.4.4 0 0 0-.3-.02l-.05-.03Zm-3.65 2.1-2.46 1.44c-.1.07-.12.16 0 .22l2.38 1.38a.42.42 0 0 0 .37 0l2.46-1.45c.1-.05.12-.15 0-.2l-2.4-1.38a.4.4 0 0 0-.3.03l-.05-.04ZM65.6 133.3a.4.4 0 0 0 .36 0l2.46-1.44c.1-.06.11-.15 0-.21l-2.4-1.38a.4.4 0 0 0-.36 0l-2.46 1.44c-.1.07-.12.16 0 .22l2.4 1.37Zm-9.02-5.64-2.46 1.44c-.1.06-.11.16 0 .2l2.4 1.39a.4.4 0 0 0 .36 0l2.45-1.44c.11-.06.13-.16 0-.2l-2.38-1.4a.42.42 0 0 0-.35 0h-.02Zm4.62 4.22a.4.4 0 0 0 .36 0l2.46-1.44c.1-.07.12-.16 0-.22l-2.38-1.37a.37.37 0 0 0-.18-.05.37.37 0 0 0-.18.05l-2.46 1.43c-.1.07-.12.16 0 .21l2.38 1.39Zm10.07 2.26 2.46-1.43c.1-.07.12-.16 0-.22l-2.39-1.37a.42.42 0 0 0-.37 0l-2.46 1.44c-.1.06-.11.15 0 .21l2.4 1.38a.38.38 0 0 0 .39 0h-.03Zm-4.01 2.12a.4.4 0 0 0 .36 0l2.46-1.43c.1-.07.11-.16 0-.21l-2.39-1.38a.42.42 0 0 0-.36 0l-2.37 1.46c-.1.06-.12.15 0 .21l2.3 1.35Zm-7.03-10.71-2.5 1.44c-.1.06-.12.16 0 .2l2.4 1.4a.4.4 0 0 0 .35 0l2.46-1.45c.1-.06.12-.16 0-.2l-2.38-1.39a.43.43 0 0 0-.3 0h-.03Zm18.26-10.52-2.5 1.44c-.1.06-.11.15 0 .21l2.39 1.38a.4.4 0 0 0 .36 0l2.45-1.44c.11-.06.12-.15 0-.2l-2.3-1.4a.4.4 0 0 0-.4 0Zm-14.59 8.42-2.46 1.45c-.1.05-.11.15 0 .2l2.33 1.4a.4.4 0 0 0 .36 0l2.47-1.48c.1-.06.11-.16 0-.2l-2.39-1.38a.4.4 0 0 0-.31 0v.01Zm18.27-10.54-2.46 1.44c-.1.06-.12.16 0 .22l2.39 1.37a.4.4 0 0 0 .36 0l2.5-1.44c.1-.06.11-.15 0-.2l-2.4-1.38a.4.4 0 0 0-.4 0Zm-7.3 4.21-2.45 1.45c-.11.05-.12.15 0 .21l2.38 1.38a.4.4 0 0 0 .36 0l2.46-1.45c.1-.05.12-.15 0-.2l-2.38-1.38a.4.4 0 0 0-.4 0h.04Zm-3.64 2.11-2.46 1.44c-.1.06-.12.16 0 .2l2.38 1.4a.4.4 0 0 0 .36 0l2.46-1.45c.11-.06.12-.16 0-.2l-2.38-1.38a.4.4 0 0 0-.4 0h.04Zm-3.65 2.1-2.46 1.45c-.1.06-.11.16 0 .2l2.3 1.39a.4.4 0 0 0 .36 0l2.46-1.44c.1-.06.11-.16 0-.2l-2.39-1.38a.4.4 0 0 0-.3-.01h.03Zm16.66 1.43 2.45-1.45c.11-.06.12-.15 0-.21l-2.38-1.38a.4.4 0 0 0-.37 0l-2.46 1.45c-.1.06-.11.15 0 .2l2.4 1.39a.4.4 0 0 0 .32 0h.04Zm34-30.68-2.46 1.43c-.1.07-.12.16 0 .21l2.38 1.38a.4.4 0 0 0 .36 0l2.5-1.44c.1-.07.12-.16 0-.22l-2.42-1.36a.38.38 0 0 0-.36 0Zm-4.42 2.54-2.46 1.44c-.1.06-.12.15 0 .21l2.38 1.38a.42.42 0 0 0 .37 0l2.46-1.44c.1-.07.12-.16 0-.22l-2.4-1.37a.4.4 0 0 0-.35 0Zm8.06-4.65-2.46 1.43c-.1.07-.12.16 0 .22l2.39 1.37a.42.42 0 0 0 .37 0l2.46-1.44c.1-.07.11-.16 0-.21l-2.4-1.38a.4.4 0 0 0-.36 0Zm-20.16 18.73 2.5-1.44c.1-.06.11-.16 0-.21l-2.38-1.39a.4.4 0 0 0-.36 0l-2.46 1.45c-.1.06-.11.15 0 .2l2.4 1.39c.1.03.2.03.3 0Zm24.17-20.85a.4.4 0 0 0-.36 0l-2.46 1.43c-.1.07-.11.16 0 .21l2.39 1.38a.42.42 0 0 0 .37 0l2.45-1.44c.11-.07.12-.16 0-.22l-2.39-1.36Zm-38.04 32.78 2.46-1.44c.1-.07.12-.16 0-.21l-2.39-1.38a.4.4 0 0 0-.36 0l-2.46 1.44c-.11.07-.12.16 0 .22l2.39 1.37a.4.4 0 0 0 .36.02v-.02ZM132.6 94.8l2.5-1.45c.1-.05.11-.14 0-.2l-2.39-1.38a.4.4 0 0 0-.36 0l-2.46 1.44c-.1.07-.11.16 0 .22l2.4 1.37a.4.4 0 0 0 .3.01v-.01Zm-7.06.14 2.46-1.45c.1-.05.12-.15 0-.2l-2.39-1.39a.42.42 0 0 0-.36 0l-2.46 1.45c-.11.05-.12.15 0 .2l2.38 1.38a.42.42 0 0 0 .37.02v-.01Zm3.78-5.14a.42.42 0 0 0-.37 0l-2.5 1.46c-.11.05-.12.15 0 .2l2.39 1.39a.43.43 0 0 0 .36 0l2.46-1.45c.1-.05.11-.15 0-.2l-2.34-1.4Zm.76-.45 5.8 3.36a.4.4 0 0 0 .37 0l2.46-1.44c.1-.06.11-.15 0-.21L133 87.7a.45.45 0 0 0-.37 0l-2.46 1.44c-.17.07-.18.17-.09.22v-.02Zm-8.42 4.68-2.46 1.44c-.11.06-.12.15 0 .2l2.38 1.38a.41.41 0 0 0 .37 0l2.46-1.44c.1-.06.12-.16 0-.2l-2.4-1.4a.4.4 0 0 0-.35.03v-.01ZM94.2 109.87l-2.46 1.44c-.1.06-.12.16 0 .2l2.4 1.38a.4.4 0 0 0 .35 0l2.46-1.44c.1-.06.12-.16 0-.2l-2.38-1.39a.43.43 0 0 0-.2-.03.43.43 0 0 0-.17.06v-.02Zm34.42-12.96a.4.4 0 0 0 .36 0l2.46-1.44c.1-.06.13-.15 0-.2l-2.38-1.39a.42.42 0 0 0-.37 0l-2.46 1.45c-.1.06-.12.15 0 .21l2.4 1.37Zm-30.74 10.85-2.46 1.44c-.1.06-.12.16 0 .2l2.4 1.4a.43.43 0 0 0 .35 0l2.46-1.45c.1-.05.12-.15 0-.2l-2.38-1.39a.42.42 0 0 0-.4.02l.03-.02Zm-28.63 23.42a.4.4 0 0 0 .37 0l2.46-1.44c.1-.06.12-.15 0-.2l-2.33-1.4a.4.4 0 0 0-.36 0l-2.46 1.43c-.11.07-.13.16 0 .22l2.32 1.39Zm-4.23-4.44-2.46 1.43c-.1.07-.12.16 0 .22l2.33 1.38a.4.4 0 0 0 .36 0l2.45-1.44c.11-.07.12-.16 0-.22l-2.38-1.37a.38.38 0 0 0-.3 0Zm8.25 2.32 2.46-1.44c.1-.06.11-.15 0-.21l-2.4-1.38a.4.4 0 0 0-.35 0l-2.46 1.44c-.11.07-.12.16 0 .22l2.38 1.38a.4.4 0 0 0 .37-.01Zm3.65-2.11 2.46-1.43c.1-.07.11-.16 0-.22l-2.4-1.37a.4.4 0 0 0-.36 0l-2.46 1.44c-.1.06-.11.15 0 .21l2.39 1.38a.4.4 0 0 0 .37-.01Zm3.62-2.1 2.46-1.43c.1-.07.11-.16 0-.22l-2.39-1.37a.42.42 0 0 0-.36 0l-2.46 1.44c-.11.07-.12.16 0 .21l2.39 1.38a.38.38 0 0 0 .36 0Zm-11.9-.21-2.5 1.43c-.1.07-.12.16 0 .22l2.38 1.37a.4.4 0 0 0 .18.05c.07 0 .13-.02.19-.05l2.45-1.44c.11-.06.12-.16 0-.21l-2.27-1.4a.4.4 0 0 0-.4.02h-.03Zm3.7-2.12-2.45 1.45c-.11.05-.12.14 0 .2l2.38 1.38a.4.4 0 0 0 .36 0l2.5-1.44c.1-.07.12-.16 0-.22l-2.4-1.37a.4.4 0 0 0-.39 0Zm14.6-8.42-2.46 1.44c-.11.06-.12.16 0 .2l2.38 1.38a.4.4 0 0 0 .37 0l2.46-1.44c.1-.06.11-.16 0-.2l-2.4-1.39a.4.4 0 0 0-.39 0h.03Zm-3.65 2.1-2.46 1.45c-.1.05-.12.15 0 .2l2.38 1.38a.42.42 0 0 0 .37 0l2.46-1.44c.1-.06.12-.16 0-.22l-2.4-1.37a.4.4 0 0 0-.39 0h.04Zm7.3-4.2-2.47 1.43c-.1.06-.11.16 0 .2l2.4 1.39a.4.4 0 0 0 .36 0l2.46-1.45c.1-.05.11-.15 0-.2l-2.39-1.39a.42.42 0 0 0-.4.01h.03Zm-14.6 8.42-2.46 1.44c-.1.06-.11.15 0 .2l2.39 1.38a.4.4 0 0 0 .36 0l2.46-1.44c.1-.07.11-.16 0-.21l-2.4-1.38a.4.4 0 0 0-.38 0h.03Zm3.65-2.1-2.46 1.43c-.1.06-.12.16 0 .2l2.39 1.39a.42.42 0 0 0 .36 0l2.46-1.45c.11-.05.12-.15 0-.21l-2.42-1.39a.4.4 0 0 0-.18-.04.4.4 0 0 0-.18.05l.03.01Zm-4.66 13.7 2.46-1.43c.1-.07.12-.16 0-.21L75.06 129a.4.4 0 0 0-.36 0l-2.5 1.44c-.11.07-.12.16 0 .22l2.39 1.37a.37.37 0 0 0 .36 0h.03Zm-19.23-.9-2.42-1.35a.42.42 0 0 0-.37 0l-2.46 1.44c-.1.06-.11.16 0 .2l2.4 1.4a.43.43 0 0 0 .35 0l2.46-1.45c.09-.09.1-.19 0-.24h.04Zm4.75 1.2-2.39-1.39a.38.38 0 0 0-.36 0l-3.84 2.22c-.1.06-.11.15 0 .21l2.4 1.38a.4.4 0 0 0 .35 0l3.85-2.22c.05-.06.06-.15-.04-.2h.03Zm-8.32-3.93-2.38-1.37a.4.4 0 0 0-.37 0l-3.07 1.77c-.1.06-.11.15 0 .2l2.39 1.39a.4.4 0 0 0 .36 0l3.08-1.77c.04-.06.06-.16-.04-.22h.03Zm2.36-1.35a.42.42 0 0 0 .36 0l2.46-1.44c.1-.06.12-.16 0-.2L55 124.02a.45.45 0 0 0-.37 0l-2.46 1.44c-.1.06-.11.16 0 .21l2.37 1.36Zm10.34 6.69-2.4-1.38a.4.4 0 0 0-.36 0l-4.8 2.77c-.1.07-.12.16 0 .22l2.38 1.37a.4.4 0 0 0 .37 0l4.8-2.78c.1-.06.1-.14-.03-.2h.04Zm1.68 2.97-2.41-1.38a.42.42 0 0 0-.37 0l-3.08 1.83c-.1.05-.12.15 0 .2l2.39 1.38a.4.4 0 0 0 .36 0l3.07-1.78c.09-.1.09-.2 0-.25h.04Zm15.1-25.32a.38.38 0 0 0 .36 0l2.46-1.44c.11-.06.13-.15 0-.21l-2.38-1.38a.42.42 0 0 0-.37 0l-2.46 1.45c-.1.06-.11.15 0 .2l2.4 1.38Zm-7.3 4.21a.38.38 0 0 0 .37 0l2.46-1.44c.1-.06.11-.15 0-.2l-2.39-1.4a.42.42 0 0 0-.37 0L71.98 114c-.11.06-.12.16 0 .21l2.39 1.38Zm-16.2 9.34a.4.4 0 0 0 .36 0l2.46-1.44c.1-.06.11-.15 0-.2l-2.39-1.39a.45.45 0 0 0-.37 0l-2.46 1.44c-.1.06-.11.16 0 .2l2.4 1.4Zm19.82-11.47a.38.38 0 0 0 .36 0l2.46-1.44c.11-.06.13-.15 0-.2l-2.38-1.39a.42.42 0 0 0-.37 0l-2.46 1.45c-.1.06-.11.15 0 .21l2.4 1.37Zm-7.28 4.24a.42.42 0 0 0 .37 0l2.46-1.44c.1-.06.12-.15 0-.21l-2.38-1.38a.4.4 0 0 0-.37 0l-2.46 1.44c-.1.07-.12.16 0 .22l2.38 1.37Zm-2.36 19.14a.4.4 0 0 0-.36 0l-3.83 2.23c-.1.06-.12.16 0 .2l2.38 1.4a.4.4 0 0 0 .37 0l3.84-2.22c.1-.06.11-.16 0-.21l-2.4-1.4Zm-2.89-16.09a.4.4 0 0 0 .36 0l2.46-1.44c.1-.06.12-.16 0-.2l-2.38-1.38a.4.4 0 0 0-.37 0l-2.45 1.44c-.11.06-.12.16 0 .2l2.38 1.38Zm-3.65 2.11a.4.4 0 0 0 .36 0l2.46-1.44c.1-.06.13-.16 0-.2l-2.38-1.38a.4.4 0 0 0-.37 0l-2.46 1.44c-.1.06-.11.15 0 .2l2.4 1.38Zm74.1-25.06a.4.4 0 0 0-.36 0l-6.15 3.55c-.1.06-.11.15 0 .2l2.39 1.38a.4.4 0 0 0 .36 0l6.15-3.55c.1-.05.11-.15 0-.2l-2.39-1.38Zm-8.06 4.66a.4.4 0 0 0-.37 0l-2.45 1.44c-.11.06-.13.16 0 .2l2.38 1.38a.4.4 0 0 0 .36 0l2.5-1.44c.1-.06.12-.16 0-.2l-2.42-1.38ZM78.6 129.9l2.5-1.43c.1-.07.11-.16 0-.22l-2.39-1.37a.4.4 0 0 0-.18-.05.4.4 0 0 0-.18.05l-2.46 1.44c-.1.06-.11.16 0 .21l2.4 1.38c.05.02.1.04.15.04.06 0 .1-.01.16-.03v-.02Zm41.94-23.23a.4.4 0 0 0-.36 0l-2.5 1.44c-.1.06-.11.15 0 .2l2.39 1.39a.4.4 0 0 0 .36 0l2.5-1.45c.1-.05.11-.15 0-.21l-2.39-1.37Zm19.02-10.96a.4.4 0 0 0-.36 0l-2.5 1.45c-.1.05-.12.15 0 .2l2.38 1.38a.4.4 0 0 0 .36 0l2.46-1.45c.1-.05.12-.15 0-.2l-2.34-1.38Zm6.04-.72-5.8-3.35a.38.38 0 0 0-.37 0l-2.5 1.43c-.1.07-.11.16 0 .22l5.8 3.34a.4.4 0 0 0 .36 0l2.5-1.44c.08-.05.09-.15 0-.2Zm-38.68 19.57a.42.42 0 0 0-.36 0l-3.07 1.78c-.1.07-.11.16 0 .22l2.4 1.37a.4.4 0 0 0 .36 0l3.07-1.78c.1-.05.11-.15 0-.2l-2.4-1.4Zm9.2-5.28a.4.4 0 0 0-.36 0l-3.83 2.21c-.11.07-.13.16 0 .21l2.38 1.38a.41.41 0 0 0 .37 0l3.84-2.22c.1-.06.11-.16 0-.2l-2.4-1.38Zm-17.66 10.16a.4.4 0 0 0-.36 0L77.55 131.3c-.1.07-.12.16 0 .22l2.38 1.37a.38.38 0 0 0 .37 0l20.54-11.86c.11-.06.12-.15 0-.2l-2.38-1.39Zm-21.7 12.53a.4.4 0 0 0-.36 0l-3.07 1.78c-.1.05-.12.15 0 .2l2.38 1.39a.43.43 0 0 0 .36 0l3.08-1.78c.1-.06.11-.15 0-.2l-2.39-1.4ZM102.67 117a.4.4 0 0 0-.37 0l-3.06 1.77c-.1.06-.13.16 0 .2l2.38 1.39a.4.4 0 0 0 .36 0l3.08-1.77c.1-.07.11-.16 0-.21l-2.39-1.38Zm-30.13 17.4a.4.4 0 0 0-.36 0l-3.07 1.77c-.11.07-.12.16 0 .22l2.38 1.37a.42.42 0 0 0 .37 0l3.07-1.78c.1-.05.12-.15 0-.2l-2.39-1.38Zm38.6-22.28a.4.4 0 0 0-.37 0l-3.07 1.78c-.11.06-.12.16 0 .2l2.38 1.4a.4.4 0 0 0 .36 0l3.08-1.78c.1-.06.11-.16 0-.21l-2.39-1.39Zm13.05-7.54a.4.4 0 0 0-.36 0l-2.5 1.44c-.1.06-.12.16 0 .2l2.38 1.39a.4.4 0 0 0 .36 0l2.46-1.45c.1-.05.12-.15 0-.21l-2.34-1.37Zm8.2-5.74 2.5-1.44c.1-.06.11-.15 0-.21l-2.39-1.38a.37.37 0 0 0-.36 0l-2.5 1.44c-.1.06-.11.15 0 .2l2.39 1.39a.4.4 0 0 0 .33.04l.02-.04Zm-14.89.72 2.46-1.45c.1-.05.11-.15 0-.2l-2.39-1.39a.42.42 0 0 0-.36 0l-2.46 1.45c-.11.05-.12.15 0 .2l2.39 1.38a.4.4 0 0 0 .33.05l.03-.04Zm-9.69 13.47 7.3-4.21c.1-.07.11-.16 0-.21l-2.39-1.38a.38.38 0 0 0-.36 0l-7.3 4.2c-.1.07-.1.16 0 .22l2.4 1.37a.41.41 0 0 0 .33.05l.02-.04Zm20.57-12.07a.4.4 0 0 0 .36 0l2.46-1.44c.1-.07.11-.16 0-.22l-2.39-1.37a.4.4 0 0 0-.36 0l-2.47 1.51c-.1.07-.11.16 0 .22l2.4 1.3Zm-3.05-1.99 2.46-1.44c.1-.06.11-.15 0-.2l-2.39-1.38a.42.42 0 0 0-.37 0l-2.46 1.44c-.1.06-.11.16 0 .22l2.4 1.37a.4.4 0 0 0 .33.04l.03-.05Zm-21.2 16.21 2.47-1.44c.1-.07.11-.16 0-.22l-2.4-1.37a.38.38 0 0 0-.36 0l-2.45 1.43c-.11.07-.12.16 0 .22l2.38 1.37a.4.4 0 0 0 .37.01Zm16.16-9.53a.4.4 0 0 0 .36 0l2.46-1.44c.1-.06.11-.15 0-.21l-2.39-1.38a.38.38 0 0 0-.36 0l-2.5 1.44c-.1.06-.11.15 0 .21l2.43 1.39Zm-34.43 20.06 2.46-1.44c.1-.07.11-.16 0-.21l-2.39-1.38a.4.4 0 0 0-.36 0l-2.46 1.44c-.1.07-.11.16 0 .22l2.39 1.37a.4.4 0 0 0 .4 0h-.04Zm3.65-2.1 2.46-1.45c.1-.06.11-.15 0-.21l-2.39-1.38a.38.38 0 0 0-.36 0l-2.46 1.44c-.1.06-.11.15 0 .21l2.39 1.38a.4.4 0 0 0 .4 0h-.04Zm-7.3 4.2 2.46-1.43c.1-.07.12-.16 0-.22l-2.38-1.37a.4.4 0 0 0-.36 0l-2.46 1.44c-.1.06-.12.16 0 .21l2.38 1.38c.06.03.13.05.2.05s.14-.02.2-.06h-.04Zm14.6-8.42 2.5-1.44c.1-.06.1-.16 0-.21l-2.38-1.38a.38.38 0 0 0-.36 0l-2.46 1.44c-.1.06-.11.15 0 .2l2.39 1.39.17.04a.4.4 0 0 0 .17-.04h-.04Zm-3.65 2.1 2.45-1.43c.11-.07.12-.16 0-.22l-2.39-1.37a.38.38 0 0 0-.36 0l-2.4 1.46c-.1.07-.12.16 0 .22l2.38 1.37a.4.4 0 0 0 .35-.02h-.03Zm7.3-4.2 2.46-1.45c.1-.06.11-.15 0-.2l-2.4-1.39a.37.37 0 0 0-.36 0l-2.46 1.44c-.1.06-.12.15 0 .21l2.39 1.38c.06.03.13.05.2.05s.14-.01.2-.04h-.03Zm19.93-29.32a.4.4 0 0 0 .37 0l2.46-1.44c.1-.06.12-.15 0-.21l-.64-.37a.4.4 0 0 0-.36 0l-2.46 1.44c-.1.06-.11.15 0 .2l.63.38Zm-18.13 11.47a.43.43 0 0 0 .36 0l2.5-1.44c.1-.06.12-.16 0-.2l-2.4-1.4a.4.4 0 0 0-.35 0l-2.46 1.45c-.1.06-.11.16 0 .2l2.35 1.4Zm7.3-4.21a.42.42 0 0 0 .37 0l2.45-1.44c.11-.06.12-.16 0-.2l-2.33-1.38a.4.4 0 0 0-.36 0l-2.46 1.45c-.1.05-.12.15 0 .2l2.33 1.37ZM97.8 102a.4.4 0 0 0 .36 0l2.46-1.45c.1-.05.12-.15 0-.2l-2.38-1.39a.42.42 0 0 0-.37 0l-2.46 1.45c-.1.05-.12.14 0 .2l2.4 1.39Zm8.1-4.67a.4.4 0 0 0 .36 0l2.5-1.45c.1-.05.12-.15 0-.2l-2.4-1.39a.42.42 0 0 0-.35 0l-2.46 1.45c-.1.05-.13.15 0 .2l2.35 1.39Zm-15.4 8.9a.4.4 0 0 0 .37 0l2.46-1.44c.1-.06.11-.15 0-.21l-2.39-1.38a.4.4 0 0 0-.37 0l-2.46 1.44c-.1.06-.11.15 0 .21l2.39 1.39Zm3.65-2.1a.4.4 0 0 0 .36 0l2.46-1.44c.11-.07.12-.16 0-.22l-2.32-1.4a.42.42 0 0 0-.37 0l-2.46 1.44c-.1.06-.12.15 0 .2l2.33 1.42ZM113.1 92.2a.4.4 0 0 0 .36 0l2.5-1.45c.1-.05.11-.14 0-.2l-.64-.37a.4.4 0 0 0-.36 0l-2.45 1.44c-.1.06-.12.15 0 .2l.59.38Zm10.94-6.32a.4.4 0 0 0 .37 0l2.46-1.44c.1-.06.11-.15 0-.21l-.64-.37a.4.4 0 0 0-.36 0l-2.5 1.44c-.1.06-.12.16 0 .2l.67.38Zm5.02 2.89a.42.42 0 0 0 .37 0l2.45-1.44c.11-.07.12-.16 0-.22l-2.39-1.37a.4.4 0 0 0-.36 0l-2.46 1.44c-.1.06-.11.15 0 .2l2.39 1.39Zm6.95 8 2.5-1.43c.1-.07.11-.16 0-.22l-2.39-1.37a.38.38 0 0 0-.36 0l-2.46 1.43c-.1.07-.11.16 0 .21l2.39 1.38a.4.4 0 0 0 .32 0Zm-19.26-6.68a.4.4 0 0 0 .36 0l2.46-1.43c.1-.07.11-.16 0-.22l-.64-.37a.4.4 0 0 0-.36 0l-2.5 1.45c-.11.05-.12.14 0 .2l.68.37Zm-29.89 18.26a.42.42 0 0 0 .37 0l2.46-1.44c.1-.07.11-.16 0-.21l-2.4-1.38a.38.38 0 0 0-.36 0l-2.45 1.43c-.11.07-.12.16 0 .22l2.38 1.38Z" fill="#455A64"/>
  <path d="m97.66 127.17.51.3 13.6 7.84 24.17-13.96.5-.28-14.1-8.14-24.68 14.24Z" fill="#263238"/>
  <path d="m98.17 127.47 13.6 7.84 24.17-13.96-13.6-7.84-24.17 13.96Z" fill="#37474F"/>
  <path d="m98.17 127.47 13.6 7.84 24.17-13.96-13.6-7.84-24.17 13.96Z" fill="#263238" opacity=".5"/>
  <path d="M27.95 124.62a3.04 3.04 0 0 0 0 .01l-.21-.14c.07.05.14.1.21.13Z" fill="#BA68C8"/>
  <path d="M366.41 128.27a4.81 4.81 0 0 1-2.24 3.72l-48.78 28.16a4.91 4.91 0 0 1-4.47 0l-85.9-49.59a4.2 4.2 0 0 1 0-7.43l48.78-28.17a4.97 4.97 0 0 1 4.49 0l85.86 49.59a4.8 4.8 0 0 1 2.26 3.72Z" fill="#9ABDCE"/>
  <path opacity=".3" d="M313.16 155.84v4.85a4.5 4.5 0 0 0 2.23-.53l48.76-28.17a4.19 4.19 0 0 0 .23-7.3c1 .73.92 1.78-.23 2.47l-48.78 28.16c-.68.36-1.44.53-2.21.52Z" fill="#000"/>
  <path d="M368.52 124.63c1.15-.67 1.1-1.8 1.1-3.23V54.02a4.93 4.93 0 0 0-2.25-3.87L281.48.55a4.8 4.8 0 0 0-4.34-.07c-1.16.67-1.1 1.8-1.1 3.23v67.37a4.9 4.9 0 0 0 2.25 3.88l85.86 49.59a4.8 4.8 0 0 0 4.37.08Z" fill="#9ABDCE"/>
  <path opacity=".1" d="M368.52 124.63c1.15-.67 1.1-1.8 1.1-3.23V54.02a4.93 4.93 0 0 0-2.25-3.87L281.48.55a4.8 4.8 0 0 0-4.34-.07c-1.16.67-1.1 1.8-1.1 3.23v67.37a4.9 4.9 0 0 0 2.25 3.88l85.86 49.59a4.8 4.8 0 0 0 4.37.08Z" fill="#000"/>
  <path opacity=".25" d="M364.43 124.69a4.85 4.85 0 0 0 4.1-.06c1.16-.67 1.1-1.8 1.1-3.23V54.02a4.54 4.54 0 0 0-.66-2.2l-3.2 1.85c.4.67.64 1.43.66 2.2v67.38c-.01 1.33-.88 1.93-2 1.44Z" fill="#000"/>
  <path d="M366.41 55.88v67.37c0 1.44-1 2.01-2.24 1.3l-85.88-49.6a4.91 4.91 0 0 1-2.25-3.87V3.71c0-1.43 1-2 2.25-1.3l85.86 49.6a4.93 4.93 0 0 1 2.26 3.87Zm-2.26 71.26-48.78 28.16a4.92 4.92 0 0 1-4.48 0L225 105.71c-1.24-.71-1.24-1.87 0-2.58l48.78-28.17a4.97 4.97 0 0 1 4.48 0l85.89 49.59c1.26.71 1.26 1.88 0 2.59Z" fill="#9ABDCE"/>
  <path opacity=".2" d="m364.15 127.14-48.78 28.16a4.92 4.92 0 0 1-4.48 0L225 105.71c-1.24-.71-1.24-1.87 0-2.58l48.78-28.17a4.97 4.97 0 0 1 4.48 0l85.89 49.59c1.26.71 1.26 1.88 0 2.59Z" fill="#000"/>
  <path d="M313.16 160.69a4.61 4.61 0 0 1-2.24-.53l-85.9-49.6a4.17 4.17 0 0 1-.4-7.14c-.83.7-.68 1.68.4 2.3l85.9 49.58a4.6 4.6 0 0 0 2.24.54v4.85Z" fill="#9ABDCE"/>
  <path d="m362.97 54.59-82.8-47.77c-.75-.44-1.35-.08-1.35.77v62.03a2.96 2.96 0 0 0 1.34 2.33l82.8 47.8c.74.42 1.34.08 1.34-.82V56.92a2.96 2.96 0 0 0-1.33-2.33Z" fill="#FAFAFA"/>
  <path d="M328.22 67.38a10.52 10.52 0 0 0 1.07-5.07v-.52c0-4.91-2.16-10.34-4.91-12.3v-3.54l-3.68-2.13v3.5l-1.27-.73v-3.5l-3.67-2.13v3.5L313.2 43v6.56l1.74 1v20.2l-1.74-1v6.56l2.56 1.48v2.8l3.67 2.12v-2.87l1.27.74v2.87l3.68 2.12V82.7h.05c3.05 1.77 5.55-1.23 5.55-6.66v-.54a20.9 20.9 0 0 0-1.76-8.12Zm-2.6-7.7v.5c0 1.65-.74 2.55-1.64 2.02l-5.36-3.1v-6.46l.67.38 4.7 2.72c.89.53 1.63 2.3 1.63 3.94Zm-7.03 5.94 5.36 3.1.46.26c1.03.6 1.87 2.59 1.87 4.42v.54c0 1.84-.82 2.85-1.87 2.25l-5.16-2.98-.66-.37v-7.22Z" fill="#9ABDCE"/>
  <path d="M328.22 67.38a10.52 10.52 0 0 0 1.07-5.07v-.52c0-4.91-2.16-10.34-4.91-12.3v-3.54l-3.68-2.13v3.5l-1.27-.73v-3.5l-3.67-2.13v3.5L313.2 43v6.56l1.74 1v20.2l-1.74-1v6.56l2.56 1.48v2.8l3.67 2.12v-2.87l1.27.74v2.87l3.68 2.12V82.7h.05c3.05 1.77 5.55-1.23 5.55-6.66v-.54a20.9 20.9 0 0 0-1.76-8.12Zm-2.6-7.7v.5c0 1.65-.74 2.55-1.64 2.02l-5.36-3.1v-6.46l.67.38 4.7 2.72c.89.53 1.63 2.3 1.63 3.94Zm-7.03 5.94 5.36 3.1.46.26c1.03.6 1.87 2.59 1.87 4.42v.54c0 1.84-.82 2.85-1.87 2.25l-5.16-2.98-.66-.37v-7.22Z" fill="#455A64"/>
  <path opacity=".3" d="m357.98 124.68-79.73-46.02a2.46 2.46 0 0 0-2.24 0l-1.33.72a.69.69 0 0 0-.33 1.05c.08.11.2.2.33.25l79.74 46.02a2.46 2.46 0 0 0 2.24 0l1.31-.73a.68.68 0 0 0 .46-.64.7.7 0 0 0-.45-.65ZM272 82.37l79.73 46.02c.62.36.7.89.2 1.18l-20.76 11.99a2.28 2.28 0 0 1-2.05-.12l-79.61-45.97c-.62-.36-.7-.89-.2-1.18l20.66-12.06a2.26 2.26 0 0 1 2.04.14Z" fill="#000"/>
  <path d="m318.25 122.25 2.5 1.44a.38.38 0 0 0 .36 0l2.38-1.38c.1-.06.1-.15 0-.21l-2.5-1.44a.4.4 0 0 0-.36 0l-2.38 1.38c-.12.06-.11.15 0 .21Zm8.63-2.1-2.5-1.45a.4.4 0 0 0-.36 0l-2.38 1.38c-.1.05-.1.15 0 .2l2.46 1.45a.4.4 0 0 0 .36 0l2.38-1.39c.16-.04.15-.14.05-.2Zm-8.06-4.66-4.22-2.46a.42.42 0 0 0-.37 0l-2.39 1.38c-.09.06-.08.15 0 .21l4.23 2.46c.05.03.11.04.18.04a.4.4 0 0 0 .18-.04l2.39-1.38c.11-.05.1-.15 0-.2Zm4.42 2.55-2.46-1.44a.4.4 0 0 0-.36 0l-2.39 1.38c-.1.04-.09.14 0 .2l2.5 1.44a.35.35 0 0 0 .36 0l2.39-1.38c.07-.04.06-.14-.04-.2Zm-9.8-5.66-2.46-1.44a.43.43 0 0 0-.37 0l-2.38 1.38c-.1.06-.08.15 0 .21l2.46 1.44a.38.38 0 0 0 .36 0l2.4-1.38c.1-.03.1-.14 0-.2Zm-3.64-2.1-2.5-1.44a.4.4 0 0 0-.36 0l-2.4 1.37c-.09.06-.07.15 0 .22l2.5 1.43a.38.38 0 0 0 .37 0l2.4-1.38c.1-.05.1-.14-.01-.2Zm-9.75 5.4 2.5 1.44a.4.4 0 0 0 .36 0l2.38-1.38c.1-.05.1-.14 0-.2l-2.5-1.45a.4.4 0 0 0-.36 0l-2.38 1.38c-.12.06-.1.15 0 .22Zm-3.65-2.1 2.46 1.44a.4.4 0 0 0 .36 0l2.39-1.38c.1-.06.09-.15 0-.21l-2.5-1.45a.4.4 0 0 0-.36 0l-2.37 1.4c-.1.05-.08.14.02.2Zm-3.65-2.1 2.5 1.43a.38.38 0 0 0 .37 0l2.38-1.38c.1-.06.08-.14 0-.21l-2.46-1.44a.4.4 0 0 0-.36 0l-2.4 1.37c-.14.07-.13.16-.03.22Zm-3.64-2.11 2.46 1.43a.4.4 0 0 0 .36 0l2.39-1.37c.1-.06.08-.15 0-.22l-2.46-1.44a.4.4 0 0 0-.36 0l-2.4 1.38c-.1.06-.1.13 0 .22Zm25.49 10.78 2.5 1.42a.38.38 0 0 0 .36 0l2.38-1.37c.1-.06.09-.15 0-.22l-2.5-1.44a.4.4 0 0 0-.36 0l-2.4 1.4c-.1.05-.09.14.02.2Zm-10.9-2.36 5.57 3.22a.4.4 0 0 0 .36 0l5.8-3.35c.1-.05.09-.14 0-.21l-2.92-1.61a.4.4 0 0 0-.36 0l-3.07 1.77a.42.42 0 0 1-.37 0l-2.3-1.34a.4.4 0 0 0-.36 0l-2.39 1.38c-.08-.01-.07.08.04.14Zm2.46-9.62-2.5-1.44a.4.4 0 0 0-.37 0l-2.38 1.38c-.1.05-.09.14 0 .2l2.5 1.44a.38.38 0 0 0 .36 0l2.39-1.37c.1-.05.1-.14-.01-.2Zm-3.65-2.1-2.5-1.45a.4.4 0 0 0-.36 0l-2.4 1.38c-.1.06-.09.15 0 .21l2.46 1.45a.4.4 0 0 0 .36 0l2.39-1.38c.16-.06.15-.15.04-.22ZM263.56 94.4c-.1.06-.1.15 0 .21l2.46 1.45a.4.4 0 0 0 .36 0l2.38-1.38c.1-.06.1-.15 0-.22l-2.5-1.43a.37.37 0 0 0-.36 0l-2.34 1.37Zm9.76-5.19-2.46-1.44a.42.42 0 0 0-.37 0l-2.38 1.38c-.1.05-.09.14 0 .2l2.46 1.45a.4.4 0 0 0 .36 0l2.39-1.38c.1-.06.1-.15 0-.2Zm-7.31 2.66c-.1.06-.08.15 0 .22l2.5 1.44a.4.4 0 0 0 .36 0l2.4-1.38c.08-.05.07-.14 0-.2l-2.5-1.44a.4.4 0 0 0-.37 0l-2.4 1.36Zm-3.93 5.82 2.46 1.44a.4.4 0 0 0 .36 0l2.4-1.39c.08-.05.08-.14 0-.2l-2.5-1.39a.4.4 0 0 0-.36 0l-2.38 1.38c-.1 0-.1.1.01.16h.01Zm-3.67-2.32c-.1.05-.09.15 0 .21l2.5 1.44a.4.4 0 0 0 .36 0l2.39-1.37c.1-.06.09-.16 0-.22L261.2 94a.4.4 0 0 0-.36 0l-2.43 1.38Zm18.55-4.1-2.46-1.44a.42.42 0 0 0-.37 0l-2.42 1.4c-.09.06-.08.15 0 .22l2.46 1.44a.42.42 0 0 0 .37 0l2.39-1.38c.14-.05.14-.14.03-.2v-.03Zm18.25 10.53-2.5-1.43a.37.37 0 0 0-.36 0l-2.4 1.37c-.09.06-.08.15 0 .22l2.5 1.44a.4.4 0 0 0 .37 0l2.38-1.38c.1-.02.1-.13 0-.18v-.04Zm-14.6-8.43-2.46-1.43a.4.4 0 0 0-.36 0l-2.4 1.38c-.09.05-.08.14 0 .21l2.46 1.44a.42.42 0 0 0 .37 0l2.39-1.37c.11-.03.1-.12 0-.18v-.05Zm18.24 10.54-2.46-1.45a.4.4 0 0 0-.36 0l-2.38 1.38c-.1.06-.1.15 0 .22l2.5 1.44a.4.4 0 0 0 .36 0l2.38-1.38c.08-.02.07-.1-.04-.17v-.04Zm-7.3-4.22-2.5-1.43a.37.37 0 0 0-.35 0l-2.42 1.4c-.1.06-.08.15 0 .21l2.5 1.45a.4.4 0 0 0 .36 0l2.38-1.38c.15-.05.14-.14.04-.2v-.05Zm-3.63-2.06-2.46-1.44a.38.38 0 0 0-.36 0l-2.4 1.38c-.08.06-.08.15 0 .21l2.46 1.45a.42.42 0 0 0 .37 0l2.39-1.38c.1-.06.09-.16 0-.22Zm-3.65-2.1-2.46-1.44a.38.38 0 0 0-.36 0l-2.4 1.37c-.08.06-.07.15 0 .22l2.47 1.44a.42.42 0 0 0 .37 0l2.38-1.38c.1-.06.1-.15-.02-.22h.02Zm-2.46 9.61 2.46 1.44a.4.4 0 0 0 .37 0l2.38-1.38c.1-.05.09-.14 0-.21l-2.45-1.44a.43.43 0 0 0-.37 0l-2.39 1.37c-.11.07-.1.16 0 .25v-.03Zm53.14 19.68-2.5-1.44a.4.4 0 0 0-.36 0l-2.37 1.34c-.1.05-.09.15 0 .2l2.5 1.45a.4.4 0 0 0 .36 0l2.39-1.39c.1-.03.09-.14-.02-.19v.03Zm-4.4-2.58-2.5-1.44a.4.4 0 0 0-.37 0l-2.38 1.38c-.1.05-.1.15 0 .2l2.5 1.45a.4.4 0 0 0 .36 0l2.38-1.39c.1-.06.1-.14 0-.2Zm8.06 4.66-2.5-1.44a.4.4 0 0 0-.36 0l-2.39 1.37c-.1.05-.09.15 0 .2l2.5 1.45a.4.4 0 0 0 .36 0l2.39-1.38c.13-.05.13-.14-.01-.2Zm-32.45-11.64 2.5 1.43a.37.37 0 0 0 .36 0l2.38-1.37c.1-.06.1-.15 0-.22l-2.5-1.44a.4.4 0 0 0-.36 0l-2.38 1.38c-.13.06-.12.15-.01.22Zm36.11 13.93c.1-.04.1-.14 0-.2l-2.46-1.44a.4.4 0 0 0-.36 0l-2.45 1.39c-.1.05-.09.15 0 .2l2.56 1.44a.4.4 0 0 0 .36 0l2.35-1.39Zm-56.81-21.94 2.46 1.44a.4.4 0 0 0 .37 0l2.38-1.38c.1-.06.08-.15 0-.21l-2.46-1.45a.4.4 0 0 0-.36 0l-2.4 1.39c-.1.06-.1.15 0 .21Zm44.74 25.83 2.46 1.44a.42.42 0 0 0 .36 0l2.39-1.38c.1-.05.08-.14 0-.2l-2.46-1.44a.38.38 0 0 0-.36 0l-2.4 1.38c-.1.04-.1.16 0 .2Zm-.24-4.1 2.46 1.44a.38.38 0 0 0 .36 0l2.38-1.38c.1-.06.09-.15 0-.21l-2.5-1.45a.4.4 0 0 0-.36 0l-2.39 1.38c-.07.09-.06.18.05.25v-.03Zm8.9 2.18c.1-.06.08-.15 0-.21l-2.5-1.44a.4.4 0 0 0-.37 0l-2.38 1.37c-.1.06-.1.15 0 .22l2.5 1.43a.37.37 0 0 0 .36 0l2.38-1.37Zm.76.44-5.8 3.37c-.1.06-.08.15 0 .22l2.46 1.44a.42.42 0 0 0 .37 0l5.8-3.34c.1-.06.08-.15 0-.22l-2.5-1.44a.4.4 0 0 0-.33 0v-.03Zm-8.09-4.87-2.46-1.44a.4.4 0 0 0-.36 0l-2.39 1.38c-.1.06-.08.15 0 .21l2.46 1.44a.4.4 0 0 0 .37 0l2.38-1.38c.13-.02.1-.11 0-.18v-.02Zm-27.45-15.82-2.5-1.45a.4.4 0 0 0-.36 0l-2.38 1.38c-.1.06-.1.15 0 .22l2.5 1.43a.35.35 0 0 0 .36 0l2.38-1.38c.12-.05.1-.14 0-.2Zm22.44 19.85c-.09.06-.08.15 0 .21l2.46 1.45a.42.42 0 0 0 .37 0l2.39-1.38c.09-.06.08-.15 0-.21l-2.46-1.44a.4.4 0 0 0-.36 0l-2.4 1.37Zm-18.8-17.75-2.5-1.44a.4.4 0 0 0-.36 0l-2.38 1.38c-.1.06-.09.15 0 .21l2.46 1.44a.38.38 0 0 0 .36 0l2.39-1.38c.15-.05.15-.14.04-.2Zm-40.52-16.5c-.1.05-.08.14 0 .2l2.5 1.45a.4.4 0 0 0 .36 0l2.4-1.38c.08-.05.07-.14 0-.2l-2.5-1.44a.38.38 0 0 0-.37 0l-2.4 1.37Zm7.7-2.46-2.5-1.44a.38.38 0 0 0-.37 0L269.65 94c-.1.06-.08.15 0 .21l2.46 1.45a.4.4 0 0 0 .36 0l2.4-1.38c.14-.06.13-.15.02-.21v-.01Zm-4.03 4.77 2.46 1.44a.4.4 0 0 0 .36 0l2.4-1.38c.08-.05.07-.14 0-.21l-2.5-1.43a.38.38 0 0 0-.37 0l-2.38 1.37c-.1.06-.08.15.03.22v-.01Zm3.65 2.1 2.46 1.45a.4.4 0 0 0 .36 0l2.39-1.38c.09-.06.08-.15 0-.21l-2.46-1.45a.41.41 0 0 0-.37 0l-2.38 1.38c-.13.07-.11.16 0 .22Zm3.64 2.11 2.46 1.44a.4.4 0 0 0 .36 0l2.4-1.37c.09-.06.08-.15 0-.22l-2.46-1.44a.42.42 0 0 0-.37 0l-2.39 1.38c-.08.06-.08.15 0 .22v-.01Zm.38-6.88-2.46-1.43a.4.4 0 0 0-.37 0l-2.38 1.38c-.1.05-.08.14 0 .2l2.46 1.45a.4.4 0 0 0 .36 0l2.4-1.38c.1-.05.1-.14 0-.22Zm3.65 2.11-2.46-1.43a.39.39 0 0 0-.37 0l-2.38 1.37c-.1.06-.09.15 0 .22l2.45 1.44a.4.4 0 0 0 .37 0l2.39-1.38c.11-.06.1-.15-.01-.21v-.01Zm14.59 8.43-2.46-1.45a.4.4 0 0 0-.36 0l-2.4 1.38c-.08.06-.08.15 0 .21l2.5 1.44a.38.38 0 0 0 .37 0l2.38-1.38c.12-.04.07-.13-.03-.2Zm-3.65-2.11-2.46-1.44a.4.4 0 0 0-.36 0l-2.4 1.37c-.08.06-.07.15 0 .22l2.47 1.44a.42.42 0 0 0 .37 0l2.38-1.38c.12-.05.1-.14 0-.2v-.01Zm7.3 4.21-2.45-1.44a.4.4 0 0 0-.37 0l-2.39 1.38c-.09.06-.08.15 0 .21l2.5 1.44a.38.38 0 0 0 .36 0l2.39-1.38c.08-.04.06-.13-.04-.2Zm-14.6-8.42-2.45-1.44a.38.38 0 0 0-.36 0l-2.4 1.38c-.09.06-.08.15 0 .21l2.46 1.44a.42.42 0 0 0 .37 0l2.39-1.37c.11-.06.1-.15 0-.21v-.01Zm3.65 2.1-2.46-1.43a.38.38 0 0 0-.36 0l-2.39 1.38c-.09.05-.08.14 0 .2l2.46 1.45a.41.41 0 0 0 .37 0l2.38-1.38c.12-.05.08-.14 0-.2v-.02Zm-23.77-2.69 2.54 1.45a.4.4 0 0 0 .36 0l2.39-1.38c.09-.05.08-.15 0-.2l-2.5-1.45a.4.4 0 0 0-.36 0l-2.39 1.38c-.14.06-.13.16-.03.21Zm1.58-11.1 2.39-1.38c.09-.06.08-.15 0-.2l-2.46-1.45a.42.42 0 0 0-.37 0l-2.38 1.38c-.1.06-.09.16 0 .21l2.46 1.45a.4.4 0 0 0 .37 0l-.01-.01Zm-2.07 2.74 2.39-1.37c.1-.06.09-.15 0-.2l-3.85-2.23a.4.4 0 0 0-.36 0L261.02 89c-.1.05-.1.15 0 .2l3.84 2.22a.4.4 0 0 0 .37.01Zm6.79-4.8 2.38-1.38c.1-.05.09-.14 0-.2l-3.06-1.78a.42.42 0 0 0-.37 0l-2.4 1.42c-.1.05-.08.15 0 .2l3.07 1.78a.4.4 0 0 0 .39-.03H272Zm2.35 1.36c-.09.06-.08.15 0 .21l2.46 1.45a.4.4 0 0 0 .36 0l2.4-1.38c.08-.06.08-.15 0-.21l-2.46-1.45a.42.42 0 0 0-.37 0l-2.39 1.4Zm-11.59 5.97 2.39-1.38c.1-.06.09-.15 0-.21l-4.82-2.76a.4.4 0 0 0-.36 0l-2.39 1.36c-.1.06-.09.15 0 .22l4.8 2.77a.4.4 0 0 0 .39 0h-.01Zm-5.14.97 2.39-1.37c.1-.06.09-.16 0-.22l-3.08-1.77a.38.38 0 0 0-.36 0l-2.4 1.38c-.08.06-.07.15 0 .21l3.08 1.77a.4.4 0 0 0 .38.01Zm43.85 8.72c-.09.05-.08.15 0 .21l2.46 1.44a.42.42 0 0 0 .37 0l2.39-1.38c.1-.05.08-.15 0-.2l-2.46-1.45a.4.4 0 0 0-.36 0l-2.4 1.39Zm-7.3-4.2c-.08.04-.07.14 0 .2l2.47 1.44a.42.42 0 0 0 .37 0l2.38-1.39c.1-.04.08-.14 0-.2l-2.46-1.44a.42.42 0 0 0-.37 0l-2.38 1.38Zm-16.17-9.35c-.1.06-.08.15 0 .21l2.46 1.44a.4.4 0 0 0 .37 0l2.38-1.38c.1-.06.08-.15 0-.21l-2.46-1.45a.4.4 0 0 0-.36 0l-2.4 1.4Zm19.83 11.47c-.1.05-.09.15 0 .2l2.46 1.45a.42.42 0 0 0 .36 0l2.39-1.38c.09-.05.08-.15 0-.2l-2.46-1.45a.4.4 0 0 0-.36 0l-2.4 1.38Zm-7.3-4.21c-.09.05-.08.15 0 .2L293 99a.4.4 0 0 0 .36 0l2.4-1.39c.08-.05.08-.15 0-.2l-2.46-1.45a.42.42 0 0 0-.37 0l-2.39 1.39Zm-33.16-1.37c.09-.06.08-.15 0-.21l-3.84-2.21a.4.4 0 0 0-.36 0l-2.4 1.38c-.08.05-.07.15 0 .2l3.84 2.23a.42.42 0 0 0 .37 0l2.39-1.39Zm27.92-1.64c-.09.06-.08.15 0 .22l2.46 1.43a.4.4 0 0 0 .37 0l2.39-1.38c.1-.05.08-.15 0-.21l-2.46-1.44a.4.4 0 0 0-.36 0l-2.4 1.38Zm-3.64-2.1c-.1.05-.09.14 0 .2l2.45 1.44a.4.4 0 0 0 .37 0l2.39-1.37c.09-.06.08-.15 0-.22l-2.46-1.44a.4.4 0 0 0-.36 0l-2.4 1.39Zm43.3 42.78c.1-.06.09-.15 0-.21l-6.14-3.55a.4.4 0 0 0-.36 0l-2.39 1.38c-.1.05-.09.14 0 .21l6.15 3.54a.4.4 0 0 0 .36 0l2.39-1.37Zm-8.06-4.65c.1-.06.08-.15 0-.22l-2.46-1.44a.43.43 0 0 0-.37 0l-2.38 1.38c-.1.06-.08.15 0 .2l2.46 1.44a.4.4 0 0 0 .36 0l2.4-1.36Zm-47.54-28.44 2.46 1.45a.4.4 0 0 0 .36 0l2.4-1.4c.08-.04.08-.14 0-.2l-2.46-1.44a.43.43 0 0 0-.37 0l-2.39 1.38c-.1.02-.09.12.02.17l-.02.04Zm40.24 24.22c.09-.05.08-.14 0-.21l-2.5-1.44a.4.4 0 0 0-.36 0l-2.43 1.33c-.1.06-.09.15 0 .22l2.5 1.43a.4.4 0 0 0 .36 0l2.43-1.33Zm19.02 10.99c.1-.06.08-.16 0-.22l-2.5-1.44a.4.4 0 0 0-.36 0l-2.38 1.38c-.1.06-.08.15 0 .2l2.46 1.45a.4.4 0 0 0 .36 0l2.42-1.37Zm1.26 3.48 5.8-3.35c.09-.05.08-.15 0-.2l-2.46-1.45a.4.4 0 0 0-.36 0l-5.8 3.35c-.1.05-.08.15 0 .2l2.46 1.45a.41.41 0 0 0 .36-.04v.04Zm-33.9-22.33c.1-.05.09-.15 0-.21l-3.08-1.78a.4.4 0 0 0-.36 0l-2.4 1.38c-.08.06-.07.15 0 .21l3.08 1.77a.4.4 0 0 0 .36 0l2.4-1.38Zm9.22 5.32c.09-.06.08-.15 0-.21l-3.84-2.21a.4.4 0 0 0-.37 0l-2.42 1.32c-.09.05-.08.14 0 .2l3.84 2.22a.4.4 0 0 0 .36 0l2.43-1.32Zm-17.67-10.24c.1-.05.09-.15 0-.2L267 101.3a.4.4 0 0 0-.37 0l-2.38 1.38c-.1.06-.08.15 0 .21l20.54 11.86a.43.43 0 0 0 .36 0l2.4-1.38Zm-21.7-12.53c.1-.05.09-.15 0-.2l-3.07-1.78a.4.4 0 0 0-.36 0l-2.4 1.4c-.1.04-.1.14 0 .2l3.07 1.78a.4.4 0 0 0 .36 0l2.4-1.4Zm25.92 14.99c.1-.06.09-.15 0-.22l-3.06-1.77a.43.43 0 0 0-.37 0l-2.39 1.39c-.1.05-.08.15 0 .2l3.07 1.78a.42.42 0 0 0 .37 0l2.38-1.38ZM261.61 98.4c.1-.05.09-.15 0-.2l-3.08-1.78a.38.38 0 0 0-.36 0l-2.4 1.37c-.1.06-.09.15 0 .22l3.07 1.77a.4.4 0 0 0 .36 0l2.4-1.38Zm38.6 22.29c.1-.06.09-.15 0-.22l-3.07-1.77a.41.41 0 0 0-.36 0l-2.39 1.39c-.1.05-.09.15 0 .2l3.08 1.78a.4.4 0 0 0 .36 0l2.38-1.38Zm13.06 7.54c.1-.06.08-.15 0-.22l-2.5-1.44a.4.4 0 0 0-.36 0l-2.38 1.38c-.1.06-.09.15 0 .2l2.45 1.45a.4.4 0 0 0 .36 0l2.43-1.37Zm9.9 4.71 2.45 1.44a.43.43 0 0 0 .36 0l2.4-1.38c.09-.05.08-.15 0-.2l-2.46-1.45a.42.42 0 0 0-.37 0l-2.39 1.38c-.14.05-.13.15 0 .21Zm-1.25-8.59 2.5 1.44c.05.03.12.04.18.04s.12-.02.18-.05l2.38-1.37c.1-.06.1-.15 0-.22l-2.5-1.44a.4.4 0 0 0-.36 0l-2.38 1.38c-.14.06-.13.16-.03.22h.03Zm-23.35-5.6 7.3 4.21a.42.42 0 0 0 .37 0l2.38-1.37c.1-.05.08-.15 0-.2l-7.3-4.22a.4.4 0 0 0-.35 0l-2.4 1.37c-.13.06-.12.15 0 .21Zm20.91 11.88c-.1.05-.08.15 0 .2l2.46 1.45a.4.4 0 0 0 .36 0l2.4-1.39c.09-.05.08-.15 0-.2l-2.5-1.45a.42.42 0 0 0-.36 0l-2.36 1.39Zm3.44-1.76 2.46 1.44a.42.42 0 0 0 .37 0l2.38-1.38c.1-.06.08-.15 0-.2l-2.5-1.43a.42.42 0 0 0-.38 0l-2.38 1.38c-.08.03-.07.12.03.19h.02Zm-28.01-12.22 2.5 1.44a.4.4 0 0 0 .36 0l2.39-1.38c.1-.05.09-.15 0-.2l-2.5-1.45a.4.4 0 0 0-.37 0l-2.38 1.39c-.12.04-.1.14 0 .2Zm16.5 9.32c-.1.05-.09.15 0 .2l2.45 1.45a.43.43 0 0 0 .36 0l2.4-1.38c.08-.05.08-.15 0-.21l-2.46-1.44a.43.43 0 0 0-.37 0l-2.39 1.38Zm-34.74-19.86 2.46 1.44a.4.4 0 0 0 .36 0l2.4-1.38c.09-.05.08-.15 0-.2l-2.46-1.45a.45.45 0 0 0-.37 0l-2.39 1.39c-.11.08-.1.14 0 .2Zm3.65 2.1 2.46 1.45a.45.45 0 0 0 .37 0l2.38-1.38c.1-.05.09-.15 0-.2l-2.46-1.45a.42.42 0 0 0-.36 0l-2.39 1.38c-.12.05-.1.15 0 .2Zm-7.3-4.2 2.46 1.44a.4.4 0 0 0 .18.04c.07 0 .13-.01.18-.04l2.4-1.39c.09-.05.08-.14 0-.2l-2.46-1.44a.41.41 0 0 0-.37 0l-2.39 1.37c-.11.06-.1.16 0 .22Zm14.6 8.42 2.45 1.45a.42.42 0 0 0 .37 0l2.4-1.33c.1-.05.08-.15 0-.2l-2.46-1.45a.4.4 0 0 0-.36 0l-2.4 1.39c-.12-.01-.11.09 0 .14Zm-3.65-2.1 2.46 1.44a.45.45 0 0 0 .37 0l2.38-1.39c.09-.05.08-.14 0-.2l-2.46-1.44a.4.4 0 0 0-.36 0l-2.42 1.35c-.12.08-.08.18.03.24Zm7.3 4.2 2.5 1.45a.4.4 0 0 0 .35 0l2.39-1.38c.1-.05.09-.14 0-.2l-2.46-1.44a.4.4 0 0 0-.36 0l-2.4 1.38c-.14.04-.1.14-.03.2Zm50.75 11.48c-.1.06-.1.15 0 .22l2.5 1.44a.4.4 0 0 0 .36 0l.64-.37c.09-.05.08-.15 0-.2l-2.51-1.44a.4.4 0 0 0-.36 0l-.63.35Zm-19.89-10.46c-.1.05-.09.14 0 .21l2.5 1.44a.4.4 0 0 0 .36 0l2.39-1.37c.1-.06.09-.15 0-.22l-2.5-1.42a.4.4 0 0 0-.36 0l-2.39 1.36Zm7.3 4.21c-.1.06-.09.15 0 .21l2.45 1.44a.38.38 0 0 0 .37 0l2.39-1.38c.09-.06.08-.15 0-.21l-2.46-1.41a.39.39 0 0 0-.18-.05.39.39 0 0 0-.18.05l-2.4 1.35Zm-11.76-6.79c-.09.06-.08.15 0 .22l2.46 1.44a.43.43 0 0 0 .37 0l2.38-1.38c.1-.06.09-.15 0-.2l-2.45-1.45a.4.4 0 0 0-.36 0l-2.4 1.37Zm8.1 4.68c-.09.06-.08.15 0 .22l2.5 1.43a.38.38 0 0 0 .37 0l2.4-1.38c.08-.05.07-.14 0-.2l-2.47-1.45a.4.4 0 0 0-.36 0l-2.43 1.38Zm-15.4-8.87c-.08.05-.07.15 0 .2l2.47 1.45a.42.42 0 0 0 .37 0l2.38-1.38c.09-.05.08-.14 0-.2l-2.46-1.44a.41.41 0 0 0-.37 0l-2.38 1.37Zm3.65 2.1c-.09.06-.08.15 0 .22l2.46 1.44a.42.42 0 0 0 .37 0l2.39-1.38c.09-.06.08-.15 0-.2l-2.46-1.45a.4.4 0 0 0-.36 0l-2.4 1.37Zm20.7 10.94c-.1.06-.09.15 0 .21l2.5 1.44a.4.4 0 0 0 .36 0l.64-.36c.1-.06.08-.15 0-.21l-2.5-1.44a.4.4 0 0 0-.36 0l-.64.36Zm10.94 6.3c-.1.06-.09.15 0 .21l2.46 1.45a.4.4 0 0 0 .36 0l.64-.37c.1-.05.08-.15 0-.2l-2.46-1.45a.42.42 0 0 0-.37 0l-.63.36Zm-5.01 2.9c-.1.05-.1.15 0 .2l2.46 1.45a.4.4 0 0 0 .36 0l2.4-1.39c.08-.04.07-.14 0-.2l-2.5-1.44a.43.43 0 0 0-.37 0l-2.35 1.38Zm-13.86 4.01 2.46 1.44a.4.4 0 0 0 .36 0l2.39-1.37c.09-.05.08-.15 0-.2l-2.46-1.45a.42.42 0 0 0-.37 0l-2.38 1.38c-.12.06-.11.16 0 .22v-.02Zm11.58-11.12c-.1.05-.1.14 0 .21l2.5 1.44a.4.4 0 0 0 .36 0l.64-.37c.09-.05.08-.14 0-.2l-2.5-1.44a.4.4 0 0 0-.36 0l-.64.36Zm-31.64-17.22c-.1.06-.08.16 0 .22l2.46 1.44a.4.4 0 0 0 .36 0l2.4-1.38c.08-.05.07-.14 0-.2l-2.47-1.44a.41.41 0 0 0-.37 0l-2.38 1.36Z" fill="#9ABDCE"/>
  <path opacity=".2" d="m318.25 122.25 2.5 1.44a.38.38 0 0 0 .36 0l2.38-1.38c.1-.06.1-.15 0-.21l-2.5-1.44a.4.4 0 0 0-.36 0l-2.38 1.38c-.12.06-.11.15 0 .21Zm8.63-2.1-2.5-1.45a.4.4 0 0 0-.36 0l-2.38 1.38c-.1.05-.1.15 0 .2l2.46 1.45a.4.4 0 0 0 .36 0l2.38-1.39c.16-.04.15-.14.05-.2Zm-8.06-4.66-4.22-2.46a.42.42 0 0 0-.37 0l-2.39 1.38c-.09.06-.08.15 0 .21l4.23 2.46c.05.03.11.04.18.04a.4.4 0 0 0 .18-.04l2.39-1.38c.11-.05.1-.15 0-.2Zm4.42 2.55-2.46-1.44a.4.4 0 0 0-.36 0l-2.39 1.38c-.1.04-.09.14 0 .2l2.5 1.44a.35.35 0 0 0 .36 0l2.39-1.38c.07-.04.06-.14-.04-.2Zm-9.8-5.66-2.46-1.44a.43.43 0 0 0-.37 0l-2.38 1.38c-.1.06-.08.15 0 .21l2.46 1.44a.38.38 0 0 0 .36 0l2.4-1.38c.1-.03.1-.14 0-.2Zm-3.64-2.1-2.5-1.44a.4.4 0 0 0-.36 0l-2.4 1.37c-.09.06-.07.15 0 .22l2.5 1.43a.38.38 0 0 0 .37 0l2.4-1.38c.1-.05.1-.14-.01-.2Zm-9.75 5.4 2.5 1.44a.4.4 0 0 0 .36 0l2.38-1.38c.1-.05.1-.14 0-.2l-2.5-1.45a.4.4 0 0 0-.36 0l-2.38 1.38c-.12.06-.1.15 0 .22Zm-3.65-2.1 2.46 1.44a.4.4 0 0 0 .36 0l2.39-1.38c.1-.06.09-.15 0-.21l-2.5-1.45a.4.4 0 0 0-.36 0l-2.37 1.4c-.1.05-.08.14.02.2Zm-3.65-2.1 2.5 1.43a.38.38 0 0 0 .37 0l2.38-1.38c.1-.06.08-.14 0-.21l-2.46-1.44a.4.4 0 0 0-.36 0l-2.4 1.37c-.14.07-.13.16-.03.22Zm-3.64-2.11 2.46 1.43a.4.4 0 0 0 .36 0l2.39-1.37c.1-.06.08-.15 0-.22l-2.46-1.44a.4.4 0 0 0-.36 0l-2.4 1.38c-.1.06-.1.13 0 .22Zm25.49 10.78 2.5 1.42a.38.38 0 0 0 .36 0l2.38-1.37c.1-.06.09-.15 0-.22l-2.5-1.44a.4.4 0 0 0-.36 0l-2.4 1.4c-.1.05-.09.14.02.2Zm-10.9-2.36 5.57 3.22a.4.4 0 0 0 .36 0l5.8-3.35c.1-.05.09-.14 0-.21l-2.92-1.61a.4.4 0 0 0-.36 0l-3.07 1.77a.42.42 0 0 1-.37 0l-2.3-1.34a.4.4 0 0 0-.36 0l-2.39 1.38c-.08-.01-.07.08.04.14Zm2.46-9.62-2.5-1.44a.4.4 0 0 0-.37 0l-2.38 1.38c-.1.05-.09.14 0 .2l2.5 1.44a.38.38 0 0 0 .36 0l2.39-1.37c.1-.05.1-.14-.01-.2Zm-3.65-2.1-2.5-1.45a.4.4 0 0 0-.36 0l-2.4 1.38c-.1.06-.09.15 0 .21l2.46 1.45a.4.4 0 0 0 .36 0l2.39-1.38c.16-.06.15-.15.04-.22ZM263.56 94.4c-.1.06-.1.15 0 .21l2.46 1.45a.4.4 0 0 0 .36 0l2.38-1.38c.1-.06.1-.15 0-.22l-2.5-1.43a.37.37 0 0 0-.36 0l-2.34 1.37Zm9.76-5.19-2.46-1.44a.42.42 0 0 0-.37 0l-2.38 1.38c-.1.05-.09.14 0 .2l2.46 1.45a.4.4 0 0 0 .36 0l2.39-1.38c.1-.06.1-.15 0-.2Zm-7.31 2.66c-.1.06-.08.15 0 .22l2.5 1.44a.4.4 0 0 0 .36 0l2.4-1.38c.08-.05.07-.14 0-.2l-2.5-1.44a.4.4 0 0 0-.37 0l-2.4 1.36Zm-3.93 5.82 2.46 1.44a.4.4 0 0 0 .36 0l2.4-1.39c.08-.05.08-.14 0-.2l-2.5-1.39a.4.4 0 0 0-.36 0l-2.38 1.38c-.1 0-.1.1.01.16h.01Zm-3.67-2.32c-.1.05-.09.15 0 .21l2.5 1.44a.4.4 0 0 0 .36 0l2.39-1.37c.1-.06.09-.16 0-.22L261.2 94a.4.4 0 0 0-.36 0l-2.43 1.38Zm18.55-4.1-2.46-1.44a.42.42 0 0 0-.37 0l-2.42 1.4c-.09.06-.08.15 0 .22l2.46 1.44a.42.42 0 0 0 .37 0l2.39-1.38c.14-.05.14-.14.03-.2v-.03Zm18.25 10.53-2.5-1.43a.37.37 0 0 0-.36 0l-2.4 1.37c-.09.06-.08.15 0 .22l2.5 1.44a.4.4 0 0 0 .37 0l2.38-1.38c.1-.02.1-.13 0-.18v-.04Zm-14.6-8.43-2.46-1.43a.4.4 0 0 0-.36 0l-2.4 1.38c-.09.05-.08.14 0 .21l2.46 1.44a.42.42 0 0 0 .37 0l2.39-1.37c.11-.03.1-.12 0-.18v-.05Zm18.24 10.54-2.46-1.45a.4.4 0 0 0-.36 0l-2.38 1.38c-.1.06-.1.15 0 .22l2.5 1.44a.4.4 0 0 0 .36 0l2.38-1.38c.08-.02.07-.1-.04-.17v-.04Zm-7.3-4.22-2.5-1.43a.37.37 0 0 0-.35 0l-2.42 1.4c-.1.06-.08.15 0 .21l2.5 1.45a.4.4 0 0 0 .36 0l2.38-1.38c.15-.05.14-.14.04-.2v-.05Zm-3.63-2.06-2.46-1.44a.38.38 0 0 0-.36 0l-2.4 1.38c-.08.06-.08.15 0 .21l2.46 1.45a.42.42 0 0 0 .37 0l2.39-1.38c.1-.06.09-.16 0-.22Zm-3.65-2.1-2.46-1.44a.38.38 0 0 0-.36 0l-2.4 1.37c-.08.06-.07.15 0 .22l2.47 1.44a.42.42 0 0 0 .37 0l2.38-1.38c.1-.06.1-.15-.02-.22h.02Zm-2.46 9.61 2.46 1.44a.4.4 0 0 0 .37 0l2.38-1.38c.1-.05.09-.14 0-.21l-2.45-1.44a.43.43 0 0 0-.37 0l-2.39 1.37c-.11.07-.1.16 0 .25v-.03Zm53.14 19.68-2.5-1.44a.4.4 0 0 0-.36 0l-2.37 1.34c-.1.05-.09.15 0 .2l2.5 1.45a.4.4 0 0 0 .36 0l2.39-1.39c.1-.03.09-.14-.02-.19v.03Zm-4.4-2.58-2.5-1.44a.4.4 0 0 0-.37 0l-2.38 1.38c-.1.05-.1.15 0 .2l2.5 1.45a.4.4 0 0 0 .36 0l2.38-1.39c.1-.06.1-.14 0-.2Zm8.06 4.66-2.5-1.44a.4.4 0 0 0-.36 0l-2.39 1.37c-.1.05-.09.15 0 .2l2.5 1.45a.4.4 0 0 0 .36 0l2.39-1.38c.13-.05.13-.14-.01-.2Zm-32.45-11.64 2.5 1.43a.37.37 0 0 0 .36 0l2.38-1.37c.1-.06.1-.15 0-.22l-2.5-1.44a.4.4 0 0 0-.36 0l-2.38 1.38c-.13.06-.12.15-.01.22Zm36.11 13.93c.1-.04.1-.14 0-.2l-2.46-1.44a.4.4 0 0 0-.36 0l-2.45 1.39c-.1.05-.09.15 0 .2l2.56 1.44a.4.4 0 0 0 .36 0l2.35-1.39Zm-56.81-21.94 2.46 1.44a.4.4 0 0 0 .37 0l2.38-1.38c.1-.06.08-.15 0-.21l-2.46-1.45a.4.4 0 0 0-.36 0l-2.4 1.39c-.1.06-.1.15 0 .21Zm44.74 25.83 2.46 1.44a.42.42 0 0 0 .36 0l2.39-1.38c.1-.05.08-.14 0-.2l-2.46-1.44a.38.38 0 0 0-.36 0l-2.4 1.38c-.1.04-.1.16 0 .2Zm-.24-4.1 2.46 1.44a.38.38 0 0 0 .36 0l2.38-1.38c.1-.06.09-.15 0-.21l-2.5-1.45a.4.4 0 0 0-.36 0l-2.39 1.38c-.07.09-.06.18.05.25v-.03Zm8.9 2.18c.1-.06.08-.15 0-.21l-2.5-1.44a.4.4 0 0 0-.37 0l-2.38 1.37c-.1.06-.1.15 0 .22l2.5 1.43a.37.37 0 0 0 .36 0l2.38-1.37Zm.76.44-5.8 3.37c-.1.06-.08.15 0 .22l2.46 1.44a.42.42 0 0 0 .37 0l5.8-3.34c.1-.06.08-.15 0-.22l-2.5-1.44a.4.4 0 0 0-.33 0v-.03Zm-8.09-4.87-2.46-1.44a.4.4 0 0 0-.36 0l-2.39 1.38c-.1.06-.08.15 0 .21l2.46 1.44a.4.4 0 0 0 .37 0l2.38-1.38c.13-.02.1-.11 0-.18v-.02Zm-27.45-15.82-2.5-1.45a.4.4 0 0 0-.36 0l-2.38 1.38c-.1.06-.1.15 0 .22l2.5 1.43a.35.35 0 0 0 .36 0l2.38-1.38c.12-.05.1-.14 0-.2Zm22.44 19.85c-.09.06-.08.15 0 .21l2.46 1.45a.42.42 0 0 0 .37 0l2.39-1.38c.09-.06.08-.15 0-.21l-2.46-1.44a.4.4 0 0 0-.36 0l-2.4 1.37Zm-18.8-17.75-2.5-1.44a.4.4 0 0 0-.36 0l-2.38 1.38c-.1.06-.09.15 0 .21l2.46 1.44a.38.38 0 0 0 .36 0l2.39-1.38c.15-.05.15-.14.04-.2Zm-40.52-16.5c-.1.05-.08.14 0 .2l2.5 1.45a.4.4 0 0 0 .36 0l2.4-1.38c.08-.05.07-.14 0-.2l-2.5-1.44a.38.38 0 0 0-.37 0l-2.4 1.37Zm7.7-2.46-2.5-1.44a.38.38 0 0 0-.37 0L269.65 94c-.1.06-.08.15 0 .21l2.46 1.45a.4.4 0 0 0 .36 0l2.4-1.38c.14-.06.13-.15.02-.21v-.01Zm-4.03 4.77 2.46 1.44a.4.4 0 0 0 .36 0l2.4-1.38c.08-.05.07-.14 0-.21l-2.5-1.43a.38.38 0 0 0-.37 0l-2.38 1.37c-.1.06-.08.15.03.22v-.01Zm3.65 2.1 2.46 1.45a.4.4 0 0 0 .36 0l2.39-1.38c.09-.06.08-.15 0-.21l-2.46-1.45a.41.41 0 0 0-.37 0l-2.38 1.38c-.13.07-.11.16 0 .22Zm3.64 2.11 2.46 1.44a.4.4 0 0 0 .36 0l2.4-1.37c.09-.06.08-.15 0-.22l-2.46-1.44a.42.42 0 0 0-.37 0l-2.39 1.38c-.08.06-.08.15 0 .22v-.01Zm.38-6.88-2.46-1.43a.4.4 0 0 0-.37 0l-2.38 1.38c-.1.05-.08.14 0 .2l2.46 1.45a.4.4 0 0 0 .36 0l2.4-1.38c.1-.05.1-.14 0-.22Zm3.65 2.11-2.46-1.43a.39.39 0 0 0-.37 0l-2.38 1.37c-.1.06-.09.15 0 .22l2.45 1.44a.4.4 0 0 0 .37 0l2.39-1.38c.11-.06.1-.15-.01-.21v-.01Zm14.59 8.43-2.46-1.45a.4.4 0 0 0-.36 0l-2.4 1.38c-.08.06-.08.15 0 .21l2.5 1.44a.38.38 0 0 0 .37 0l2.38-1.38c.12-.04.07-.13-.03-.2Zm-3.65-2.11-2.46-1.44a.4.4 0 0 0-.36 0l-2.4 1.37c-.08.06-.07.15 0 .22l2.47 1.44a.42.42 0 0 0 .37 0l2.38-1.38c.12-.05.1-.14 0-.2v-.01Zm7.3 4.21-2.45-1.44a.4.4 0 0 0-.37 0l-2.39 1.38c-.09.06-.08.15 0 .21l2.5 1.44a.38.38 0 0 0 .36 0l2.39-1.38c.08-.04.06-.13-.04-.2Zm-14.6-8.42-2.45-1.44a.38.38 0 0 0-.36 0l-2.4 1.38c-.09.06-.08.15 0 .21l2.46 1.44a.42.42 0 0 0 .37 0l2.39-1.37c.11-.06.1-.15 0-.21v-.01Zm3.65 2.1-2.46-1.43a.38.38 0 0 0-.36 0l-2.39 1.38c-.09.05-.08.14 0 .2l2.46 1.45a.41.41 0 0 0 .37 0l2.38-1.38c.12-.05.08-.14 0-.2v-.02Zm-23.77-2.69 2.54 1.45a.4.4 0 0 0 .36 0l2.39-1.38c.09-.05.08-.15 0-.2l-2.5-1.45a.4.4 0 0 0-.36 0l-2.39 1.38c-.14.06-.13.16-.03.21Zm1.58-11.1 2.39-1.38c.09-.06.08-.15 0-.2l-2.46-1.45a.42.42 0 0 0-.37 0l-2.38 1.38c-.1.06-.09.16 0 .21l2.46 1.45a.4.4 0 0 0 .37 0l-.01-.01Zm-2.07 2.74 2.39-1.37c.1-.06.09-.15 0-.2l-3.85-2.23a.4.4 0 0 0-.36 0L261.02 89c-.1.05-.1.15 0 .2l3.84 2.22a.4.4 0 0 0 .37.01Zm6.79-4.8 2.38-1.38c.1-.05.09-.14 0-.2l-3.06-1.78a.42.42 0 0 0-.37 0l-2.4 1.42c-.1.05-.08.15 0 .2l3.07 1.78a.4.4 0 0 0 .39-.03H272Zm2.35 1.36c-.09.06-.08.15 0 .21l2.46 1.45a.4.4 0 0 0 .36 0l2.4-1.38c.08-.06.08-.15 0-.21l-2.46-1.45a.42.42 0 0 0-.37 0l-2.39 1.4Zm-11.59 5.97 2.39-1.38c.1-.06.09-.15 0-.21l-4.82-2.76a.4.4 0 0 0-.36 0l-2.39 1.36c-.1.06-.09.15 0 .22l4.8 2.77a.4.4 0 0 0 .39 0h-.01Zm-5.14.97 2.39-1.37c.1-.06.09-.16 0-.22l-3.08-1.77a.38.38 0 0 0-.36 0l-2.4 1.38c-.08.06-.07.15 0 .21l3.08 1.77a.4.4 0 0 0 .38.01Zm43.85 8.72c-.09.05-.08.15 0 .21l2.46 1.44a.42.42 0 0 0 .37 0l2.39-1.38c.1-.05.08-.15 0-.2l-2.46-1.45a.4.4 0 0 0-.36 0l-2.4 1.39Zm-7.3-4.2c-.08.04-.07.14 0 .2l2.47 1.44a.42.42 0 0 0 .37 0l2.38-1.39c.1-.04.08-.14 0-.2l-2.46-1.44a.42.42 0 0 0-.37 0l-2.38 1.38Zm-16.17-9.35c-.1.06-.08.15 0 .21l2.46 1.44a.4.4 0 0 0 .37 0l2.38-1.38c.1-.06.08-.15 0-.21l-2.46-1.45a.4.4 0 0 0-.36 0l-2.4 1.4Zm19.83 11.47c-.1.05-.09.15 0 .2l2.46 1.45a.42.42 0 0 0 .36 0l2.39-1.38c.09-.05.08-.15 0-.2l-2.46-1.45a.4.4 0 0 0-.36 0l-2.4 1.38Zm-7.3-4.21c-.09.05-.08.15 0 .2L293 99a.4.4 0 0 0 .36 0l2.4-1.39c.08-.05.08-.15 0-.2l-2.46-1.45a.42.42 0 0 0-.37 0l-2.39 1.39Zm-33.16-1.37c.09-.06.08-.15 0-.21l-3.84-2.21a.4.4 0 0 0-.36 0l-2.4 1.38c-.08.05-.07.15 0 .2l3.84 2.23a.42.42 0 0 0 .37 0l2.39-1.39Zm27.92-1.64c-.09.06-.08.15 0 .22l2.46 1.43a.4.4 0 0 0 .37 0l2.39-1.38c.1-.05.08-.15 0-.21l-2.46-1.44a.4.4 0 0 0-.36 0l-2.4 1.38Zm-3.64-2.1c-.1.05-.09.14 0 .2l2.45 1.44a.4.4 0 0 0 .37 0l2.39-1.37c.09-.06.08-.15 0-.22l-2.46-1.44a.4.4 0 0 0-.36 0l-2.4 1.39Zm43.3 42.78c.1-.06.09-.15 0-.21l-6.14-3.55a.4.4 0 0 0-.36 0l-2.39 1.38c-.1.05-.09.14 0 .21l6.15 3.54a.4.4 0 0 0 .36 0l2.39-1.37Zm-8.06-4.65c.1-.06.08-.15 0-.22l-2.46-1.44a.43.43 0 0 0-.37 0l-2.38 1.38c-.1.06-.08.15 0 .2l2.46 1.44a.4.4 0 0 0 .36 0l2.4-1.36Zm-47.54-28.44 2.46 1.45a.4.4 0 0 0 .36 0l2.4-1.4c.08-.04.08-.14 0-.2l-2.46-1.44a.43.43 0 0 0-.37 0l-2.39 1.38c-.1.02-.09.12.02.17l-.02.04Zm40.24 24.22c.09-.05.08-.14 0-.21l-2.5-1.44a.4.4 0 0 0-.36 0l-2.43 1.33c-.1.06-.09.15 0 .22l2.5 1.43a.4.4 0 0 0 .36 0l2.43-1.33Zm19.02 10.99c.1-.06.08-.16 0-.22l-2.5-1.44a.4.4 0 0 0-.36 0l-2.38 1.38c-.1.06-.08.15 0 .2l2.46 1.45a.4.4 0 0 0 .36 0l2.42-1.37Zm1.26 3.48 5.8-3.35c.09-.05.08-.15 0-.2l-2.46-1.45a.4.4 0 0 0-.36 0l-5.8 3.35c-.1.05-.08.15 0 .2l2.46 1.45a.41.41 0 0 0 .36-.04v.04Zm-33.9-22.33c.1-.05.09-.15 0-.21l-3.08-1.78a.4.4 0 0 0-.36 0l-2.4 1.38c-.08.06-.07.15 0 .21l3.08 1.77a.4.4 0 0 0 .36 0l2.4-1.38Zm9.22 5.32c.09-.06.08-.15 0-.21l-3.84-2.21a.4.4 0 0 0-.37 0l-2.42 1.32c-.09.05-.08.14 0 .2l3.84 2.22a.4.4 0 0 0 .36 0l2.43-1.32Zm-17.67-10.24c.1-.05.09-.15 0-.2L267 101.3a.4.4 0 0 0-.37 0l-2.38 1.38c-.1.06-.08.15 0 .21l20.54 11.86a.43.43 0 0 0 .36 0l2.4-1.38Zm-21.7-12.53c.1-.05.09-.15 0-.2l-3.07-1.78a.4.4 0 0 0-.36 0l-2.4 1.4c-.1.04-.1.14 0 .2l3.07 1.78a.4.4 0 0 0 .36 0l2.4-1.4Zm25.92 14.99c.1-.06.09-.15 0-.22l-3.06-1.77a.43.43 0 0 0-.37 0l-2.39 1.39c-.1.05-.08.15 0 .2l3.07 1.78a.42.42 0 0 0 .37 0l2.38-1.38ZM261.61 98.4c.1-.05.09-.15 0-.2l-3.08-1.78a.38.38 0 0 0-.36 0l-2.4 1.37c-.1.06-.09.15 0 .22l3.07 1.77a.4.4 0 0 0 .36 0l2.4-1.38Zm38.6 22.29c.1-.06.09-.15 0-.22l-3.07-1.77a.41.41 0 0 0-.36 0l-2.39 1.39c-.1.05-.09.15 0 .2l3.08 1.78a.4.4 0 0 0 .36 0l2.38-1.38Zm13.06 7.54c.1-.06.08-.15 0-.22l-2.5-1.44a.4.4 0 0 0-.36 0l-2.38 1.38c-.1.06-.09.15 0 .2l2.45 1.45a.4.4 0 0 0 .36 0l2.43-1.37Zm9.9 4.71 2.45 1.44a.43.43 0 0 0 .36 0l2.4-1.38c.09-.05.08-.15 0-.2l-2.46-1.45a.42.42 0 0 0-.37 0l-2.39 1.38c-.14.05-.13.15 0 .21Zm-1.25-8.59 2.5 1.44c.05.03.12.04.18.04s.12-.02.18-.05l2.38-1.37c.1-.06.1-.15 0-.22l-2.5-1.44a.4.4 0 0 0-.36 0l-2.38 1.38c-.14.06-.13.16-.03.22h.03Zm-23.35-5.6 7.3 4.21a.42.42 0 0 0 .37 0l2.38-1.37c.1-.05.08-.15 0-.2l-7.3-4.22a.4.4 0 0 0-.35 0l-2.4 1.37c-.13.06-.12.15 0 .21Zm20.91 11.88c-.1.05-.08.15 0 .2l2.46 1.45a.4.4 0 0 0 .36 0l2.4-1.39c.09-.05.08-.15 0-.2l-2.5-1.45a.42.42 0 0 0-.36 0l-2.36 1.39Zm3.44-1.76 2.46 1.44a.42.42 0 0 0 .37 0l2.38-1.38c.1-.06.08-.15 0-.2l-2.5-1.43a.42.42 0 0 0-.38 0l-2.38 1.38c-.08.03-.07.12.03.19h.02Zm-28.01-12.22 2.5 1.44a.4.4 0 0 0 .36 0l2.39-1.38c.1-.05.09-.15 0-.2l-2.5-1.45a.4.4 0 0 0-.37 0l-2.38 1.39c-.12.04-.1.14 0 .2Zm16.5 9.32c-.1.05-.09.15 0 .2l2.45 1.45a.43.43 0 0 0 .36 0l2.4-1.38c.08-.05.08-.15 0-.21l-2.46-1.44a.43.43 0 0 0-.37 0l-2.39 1.38Zm-34.74-19.86 2.46 1.44a.4.4 0 0 0 .36 0l2.4-1.38c.09-.05.08-.15 0-.2l-2.46-1.45a.45.45 0 0 0-.37 0l-2.39 1.39c-.11.08-.1.14 0 .2Zm3.65 2.1 2.46 1.45a.45.45 0 0 0 .37 0l2.38-1.38c.1-.05.09-.15 0-.2l-2.46-1.45a.42.42 0 0 0-.36 0l-2.39 1.38c-.12.05-.1.15 0 .2Zm-7.3-4.2 2.46 1.44a.4.4 0 0 0 .18.04c.07 0 .13-.01.18-.04l2.4-1.39c.09-.05.08-.14 0-.2l-2.46-1.44a.41.41 0 0 0-.37 0l-2.39 1.37c-.11.06-.1.16 0 .22Zm14.6 8.42 2.45 1.45a.42.42 0 0 0 .37 0l2.4-1.33c.1-.05.08-.15 0-.2l-2.46-1.45a.4.4 0 0 0-.36 0l-2.4 1.39c-.12-.01-.11.09 0 .14Zm-3.65-2.1 2.46 1.44a.45.45 0 0 0 .37 0l2.38-1.39c.09-.05.08-.14 0-.2l-2.46-1.44a.4.4 0 0 0-.36 0l-2.42 1.35c-.12.08-.08.18.03.24Zm7.3 4.2 2.5 1.45a.4.4 0 0 0 .35 0l2.39-1.38c.1-.05.09-.14 0-.2l-2.46-1.44a.4.4 0 0 0-.36 0l-2.4 1.38c-.14.04-.1.14-.03.2Zm50.75 11.48c-.1.06-.1.15 0 .22l2.5 1.44a.4.4 0 0 0 .36 0l.64-.37c.09-.05.08-.15 0-.2l-2.51-1.44a.4.4 0 0 0-.36 0l-.63.35Zm-19.89-10.46c-.1.05-.09.14 0 .21l2.5 1.44a.4.4 0 0 0 .36 0l2.39-1.37c.1-.06.09-.15 0-.22l-2.5-1.42a.4.4 0 0 0-.36 0l-2.39 1.36Zm7.3 4.21c-.1.06-.09.15 0 .21l2.45 1.44a.38.38 0 0 0 .37 0l2.39-1.38c.09-.06.08-.15 0-.21l-2.46-1.41a.39.39 0 0 0-.18-.05.39.39 0 0 0-.18.05l-2.4 1.35Zm-11.76-6.79c-.09.06-.08.15 0 .22l2.46 1.44a.43.43 0 0 0 .37 0l2.38-1.38c.1-.06.09-.15 0-.2l-2.45-1.45a.4.4 0 0 0-.36 0l-2.4 1.37Zm8.1 4.68c-.09.06-.08.15 0 .22l2.5 1.43a.38.38 0 0 0 .37 0l2.4-1.38c.08-.05.07-.14 0-.2l-2.47-1.45a.4.4 0 0 0-.36 0l-2.43 1.38Zm-15.4-8.87c-.08.05-.07.15 0 .2l2.47 1.45a.42.42 0 0 0 .37 0l2.38-1.38c.09-.05.08-.14 0-.2l-2.46-1.44a.41.41 0 0 0-.37 0l-2.38 1.37Zm3.65 2.1c-.09.06-.08.15 0 .22l2.46 1.44a.42.42 0 0 0 .37 0l2.39-1.38c.09-.06.08-.15 0-.2l-2.46-1.45a.4.4 0 0 0-.36 0l-2.4 1.37Zm20.7 10.94c-.1.06-.09.15 0 .21l2.5 1.44a.4.4 0 0 0 .36 0l.64-.36c.1-.06.08-.15 0-.21l-2.5-1.44a.4.4 0 0 0-.36 0l-.64.36Zm10.94 6.3c-.1.06-.09.15 0 .21l2.46 1.45a.4.4 0 0 0 .36 0l.64-.37c.1-.05.08-.15 0-.2l-2.46-1.45a.42.42 0 0 0-.37 0l-.63.36Zm-5.01 2.9c-.1.05-.1.15 0 .2l2.46 1.45a.4.4 0 0 0 .36 0l2.4-1.39c.08-.04.07-.14 0-.2l-2.5-1.44a.43.43 0 0 0-.37 0l-2.35 1.38Zm-13.86 4.01 2.46 1.44a.4.4 0 0 0 .36 0l2.39-1.37c.09-.05.08-.15 0-.2l-2.46-1.45a.42.42 0 0 0-.37 0l-2.38 1.38c-.12.06-.11.16 0 .22v-.02Zm11.58-11.12c-.1.05-.1.14 0 .21l2.5 1.44a.4.4 0 0 0 .36 0l.64-.37c.09-.05.08-.14 0-.2l-2.5-1.44a.4.4 0 0 0-.36 0l-.64.36Zm-31.64-17.22c-.1.06-.08.16 0 .22l2.46 1.44a.4.4 0 0 0 .36 0l2.4-1.38c.08-.05.07-.14 0-.2l-2.47-1.44a.41.41 0 0 0-.37 0l-2.38 1.36Z" fill="#000"/>
  <path d="m298.8 127.17-.5.3-13.6 7.84-24.18-13.96-.5-.28 14.1-8.14 24.68 14.24Z" fill="#9ABDCE"/>
  <path d="m298.8 127.17-.5.3-13.6 7.84-24.18-13.96-.5-.28 14.1-8.14 24.68 14.24Z" fill="#000" opacity=".6"/>
  <path d="m298.3 127.47-13.6 7.84-24.18-13.96 13.6-7.84 24.18 13.96Z" fill="#9ABDCE"/>
  <path d="m298.3 127.47-13.6 7.84-24.18-13.96 13.6-7.84 24.18 13.96Z" fill="#000" opacity=".5"/>
  <path d="M368.52 124.62a3.02 3.02 0 0 1 0 .01l.2-.14a.86.86 0 0 1-.2.13Z" fill="#9ABDCE"/>
</svg>
