<svg width="460" height="274" fill="none" xmlns="http://www.w3.org/2000/svg">
  <g opacity=".5" fill="#151513">
    <path d="M155.54 177.82a1 1 0 0 1-.87-.5 1 1 0 0 1 .37-1.31l5.68-3.28a.97.97 0 0 1 1.31.35.99.99 0 0 1-.35 1.31l-5.68 3.28c-.14.08-.3.13-.46.15Zm9.08-5.25a.98.98 0 0 1-.49-1.84l5.68-3.27a.97.97 0 0 1 1.31.35.98.98 0 0 1-.35 1.31l-5.68 3.28a1 1 0 0 1-.47.17Zm9.09-5.25a1 1 0 0 1-.86-.5.97.97 0 0 1 .37-1.3l5.68-3.28a.97.97 0 0 1 1.31.35 1 1 0 0 1-.35 1.31l-5.68 3.28c-.15.08-.3.13-.47.14Zm9.09-5.24a1 1 0 0 1-.86-.5.98.98 0 0 1 .36-1.31l5.68-3.28a.98.98 0 0 1 1.3.35.99.99 0 0 1-.36 1.31l-5.68 3.28c-.13.08-.29.13-.44.15Zm9.09-5.25a1 1 0 0 1-.86-.5.97.97 0 0 1 .36-1.31l5.68-3.28a.98.98 0 0 1 1.3.35 1 1 0 0 1-.36 1.32l-5.68 3.28a.99.99 0 0 1-.44.14Zm9.09-5.25a.98.98 0 0 1-.5-1.83l5.68-3.28a.97.97 0 0 1 1.3.35.98.98 0 0 1-.34 1.31l-5.69 3.28a.92.92 0 0 1-.45.17Zm9.07-5.24a.98.98 0 0 1-.94-.74.99.99 0 0 1 .46-1.1l5.68-3.28a.97.97 0 0 1 1.3.36.98.98 0 0 1-.35 1.3l-5.67 3.29c-.15.09-.3.15-.48.17Zm9.1-5.25a1 1 0 0 1-.86-.5.97.97 0 0 1 .37-1.3l5.68-3.29a.97.97 0 0 1 1.3.36 1 1 0 0 1-.35 1.3l-5.67 3.29c-.15.08-.31.13-.48.14Zm9.08-5.25a1 1 0 0 1-.85-.5.97.97 0 0 1 .37-1.3l5.68-3.28a.97.97 0 0 1 1.3.35 1 1 0 0 1-.35 1.31l-5.68 3.3c-.14.07-.3.12-.47.12Zm9.1-5.24a.99.99 0 0 1-.86-.5.97.97 0 0 1 .35-1.31l5.68-3.28a.98.98 0 0 1 1.31.35 1 1 0 0 1-.36 1.31l-5.68 3.28a1.2 1.2 0 0 1-.45.15Zm9.08-5.25a1 1 0 0 1-.85-.5.97.97 0 0 1 .35-1.3l5.68-3.29a.98.98 0 0 1 1.31.36 1 1 0 0 1-.36 1.3l-5.68 3.29c-.14.08-.3.12-.45.14Zm9.1-5.25a1 1 0 0 1-.87-.5.98.98 0 0 1 .36-1.3l5.68-3.28a.97.97 0 0 1 1.31.35.98.98 0 0 1-.35 1.31l-5.68 3.28c-.14.08-.3.13-.46.14Zm9.07-5.24a.98.98 0 0 1-.9-1.36c.08-.2.23-.37.41-.48l5.68-3.28a.97.97 0 0 1 1.31.36.98.98 0 0 1-.35 1.3l-5.68 3.29c-.14.09-.3.15-.47.17Zm9.09-5.25a1 1 0 0 1-.85-.5.97.97 0 0 1 .36-1.3l5.68-3.29a.97.97 0 0 1 1.31.36 1 1 0 0 1-.35 1.3l-5.68 3.29c-.14.08-.3.13-.47.14Zm9.09-5.25a1 1 0 0 1-.86-.5.98.98 0 0 1 .36-1.3l5.68-3.29a.98.98 0 0 1 1.31.36 1 1 0 0 1-.37 1.31l-5.68 3.28a.95.95 0 0 1-.44.14Zm9.09-5.24a1 1 0 0 1-.86-.5.97.97 0 0 1 .36-1.31l.98-.57a.97.97 0 0 1 1.31.36 1 1 0 0 1-.35 1.3l-.98.57c-.14.08-.3.13-.46.15Z"/>
    <path d="M292.82 177.82c-.17 0-.34-.05-.49-.13l-5.68-3.28a.99.99 0 0 1-.1-1.64 1.02 1.02 0 0 1 .72-.2c.13.03.25.07.37.13l5.68 3.28a.98.98 0 0 1 0 1.69.98.98 0 0 1-.5.15Zm-9.03-5.25c-.17 0-.33-.05-.48-.13l-5.68-3.28a1 1 0 0 1-.37-1.31.98.98 0 0 1 1.31-.36l5.68 3.28a.97.97 0 0 1 .36 1.31 1 1 0 0 1-.82.49Zm-9.18-5.25c-.17 0-.33-.05-.48-.13l-5.68-3.28a1 1 0 0 1-.37-1.3.99.99 0 0 1 1.31-.36l5.68 3.28a.97.97 0 0 1 .36 1.3 1 1 0 0 1-.82.5Zm-9.07-5.24c-.18 0-.35-.05-.5-.13l-5.68-3.28a.99.99 0 0 1-.36-1.31.97.97 0 0 1 1.31-.36l5.69 3.28a.98.98 0 0 1 .36 1.31 1.02 1.02 0 0 1-.8.49h-.02Zm-9.1-5.25a1.1 1.1 0 0 1-.5-.13l-5.67-3.28a.98.98 0 0 1-.36-1.31.97.97 0 0 1 1.32-.36l5.67 3.28a.98.98 0 0 1 .47 1.1.98.98 0 0 1-.95.74l.03-.04Zm-9.08-5.25c-.18 0-.35-.05-.5-.13l-5.68-3.28a1 1 0 0 1-.36-1.3.97.97 0 0 1 1.32-.36l5.68 3.28a.97.97 0 0 1 .36 1.3 1 1 0 0 1-.8.5h-.02Zm-9.1-5.24c-.16 0-.33-.05-.48-.13l-5.68-3.28a1 1 0 0 1-.46-.6.97.97 0 0 1 .1-.75.98.98 0 0 1 1.34-.36l5.68 3.28a.98.98 0 0 1 .36 1.31 1 1 0 0 1-.83.53h-.02Zm-9.08-5.25c-.17 0-.34-.05-.49-.13l-5.68-3.28a1 1 0 0 1-.36-1.31.98.98 0 0 1 1.3-.36l5.69 3.28a.97.97 0 0 1 .35 1.31 1 1 0 0 1-.79.5h-.02Zm-9.1-5.25c-.16 0-.33-.05-.48-.13l-5.68-3.28a.99.99 0 0 1-.35-1.3.97.97 0 0 1 1.31-.36l5.68 3.28a.98.98 0 0 1-.5 1.83l.03-.04Zm-9.07-5.24c-.17 0-.34-.05-.5-.13l-5.68-3.28a.99.99 0 0 1-.35-1.31.97.97 0 0 1 1.31-.36l5.68 3.28a.98.98 0 0 1-.49 1.84l.03-.04Zm-9.09-5.25c-.17 0-.34-.05-.5-.13l-5.68-3.28a.98.98 0 0 1-.35-1.31.97.97 0 0 1 1.31-.35l5.68 3.27a.98.98 0 0 1-.49 1.84l.03-.04Zm-9.09-5.25a.95.95 0 0 1-.49-.13l-5.6-3.28a.98.98 0 0 1 .97-1.7l5.69 3.28a.98.98 0 0 1 .35 1.3 1 1 0 0 1-.9.53h-.02Zm-9.09-5.24c-.17 0-.34-.05-.49-.13l-5.7-3.28a1 1 0 0 1-.37-1.31.98.98 0 0 1 1.31-.36l5.68 3.28a.97.97 0 0 1 .36 1.31 1 1 0 0 1-.76.49h-.03Zm-9.09-5.25c-.17 0-.33-.05-.48-.13l-5.68-3.28a1 1 0 0 1-.37-1.31.98.98 0 0 1 1.31-.36l5.68 3.28a.97.97 0 0 1 .35 1.31 1 1 0 0 1-.78.5h-.03Zm-9.08-5.25c-.17 0-.34-.05-.5-.13l-5.67-3.28a.98.98 0 0 1-.36-1.3.97.97 0 0 1 1.31-.36l5.68 3.28a.99.99 0 0 1 .37 1.3 1.02 1.02 0 0 1-.8.5h-.03Zm-9-5.24c-.18 0-.35-.05-.5-.13l-.98-.57a1 1 0 0 1-.36-1.3.98.98 0 0 1 1.3-.36l.98.56a.98.98 0 0 1 .4 1.06.99.99 0 0 1-.85.74ZM168.88 2.9h-3.28a.98.98 0 1 1 0-1.96h3.28a.98.98 0 1 1 0 1.97Zm118.27 0h-6.71a.98.98 0 1 1 0-1.96h6.71a.99.99 0 0 1 0 1.97Zm-10.74 0h-6.73a.99.99 0 0 1 0-1.96h6.73a.98.98 0 0 1 0 1.97Zm-10.76 0h-6.78a.98.98 0 1 1 0-1.96h6.73a.98.98 0 1 1 0 1.97h.05Zm-10.75 0h-6.72a.98.98 0 1 1 0-1.96h6.76a.98.98 0 1 1 0 1.97h-.04Zm-10.76 0h-6.71a.99.99 0 0 1 0-1.96h6.71a.98.98 0 1 1 0 1.97Zm-10.75 0h-6.72a.98.98 0 1 1 0-1.96h6.72a.99.99 0 0 1 0 1.97Zm-10.74 0h-6.73a.99.99 0 0 1 0-1.96h6.73a.98.98 0 1 1 0 1.97Zm-10.76 0h-6.72a.98.98 0 1 1 0-1.96h6.72a.99.99 0 0 1 0 1.97Zm-10.76 0h-6.71a.99.99 0 0 1 0-1.96h6.74a.98.98 0 1 1 0 1.97h-.03Zm-10.75 0h-6.72a.99.99 0 0 1 0-1.96h6.72a.98.98 0 1 1 0 1.97Zm-10.75 0h-6.72a.98.98 0 0 1 0-1.96h6.72a.99.99 0 0 1 0 1.97Zm114.84 0h-3.28a.99.99 0 0 1 0-1.96h3.28a.99.99 0 0 1 0 1.97ZM168.88 273.4h-3.28a.99.99 0 0 1 0-1.97h3.28a.98.98 0 0 1 0 1.97Zm118.27 0h-6.71a.98.98 0 0 1 0-1.97h6.71a.99.99 0 0 1 .7 1.68.99.99 0 0 1-.7.29Zm-10.74 0h-6.73a.99.99 0 0 1-.7-1.68.99.99 0 0 1 .7-.29h6.73a.98.98 0 0 1 0 1.97Zm-10.76 0h-6.78a.99.99 0 0 1 0-1.97h6.73a.99.99 0 0 1 0 1.97h.05Zm-10.75 0h-6.72a.99.99 0 0 1 0-1.97h6.76a.98.98 0 0 1 0 1.97h-.04Zm-10.76 0h-6.71a.99.99 0 0 1-.7-1.68.99.99 0 0 1 .7-.29h6.71a.98.98 0 0 1 0 1.97Zm-10.75 0h-6.72a.98.98 0 0 1 0-1.97h6.72a.99.99 0 0 1 .7 1.68.99.99 0 0 1-.7.29Zm-10.74 0h-6.73a.99.99 0 0 1-.7-1.68.99.99 0 0 1 .7-.29h6.73a.98.98 0 0 1 0 1.97Zm-10.76 0h-6.72a.98.98 0 0 1 0-1.97h6.72a.99.99 0 0 1 .7 1.68.99.99 0 0 1-.7.29Zm-10.76 0h-6.71a.99.99 0 0 1-.7-1.68.99.99 0 0 1 .7-.29h6.74a.98.98 0 0 1 0 1.97h-.03Zm-10.75 0h-6.72a.99.99 0 0 1-.7-1.68.99.99 0 0 1 .7-.29h6.72a.98.98 0 0 1 0 1.97Zm-10.75 0h-6.72a.98.98 0 0 1 0-1.97h6.72a.99.99 0 0 1 .7 1.68.99.99 0 0 1-.7.29Zm114.84 0h-3.28a.99.99 0 0 1-.7-1.68.99.99 0 0 1 .7-.29h3.28a.99.99 0 0 1 .7 1.68.99.99 0 0 1-.7.29Zm164-108.7a.98.98 0 0 1-.99-.98v-4.67a.98.98 0 0 1 1.97 0v4.67a.98.98 0 0 1-.98.98Zm0-8.6a1 1 0 0 1-.99-.99v-6.56a.99.99 0 0 1 .99-.98.98.98 0 0 1 .98.98v6.56a1 1 0 0 1-.98.96v.03Zm0-10.5a1 1 0 0 1-.99-.98v-6.56a.99.99 0 0 1 .99-.98.98.98 0 0 1 .98.98v6.56a1 1 0 0 1-.98.96v.02Zm0-10.5a1 1 0 0 1-.99-.97v-6.56a.98.98 0 0 1 1.97 0v6.56a1 1 0 0 1-.98.95v.03Zm0-10.48a1 1 0 0 1-.99-.99v-6.56a.98.98 0 0 1 1.97 0v6.56a1 1 0 0 1-.98.96v.03Zm0-10.5a1 1 0 0 1-.99-.98v-6.56a.99.99 0 0 1 .99-.98.98.98 0 0 1 .98.98v6.56a1 1 0 0 1-.98.96v.02Zm0-10.49a1 1 0 0 1-.99-.98v-6.56a.99.99 0 0 1 1.97 0v6.56a1 1 0 0 1-.98.95v.03ZM1.56 164.7a.98.98 0 0 1-.98-.98v-4.67a.98.98 0 1 1 1.97 0v4.67a.98.98 0 0 1-.99.98Zm0-8.6a1 1 0 0 1-.98-.99v-6.56a.99.99 0 0 1 1.97 0v6.56a1 1 0 0 1-.99.96v.03Zm0-10.5a1 1 0 0 1-.98-.98v-6.56a.99.99 0 0 1 1.97 0v6.56a1 1 0 0 1-.99.96v.02Zm0-10.5a1 1 0 0 1-.98-.97v-6.56a.98.98 0 1 1 1.97 0v6.56a1 1 0 0 1-.99.95v.03Zm0-10.48a1 1 0 0 1-.98-.99v-6.56a.98.98 0 1 1 1.97 0v6.56a1 1 0 0 1-.99.96v.03Zm0-10.5a1 1 0 0 1-.98-.98v-6.56a.99.99 0 0 1 1.97 0v6.56a1 1 0 0 1-.99.96v.02Zm0-10.49a1 1 0 0 1-.98-.98v-6.56a.98.98 0 0 1 1.97 0v6.56a1 1 0 0 1-.99.95v.03Z"/>
  </g>
</svg>
