<svg width="104" height="110" viewBox="0 0 104 110" fill="none" xmlns="http://www.w3.org/2000/svg">
<path fill-rule="evenodd" clip-rule="evenodd" d="M30.08 45.4437H59.7388V61.16H30.08V94.2838H48.7869C56.1912 94.2838 62.2481 93.2869 66.9644 91.2794C71.6806 89.2788 75.3794 86.5081 78.0675 82.9606C80.8169 79.2715 82.6885 75.0039 83.54 70.4825C84.5333 65.3823 85.0169 60.1959 84.9837 55C85.0169 49.8041 84.5333 44.6177 83.54 39.5175C82.6894 34.9958 80.8177 30.728 78.0675 27.0394C75.3794 23.4919 71.6738 20.7212 66.9644 18.7206C62.2481 16.7131 56.1912 15.7163 48.7869 15.7163H30.08V45.4506V45.4437ZM11.0638 61.16H0.875V45.4506H11.0638V0H56.0881C64.4069 0 71.605 1.44375 77.6894 4.31062C83.7738 7.19125 88.7375 11.1169 92.5944 16.1012C96.4444 21.0788 99.3112 26.9088 101.188 33.5844C103.065 40.26 104 47.4031 104 55C104.047 62.234 103.099 69.4402 101.181 76.4156C99.3112 83.0844 96.4444 88.9213 92.5875 93.8988C88.7375 98.8831 83.7738 102.809 77.6894 105.689C71.605 108.563 64.4 110 56.0881 110H11.0638V61.16Z" fill="white"/>
</svg>
