<svg width="52" height="69" fill="none" xmlns="http://www.w3.org/2000/svg">
  <path d="m42.5 9.95 1.6-3.29-7.53-4.34A11.1 11.1 0 0 0 33 1.02a12.5 12.5 0 0 0-4.86.13 16.43 16.43 0 0 0-3.57 1.17c-.8.34-1.57.74-2.32 1.18a27.6 27.6 0 0 0-4.2 2.99C9.46 13.73 2.71 26.64 1 39.04a39.15 39.15 0 0 0-.42 6.09c0 .96 0 1.89.1 2.8.11.9.16 1.53.27 2.25.1.72.25 1.43.4 2.1a20.45 20.45 0 0 0 2.59 6.2 12.62 12.62 0 0 0 4.2 4.04l7.14 4.12 1.45-3.01c.38-.1.77-.19 1.15-.3 1.59-.5 3.12-1.18 4.55-2.03a33.97 33.97 0 0 0 5.9-4.56c7.17-6.89 12.8-17.67 14.87-28.4a43.88 43.88 0 0 0 .85-8.7c0-1.85-.16-3.7-.46-5.53-.23-1.42-.59-2.8-1.08-4.16Z" fill="#FBD40B"/>
  <path opacity=".25" d="m2.59 31.71 14.62 8.45 1.85-5.34-14.63-8.45a61.2 61.2 0 0 0-1.84 5.34ZM36.58 2.32a11.1 11.1 0 0 0-3.59-1.3 12.5 12.5 0 0 0-4.86.13l-.64.15L42.5 9.98l1.6-3.3-7.52-4.36Zm-.9 20.81 1.85-2.21L15.9 8.5c-.67.67-1.3 1.3-1.95 2.08l21.73 12.55ZM9.48 16.5 28.3 27.36l2-5.25-17.56-10.14a50.18 50.18 0 0 0-3.26 4.53Z" fill="#fff"/>
  <path opacity=".4" d="M36.57 2.32A11.1 11.1 0 0 0 33 1.02a12.5 12.5 0 0 0-4.86.13 16.43 16.43 0 0 0-3.57 1.17c-.8.34-1.57.74-2.32 1.18a27.6 27.6 0 0 0-4.2 2.99c-7.99 6.74-14.43 18.36-16.62 30l29.84 17.23a56.86 56.86 0 0 0 11.95-25.27 43.85 43.85 0 0 0 .85-8.7c0-1.85-.15-3.7-.45-5.53-.24-1.47-.62-2.9-1.13-4.3l1.58-3.29-7.49-4.31Z" fill="#fff"/>
  <path opacity=".1" d="m15.29 66.75 1.44-3.02c.38-.1.77-.18 1.15-.3 1.6-.5 3.12-1.18 4.56-2.02a33.97 33.97 0 0 0 5.9-4.56c1.02-1 2-2.04 2.91-3.13L1.4 36.5A47.8 47.8 0 0 0 .66 48c.1.9.16 1.54.26 2.26.1.72.25 1.43.41 2.1a20.45 20.45 0 0 0 2.58 6.2 12.62 12.62 0 0 0 4.2 4.04l7.18 4.15Z" fill="#000"/>
  <path opacity=".1" d="M3.38 57.62c.18.33.38.65.57.96a12.62 12.62 0 0 0 4.2 4.04l7.15 4.11 1.44-3.01.1-1.25-15.12-8.72c.41 1.34.97 2.64 1.66 3.87Z" fill="#000"/>
  <path d="M51.02 18.5c-.3-1.9-.85-3.74-1.62-5.5a14.14 14.14 0 0 0-4.23-5.62 10.8 10.8 0 0 0-4.78-2.08 12.5 12.5 0 0 0-4.86.13 16.44 16.44 0 0 0-3.57 1.17c-.8.34-1.57.73-2.32 1.17a27.61 27.61 0 0 0-4.2 3C16.86 18 10.12 30.9 8.39 43.32c-.12.88-.2 1.71-.28 2.52-.1 1.2-.16 2.39-.14 3.57 0 .95 0 1.89.1 2.8.1.9.16 1.53.26 2.25.11.72.25 1.43.41 2.1a20.45 20.45 0 0 0 2.59 6.2c.82 1.27 1.85 2.4 3.06 3.3a10.86 10.86 0 0 0 6.04 2.18 14.5 14.5 0 0 0 4.84-.63c1.58-.5 3.1-1.17 4.54-2.02a32.45 32.45 0 0 0 5.9-4.56c7.16-6.89 12.8-17.67 14.86-28.39a46.47 46.47 0 0 0 .85-8.7c.02-1.82-.11-3.64-.4-5.44Z" fill="#FBD40B"/>
  <path opacity=".05" d="M8.83 40.74a40.52 40.52 0 0 0-.7 5.14c-.11 1.2-.16 2.39-.15 3.57 0 .95 0 1.89.1 2.79.11.9.16 1.53.27 2.26.1.72.25 1.43.4 2.1a20.45 20.45 0 0 0 2.59 6.2 12.7 12.7 0 0 0 3.07 3.3 10.86 10.86 0 0 0 6.03 2.18 14.5 14.5 0 0 0 4.84-.63c1.59-.5 3.1-1.17 4.54-2.02.8-.47 1.6-1 2.37-1.56L8.83 40.74Z" fill="#000"/>
  <path opacity=".05" d="M9.16 58.06a19.86 19.86 0 0 0 2.18 4.78 12.7 12.7 0 0 0 3.07 3.3 10.69 10.69 0 0 0 4.88 2.05L9.16 58.06Z" fill="#000"/>
  <path opacity=".25" d="M11.8 30.65a54.44 54.44 0 0 0-1.83 5.34l25.45 25.45.34-.33a40.42 40.42 0 0 0 3.12-3.37L11.8 30.65Zm8.33-14.4a50.19 50.19 0 0 0-3.27 4.51l28.02 28.02c.9-1.7 1.74-3.48 2.49-5.25L20.13 16.25Zm3.17-3.52c-.67.67-1.31 1.31-1.98 2.1L48.1 41.6c.37-1 .73-2 1.04-3.03L23.3 12.73Zm28.11 9.38c0-.52-.07-1.02-.12-1.52v-1c0-.36-.1-.73-.17-1.09-.3-1.9-.84-3.74-1.61-5.5a14.14 14.14 0 0 0-4.24-5.62A10.8 10.8 0 0 0 40.5 5.3a12.5 12.5 0 0 0-4.87.13l-.64.14L51.4 22.11Z" fill="#fff"/>
  <path d="M45.93 27.37c0 11.45-6.67 24.67-15.11 30.29-.37.23-.72.47-1.1.68-8.95 5.17-16.2-.32-16.2-12.25 0-11.94 7.25-25.79 16.2-30.97.38-.21.73-.4 1.1-.58 8.44-4.13 15.1 1.38 15.1 12.83Z" fill="#FBD40B"/>
  <path opacity=".4" d="M45.93 27.37c0 11.45-6.67 24.67-15.11 30.29-.37.23-.72.47-1.1.68-8.95 5.17-16.2-.32-16.2-12.25 0-11.94 7.25-25.79 16.2-30.97.38-.21.73-.4 1.1-.58 8.44-4.13 15.1 1.38 15.1 12.83Z" fill="#000"/>
  <path d="M45.2 27.8v1.1c-.41 10.67-6.62 22.63-14.42 27.83l-.21.14-.83.51c-1.5.9-3.14 1.5-4.86 1.76a8.17 8.17 0 0 1-8.56-4.36 16.66 16.66 0 0 1-2-7.38v-3.38c.06-1.18.2-2.36.39-3.52a39.24 39.24 0 0 1 11.3-21.7 22.23 22.23 0 0 1 3.7-2.72c.4-.24.69-.38 1.03-.55l.29-.13a10.4 10.4 0 0 1 6.4-1.03c3.26.63 5.77 3.23 6.98 7.37.55 1.97.82 4 .8 6.05Z" fill="#FBD40B"/>
  <path opacity=".7" d="M45.2 27.8v1.1c-.41 10.67-6.62 22.63-14.42 27.83l-.21.14-.83.51c-1.5.9-3.14 1.5-4.86 1.76a8.17 8.17 0 0 1-8.56-4.36 16.66 16.66 0 0 1-2-7.38v-3.38c.06-1.18.2-2.36.39-3.52a39.24 39.24 0 0 1 11.3-21.7 22.23 22.23 0 0 1 3.7-2.72c.4-.24.69-.38 1.03-.55l.29-.13a10.4 10.4 0 0 1 6.4-1.03c3.26.63 5.77 3.23 6.98 7.37.55 1.97.82 4 .8 6.05Z" fill="#000"/>
  <path d="M42.62 27.41V26.3a21.3 21.3 0 0 0-.79-6.05 11.44 11.44 0 0 0-3.33-5.59 7.2 7.2 0 0 0-1.07-.29 10.4 10.4 0 0 0-6.4 1.03l-.3.13a19.77 19.77 0 0 0-4.71 3.26A39.24 39.24 0 0 0 14.66 40.5c-.2 1.16-.33 2.34-.4 3.52v3.38c.09 2.58.78 5.11 2.01 7.38a10 10 0 0 0 2.03 2.52c1.27.42 2.62.54 3.94.36a13.8 13.8 0 0 0 4.86-1.77l.83-.51.21-.15c7.86-5.2 14.08-17.16 14.48-27.82Z" fill="#FBD40B"/>
  <path opacity=".6" d="M42.62 27.41V26.3a21.3 21.3 0 0 0-.79-6.05 11.44 11.44 0 0 0-3.33-5.59 7.2 7.2 0 0 0-1.07-.29 10.4 10.4 0 0 0-6.4 1.03l-.3.13a19.77 19.77 0 0 0-4.71 3.26A39.24 39.24 0 0 0 14.66 40.5c-.2 1.16-.33 2.34-.4 3.52v3.38c.09 2.58.78 5.11 2.01 7.38a10 10 0 0 0 2.03 2.52c1.27.42 2.62.54 3.94.36a13.8 13.8 0 0 0 4.86-1.77l.83-.51.21-.15c7.86-5.2 14.08-17.16 14.48-27.82Z" fill="#000"/>
  <path d="M40.44 5.3a12.12 12.12 0 0 0-6.2.5l-.5.15-.48.2-.99.4a23.6 23.6 0 0 0-5.35 3.22c-.55.44-1.11.86-1.61 1.31-.5.45-1.05.93-1.54 1.42-.48.48-.98.98-1.45 1.5L21 15.58l-1.32 1.64-1.23 1.67-1.17 1.75a54.97 54.97 0 0 0-2.12 3.6l-.5.91-.47.95c-.3.63-.63 1.24-.9 1.88a86.24 86.24 0 0 0-1.6 3.86l-.72 1.98c-.22.66-.4 1.31-.61 2-.21.68-.37 1.3-.55 2.02-.19.7-.33 1.3-.48 2.03l-.22 1.02-.17 1.04c-.1.7-.23 1.3-.3 2.07-.07.76-.17 1.39-.22 2.07-.06.68-.1 1.4-.13 2.09v2.1c0 .7 0 1.4.09 2.08l.22 2.07.4 2.08c.4 1.83 1.04 3.59 1.92 5.24.24.41.46.83.72 1.22.27.4.54.76.84 1.13.6.74 1.28 1.4 2.04 1.97-.78-.56-1.48-1.2-2.09-1.93a18 18 0 0 1-.87-1.11c-.27-.38-.5-.8-.76-1.21a20.21 20.21 0 0 1-2.06-5.25l-.4-2.06-.26-2.1c-.07-.7-.08-1.4-.12-2.1v-2.11c0-.7 0-1.4.1-2.1.1-.72.15-1.4.21-2.1.07-.71.2-1.4.3-2.1l.17-1.03.21-1.03c.15-.7.3-1.38.48-2.06.18-.69.32-1.32.55-2.04l.61-2.02.7-1.98.77-1.96c.25-.66.57-1.32.86-1.93.28-.62.59-1.31.9-1.9l.47-.95.51-.92c.67-1.24 1.4-2.44 2.17-3.62.4-.59.77-1.18 1.18-1.74l1.31-1.7 1.31-1.65c.46-.52.95-1.03 1.4-1.56.47-.52 1-1 1.5-1.5.5-.52 1.05-.94 1.56-1.41s1.1-.88 1.65-1.31a22.59 22.59 0 0 1 5.46-3.19l.99-.37.5-.18c.16-.07.33-.1.5-.14.69-.16 1.32-.38 2.05-.48a12.5 12.5 0 0 1 4.05.1Z" fill="#F5F5F5"/>
  <mask id="a" style="mask-type:luminance" maskUnits="userSpaceOnUse" x="14" y="14" width="32" height="46">
    <path d="M45.2 27.8v1.1c-.41 10.67-6.62 22.63-14.42 27.83l-.21.14-.83.51c-1.5.9-3.14 1.5-4.86 1.76a8.17 8.17 0 0 1-8.56-4.36 16.66 16.66 0 0 1-2-7.38v-3.38c.06-1.18.2-2.36.39-3.52a39.24 39.24 0 0 1 11.3-21.7 22.23 22.23 0 0 1 3.7-2.72c.4-.24.69-.38 1.03-.55l.29-.13a10.4 10.4 0 0 1 6.4-1.03c3.26.63 5.77 3.23 6.98 7.37.55 1.97.82 4 .8 6.05Z" fill="#fff"/>
  </mask>
  <g mask="url(#a)">
    <path d="m26.12 20.14 2.69 1.55 3.84-2.21-2.69-1.55-3.84 2.21Z" fill="#FBD40B"/>
    <path opacity=".2" d="m26.12 20.14 2.69 1.55 3.84-2.21-2.69-1.55-3.84 2.21Z" fill="#000"/>
    <path d="m27.46 22.47-2.68-1.55-3.84 2.21 2.68 1.55 3.84-2.21Z" fill="#FBD40B"/>
    <path opacity=".2" d="m27.46 22.47-2.68-1.55-3.84 2.21 2.68 1.55 3.84-2.21Z" fill="#000"/>
    <path d="m20.94 25.9 2.68 1.55L20.94 29l-2.68-1.55 2.68-1.55Z" fill="#FBD40B"/>
    <path opacity=".2" d="m20.94 25.9 2.68 1.55L20.94 29l-2.68-1.55 2.68-1.55Z" fill="#000"/>
    <path d="m18.26 32.57 2.68 1.54V29l-2.68-1.55v5.12Z" fill="#FBD40B"/>
    <path opacity=".35" d="m18.26 32.57 2.68 1.54V29l-2.68-1.55v5.12Z" fill="#000"/>
    <path d="M20.94 23.13v2.77l2.68 1.55v-2.77l-2.68-1.55Z" fill="#FBD40B"/>
    <path opacity=".35" d="M20.94 23.13v2.77l2.68 1.55v-2.77l-2.68-1.55Z" fill="#000"/>
    <path d="M26.12 20.14v1.55l1.34.78v2.75l1.35-.76v-2.77l-2.69-1.55Z" fill="#FBD40B"/>
    <path opacity=".35" d="M26.12 20.14v1.55l1.34.78v2.75l1.35-.76v-2.77l-2.69-1.55Z" fill="#000"/>
    <path d="m18.26 48.44 2.68 1.54 1.82-1.05-2.67-1.54-1.83 1.05Z" fill="#FBD40B"/>
    <path opacity=".2" d="m18.26 48.44 2.68 1.54 1.82-1.05-2.67-1.54-1.83 1.05Z" fill="#000"/>
    <path d="m20.09 47.39 2.67 1.54V33.06l-1.82 1.05-.85-.48v13.76Z" fill="#FBD40B"/>
    <path opacity=".45" d="m20.09 47.39 2.67 1.54V33.06l-1.82 1.05-.85-.48v13.76Z" fill="#000"/>
    <path d="m18.26 48.44 2.68 1.54v5.13l-2.68-1.55v-5.12Z" fill="#FBD40B"/>
    <path opacity=".35" d="m18.26 48.44 2.68 1.54v5.13l-2.68-1.55v-5.12Z" fill="#000"/>
    <path d="M23.62 53.56v2.26l-1.95-1.13 1.95-1.13Z" fill="#FBD40B"/>
    <path opacity=".45" d="M23.62 53.56v2.26l-1.95-1.13 1.95-1.13Z" fill="#000"/>
    <path d="M28.81 50.57v2.26l-1.35-.77v-.71l1.35-.78Z" fill="#FBD40B"/>
    <path opacity=".45" d="M28.81 50.57v2.26l-1.35-.77v-.71l1.35-.78Z" fill="#000"/>
    <path d="M33.89 21.86h.47c.5-.01 1 .1 1.45.34l-2.62-1.5a3.1 3.1 0 0 0-.56-.25v1.86c.23-.11.48-.2.73-.28l.36-.09.17-.08Z" fill="#FBD40B"/>
    <path opacity=".2" d="M33.89 21.86h.47c.5-.01 1 .1 1.45.34l-2.62-1.5a3.1 3.1 0 0 0-.56-.25v1.86c.23-.11.48-.2.73-.28l.36-.09.17-.08Z" fill="#000"/>
    <path d="M34.66 39.02v.42a4.67 4.67 0 0 1-1.95 3.75l-5.38 3.12-.7.4v-3.09l3.43-1.98a4.75 4.75 0 0 0 1.96-3.7l.24-.13.47-.29c1.06-.61 1.93.06 1.93 1.5Z" fill="#FBD40B"/>
    <path opacity=".45" d="M34.66 39.02v.42a4.67 4.67 0 0 1-1.95 3.75l-5.38 3.12-.7.4v-3.09l3.43-1.98a4.75 4.75 0 0 0 1.96-3.7l.24-.13.47-.29c1.06-.61 1.93.06 1.93 1.5Z" fill="#000"/>
    <path d="M33.98 28.93v.4a4.2 4.2 0 0 1-1.75 3.35l-5.62 3.24v-3.1l2.95-1.68a4.25 4.25 0 0 0 1.7-2.97l.95-.55c1-.58 1.77.01 1.77 1.31Z" fill="#FBD40B"/>
    <path opacity=".45" d="M33.98 28.93v.4a4.2 4.2 0 0 1-1.75 3.35l-5.62 3.24v-3.1l2.95-1.68a4.25 4.25 0 0 0 1.7-2.97l.95-.55c1-.58 1.77.01 1.77 1.31Z" fill="#000"/>
    <path d="M36.7 32.24c.71-1.62 1.1-3.36 1.12-5.13v-.4c0-3.94-2.27-5.83-5.17-4.44v-2.8L28.8 21.7v2.77l-1.31.76v-2.75l-3.86 2.21v2.77L21 29v5.11l1.82-1.05v15.87L21 49.98v5.13l2.62-1.55v2.26l3.86-2.23v-2.24l1.3-.78v2.26l3.86-2.23v-2.24c3.2-1.85 5.81-6.82 5.81-11.1v-.42a5.39 5.39 0 0 0-1.77-4.6Zm-2.72-3.3v.39a4.24 4.24 0 0 1-1.75 3.35l-5.62 3.24V30.8l.7-.4 4.92-2.84c.96-.5 1.75.08 1.75 1.38Zm-7.38 12.1 5.62-3.25.48-.26c1.07-.63 1.96 0 1.96 1.48v.42a4.72 4.72 0 0 1-1.96 3.75l-5.38 3.12-.7.4-.02-5.66Z" fill="#FBD40B"/>
    <path opacity=".3" d="M32.65 22.27V20.8l-.85-.85-2.62 1.5 8.29 8.29c.2-.86.3-1.74.31-2.63v-1.15l-4.06-4.07c-.37.08-.73.2-1.07.37Zm1.33 6.57v.49a4.23 4.23 0 0 1-1.75 3.35l-1.39.8 7.18 7.17c.32-1.12.48-2.27.5-3.43v-.42a5.4 5.4 0 0 0-1.83-4.56c.08-.16.13-.33.2-.49l-2.91-2.91ZM28.2 45.79l-.9.52-.7.4V44.2l-3.84-3.85v7.17l4.7 4.7v-.86l1.35-.78v2.26l3.84-2.23v-.38l-4.44-4.43Z" fill="#fff"/>
    <path opacity=".25" d="m27.63 30.26 4.6-2.63c.11-.07.23-.12.36-.15l-3.8-3.8v.8l-1.3.77v-2.76l-3.86 2.22v1.57l4 3.98Z" fill="#fff"/>
    <path d="M22.76 33.06v15.87c0-.65 0-1.3.1-1.98.11-.66 0-1.3 0-1.98 0-1.3.07-2.62.07-3.93V35.1l-.06-1.98v-.18l-.16.09-1.77 1.14 1.82-1.12Zm1.94-8.82 1-.5.97-.54.64-.37v1.7c0 .23 0 .45.1.68v-2.76l-3.86 2.22.52-.21.63-.22Zm5.13-2.98 1-.5a28 28 0 0 0 1.61-.92v1.03c0 .34 0 .47.07.7.06.21 0 .46.1.69v-2.79l-3.87 2.22.53-.2.56-.23Zm4.15 7.67v.4a4.24 4.24 0 0 1-1.75 3.35l-5.61 3.24.54-.25 1.3-.7 1.94-1.03 1.07-.6.55-.32.28-.15c.1-.07.2-.12.29-.2a4.37 4.37 0 0 0 1.5-3.4c.02-.36-.03-.71-.13-1.06-.08-.3-.28-.57-.55-.75a.98.98 0 0 0-.7-.1c-.13.03-.27.09-.4.16l-.13.07c1.02-.53 1.8.06 1.8 1.34Zm.85 10.42c.02-.4-.04-.8-.16-1.17-.1-.34-.31-.62-.61-.8a1.1 1.1 0 0 0-.76-.12c-.16.04-.31.1-.45.18l-.14.08c1.07-.59 1.94.08 1.94 1.51v.42a4.72 4.72 0 0 1-1.97 3.75l-5.35 3.11-.68.4.57-.28 1.51-.77 2.13-1.15 1.18-.66c.42-.22.83-.47 1.22-.75a4.81 4.81 0 0 0 1.57-3.75Z" fill="#F5F5F5"/>
    <path d="M38.52 37.22v-.42a5.4 5.4 0 0 0-1.83-4.56l.16.13a4.8 4.8 0 0 1 1.26 2.29c.1.43.18.87.2 1.32a12.34 12.34 0 0 1-.06 2.36c0 .26-.06.53-.11.81-.04.28-.1.56-.17.83a14.76 14.76 0 0 1-.8 2.44c-.11.25-.21.5-.35.76-.1.24-.23.48-.36.72a11.78 11.78 0 0 1-1.62 2.44c-.26.33-.55.61-.8.86-.2.22-.43.42-.67.6l-.64.48c3.18-1.75 5.79-6.78 5.79-11.06ZM25.44 54.54c-.63.4-1.24.83-1.82 1.3l3.85-2.22v-2.25c-.1.7-.18 1.42-.2 2.13-.62.3-1.25.66-1.83 1.04Zm7.21-6.18c-.1.7-.16 1.41-.18 2.12-.63.33-1.25.68-1.85 1.05-.64.4-1.25.83-1.82 1.31l3.85-2.23v-2.25Z" fill="#F5F5F5"/>
  </g>
</svg>
