<svg width="43" height="43" viewBox="0 0 43 43" fill="none" xmlns="http://www.w3.org/2000/svg">
<path d="M22.0733 15.462C22.4137 15.462 22.7542 15.5874 23.0229 15.8562C23.5425 16.3758 23.5425 17.2358 23.0229 17.7553L19.3858 21.3924L23.0229 25.0295C23.5425 25.5491 23.5425 26.4091 23.0229 26.9287C22.5033 27.4483 21.6433 27.4483 21.1237 26.9287L16.5371 22.342C16.0175 21.8224 16.0175 20.9624 16.5371 20.4428L21.1237 15.8562C21.3746 15.5874 21.7329 15.462 22.0733 15.462Z" fill="white"/>
<path d="M17.6122 20.0488L35.8335 20.0488C36.5681 20.0488 37.1772 20.658 37.1772 21.3926C37.1772 22.1272 36.5681 22.7363 35.8335 22.7363L17.6122 22.7363C16.8777 22.7363 16.2685 22.1272 16.2685 21.3926C16.2685 20.658 16.8777 20.0488 17.6122 20.0488Z" fill="white"/>
<path d="M21.5 5.82308C22.2346 5.82308 22.8438 6.43225 22.8438 7.16683C22.8438 7.90141 22.2346 8.51058 21.5 8.51058C13.8496 8.51058 8.51042 13.8497 8.51042 21.5002C8.51042 29.1506 13.8496 34.4897 21.5 34.4897C22.2346 34.4897 22.8438 35.0989 22.8438 35.8335C22.8438 36.5681 22.2346 37.1772 21.5 37.1772C12.2729 37.1772 5.82292 30.7272 5.82292 21.5002C5.82292 12.2731 12.2729 5.82308 21.5 5.82308Z" fill="#4F4F4F"/>
</svg>
