<svg width="43" height="43" viewBox="0 0 43 43" fill="none" xmlns="http://www.w3.org/2000/svg">
<g opacity="0.5">
<path d="M22.0731 27.538C22.4135 27.538 22.7539 27.4126 23.0227 27.1438C23.5422 26.6242 23.5422 25.7642 23.0227 25.2447L19.3856 21.6076L23.0227 17.9705C23.5422 17.4509 23.5422 16.5909 23.0227 16.0713C22.5031 15.5517 21.6431 15.5517 21.1235 16.0713L16.5368 20.658C16.0172 21.1776 16.0172 22.0376 16.5368 22.5572L21.1235 27.1438C21.3743 27.4126 21.7327 27.538 22.0731 27.538Z" fill="white"/>
<path d="M17.612 22.9512H35.8333C36.5678 22.9512 37.177 22.342 37.177 21.6074C37.177 20.8728 36.5678 20.2637 35.8333 20.2637H17.612C16.8774 20.2637 16.2683 20.8728 16.2683 21.6074C16.2683 22.342 16.8774 22.9512 17.612 22.9512Z" fill="white"/>
<path d="M21.5 37.1769C22.2346 37.1769 22.8438 36.5678 22.8438 35.8332C22.8438 35.0986 22.2346 34.4894 21.5 34.4894C13.8496 34.4894 8.51042 29.1503 8.51042 21.4998C8.51042 13.8494 13.8496 8.51025 21.5 8.51025C22.2346 8.51025 22.8438 7.90109 22.8438 7.1665C22.8438 6.43192 22.2346 5.82275 21.5 5.82275C12.2729 5.82275 5.82292 12.2728 5.82292 21.4998C5.82292 30.7269 12.2729 37.1769 21.5 37.1769Z" fill="white"/>
</g>
</svg>
