<svg width="129" height="97" fill="none" xmlns="http://www.w3.org/2000/svg">
  <path d="m128.98 62.35-83.06-47.8L4.4 38.44l83.05 47.8 41.53-23.9Z" fill="#337523"/>
  <path opacity=".7" d="m128.98 62.35-83.06-47.8L4.4 38.44l83.05 47.8 41.53-23.9Z" fill="#fff"/>
  <path d="m8.77 38.45 78.65 45.28 37.15-21.38-78.65-45.29L8.77 38.45Zm2.19 0 34.96-20.13 76.5 44.03-34.97 20.13-76.5-44.03Z" fill="#337523"/>
  <path d="M68.25 62.77c-5.66 0-11.47-1.3-15.94-3.87-4.36-2.5-6.86-5.93-6.86-9.4 0-3.17 2.05-6.1 5.73-8.23 7.94-4.57 21.34-4.29 29.88.63 4.4 2.51 6.85 5.93 6.85 9.39 0 3.17-2.05 6.1-5.74 8.23-3.68 2.14-8.8 3.25-13.92 3.25Zm-3.12-24.02c-5 0-9.88 1.04-13.55 3.17-3.49 2-5.4 4.69-5.4 7.59 0 3.19 2.37 6.37 6.49 8.74 8.33 4.8 21.4 5.08 29.13.63 3.48-2 5.39-4.7 5.39-7.6 0-3.18-2.36-6.37-6.48-8.74a32.03 32.03 0 0 0-15.58-3.79Z" fill="#337523"/>
  <path d="M68.25 60.1a30.12 30.12 0 0 1-14.6-3.53c-3.5-2.01-5.5-4.59-5.5-7.06 0-2.18 1.57-4.28 4.4-5.92 3.29-1.87 7.73-2.9 12.6-2.9a30.13 30.13 0 0 1 14.57 3.54c3.5 2.01 5.51 4.58 5.51 7.06 0 2.17-1.57 4.27-4.42 5.91-3.23 1.87-7.7 2.9-12.56 2.9Z" fill="#337523" opacity=".5"/>
  <path opacity=".5" d="M83.08 78.05 60.25 64.83l1.83.24c1.63.2 3.27.3 4.91.3a34.6 34.6 0 0 0 15.89-4.16c4.04-2.32 8.11-6.48 8.11-10.54 0-1.41-.32-2.81-.92-4.1l-.49-1.05 25.01 14.46-2.74 1.64a1.18 1.18 0 0 0-.72.93 1.2 1.2 0 0 0 .72.94l2.74 1.58-22.77 13.02-2.37-1.36a4.45 4.45 0 0 0-4 0l-2.37 1.32Z" fill="#337523"/>
  <path d="M93.13 68.81a7.82 7.82 0 0 1-3.81-.93 2.95 2.95 0 0 1-1.72-2.4 2.52 2.52 0 0 1 1.46-2.14 7.96 7.96 0 0 1 7.16.14 2.95 2.95 0 0 1 1.72 2.4 2.54 2.54 0 0 1-1.46 2.15 6.86 6.86 0 0 1-3.35.78Z" fill="#fff" opacity=".4"/>
  <path opacity=".5" d="M43.84 55.24 18.9 40.92l2.74-1.59c.47-.27.72-.6.72-.93a1.18 1.18 0 0 0-.72-.93l-2.74-1.6 22.73-12.9L44 24.33a4.51 4.51 0 0 0 4 0l2.37-1.36 22.82 13.1-1.85-.23a35.13 35.13 0 0 0-21 3.74c-5.25 3.02-7.92 6.27-7.92 9.64.02 1.7.34 3.39.96 4.98l.47 1.04Z" fill="#337523"/>
  <path d="M40.86 38.85a7.77 7.77 0 0 1-3.8-.93 2.93 2.93 0 0 1-1.73-2.4 2.55 2.55 0 0 1 1.47-2.15 7.94 7.94 0 0 1 7.16.15 2.95 2.95 0 0 1 1.72 2.4 2.52 2.52 0 0 1-1.47 2.14 6.84 6.84 0 0 1-3.35.8Z" fill="#fff" opacity=".4"/>
  <path d="M128.98 62.35v10.07l-41.53 23.9V86.23l41.53-23.9Z" fill="#337523"/>
  <path d="M128.98 62.35v10.07l-41.53 23.9V86.23l41.53-23.9Z" fill="#fff" opacity=".2"/>
  <path d="m87.45 88.49 13.1-7.27-13.1 7.88v-.61Zm41.53-21.37-4.38 2.78 4.38-2.26v-.52Zm0 2.4-21.86 12.96 21.86-12.21v-.75ZM87.45 90.89l21.86-12.18-21.86 12.97v-.8Z" opacity=".1" fill="#000"/>
  <path d="M87.45 96.31 4.4 48.51V38.44l83.05 47.8v10.07Z" fill="#337523"/>
  <path d="M87.45 96.31 4.4 48.51V38.44l83.05 47.8v10.07Z" fill="#000" opacity=".2"/>
  <path d="m87.45 88.49-4.37-2.25 4.37 2.86v-.61Zm0 2.4L65.47 78.64l21.98 13.04v-.8ZM4.4 43.18l15.3 9.1-15.3-8.5v-.6Zm0 2.52 8.74 5.32-8.74-4.75v-.56Z" fill="#000" opacity=".3"/>
  <path d="M94.68 40.94 51.72 65.68 38.6 58.14 81.57 33.4l13.11 7.54Z" fill="#FAFAFA"/>
  <path d="M38.6 58.14v10.94l13.12 7.55V65.68L38.6 58.14Zm13.12 18.49.76-.45-.76-.44v.89Zm42.96-35.69v1.67l-1.45-.83 1.45-.84Z" fill="#E0E0E0"/>
  <path d="M52.48 76.18V66.12l-.76-.44v10.06l.76.44Z" fill="#000" opacity=".3"/>
  <path d="M52.48 66.12 94 42.22l-.77-.44-41.51 23.9.76.44Z" fill="#000" style="mix-blend-mode:multiply" opacity=".2"/>
  <path d="M93.28 40.13 50.29 64.86l-1.09-.63L92.18 39.5l1.1.63Zm-9.2-5.28L41.11 59.58l-1.1-.63L83 34.2l1.1.64Z" fill="#455A64"/>
  <path d="M50.29 64.86v10.95l-1.09-.63V64.23l1.09.63Zm-9.19-5.28v10.94l-1.08-.62V58.95l1.09.63Z" fill="#263238"/>
  <path d="M125.42 48.31 42.38.51.85 24.41 83.9 72.2l41.52-23.9Z" fill="#337523"/>
  <path opacity=".7" d="M125.42 48.31 42.38.51.85 24.41 83.9 72.2l41.52-23.9Z" fill="#fff"/>
  <path d="M5.22 24.4 83.9 69.7l37.16-21.39L42.4 3.03 5.2 24.4Zm2.18 0L42.38 4.28l76.49 44.04L83.9 68.43 7.4 24.41Z" fill="#337523"/>
  <path d="M64.7 48.74c-5.67 0-11.48-1.3-15.96-3.88-4.36-2.51-6.86-5.93-6.86-9.4 0-3.16 2.05-6.09 5.74-8.23 7.94-4.57 21.34-4.28 29.88.64 4.36 2.5 6.85 5.93 6.85 9.38 0 3.17-2.04 6.1-5.73 8.24-3.69 2.14-8.8 3.25-13.93 3.25Zm-3.11-23.99c-5 0-9.9 1.04-13.57 3.16-3.47 2-5.39 4.7-5.39 7.6 0 3.18 2.37 6.37 6.49 8.74 8.33 4.8 21.4 5.08 29.13.63 3.47-2 5.4-4.7 5.4-7.6 0-3.18-2.37-6.37-6.49-8.74a32.03 32.03 0 0 0-15.57-3.79Z" fill="#337523"/>
  <path d="M64.68 46.05a30.1 30.1 0 0 1-14.59-3.53c-3.5-2.01-5.51-4.6-5.51-7.07 0-2.17 1.56-4.27 4.42-5.9 3.27-1.88 7.72-2.91 12.59-2.91a30.13 30.13 0 0 1 14.6 3.53c3.5 2.02 5.5 4.6 5.5 7.07 0 2.17-1.56 4.27-4.41 5.91-3.26 1.89-7.72 2.9-12.6 2.9Z" fill="#337523" opacity=".5"/>
  <path opacity=".5" d="M79.53 64.02 56.7 50.8l1.83.23c1.63.2 3.27.31 4.92.31a34.66 34.66 0 0 0 15.87-4.17c4.05-2.32 8.12-6.48 8.12-10.53a9.7 9.7 0 0 0-.92-4.1l-.49-1.06 25 14.47-2.74 1.58a.96.96 0 0 0-.52 1.53c.13.17.32.29.52.34l2.75 1.58-22.78 13.03-2.37-1.37a4.47 4.47 0 0 0-4 0l-2.36 1.38Z" fill="#337523"/>
  <path d="M89.55 54.78a7.86 7.86 0 0 1-3.82-.93 2.97 2.97 0 0 1-1.72-2.4 2.53 2.53 0 0 1 1.47-2.15 7.94 7.94 0 0 1 7.16.14 2.97 2.97 0 0 1 1.72 2.41A2.56 2.56 0 0 1 92.9 54c-1.04.53-2.19.8-3.35.78Z" fill="#fff" opacity=".4"/>
  <path opacity=".5" d="M40.3 41.21 15.34 26.88l2.75-1.58a1.19 1.19 0 0 0 .7-.94 1.17 1.17 0 0 0-.7-.93l-2.75-1.59 22.73-12.9 2.37 1.36a4.51 4.51 0 0 0 4 0l2.37-1.37 22.82 13.11-1.85-.24a35.11 35.11 0 0 0-21 3.77c-5.26 3.03-7.93 6.28-7.93 9.65.02 1.7.35 3.39.96 4.97l.49 1.02Z" fill="#337523"/>
  <path d="M37.31 24.8a7.82 7.82 0 0 1-3.8-.92 2.95 2.95 0 0 1-1.73-2.4 2.52 2.52 0 0 1 1.47-2.14 7.94 7.94 0 0 1 7.16.14 2.93 2.93 0 0 1 1.72 2.41 2.53 2.53 0 0 1-1.47 2.14 6.83 6.83 0 0 1-3.35.78Z" fill="#fff" opacity=".4"/>
  <path d="M125.42 48.31v10.06L83.9 82.27V72.22l41.52-23.9Z" fill="#337523"/>
  <path d="M125.42 48.31v10.06L83.9 82.27V72.22l41.52-23.9Z" fill="#fff" opacity=".2"/>
  <path d="m83.9 74.46 13.11-7.28-13.1 7.89v-.61Zm41.52-21.37-4.36 2.77 4.36-2.26v-.51Zm0 2.4-21.85 12.95 21.85-12.21v-.74ZM83.9 76.86l21.85-12.2L83.9 77.65v-.78Z" opacity=".1" fill="#000"/>
  <path d="M83.9 82.28.85 34.48V24.4L83.9 72.2v10.07Z" fill="#337523"/>
  <path d="M83.9 82.28.85 34.48V24.4L83.9 72.2v10.07Z" fill="#000" opacity=".2"/>
  <path d="m83.9 74.45-4.37-2.24 4.37 2.86v-.61Zm0 2.41L61.92 64.6 83.9 77.64v-.78ZM.85 29.15l15.3 9.1-15.3-8.5v-.6Zm0 2.52L9.59 37 .85 32.24v-.57Z" fill="#000" opacity=".3"/>
  <path d="M91.14 26.9 48.16 51.65l-13.1-7.54 42.96-24.75 13.12 7.56Z" fill="#FAFAFA"/>
  <path d="M35.05 44.1v10.95l13.11 7.54V51.64l-13.1-7.54Zm13.11 18.5.77-.45-.77-.44v.88Zm42.98-35.7v1.68l-1.45-.84 1.45-.83Z" fill="#E0E0E0"/>
  <path d="M48.93 62.14V52.1l-.77-.45V61.7l.77.43Z" fill="#000" opacity=".3"/>
  <path d="m48.93 52.09 41.52-23.9-.76-.45-41.53 23.9.77.45Z" fill="#000" style="mix-blend-mode:multiply" opacity=".2"/>
  <path d="M89.72 26.09 46.74 50.83l-1.09-.63 42.98-24.74 1.09.63Zm-9.18-5.28L37.56 45.54l-1.09-.63 42.98-24.73 1.09.63Z" fill="#455A64"/>
  <path d="M46.74 50.83v10.94l-1.09-.62V50.2l1.1.63Zm-9.18-5.29V56.5l-1.09-.63V44.9l1.09.63Z" fill="#263238"/>
</svg>
