<svg width="145" height="289" fill="none" xmlns="http://www.w3.org/2000/svg">
  <path d="M125.87 229.25c-1.77-2.97-4.69-5.73-8.8-8.13-14.38-8.31-37.69-8.31-52.09 0-4.1 2.36-7.03 5.16-8.79 8.13H54.2v7.51c.26 5.24 3.84 10.42 10.76 14.41 14.38 8.31 37.68 8.31 52.08 0 6.93-3.99 10.53-9.17 10.8-14.4v-7.53l-1.97.01Z" fill="#FBD40B"/>
  <path opacity=".3" d="M125.87 229.25c-1.77-2.97-4.69-5.73-8.8-8.13-14.38-8.31-37.69-8.31-52.09 0-4.1 2.36-7.03 5.16-8.79 8.13H54.2v7.51c.26 5.24 3.84 10.42 10.76 14.41 14.38 8.31 37.68 8.31 52.08 0 6.93-3.99 10.53-9.17 10.8-14.4v-7.53l-1.97.01Z" fill="#000"/>
  <path opacity=".1" d="M91.03 214.89c-9.43 0-18.84 2.07-26.05 6.23-4.1 2.36-7.03 5.16-8.79 8.13H54.2v7.51c.26 5.24 3.84 10.42 10.76 14.41 7.19 4.16 16.62 6.24 26.05 6.24l.02-42.52Z" fill="#000"/>
  <path opacity=".1" d="M70.91 218.34a39.19 39.19 0 0 0-5.9 2.78c-4.1 2.36-7.03 5.16-8.8 8.13h-1.99v7.51c.27 5.24 3.85 10.42 10.76 14.41a39.79 39.79 0 0 0 5.93 2.78v-35.61Z" fill="#000"/>
  <path opacity=".5" d="M111.14 218.34c2.05.76 4.03 1.69 5.93 2.78 4.1 2.36 7.04 5.16 8.8 8.13h1.99v7.51c-.27 5.24-3.88 10.42-10.8 14.41a39.24 39.24 0 0 1-5.92 2.78v-35.61Z" fill="#FBD40B"/>
  <path d="M65 214.22c-14.37 8.3-14.37 21.77 0 30.07 12.6 7.27 32.02 8.2 46.32 2.72l.57-.22c1.8-.7 3.53-1.54 5.2-2.5 12-6.93 14-17.44 5.98-25.56a27.82 27.82 0 0 0-5.97-4.51c-14.4-8.3-37.73-8.3-52.1 0Z" fill="#FBD40B"/>
  <path opacity=".2" d="M65 214.22c-14.37 8.3-14.37 21.77 0 30.07 12.6 7.27 32.02 8.2 46.32 2.72l.57-.22c1.8-.7 3.53-1.54 5.2-2.5 12-6.93 14-17.44 5.98-25.56a27.82 27.82 0 0 0-5.97-4.51c-14.4-8.3-37.73-8.3-52.1 0Z" fill="#000"/>
  <path opacity=".5" d="M123.05 218.74c.15.18 5.18 5.49 3.85 13.1-1.28 7.32-11.51 13.47-15.03 14.94 1.79-.7 3.53-1.54 5.2-2.5 12-6.92 14-17.43 5.98-25.54ZM59 239.77c-.15-.17-5.18-5.48-3.84-13.1 1.27-7.31 11.47-13.47 15.03-14.94-1.8.7-3.53 1.54-5.2 2.5-12 6.91-14 17.42-5.98 25.54Z" fill="#F5F5F5"/>
  <path d="M91.04 249c18.9 0 34.24-8.86 34.24-19.77 0-10.92-15.33-19.77-34.24-19.77-18.9 0-34.23 8.85-34.23 19.77 0 10.91 15.32 19.77 34.23 19.77Z" fill="#FBD40B"/>
  <path opacity=".1" d="M91.04 249c18.9 0 34.24-8.86 34.24-19.77 0-10.92-15.33-19.77-34.24-19.77-18.9 0-34.23 8.85-34.23 19.77 0 10.91 15.32 19.77 34.23 19.77Z" fill="#fff"/>
  <path opacity=".2" d="M123.72 235.13c2.75-5.1 1.86-10.7-2.69-15.45-.9-.93-1.86-1.78-2.9-2.55a30.29 30.29 0 0 0-4.45-2.73c1.42 2.34.9 4.85-7.16 5.32-15.79.92 4.2 16 4.2 16s10.18-4.91 13-.6Z" fill="#fff"/>
  <path opacity=".3" d="M122.1 230.96c2.37-.27 3.54-2.7 2.61-5.44-.92-2.74-3.58-4.75-5.95-4.49-2.36.27-3.54 2.7-2.62 5.44.93 2.74 3.58 4.76 5.96 4.49Z" fill="#fff"/>
  <path d="M97.14 243.52c-.82-5.86-26.4-22.08-26.4-22.08s-5.68-2.27-3.8-6.25a30.3 30.3 0 0 0-2.73 1.77c-.6.43-1.15.87-1.64 1.32-7.62 6.6-7.63 15.28 0 21.9a28.17 28.17 0 0 0 4.18 2.96 35.56 35.56 0 0 0 5.02 2.4 49.53 49.53 0 0 0 10.04 2.7l1.72.26a59.37 59.37 0 0 0 16.99-.3s-4.12-.79-3.38-4.68Z" fill="#FBD40B"/>
  <path opacity=".2" d="M96.77 243.52c-.78-5.86-26.39-22.08-26.39-22.08s-5.69-2.27-3.8-6.25c-.94.54-1.86 1.13-2.74 1.77-.59.43-1.14.87-1.64 1.32-7.62 6.6-7.63 15.28 0 21.9a28.17 28.17 0 0 0 4.18 2.96 35.56 35.56 0 0 0 5.02 2.4c.8.3 1.59.6 2.4.87 2.5.82 5.06 1.43 7.65 1.84l1.72.25a59.37 59.37 0 0 0 16.99-.3s-4.12-.79-3.4-4.68Z" fill="#fff"/>
  <path d="M73 218.81c-9.56 5.52-9.95 14.32-1.17 20.1.37.25.76.5 1.16.73 9.97 5.73 26.11 5.73 36.05 0 9.94-5.73 9.96-15.07 0-20.83-.4-.23-.82-.46-1.25-.68-10.01-5.06-25.24-4.84-34.8.68Z" fill="#FBD40B"/>
  <path opacity=".2" d="M73 218.81c-9.56 5.52-9.95 14.32-1.17 20.1.37.25.76.5 1.16.73 9.97 5.73 26.11 5.73 36.05 0 9.94-5.73 9.96-15.07 0-20.83-.4-.23-.82-.46-1.25-.68-10.01-5.06-25.24-4.84-34.8.68Z" fill="#000"/>
  <path d="M91.04 243.3c13.47 0 24.38-6.3 24.38-14.07 0-7.78-10.91-14.08-24.38-14.08-13.46 0-24.38 6.3-24.38 14.08 0 7.77 10.92 14.07 24.38 14.07Z" fill="#FBD40B"/>
  <path opacity=".5" d="M91.04 243.3c13.47 0 24.38-6.3 24.38-14.07 0-7.78-10.91-14.08-24.38-14.08-13.46 0-24.38 6.3-24.38 14.08 0 7.77 10.92 14.07 24.38 14.07Z" fill="#000"/>
  <path d="M73.8 223.2c9.52-5.5 24.96-5.5 34.48 0 3.9 2.24 6.2 5.06 6.9 7.99-.7 2.92-3 5.73-6.9 7.99-9.52 5.5-24.96 5.5-34.48 0-3.89-2.25-6.19-5.07-6.9-8 .71-2.92 3.02-5.74 6.9-7.98Z" fill="#FBD40B"/>
  <path opacity=".35" d="M73.8 223.2c9.52-5.5 24.96-5.5 34.48 0 3.9 2.24 6.2 5.06 6.9 7.99-.7 2.92-3 5.73-6.9 7.99-9.52 5.5-24.96 5.5-34.48 0-3.89-2.25-6.19-5.07-6.9-8 .71-2.92 3.02-5.74 6.9-7.98Z" fill="#000"/>
  <path d="M106.4 233.49v-2.91c0-1.2-.83-2.35-2.6-3.4h-.07c-3.28-1.88-6.65-1.63-9.67-.88-1.28.32-2.5.74-3.6 1.13-1.28.45-2.59.84-3.9 1.14a6.8 6.8 0 0 1-1.85.18 3.8 3.8 0 0 1-1.53-.4l.13-.09.37-.24c.34-.19.68-.36 1.03-.5a7.08 7.08 0 0 1 5.42-.13l3.12-3.15v-2.9a14.87 14.87 0 0 0-8.54-.3c-.93.23-1.84.55-2.72.94l-3.12-1.8-3.74 2.15v2.9l1.28.73c-.34.5-.53 1.08-.55 1.69v2.89c0 1.19.82 2.34 2.66 3.38 1.56.91 3.33 1.42 5.15 1.48h1.03c1.9-.13 3.75-.54 5.53-1.2l1.08-.36-3.14 3.15v2.9a15.3 15.3 0 0 0 12.05-.52l3.09 1.78 3.72-2.16v-2.89l-1.28-.74c.4-.55.62-1.2.64-1.87Zm-7.87-.25a8.03 8.03 0 0 1-6.97.52c2.92-1.03 5.36-1.93 7.44-.81-.14.06-.3.17-.47.27v.02Z" fill="#FBD40B"/>
  <path d="M94.06 226.24c-1.28.32-2.5.73-3.6 1.12-1.28.48-2.59.88-3.9 1.21a6.8 6.8 0 0 1-1.85.18 3.97 3.97 0 0 1-1.78-.53c-1.2-.7-1.37-1.7.38-2.85l.37-.24c.33-.2.68-.36 1.03-.5a7.08 7.08 0 0 1 5.42-.13l3.12-3.15a14.87 14.87 0 0 0-8.54-.32c-.93.24-1.84.56-2.72.95l-3.12-1.8-3.74 2.15 3.1 1.78c-3.14 2.39-3.2 4.86.33 6.9a11 11 0 0 0 5.15 1.49h1.03a20.2 20.2 0 0 0 5.53-1.2c3.58-1.2 6.48-2.6 8.9-1.21 1.64.93 1.16 2.1-.6 3.13a8.02 8.02 0 0 1-7.08.48l-3.28 3.27a15.33 15.33 0 0 0 12.05-.53l3.09 1.79 3.72-2.15-3.11-1.77c3.1-2.4 3.46-5.02-.16-7.14h-.07c-3.27-1.93-6.65-1.69-9.67-.93Z" fill="#FBD40B"/>
  <path d="M94.06 226.24c-1.28.32-2.5.73-3.6 1.12-1.28.48-2.59.88-3.9 1.21a6.8 6.8 0 0 1-1.85.18 3.97 3.97 0 0 1-1.78-.53c-1.2-.7-1.37-1.7.38-2.85l.37-.24c.33-.2.68-.36 1.03-.5a7.08 7.08 0 0 1 5.42-.13l3.12-3.15a14.87 14.87 0 0 0-8.54-.32c-.93.24-1.84.56-2.72.95l-3.12-1.8-3.74 2.15 3.1 1.78c-3.14 2.39-3.2 4.86.33 6.9a11 11 0 0 0 5.15 1.49h1.03a20.2 20.2 0 0 0 5.53-1.2c3.58-1.2 6.48-2.6 8.9-1.21 1.64.93 1.16 2.1-.6 3.13a8.02 8.02 0 0 1-7.08.48l-3.28 3.27a15.33 15.33 0 0 0 12.05-.53l3.09 1.79 3.72-2.15-3.11-1.77c3.1-2.4 3.46-5.02-.16-7.14h-.07c-3.27-1.93-6.65-1.69-9.67-.93Z" fill="#fff" opacity=".2"/>
  <path opacity=".45" d="m75.14 222.32 3.76-1.71 3.09 1.36-3.12-1.8-3.73 2.15Zm9.13-1.17c2.66-.53 5.4-.44 8.02.27l-2.16 3.06 3.12-3.16a14.93 14.93 0 0 0-8.98-.17Zm19.46 5.97h.07c3.62 2.12 3.27 4.74.16 7.14 2.75-3 2.25-5.08-.74-6.81-2.99-1.73-6.8-1.7-9.16-1.25 3.02-.72 6.4-.96 9.67.92Zm.23 7.18 2.37 1.82-3.02 2.12 3.73-2.16-3.08-1.77Zm-6.3-.65a8.06 8.06 0 0 1-5.95.52l-3.54 2.8 3.28-3.27a8 8 0 0 0 6.21-.05Zm-11.11-5.08c-1.4.56-3.44.47-4.47-.42-1.03-.88-.39-1.92 1.23-2.78-1.75 1.14-1.58 2.15-.38 2.85.54.31 1.15.5 1.78.53a6.8 6.8 0 0 0 1.84-.18Zm-8.35-4.45c-.27.24-2.51 2.34-1.52 4.43 1.05 2.22 4.34 3.66 7 3.95a11 11 0 0 1-5.16-1.47c-3.53-2.05-3.46-4.52-.32-6.9Z" fill="#F5F5F5"/>
  <path d="M120.42 219.07c-1.76-2.98-4.7-5.74-8.8-8.14-14.39-8.3-37.68-8.3-52.09 0-4.1 2.37-7.03 5.16-8.8 8.14h-1.99v7.52c.27 5.23 3.85 10.42 10.77 14.4 14.38 8.32 37.68 8.32 52.09 0 6.91-3.98 10.52-9.17 10.79-14.4v-7.52h-1.97Z" fill="#FBD40B"/>
  <path opacity=".3" d="M120.42 219.07c-1.76-2.98-4.7-5.74-8.8-8.14-14.39-8.3-37.68-8.3-52.09 0-4.1 2.37-7.03 5.16-8.8 8.14h-1.99v7.52c.27 5.23 3.85 10.42 10.77 14.4 14.38 8.32 37.68 8.32 52.09 0 6.91-3.98 10.52-9.17 10.79-14.4v-7.52h-1.97Z" fill="#000"/>
  <path opacity=".1" d="M85.58 204.7c-9.43 0-18.85 2.08-26.05 6.23-4.1 2.37-7.03 5.16-8.8 8.14h-1.99v7.52c.27 5.23 3.85 10.42 10.77 14.4 7.2 4.16 16.61 6.24 26.04 6.24l.03-42.52Z" fill="#000"/>
  <path opacity=".1" d="M65.46 208.16a40.47 40.47 0 0 0-5.93 2.77c-4.1 2.37-7.03 5.16-8.8 8.14h-1.99v7.52c.27 5.23 3.85 10.42 10.77 14.4a39.95 39.95 0 0 0 5.92 2.79l.03-35.62Z" fill="#000"/>
  <path opacity=".5" d="M105.69 208.16c2.05.76 4.03 1.69 5.93 2.77 4.1 2.37 7.04 5.16 8.8 8.14h1.99v7.52c-.27 5.23-3.88 10.42-10.79 14.42-1.9 1.08-3.88 2-5.93 2.77v-35.62Z" fill="#FBD40B"/>
  <path d="M59.53 204.03c-14.38 8.31-14.38 21.77 0 30.08 12.59 7.27 32.01 8.2 46.3 2.72l.57-.22c1.8-.7 3.54-1.54 5.21-2.5 12-6.93 13.99-17.44 5.97-25.56a28.2 28.2 0 0 0-5.97-4.52c-14.38-8.3-37.7-8.3-52.08 0Z" fill="#FBD40B"/>
  <path opacity=".2" d="M59.53 204.03c-14.38 8.31-14.38 21.77 0 30.08 12.59 7.27 32.01 8.2 46.3 2.72l.57-.22c1.8-.7 3.54-1.54 5.21-2.5 12-6.93 13.99-17.44 5.97-25.56a28.2 28.2 0 0 0-5.97-4.52c-14.38-8.3-37.7-8.3-52.08 0Z" fill="#000"/>
  <path opacity=".5" d="M117.6 208.55c.15.18 5.18 5.49 3.84 13.1-1.27 7.31-11.47 13.47-15.03 14.94 1.8-.7 3.54-1.54 5.21-2.5 12-6.91 14-17.42 5.97-25.54Zm-64.06 21.04c-.16-.18-5.19-5.48-3.86-13.11 1.28-7.3 11.5-13.46 15.03-14.94-1.8.7-3.53 1.54-5.2 2.5-11.97 6.92-13.96 17.43-5.97 25.55Z" fill="#F5F5F5"/>
  <path d="M85.59 238.81c18.9 0 34.23-8.85 34.23-19.77 0-10.91-15.33-19.76-34.23-19.76-18.91 0-34.24 8.85-34.24 19.76 0 10.92 15.33 19.77 34.24 19.77Z" fill="#FBD40B"/>
  <path opacity=".1" d="M85.59 238.81c18.9 0 34.23-8.85 34.23-19.77 0-10.91-15.33-19.76-34.23-19.76-18.91 0-34.24 8.85-34.24 19.76 0 10.92 15.33 19.77 34.24 19.77Z" fill="#fff"/>
  <path opacity=".2" d="M118.26 224.94c2.75-5.09 1.85-10.69-2.7-15.44a23.4 23.4 0 0 0-2.9-2.55 31.72 31.72 0 0 0-4.46-2.73c1.43 2.34.9 4.84-7.16 5.31-15.77.93 4.22 16.01 4.22 16.01s10.19-4.91 13-.6Z" fill="#fff"/>
  <path opacity=".3" d="M116.62 220.77c2.36-.26 3.54-2.7 2.62-5.44-.92-2.74-3.59-4.74-5.96-4.48-2.36.26-3.54 2.7-2.62 5.44.92 2.74 3.62 4.75 5.96 4.48Z" fill="#fff"/>
  <path d="M91.68 233.34c-.78-5.86-26.39-22.08-26.39-22.08s-5.68-2.28-3.79-6.25a29.1 29.1 0 0 0-2.74 1.77c-.6.43-1.15.87-1.64 1.32-7.63 6.6-7.64 15.28 0 21.89.51.45 1.07.88 1.64 1.32a32.92 32.92 0 0 0 7.56 4.06 49.77 49.77 0 0 0 10.04 2.7l1.72.25a59.19 59.19 0 0 0 17-.3s-4.13-.82-3.4-4.68Z" fill="#FBD40B"/>
  <path opacity=".2" d="M91.32 233.34c-.78-5.86-26.4-22.08-26.4-22.08s-5.67-2.28-3.79-6.25a29.17 29.17 0 0 0-4.37 3.09c-7.62 6.6-7.64 15.28 0 21.89.51.45 1.07.88 1.63 1.32a32.92 32.92 0 0 0 7.56 4.06c.8.3 1.59.6 2.4.86 2.5.81 5.06 1.43 7.65 1.84l1.71.25a59.19 59.19 0 0 0 17-.3s-4.13-.82-3.39-4.68Z" fill="#fff"/>
  <path d="M67.54 208.63c-9.55 5.52-9.94 14.31-1.17 20.1.38.24.77.49 1.18.73 9.96 5.73 26.1 5.73 36.04 0 9.95-5.74 9.97-15.08 0-20.83-.4-.24-.82-.47-1.25-.68-10-5.06-25.24-4.84-34.8.68Z" fill="#FBD40B"/>
  <path opacity=".2" d="M67.54 208.63c-9.55 5.52-9.94 14.31-1.17 20.1.38.24.77.49 1.18.73 9.96 5.73 26.1 5.73 36.04 0 9.95-5.74 9.97-15.08 0-20.83-.4-.24-.82-.47-1.25-.68-10-5.06-25.24-4.84-34.8.68Z" fill="#000"/>
  <path d="M85.6 233.12c13.46 0 24.37-6.3 24.37-14.08 0-7.77-10.91-14.07-24.38-14.07-13.46 0-24.38 6.3-24.38 14.07 0 7.78 10.92 14.08 24.38 14.08Z" fill="#FBD40B"/>
  <path opacity=".5" d="M85.6 233.12c13.46 0 24.37-6.3 24.37-14.08 0-7.77-10.91-14.07-24.38-14.07-13.46 0-24.38 6.3-24.38 14.07 0 7.78 10.92 14.08 24.38 14.08Z" fill="#000"/>
  <path d="M68.35 213c9.52-5.5 24.96-5.5 34.48 0 3.9 2.25 6.2 5.07 6.9 8-.7 2.92-3 5.73-6.9 7.99-9.52 5.5-24.96 5.5-34.48 0-3.9-2.25-6.2-5.07-6.9-8 .7-2.91 3-5.73 6.9-7.98Z" fill="#FBD40B"/>
  <path opacity=".35" d="M68.35 213c9.52-5.5 24.96-5.5 34.48 0 3.9 2.25 6.2 5.07 6.9 8-.7 2.92-3 5.73-6.9 7.99-9.52 5.5-24.96 5.5-34.48 0-3.9-2.25-6.2-5.07-6.9-8 .7-2.91 3-5.73 6.9-7.98Z" fill="#000"/>
  <path d="M100.94 223.28v-2.9c0-1.2-.82-2.36-2.6-3.4l-.06-.04c-3.28-1.89-6.67-1.64-9.68-.89-1.28.32-2.46.74-3.6 1.13a37.8 37.8 0 0 1-3.88 1.2c-.6.14-1.22.2-1.84.17a3.87 3.87 0 0 1-1.53-.4l.13-.09.38-.24c.33-.19.67-.35 1.02-.5a7.1 7.1 0 0 1 5.42-.13l3.13-3.15v-2.9a14.9 14.9 0 0 0-8.55-.3c-.93.23-1.84.55-2.71.94l-3.13-1.8-3.73 2.15v2.9l1.28.73c-.35.5-.54 1.08-.55 1.69v2.93c0 1.19.82 2.34 2.66 3.38a11.1 11.1 0 0 0 5.14 1.49h1.03c1.9-.14 3.76-.54 5.54-1.2l1.07-.37-3.15 3.16v2.89a15.32 15.32 0 0 0 12.06-.52l3.1 1.78 3.72-2.16v-2.89l-1.28-.74c.4-.56.6-1.23.6-1.92Zm-7.87-.25a8.04 8.04 0 0 1-6.96.53c2.92-1.03 5.36-1.94 7.44-.82-.15.1-.3.2-.48.3Z" fill="#FBD40B"/>
  <path d="M88.6 216.05c-1.27.32-2.45.74-3.6 1.13-1.26.47-2.56.87-3.87 1.2-.6.14-1.22.2-1.84.17a3.93 3.93 0 0 1-1.77-.53c-1.2-.7-1.38-1.7.36-2.85l.39-.24c.33-.2.67-.36 1.02-.5a7.1 7.1 0 0 1 5.42-.13l3.13-3.15a14.9 14.9 0 0 0-8.55-.31c-.93.23-1.84.55-2.72.94l-3.13-1.8-3.72 2.15 3.09 1.78c-3.13 2.39-3.2 4.86.33 6.9a11.1 11.1 0 0 0 5.15 1.49h1.02c1.9-.14 3.76-.54 5.54-1.2 3.58-1.2 6.48-2.6 8.89-1.21 1.63.93 1.17 2.1-.61 3.13a8.03 8.03 0 0 1-7.08.47l-3.27 3.28a15.32 15.32 0 0 0 12.05-.53l3.1 1.8 3.72-2.16-3.09-1.78c3.1-2.41 3.46-5.02-.16-7.14l-.06-.05c-3.33-1.86-6.72-1.61-9.73-.86Z" fill="#FBD40B"/>
  <path d="M88.6 216.05c-1.27.32-2.45.74-3.6 1.13-1.26.47-2.56.87-3.87 1.2-.6.14-1.22.2-1.84.17a3.93 3.93 0 0 1-1.77-.53c-1.2-.7-1.38-1.7.36-2.85l.39-.24c.33-.2.67-.36 1.02-.5a7.1 7.1 0 0 1 5.42-.13l3.13-3.15a14.9 14.9 0 0 0-8.55-.31c-.93.23-1.84.55-2.72.94l-3.13-1.8-3.72 2.15 3.09 1.78c-3.13 2.39-3.2 4.86.33 6.9a11.1 11.1 0 0 0 5.15 1.49h1.02c1.9-.14 3.76-.54 5.54-1.2 3.58-1.2 6.48-2.6 8.89-1.21 1.63.93 1.17 2.1-.61 3.13a8.03 8.03 0 0 1-7.08.47l-3.27 3.28a15.32 15.32 0 0 0 12.05-.53l3.1 1.8 3.72-2.16-3.09-1.78c3.1-2.41 3.46-5.02-.16-7.14l-.06-.05c-3.33-1.86-6.72-1.61-9.73-.86Z" fill="#fff" opacity=".2"/>
  <path opacity=".45" d="m69.68 212.14 3.77-1.71 3.1 1.35-3.14-1.8-3.73 2.16Zm9.15-1.17a17.3 17.3 0 0 1 8 .27l-2.16 3.07 3.13-3.16a14.92 14.92 0 0 0-8.97-.18Zm19.45 5.97.06.04c3.62 2.12 3.28 4.73.16 7.14 2.76-3 2.26-5.08-.72-6.81-2.99-1.73-6.8-1.7-9.17-1.26 3.01-.75 6.4-1 9.67.89Zm.22 7.18 2.37 1.82-3 2.12 3.72-2.16-3.09-1.78Zm-6.29-.65a8.05 8.05 0 0 1-5.94.51l-3.55 2.81 3.27-3.27a8.05 8.05 0 0 0 6.22-.05Zm-11.11-5.09c-1.41.56-3.45.47-4.47-.42-1.02-.88-.38-1.92 1.22-2.78-1.74 1.14-1.57 2.15-.37 2.85.54.31 1.15.5 1.77.53a6.8 6.8 0 0 0 1.85-.18Zm-8.36-4.44c-.26.24-2.5 2.34-1.52 4.42 1.06 2.23 4.35 3.67 7 3.95a10.98 10.98 0 0 1-5.14-1.48c-3.54-2.03-3.47-4.5-.34-6.89Z" fill="#F5F5F5"/>
  <path d="M123.02 205.85c-1.77-2.97-4.7-5.73-8.8-8.13-14.39-8.3-37.69-8.3-52.09 0-4.1 2.37-7.04 5.16-8.8 8.13h-1.99v7.53c.27 5.23 3.85 10.41 10.77 14.4 14.38 8.31 37.68 8.31 52.08 0 6.92-3.99 10.52-9.17 10.8-14.4v-7.53h-1.97Z" fill="#FBD40B"/>
  <path opacity=".3" d="M123.02 205.85c-1.77-2.97-4.7-5.73-8.8-8.13-14.39-8.3-37.69-8.3-52.09 0-4.1 2.37-7.04 5.16-8.8 8.13h-1.99v7.53c.27 5.23 3.85 10.41 10.77 14.4 14.38 8.31 37.68 8.31 52.08 0 6.92-3.99 10.52-9.17 10.8-14.4v-7.53h-1.97Z" fill="#000"/>
  <path opacity=".1" d="M88.17 191.49c-9.42 0-18.84 2.08-26.04 6.23-4.1 2.37-7.04 5.16-8.8 8.13h-1.99v7.53c.27 5.23 3.85 10.41 10.77 14.4 7.19 4.16 16.62 6.24 26.04 6.23l.02-42.52Z" fill="#000"/>
  <path opacity=".1" d="M68.06 194.98a39.78 39.78 0 0 0-5.93 2.78c-4.1 2.37-7.04 5.16-8.8 8.14h-1.99v7.52c.27 5.23 3.85 10.42 10.77 14.4a39.78 39.78 0 0 0 5.93 2.78l.02-35.62Z" fill="#000"/>
  <path opacity=".5" d="M108.29 194.98c2.05.76 4.03 1.7 5.93 2.78 4.1 2.37 7.03 5.16 8.8 8.14H125v7.52c-.27 5.23-3.88 10.42-10.8 14.4a39.77 39.77 0 0 1-5.92 2.78v-35.62Z" fill="#FBD40B"/>
  <path d="M62.13 190.82c-14.39 8.3-14.39 21.77 0 30.07 12.58 7.26 32 8.19 46.3 2.73l.57-.23c1.8-.7 3.53-1.54 5.2-2.5 12-6.93 14-17.44 5.98-25.55a27.93 27.93 0 0 0-5.97-4.52c-14.38-8.3-37.7-8.3-52.08 0Z" fill="#FBD40B"/>
  <path opacity=".2" d="M62.13 190.82c-14.39 8.3-14.39 21.77 0 30.07 12.58 7.26 32 8.19 46.3 2.73l.57-.23c1.8-.7 3.53-1.54 5.2-2.5 12-6.93 14-17.44 5.98-25.55a27.93 27.93 0 0 0-5.97-4.52c-14.38-8.3-37.7-8.3-52.08 0Z" fill="#000"/>
  <path opacity=".5" d="M120.19 195.34c.16.17 5.19 5.48 3.85 13.1-1.27 7.31-11.47 13.46-15.03 14.94 1.8-.71 3.53-1.55 5.2-2.5 12-6.92 14-17.43 5.98-25.54Zm-64.03 21.03c-.16-.17-5.19-5.48-3.85-13.1 1.27-7.31 11.47-13.47 15.03-14.95-1.8.71-3.54 1.55-5.21 2.5-12 6.92-13.98 17.43-5.97 25.55Z" fill="#F5F5F5"/>
  <path d="M88.18 225.6c18.91 0 34.24-8.85 34.24-19.77s-15.33-19.77-34.24-19.77c-18.9 0-34.23 8.85-34.23 19.77s15.32 19.77 34.23 19.77Z" fill="#FBD40B"/>
  <path opacity=".1" d="M88.18 225.6c18.91 0 34.24-8.85 34.24-19.77s-15.33-19.77-34.24-19.77c-18.9 0-34.23 8.85-34.23 19.77s15.32 19.77 34.23 19.77Z" fill="#fff"/>
  <path opacity=".2" d="M120.87 211.73c2.75-5.09 1.85-10.7-2.69-15.45-.9-.93-1.86-1.78-2.9-2.54a29.87 29.87 0 0 0-4.45-2.74c1.41 2.34.9 4.85-7.17 5.32-15.78.92 4.22 16 4.22 16s10.17-4.9 12.99-.6Z" fill="#fff"/>
  <path opacity=".3" d="M119.24 207.56c2.37-.26 3.54-2.7 2.62-5.44-.92-2.74-3.59-4.75-5.95-4.48-2.37.26-3.54 2.7-2.63 5.44.92 2.73 3.6 4.74 5.96 4.48Z" fill="#fff"/>
  <path d="M94.28 220.13C93.5 214.26 67.89 198 67.89 198s-5.68-2.28-3.8-6.25c-.94.54-1.86 1.13-2.74 1.77-.57.41-1.11.85-1.64 1.32-7.62 6.6-7.63 15.27 0 21.88a24.34 24.34 0 0 0 4.18 2.96 33.93 33.93 0 0 0 5.02 2.42 46.3 46.3 0 0 0 10.05 2.7l1.72.25a59.2 59.2 0 0 0 16.99-.29s-4.12-.8-3.4-4.65Z" fill="#FBD40B"/>
  <path opacity=".2" d="M93.92 220.13c-.82-5.86-26.4-22.12-26.4-22.12s-5.68-2.28-3.8-6.25a29.17 29.17 0 0 0-4.37 3.1c-7.62 6.6-7.63 15.26 0 21.87.52.45 1.08.9 1.64 1.32a35.2 35.2 0 0 0 7.56 4.06 50.52 50.52 0 0 0 11.76 2.95 59.07 59.07 0 0 0 16.99-.29s-4.12-.8-3.38-4.65Z" fill="#fff"/>
  <path d="M70.14 195.4c-9.56 5.53-9.94 14.33-1.17 20.11.38.25.76.5 1.17.72 9.96 5.74 26.11 5.74 36.05 0 9.94-5.73 9.96-15.07 0-20.82-.41-.23-.82-.46-1.25-.67-10-5.07-25.25-4.84-34.8.67Z" fill="#FBD40B"/>
  <path opacity=".2" d="M70.14 195.4c-9.56 5.53-9.94 14.33-1.17 20.11.38.25.76.5 1.17.72 9.96 5.74 26.11 5.74 36.05 0 9.94-5.73 9.96-15.07 0-20.82-.41-.23-.82-.46-1.25-.67-10-5.07-25.25-4.84-34.8.67Z" fill="#000"/>
  <path d="M88.19 219.9c13.47 0 24.38-6.3 24.38-14.08 0-7.77-10.91-14.07-24.38-14.07-13.46 0-24.38 6.3-24.38 14.07 0 7.77 10.92 14.08 24.38 14.08Z" fill="#FBD40B"/>
  <path opacity=".5" d="M88.19 219.9c13.47 0 24.38-6.3 24.38-14.08 0-7.77-10.91-14.07-24.38-14.07-13.46 0-24.38 6.3-24.38 14.07 0 7.77 10.92 14.08 24.38 14.08Z" fill="#000"/>
  <path d="M70.95 199.8c9.52-5.5 24.96-5.5 34.48 0 3.89 2.24 6.19 5.06 6.9 7.99-.71 2.92-3.01 5.73-6.9 7.99-9.52 5.5-24.96 5.5-34.48 0-3.9-2.25-6.2-5.07-6.9-8 .7-2.92 3-5.74 6.9-7.98Z" fill="#FBD40B"/>
  <path opacity=".35" d="M70.95 199.8c9.52-5.5 24.96-5.5 34.48 0 3.89 2.24 6.19 5.06 6.9 7.99-.71 2.92-3.01 5.73-6.9 7.99-9.52 5.5-24.96 5.5-34.48 0-3.9-2.25-6.2-5.07-6.9-8 .7-2.92 3-5.74 6.9-7.98Z" fill="#000"/>
  <path d="M103.51 210.06v-2.9c0-1.2-.82-2.35-2.6-3.4l-.06-.04c-3.28-1.89-6.66-1.63-9.68-.88-1.28.32-2.5.74-3.6 1.11-1.27.48-2.56.88-3.88 1.2a6.3 6.3 0 0 1-1.83.18 3.87 3.87 0 0 1-1.53-.4l.12-.08.38-.24c.33-.2.68-.36 1.03-.5a7.08 7.08 0 0 1 5.41-.13l3.13-3.16v-2.89a14.87 14.87 0 0 0-8.54-.3c-.93.23-1.84.55-2.72.93l-3.13-1.8-3.73 2.15v2.9l1.28.73c-.35.5-.54 1.09-.55 1.7v2.88c0 1.2.86 2.35 2.66 3.39 1.57.9 3.34 1.42 5.15 1.48h1.03a20.2 20.2 0 0 0 5.53-1.2l1.07-.36-3.14 3.15v2.9a15.35 15.35 0 0 0 12.06-.53l3.08 1.78 3.73-2.15v-2.9l-1.28-.73c.39-.55.6-1.21.61-1.88Zm-7.87-.24a8.15 8.15 0 0 1-6.97.52c2.93-1.03 5.36-1.93 7.44-.82l-.47.3Z" fill="#FBD40B"/>
  <path d="M91.22 202.84c-1.28.32-2.5.74-3.6 1.11-1.27.48-2.57.88-3.88 1.2a6.3 6.3 0 0 1-1.83.18 3.86 3.86 0 0 1-1.78-.53c-1.2-.7-1.38-1.7.37-2.84.12-.1.25-.17.38-.24.33-.2.67-.37 1.03-.51a7.02 7.02 0 0 1 5.41-.12l3.13-3.16a14.87 14.87 0 0 0-8.54-.3c-.93.23-1.84.55-2.72.93l-3.13-1.8-3.73 2.15 3.09 1.78c-3.14 2.39-3.2 4.86.33 6.9a10.8 10.8 0 0 0 5.14 1.47h1.03c1.9-.13 3.75-.54 5.53-1.2 3.58-1.19 6.48-2.6 8.9-1.2 1.63.92 1.16 2.1-.61 3.13a8.16 8.16 0 0 1-7.08.47l-3.28 3.28a15.35 15.35 0 0 0 12.06-.53l3.09 1.79 3.72-2.15-3.08-1.79c3.1-2.4 3.46-5.01-.17-7.14l-.05-.04c-3.35-1.85-6.73-1.6-9.73-.84Z" fill="#FBD40B"/>
  <path d="M91.22 202.84c-1.28.32-2.5.74-3.6 1.11-1.27.48-2.57.88-3.88 1.2a6.3 6.3 0 0 1-1.83.18 3.86 3.86 0 0 1-1.78-.53c-1.2-.7-1.38-1.7.37-2.84.12-.1.25-.17.38-.24.33-.2.67-.37 1.03-.51a7.02 7.02 0 0 1 5.41-.12l3.13-3.16a14.87 14.87 0 0 0-8.54-.3c-.93.23-1.84.55-2.72.93l-3.13-1.8-3.73 2.15 3.09 1.78c-3.14 2.39-3.2 4.86.33 6.9a10.8 10.8 0 0 0 5.14 1.47h1.03c1.9-.13 3.75-.54 5.53-1.2 3.58-1.19 6.48-2.6 8.9-1.2 1.63.92 1.16 2.1-.61 3.13a8.16 8.16 0 0 1-7.08.47l-3.28 3.28a15.35 15.35 0 0 0 12.06-.53l3.09 1.79 3.72-2.15-3.08-1.79c3.1-2.4 3.46-5.01-.17-7.14l-.05-.04c-3.35-1.85-6.73-1.6-9.73-.84Z" fill="#fff" opacity=".2"/>
  <path opacity=".45" d="m72.28 198.92 3.77-1.7 3.09 1.35-3.13-1.8-3.73 2.15Zm9.12-1.17c2.65-.54 5.4-.45 8.01.27l-2.17 3.07 3.13-3.15a14.8 14.8 0 0 0-8.98-.19Zm19.48 5.97.06.04c3.63 2.13 3.27 4.74.16 7.14 2.75-2.99 2.25-5.08-.73-6.8-2.98-1.74-6.8-1.71-9.17-1.26 3.02-.75 6.4-1 9.68.88Zm.22 7.18 2.37 1.82-3 2.12 3.72-2.15-3.09-1.79Zm-6.29-.65a8.02 8.02 0 0 1-5.95.52l-3.55 2.8 3.28-3.27a8.07 8.07 0 0 0 6.22-.06Zm-11.11-5.08c-1.42.55-3.45.46-4.47-.43-1.03-.89-.39-1.92 1.22-2.78-1.75 1.14-1.57 2.16-.37 2.85.54.32 1.15.5 1.78.53.61.03 1.23-.03 1.83-.17Zm-8.36-4.45c-.27.24-2.51 2.32-1.52 4.42 1.06 2.23 4.35 3.66 7 3.95a10.78 10.78 0 0 1-5.14-1.48c-3.54-2.03-3.47-4.5-.34-6.9Z" fill="#F5F5F5"/>
  <path d="M114.52 197.17c-1.76-2.97-4.7-5.73-8.8-8.13-14.38-8.31-37.68-8.31-52.09 0-4.1 2.36-7.03 5.16-8.8 8.13H42.9v7.53c.26 5.23 3.84 10.41 10.75 14.4 14.39 8.3 37.69 8.3 52.09 0 6.91-3.99 10.52-9.17 10.79-14.4v-7.53h-2Z" fill="#FBD40B"/>
  <path opacity=".3" d="M114.52 197.17c-1.76-2.97-4.7-5.73-8.8-8.13-14.38-8.31-37.68-8.31-52.09 0-4.1 2.36-7.03 5.16-8.8 8.13H42.9v7.53c.26 5.23 3.84 10.41 10.75 14.4 14.39 8.3 37.69 8.3 52.09 0 6.91-3.99 10.52-9.17 10.79-14.4v-7.53h-2Z" fill="#000"/>
  <path opacity=".1" d="M79.68 182.8c-9.42 0-18.84 2.08-26.05 6.23-4.1 2.37-7.03 5.17-8.8 8.14H42.9v7.53c.26 5.23 3.84 10.41 10.75 14.4 7.2 4.16 16.63 6.24 26.05 6.24l-.01-42.53Z" fill="#000"/>
  <path opacity=".1" d="M59.57 186.26c-2.05.76-4.04 1.7-5.94 2.78-4.1 2.36-7.03 5.16-8.8 8.13H42.9v7.53c.26 5.23 3.84 10.41 10.75 14.4a41.07 41.07 0 0 0 5.93 2.79v-35.63Z" fill="#000"/>
  <path opacity=".5" d="M99.8 186.26a40.9 40.9 0 0 1 5.92 2.78c4.1 2.36 7.04 5.16 8.8 8.13h2v7.53c-.28 5.23-3.88 10.41-10.8 14.4a40.58 40.58 0 0 1-5.93 2.79v-35.63Z" fill="#FBD40B"/>
  <path d="M53.63 182.14c-14.38 8.3-14.37 21.76 0 30.07 12.59 7.27 32.01 8.2 46.32 2.73l.56-.22a38.6 38.6 0 0 0 5.21-2.53c12-6.93 13.99-17.44 5.97-25.56a28.23 28.23 0 0 0-5.97-4.5c-14.38-8.3-37.7-8.3-52.09 0Z" fill="#FBD40B"/>
  <path opacity=".2" d="M53.63 182.14c-14.38 8.3-14.37 21.76 0 30.07 12.59 7.27 32.01 8.2 46.32 2.73l.56-.22a38.6 38.6 0 0 0 5.21-2.53c12-6.93 13.99-17.44 5.97-25.56a28.23 28.23 0 0 0-5.97-4.5c-14.38-8.3-37.7-8.3-52.09 0Z" fill="#000"/>
  <path opacity=".5" d="M111.7 186.66c.16.17 5.19 5.48 3.86 13.1-1.28 7.31-11.5 13.47-15.04 14.94 1.8-.7 3.53-1.55 5.2-2.51 12-6.9 13.99-17.42 5.98-25.53Zm-64.04 21.03c-.15-.17-5.18-5.48-3.85-13.1 1.27-7.32 11.47-13.47 15.04-14.94-1.8.7-3.54 1.54-5.22 2.5-11.99 6.92-13.98 17.43-5.97 25.54Z" fill="#F5F5F5"/>
  <path d="M79.7 216.91c18.9 0 34.23-8.85 34.23-19.76 0-10.92-15.33-19.77-34.24-19.77-18.9 0-34.23 8.85-34.23 19.77 0 10.91 15.33 19.76 34.23 19.76Z" fill="#FBD40B"/>
  <path opacity=".1" d="M79.7 216.91c18.9 0 34.23-8.85 34.23-19.76 0-10.92-15.33-19.77-34.24-19.77-18.9 0-34.23 8.85-34.23 19.77 0 10.91 15.33 19.76 34.23 19.76Z" fill="#fff"/>
  <path opacity=".2" d="M112.37 203.05c2.76-5.09 1.85-10.7-2.68-15.45a22.8 22.8 0 0 0-2.9-2.54 29.75 29.75 0 0 0-4.46-2.74c1.42 2.34.9 4.85-7.17 5.31-15.78.93 4.22 16.01 4.22 16.01s10.18-4.91 13-.59Z" fill="#fff"/>
  <path opacity=".3" d="M110.74 198.87c2.37-.26 3.55-2.7 2.63-5.44-.93-2.74-3.6-4.74-5.96-4.47-2.37.27-3.54 2.7-2.62 5.44.91 2.75 3.59 4.75 5.95 4.47Z" fill="#fff"/>
  <path d="M85.79 211.44c-.78-5.86-26.4-22.08-26.4-22.08s-5.67-2.28-3.79-6.25a30.5 30.5 0 0 0-2.74 1.77c-.6.43-1.14.87-1.64 1.32-7.63 6.6-7.64 15.28 0 21.9.51.44 1.07.88 1.64 1.31a35.3 35.3 0 0 0 7.56 4.05 49.67 49.67 0 0 0 11.76 2.96 59.19 59.19 0 0 0 17-.3s-4.13-.82-3.39-4.68Z" fill="#FBD40B"/>
  <path opacity=".2" d="M85.42 211.44c-.78-5.86-26.4-22.08-26.4-22.08s-5.67-2.28-3.79-6.25a29.17 29.17 0 0 0-4.37 3.1c-7.63 6.6-7.64 15.27 0 21.88.51.45 1.07.88 1.64 1.32a35.14 35.14 0 0 0 7.56 4.05 49.77 49.77 0 0 0 11.76 2.96 59.06 59.06 0 0 0 16.98-.3s-4.13-.82-3.38-4.68Z" fill="#fff"/>
  <path d="M61.65 186.73c-9.56 5.52-9.95 14.31-1.17 20.1.37.25.77.5 1.17.73 9.96 5.73 26.1 5.73 36.04 0 9.94-5.74 9.97-15.08 0-20.83-.4-.23-.82-.46-1.25-.68-10-5.06-25.24-4.84-34.8.68Z" fill="#FBD40B"/>
  <path opacity=".2" d="M61.65 186.73c-9.56 5.52-9.95 14.31-1.17 20.1.37.25.77.5 1.17.73 9.96 5.73 26.1 5.73 36.04 0 9.94-5.74 9.97-15.08 0-20.83-.4-.23-.82-.46-1.25-.68-10-5.06-25.24-4.84-34.8.68Z" fill="#000"/>
  <path d="M79.7 211.22c13.46 0 24.38-6.3 24.38-14.07 0-7.78-10.92-14.08-24.39-14.08-13.46 0-24.38 6.3-24.38 14.08 0 7.77 10.92 14.07 24.38 14.07Z" fill="#FBD40B"/>
  <path opacity=".5" d="M79.7 211.22c13.46 0 24.38-6.3 24.38-14.07 0-7.78-10.92-14.08-24.39-14.08-13.46 0-24.38 6.3-24.38 14.08 0 7.77 10.92 14.07 24.38 14.07Z" fill="#000"/>
  <path d="M62.45 191.12c9.53-5.5 24.96-5.5 34.48 0 3.9 2.24 6.2 5.07 6.9 7.98-.7 2.93-3 5.74-6.9 8-9.52 5.5-24.95 5.5-34.48 0-3.9-2.25-6.19-5.07-6.9-8 .71-2.91 3-5.76 6.9-7.98Z" fill="#FBD40B"/>
  <path opacity=".35" d="M62.45 191.12c9.53-5.5 24.96-5.5 34.48 0 3.9 2.24 6.2 5.07 6.9 7.98-.7 2.93-3 5.74-6.9 8-9.52 5.5-24.95 5.5-34.48 0-3.9-2.25-6.19-5.07-6.9-8 .71-2.91 3-5.76 6.9-7.98Z" fill="#000"/>
  <path d="M95.05 201.38v-2.9c0-1.2-.82-2.36-2.6-3.4h-.07c-3.27-1.9-6.66-1.64-9.67-.88-1.28.32-2.5.73-3.6 1.12a37.8 37.8 0 0 1-3.88 1.2c-.6.13-1.22.19-1.84.17a4 4 0 0 1-1.53-.4l.13-.1.38-.23a8.31 8.31 0 0 1 3.72-1.1c.93-.03 1.85.14 2.72.47l3.13-3.15v-2.93a14.88 14.88 0 0 0-8.55-.31c-.92.24-1.83.56-2.71.94l-3.13-1.8-3.73 2.15v2.9l1.28.73c-.35.5-.54 1.08-.55 1.69v2.89c0 1.2.82 2.34 2.65 3.38 1.56.92 3.33 1.43 5.15 1.49h1.03c1.89-.14 3.75-.54 5.53-1.2l1.07-.37-3.14 3.16v2.9a15.35 15.35 0 0 0 12.05-.53l3.1 1.78 3.72-2.16V204l-1.28-.73c.39-.55.6-1.2.62-1.88Zm-7.88-.25a7.7 7.7 0 0 1-.86.4 8.04 8.04 0 0 1-6.1.1c2.92-1.03 5.35-1.94 7.43-.82-.15.12-.3.22-.47.32Z" fill="#FBD40B"/>
  <path d="M82.71 194.16c-1.28.33-2.5.74-3.6 1.13a37.8 37.8 0 0 1-3.88 1.2c-.6.13-1.22.19-1.84.16a3.97 3.97 0 0 1-1.77-.53c-1.2-.69-1.38-1.7.37-2.85l.38-.24c.33-.19.67-.35 1.02-.5a7.08 7.08 0 0 1 5.42-.13l3.13-3.15a14.88 14.88 0 0 0-8.55-.31c-.92.24-1.83.56-2.71.94l-3.13-1.8-3.73 2.15 3.09 1.79c-3.14 2.37-3.2 4.85.32 6.89a11 11 0 0 0 5.15 1.48h1.03a20.1 20.1 0 0 0 5.53-1.2c3.58-1.2 6.48-2.6 8.89-1.2 1.64.92 1.17 2.1-.6 3.12-.3.16-.6.3-.92.43a8 8 0 0 1-6.22 0l-3.28 3.27a15.35 15.35 0 0 0 12.06-.51l3.09 1.77 3.73-2.15-3.1-1.78c3.11-2.4 3.47-5.02-.16-7.14h-.05c-3.27-1.84-6.66-1.6-9.67-.84Z" fill="#FBD40B"/>
  <path d="M82.71 194.16c-1.28.33-2.5.74-3.6 1.13a37.8 37.8 0 0 1-3.88 1.2c-.6.13-1.22.19-1.84.16a3.97 3.97 0 0 1-1.77-.53c-1.2-.69-1.38-1.7.37-2.85l.38-.24c.33-.19.67-.35 1.02-.5a7.08 7.08 0 0 1 5.42-.13l3.13-3.15a14.88 14.88 0 0 0-8.55-.31c-.92.24-1.83.56-2.71.94l-3.13-1.8-3.73 2.15 3.09 1.79c-3.14 2.37-3.2 4.85.32 6.89a11 11 0 0 0 5.15 1.48h1.03a20.1 20.1 0 0 0 5.53-1.2c3.58-1.2 6.48-2.6 8.89-1.2 1.64.92 1.17 2.1-.6 3.12-.3.16-.6.3-.92.43a8 8 0 0 1-6.22 0l-3.28 3.27a15.35 15.35 0 0 0 12.06-.51l3.09 1.77 3.73-2.15-3.1-1.78c3.11-2.4 3.47-5.02-.16-7.14h-.05c-3.27-1.84-6.66-1.6-9.67-.84Z" fill="#fff" opacity=".2"/>
  <path opacity=".45" d="m63.79 190.24 3.76-1.7 3.1 1.35-3.14-1.8-3.72 2.15Zm9.14-1.17a17.5 17.5 0 0 1 8.02.27l-2.17 3.07 3.13-3.15a14.86 14.86 0 0 0-8.98-.2Zm19.45 5.98h.06c3.63 2.12 3.28 4.74.17 7.14 2.75-3 2.25-5.09-.73-6.81-2.99-1.73-6.8-1.7-9.17-1.25 3.01-.73 6.4-.97 9.67.92Zm.22 7.17 2.37 1.82-3 2.12 3.72-2.16-3.08-1.78Zm-6.3-.68a8 8 0 0 1-5.94.51l-3.55 2.81 3.28-3.27a8.01 8.01 0 0 0 6.22-.05Zm-11.1-5.05c-1.41.55-3.44.46-4.47-.43-1.02-.88-.38-1.92 1.22-2.78-1.74 1.15-1.56 2.16-.37 2.85.55.31 1.16.5 1.78.53.62.03 1.24-.03 1.84-.17Zm-8.35-4.44c-.26.23-2.52 2.33-1.52 4.42 1.05 2.23 4.35 3.66 7 3.95a11 11 0 0 1-5.14-1.48c-3.54-2.04-3.48-4.51-.34-6.89Z" fill="#F5F5F5"/>
  <path d="M122.35 185.27c-1.76-2.98-4.68-5.74-8.8-8.14-14.37-8.3-37.68-8.3-52.07 0-4.1 2.37-7.04 5.16-8.8 8.14h-2v7.52c.27 5.23 3.85 10.42 10.77 14.42 14.38 8.3 37.69 8.3 52.08 0 6.92-4 10.53-9.19 10.79-14.42v-7.52h-1.97Z" fill="#FBD40B"/>
  <path opacity=".3" d="M122.35 185.27c-1.76-2.98-4.68-5.74-8.8-8.14-14.37-8.3-37.68-8.3-52.07 0-4.1 2.37-7.04 5.16-8.8 8.14h-2v7.52c.27 5.23 3.85 10.42 10.77 14.42 14.38 8.3 37.69 8.3 52.08 0 6.92-4 10.53-9.19 10.79-14.42v-7.52h-1.97Z" fill="#000"/>
  <path opacity=".1" d="M87.55 170.9c-9.43 0-18.84 2.08-26.04 6.23-4.1 2.37-7.04 5.16-8.8 8.14h-2v7.52c.27 5.23 3.85 10.42 10.77 14.42 7.19 4.15 16.62 6.22 26.05 6.22l.02-42.52Z" fill="#000"/>
  <path opacity=".1" d="M67.46 174.35c-2.04.77-4.02 1.7-5.92 2.78-4.1 2.37-7.04 5.16-8.8 8.14h-1.99v7.52c.26 5.23 3.84 10.42 10.77 14.42a40.94 40.94 0 0 0 5.92 2.77l.02-35.63Z" fill="#000"/>
  <path opacity=".5" d="M107.66 174.35c2.05.77 4.03 1.7 5.93 2.78 4.1 2.37 7.03 5.16 8.8 8.14h1.99v7.52c-.27 5.23-3.87 10.42-10.8 14.42a40.9 40.9 0 0 1-5.92 2.77v-35.63Z" fill="#FBD40B"/>
  <path d="M61.5 170.23c-14.38 8.31-14.38 21.77 0 30.08 12.6 7.26 32.02 8.19 46.31 2.73l.57-.22c1.8-.71 3.54-1.55 5.2-2.5 12-6.93 14-17.44 5.99-25.56a27.82 27.82 0 0 0-5.97-4.51c-14.4-8.31-37.71-8.32-52.1-.02Z" fill="#FBD40B"/>
  <path opacity=".2" d="M61.5 170.23c-14.38 8.31-14.38 21.77 0 30.08 12.6 7.26 32.02 8.19 46.31 2.73l.57-.22c1.8-.71 3.54-1.55 5.2-2.5 12-6.93 14-17.44 5.99-25.56a27.82 27.82 0 0 0-5.97-4.51c-14.4-8.31-37.71-8.32-52.1-.02Z" fill="#000"/>
  <path opacity=".5" d="M119.57 174.76c.15.17 5.18 5.48 3.85 13.1-1.28 7.31-11.51 13.46-15.04 14.94 1.8-.7 3.54-1.54 5.2-2.5 12-6.92 14-17.43 5.99-25.54ZM55.53 195.8c-.16-.17-5.19-5.48-3.85-13.1 1.27-7.31 11.47-13.47 15.03-14.94-1.8.7-3.53 1.54-5.2 2.5-12 6.9-14 17.42-5.98 25.54Z" fill="#F5F5F5"/>
  <path d="M87.56 205.01c18.9 0 34.23-8.85 34.23-19.77s-15.32-19.77-34.23-19.77c-18.9 0-34.24 8.85-34.24 19.77s15.33 19.77 34.24 19.77Z" fill="#FBD40B"/>
  <path opacity=".1" d="M87.56 205.01c18.9 0 34.23-8.85 34.23-19.77s-15.32-19.77-34.23-19.77c-18.9 0-34.24 8.85-34.24 19.77s15.33 19.77 34.24 19.77Z" fill="#fff"/>
  <path opacity=".2" d="M120.24 191.15c2.75-5.09 1.86-10.7-2.69-15.45a27.34 27.34 0 0 0-7.36-5.28c1.43 2.34.9 4.84-7.16 5.31-15.77.93 4.22 16 4.22 16s10.19-4.94 12.99-.58Z" fill="#fff"/>
  <path opacity=".3" d="M118.62 186.97c2.36-.26 3.54-2.7 2.62-5.44-.92-2.74-3.59-4.74-5.96-4.47-2.36.27-3.55 2.7-2.62 5.44.93 2.74 3.59 4.74 5.96 4.47Z" fill="#fff"/>
  <path d="M93.68 199.54c-.82-5.86-26.4-22.08-26.4-22.08s-5.67-2.28-3.79-6.25c-.94.54-1.86 1.13-2.74 1.77-.59.42-1.14.87-1.63 1.32-7.63 6.6-7.64 15.28 0 21.89.51.45 1.07.88 1.63 1.32a35.86 35.86 0 0 0 7.56 4.05c.8.3 1.59.6 2.4.86a49.78 49.78 0 0 0 9.37 2.1 59.4 59.4 0 0 0 16.98-.3s-4.14-.82-3.38-4.68Z" fill="#FBD40B"/>
  <path opacity=".2" d="M93.29 199.54c-.78-5.86-26.4-22.08-26.4-22.08s-5.68-2.28-3.78-6.25c-.95.54-1.87 1.13-2.75 1.77-.59.42-1.15.87-1.64 1.32-7.62 6.6-7.63 15.28 0 21.89.51.45 1.07.88 1.64 1.32a30.42 30.42 0 0 0 5.26 3.05c.75.35 1.52.69 2.3 1a49.78 49.78 0 0 0 11.76 2.96c5.65.7 11.38.61 17-.3 0 0-4.12-.82-3.4-4.68Z" fill="#fff"/>
  <path d="M69.51 174.83c-9.55 5.51-9.94 14.31-1.16 20.1.37.25.76.49 1.16.72 9.96 5.74 26.11 5.74 36.05 0 9.94-5.73 9.96-15.07 0-20.82-.4-.24-.82-.46-1.25-.68-10-5.06-25.25-4.84-34.8.68Z" fill="#FBD40B"/>
  <path opacity=".2" d="M69.51 174.83c-9.55 5.51-9.94 14.31-1.16 20.1.37.25.76.49 1.16.72 9.96 5.74 26.11 5.74 36.05 0 9.94-5.73 9.96-15.07 0-20.82-.4-.24-.82-.46-1.25-.68-10-5.06-25.25-4.84-34.8.68Z" fill="#000"/>
  <path d="M87.56 199.32c13.46 0 24.38-6.3 24.38-14.08 0-7.77-10.92-14.07-24.38-14.07-13.47 0-24.38 6.3-24.38 14.07 0 7.77 10.91 14.08 24.38 14.08Z" fill="#FBD40B"/>
  <path opacity=".5" d="M87.56 199.32c13.46 0 24.38-6.3 24.38-14.08 0-7.77-10.92-14.07-24.38-14.07-13.47 0-24.38 6.3-24.38 14.07 0 7.77 10.91 14.08 24.38 14.08Z" fill="#000"/>
  <path d="M70.32 179.21c9.52-5.5 24.96-5.5 34.48 0 3.9 2.25 6.19 5.07 6.9 7.99-.7 2.93-3 5.74-6.9 8-9.52 5.5-24.96 5.5-34.48 0-3.89-2.26-6.2-5.07-6.9-8 .7-2.92 3.01-5.74 6.9-7.99Z" fill="#FBD40B"/>
  <path opacity=".35" d="M70.32 179.21c9.52-5.5 24.96-5.5 34.48 0 3.9 2.25 6.19 5.07 6.9 7.99-.7 2.93-3 5.74-6.9 8-9.52 5.5-24.96 5.5-34.48 0-3.89-2.26-6.2-5.07-6.9-8 .7-2.92 3.01-5.74 6.9-7.99Z" fill="#000"/>
  <path d="M102.91 189.48v-2.91c0-1.19-.82-2.35-2.6-3.4h-.06c-3.28-1.88-6.65-1.63-9.67-.88-1.28.32-2.5.74-3.61 1.13-1.27.47-2.56.87-3.87 1.2-.6.13-1.22.19-1.84.16a3.92 3.92 0 0 1-1.52-.4l.12-.09.38-.24a8.45 8.45 0 0 1 3.72-1.1 7 7 0 0 1 2.72.48l3.12-3.15v-2.9a14.86 14.86 0 0 0-8.54-.31c-.93.24-1.84.55-2.72.94l-3.12-1.8-3.74 2.15v2.9l1.28.73c-.34.5-.53 1.08-.55 1.69v2.89c0 1.2.86 2.34 2.66 3.38 1.56.92 3.33 1.43 5.15 1.49h1.03a20.5 20.5 0 0 0 5.53-1.2l1.08-.37-3.2 3.12v2.9a15.33 15.33 0 0 0 12.06-.52l3.09 1.78 3.73-2.16v-2.9l-1.28-.73c.4-.55.63-1.2.65-1.88Zm-7.86-.25a7.99 7.99 0 0 1-6.97.53c2.92-1.04 5.36-1.94 7.44-.82-.15.1-.3.21-.47.3Z" fill="#FBD40B"/>
  <path d="M90.58 182.26c-1.28.32-2.5.74-3.61 1.12a35.3 35.3 0 0 1-3.87 1.2c-.6.14-1.22.2-1.84.17a3.9 3.9 0 0 1-1.77-.53c-1.2-.69-1.38-1.7.37-2.85.11-.09.24-.16.38-.24.33-.19.67-.36 1.02-.5a7.08 7.08 0 0 1 5.42-.13l3.12-3.16a14.87 14.87 0 0 0-8.54-.3c-.93.24-1.84.55-2.72.94l-3.12-1.8-3.74 2.15 3.1 1.78c-3.14 2.38-3.2 4.85.33 6.9 1.57.9 3.34 1.42 5.15 1.48h1.03a20.2 20.2 0 0 0 5.53-1.2c3.58-1.2 6.48-2.6 8.9-1.21 1.64.93 1.16 2.1-.6 3.13a8 8 0 0 1-7.08.47l-3.28 3.28a15.33 15.33 0 0 0 12.05-.52l3.09 1.78 3.73-2.15-3.09-1.78c3.1-2.4 3.46-5.02-.16-7.14h-.06c-3.36-1.9-6.72-1.65-9.74-.89Z" fill="#FBD40B"/>
  <path d="M90.58 182.26c-1.28.32-2.5.74-3.61 1.12a35.3 35.3 0 0 1-3.87 1.2c-.6.14-1.22.2-1.84.17a3.9 3.9 0 0 1-1.77-.53c-1.2-.69-1.38-1.7.37-2.85.11-.09.24-.16.38-.24.33-.19.67-.36 1.02-.5a7.08 7.08 0 0 1 5.42-.13l3.12-3.16a14.87 14.87 0 0 0-8.54-.3c-.93.24-1.84.55-2.72.94l-3.12-1.8-3.74 2.15 3.1 1.78c-3.14 2.38-3.2 4.85.33 6.9 1.57.9 3.34 1.42 5.15 1.48h1.03a20.2 20.2 0 0 0 5.53-1.2c3.58-1.2 6.48-2.6 8.9-1.21 1.64.93 1.16 2.1-.6 3.13a8 8 0 0 1-7.08.47l-3.28 3.28a15.33 15.33 0 0 0 12.05-.52l3.09 1.78 3.73-2.15-3.09-1.78c3.1-2.4 3.46-5.02-.16-7.14h-.06c-3.36-1.9-6.72-1.65-9.74-.89Z" fill="#fff" opacity=".2"/>
  <path opacity=".45" d="m71.66 178.34 3.76-1.7 3.1 1.34-3.13-1.8-3.73 2.16Zm9.14-1.18a17.5 17.5 0 0 1 8.01.28l-2.16 3.07 3.12-3.16a14.92 14.92 0 0 0-8.98-.19Zm19.43 5.99h.07c3.62 2.12 3.28 4.74.16 7.14 2.75-3 2.26-5.09-.73-6.82-3-1.73-6.8-1.7-9.16-1.24 3.03-.73 6.39-.98 9.66.92Zm.25 7.17 2.37 1.82-3.02 2.11 3.74-2.15-3.1-1.78Zm-6.3-.65a8.05 8.05 0 0 1-5.95.51L84.67 193l3.27-3.28a8.02 8.02 0 0 0 6.24-.04Zm-11.11-5.08c-1.4.55-3.44.46-4.47-.43-1.04-.88-.39-1.92 1.23-2.78-1.75 1.14-1.58 2.16-.37 2.85.54.31 1.14.5 1.77.53.62.02 1.24-.04 1.84-.17Zm-8.36-4.44c-.26.23-2.5 2.32-1.51 4.41 1.05 2.24 4.34 3.66 7 3.96a10.98 10.98 0 0 1-5.16-1.48c-3.48-2.04-3.48-4.52-.33-6.9Z" fill="#F5F5F5"/>
  <path d="M124.36 171.02c-1.76-2.97-4.7-5.73-8.8-8.14-14.39-8.3-37.68-8.3-52.09 0-4.1 2.38-7.03 5.18-8.8 8.14h-1.95v7.53c.26 5.23 3.84 10.42 10.75 14.4 14.39 8.32 37.69 8.32 52.1 0 6.9-3.98 10.52-9.17 10.78-14.4v-7.53h-2Z" fill="#FBD40B"/>
  <path opacity=".3" d="M124.36 171.02c-1.76-2.97-4.7-5.73-8.8-8.14-14.39-8.3-37.68-8.3-52.09 0-4.1 2.38-7.03 5.18-8.8 8.14h-1.95v7.53c.26 5.23 3.84 10.42 10.75 14.4 14.39 8.32 37.69 8.32 52.1 0 6.9-3.98 10.52-9.17 10.78-14.4v-7.53h-2Z" fill="#000"/>
  <path opacity=".1" d="M89.52 156.66c-9.42 0-18.84 2.07-26.05 6.22-4.1 2.38-7.03 5.18-8.8 8.14h-1.95v7.53c.26 5.23 3.84 10.42 10.75 14.4 7.2 4.16 16.63 6.24 26.05 6.24v-42.53Z" fill="#000"/>
  <path opacity=".1" d="M69.4 160.1a42.1 42.1 0 0 0-5.93 2.78c-4.1 2.38-7.03 5.18-8.8 8.14h-1.95v7.53c.26 5.23 3.84 10.42 10.75 14.4a40.65 40.65 0 0 0 5.94 2.79V160.1Z" fill="#000"/>
  <path opacity=".5" d="M109.64 160.1c2.04.78 4.02 1.7 5.92 2.78 4.1 2.38 7.04 5.18 8.8 8.14h1.99v7.53c-.26 5.23-3.88 10.42-10.79 14.4a40.95 40.95 0 0 1-5.92 2.79V160.1Z" fill="#FBD40B"/>
  <path d="M63.47 155.99c-14.38 8.3-14.37 21.77 0 30.07 12.59 7.27 32.02 8.2 46.31 2.73l.58-.22a40 40 0 0 0 5.2-2.5c12-6.93 13.98-17.44 5.97-25.56a28.05 28.05 0 0 0-5.97-4.51c-14.38-8.31-37.7-8.31-52.09-.01Z" fill="#FBD40B"/>
  <path opacity=".2" d="M63.47 155.99c-14.38 8.3-14.37 21.77 0 30.07 12.59 7.27 32.02 8.2 46.31 2.73l.58-.22a40 40 0 0 0 5.2-2.5c12-6.93 13.98-17.44 5.97-25.56a28.05 28.05 0 0 0-5.97-4.51c-14.38-8.31-37.7-8.31-52.09-.01Z" fill="#000"/>
  <path opacity=".5" d="M121.53 160.51c.16.17 5.19 5.48 3.86 13.1-1.28 7.31-11.47 13.47-15.03 14.95 1.8-.71 3.53-1.55 5.2-2.5 12-6.92 13.98-17.43 5.97-25.55ZM57.5 181.55c-.15-.18-5.18-5.48-3.85-13.11 1.27-7.3 11.47-13.46 15.03-14.94-1.79.7-3.53 1.52-5.2 2.46-12 6.96-13.99 17.47-5.98 25.59Z" fill="#F5F5F5"/>
  <path d="M89.53 190.76c18.91 0 34.24-8.85 34.24-19.76 0-10.92-15.33-19.77-34.24-19.77-18.9 0-34.23 8.85-34.23 19.77 0 10.91 15.33 19.76 34.23 19.76Z" fill="#FBD40B"/>
  <path opacity=".1" d="M89.53 190.76c18.91 0 34.24-8.85 34.24-19.76 0-10.92-15.33-19.77-34.24-19.77-18.9 0-34.23 8.85-34.23 19.77 0 10.91 15.33 19.76 34.23 19.76Z" fill="#fff"/>
  <path opacity=".2" d="M122.21 176.9c2.76-5.09 1.85-10.7-2.68-15.45a28.35 28.35 0 0 0-7.36-5.26c1.4 2.34.9 4.85-7.18 5.33-15.78.91 4.22 16 4.22 16s10.19-4.94 13-.62Z" fill="#fff"/>
  <path opacity=".3" d="M120.58 172.73c2.37-.27 3.55-2.7 2.62-5.44-.92-2.73-3.58-4.74-5.94-4.48-2.37.26-3.55 2.7-2.63 5.44.93 2.74 3.63 4.75 5.95 4.48Z" fill="#fff"/>
  <path d="M95.63 185.3c-.78-5.87-26.4-22.12-26.4-22.12s-5.67-2.28-3.79-6.25a27.8 27.8 0 0 0-4.37 3.09c-7.62 6.6-7.64 15.28 0 21.89.51.45 1.07.9 1.63 1.32a32.86 32.86 0 0 0 5.25 3.06c.75.34 1.53.68 2.32 1 .78.3 1.58.59 2.4.81a50.54 50.54 0 0 0 9.35 2.09 58.08 58.08 0 0 0 17-.29s-4.13-.75-3.4-4.6Z" fill="#FBD40B"/>
  <path opacity=".2" d="M95.26 185.3c-.78-5.87-26.39-22.12-26.39-22.12s-5.68-2.28-3.8-6.25a28.85 28.85 0 0 0-4.37 3.09c-7.63 6.6-7.64 15.28 0 21.89.51.45 1.07.9 1.64 1.32a32.86 32.86 0 0 0 5.25 3.06 27.09 27.09 0 0 0 4.7 1.81 50.8 50.8 0 0 0 9.37 2.09 58.2 58.2 0 0 0 17-.29s-4.16-.75-3.4-4.6Z" fill="#fff"/>
  <path d="M71.49 160.57c-9.56 5.52-9.95 14.33-1.18 20.1.38.26.77.5 1.18.73 9.96 5.73 26.1 5.73 36.04 0 9.94-5.74 9.96-15.07 0-20.83-.4-.23-.82-.45-1.25-.67-10-5.06-25.24-4.83-34.8.67Z" fill="#FBD40B"/>
  <path opacity=".2" d="M71.49 160.57c-9.56 5.52-9.95 14.33-1.18 20.1.38.26.77.5 1.18.73 9.96 5.73 26.1 5.73 36.04 0 9.94-5.74 9.96-15.07 0-20.83-.4-.23-.82-.45-1.25-.67-10-5.06-25.24-4.83-34.8.67Z" fill="#000"/>
  <path d="M89.53 185.07c13.47 0 24.38-6.3 24.38-14.07 0-7.78-10.91-14.08-24.38-14.08-13.46 0-24.38 6.3-24.38 14.08 0 7.77 10.92 14.07 24.38 14.07Z" fill="#FBD40B"/>
  <path opacity=".5" d="M89.53 185.07c13.47 0 24.38-6.3 24.38-14.07 0-7.78-10.91-14.08-24.38-14.08-13.46 0-24.38 6.3-24.38 14.08 0 7.77 10.92 14.07 24.38 14.07Z" fill="#000"/>
  <path d="M72.3 164.97c9.52-5.5 24.95-5.5 34.47 0 3.9 2.25 6.2 5.07 6.9 8-.7 2.92-3 5.73-6.9 7.98-9.52 5.5-24.95 5.5-34.47 0-3.9-2.24-6.2-5.07-6.9-7.99.7-2.92 3-5.74 6.9-8Z" fill="#FBD40B"/>
  <path opacity=".35" d="M72.3 164.97c9.52-5.5 24.95-5.5 34.47 0 3.9 2.25 6.2 5.07 6.9 8-.7 2.92-3 5.73-6.9 7.98-9.52 5.5-24.95 5.5-34.47 0-3.9-2.24-6.2-5.07-6.9-7.99.7-2.92 3-5.74 6.9-8Z" fill="#000"/>
  <path d="M104.89 175.24v-2.92c0-1.19-.82-2.34-2.6-3.38h-.07c-3.27-1.9-6.66-1.64-9.66-.88-1.28.32-2.46.74-3.6 1.12-1.28.47-2.57.87-3.88 1.2-.6.13-1.23.2-1.85.16a3.93 3.93 0 0 1-1.52-.4l.11-.08.39-.24c.33-.19.67-.36 1.02-.5a7.04 7.04 0 0 1 5.42-.13l3.13-3.15v-2.92a14.88 14.88 0 0 0-8.55-.32c-.93.24-1.84.55-2.72.95l-3.12-1.81-3.73 2.15v2.9l1.28.73c-.34.5-.53 1.08-.55 1.69v2.89c0 1.2.82 2.35 2.65 3.38 1.57.92 3.34 1.43 5.15 1.48h1.04c1.89-.14 3.75-.54 5.53-1.2l1.08-.36-3.15 3.15v2.9a15.33 15.33 0 0 0 12.05-.53l3.09 1.79 3.73-2.16v-2.89l-1.28-.75c.39-.55.6-1.2.6-1.87Zm-7.87-.25a8.04 8.04 0 0 1-6.97.52c2.92-1.03 5.37-1.93 7.44-.82l-.47.3Z" fill="#FBD40B"/>
  <path d="M92.56 168.01c-1.28.33-2.46.75-3.6 1.13-1.28.47-2.57.87-3.88 1.2-.6.13-1.23.2-1.85.16a3.95 3.95 0 0 1-1.77-.52c-1.2-.7-1.38-1.71.36-2.86l.39-.23c.33-.2.67-.36 1.02-.5a7.06 7.06 0 0 1 5.42-.13l3.13-3.15a14.88 14.88 0 0 0-8.55-.32c-.93.24-1.84.56-2.72.95l-3.12-1.81-3.73 2.15 3.09 1.79c-3.14 2.38-3.2 4.85.32 6.89 1.57.92 3.34 1.43 5.16 1.48h1.03c1.89-.14 3.75-.54 5.53-1.19 3.58-1.2 6.48-2.61 8.89-1.22 1.64.93 1.17 2.1-.6 3.13a8 8 0 0 1-7.08.48l-3.28 3.28a15.33 15.33 0 0 0 12.05-.52l3.1 1.78 3.72-2.15-3.09-1.79c3.1-2.4 3.47-5.01-.16-7.13h-.06c-3.33-1.9-6.72-1.66-9.72-.9Z" fill="#FBD40B"/>
  <path d="M92.56 168.01c-1.28.33-2.46.75-3.6 1.13-1.28.47-2.57.87-3.88 1.2-.6.13-1.23.2-1.85.16a3.95 3.95 0 0 1-1.77-.52c-1.2-.7-1.38-1.71.36-2.86l.39-.23c.33-.2.67-.36 1.02-.5a7.06 7.06 0 0 1 5.42-.13l3.13-3.15a14.88 14.88 0 0 0-8.55-.32c-.93.24-1.84.56-2.72.95l-3.12-1.81-3.73 2.15 3.09 1.79c-3.14 2.38-3.2 4.85.32 6.89 1.57.92 3.34 1.43 5.16 1.48h1.03c1.89-.14 3.75-.54 5.53-1.19 3.58-1.2 6.48-2.61 8.89-1.22 1.64.93 1.17 2.1-.6 3.13a8 8 0 0 1-7.08.48l-3.28 3.28a15.33 15.33 0 0 0 12.05-.52l3.1 1.78 3.72-2.15-3.09-1.79c3.1-2.4 3.47-5.01-.16-7.13h-.06c-3.33-1.9-6.72-1.66-9.72-.9Z" fill="#fff" opacity=".2"/>
  <path opacity=".45" d="m73.62 164.09 3.77-1.7 3.1 1.36-3.13-1.81-3.74 2.15Zm9.15-1.17c2.66-.53 5.4-.44 8.02.27l-2.17 3.12 3.13-3.15c-2.9-1-6.04-1.09-8.98-.24Zm19.45 5.98h.06c3.63 2.12 3.28 4.73.16 7.13 2.76-3 2.27-5.08-.72-6.8-3-1.72-6.8-1.7-9.16-1.26 3-.72 6.39-.96 9.66.93Zm.22 7.17 2.37 1.82-3 2.13 3.72-2.16-3.09-1.79Zm-6.3-.65a8 8 0 0 1-5.95.52l-3.54 2.81 3.28-3.27a8.01 8.01 0 0 0 6.2-.06Zm-11.1-5.08c-1.41.56-3.44.46-4.47-.43-1.03-.88-.38-1.91 1.22-2.78-1.74 1.15-1.56 2.16-.37 2.86.55.31 1.16.5 1.78.52.62.03 1.24-.03 1.84-.17Zm-8.35-4.44c-.26.24-2.5 2.33-1.52 4.42 1.05 2.23 4.34 3.67 7 3.95a10.82 10.82 0 0 1-5.15-1.48c-3.53-2.04-3.47-4.5-.33-6.89Z" fill="#F5F5F5"/>
  <path d="M116.78 158.72c-1.76-2.98-4.7-5.74-8.8-8.14-14.38-8.3-37.68-8.3-52.08 0-4.1 2.37-7.04 5.16-8.8 8.13h-1.98v7.53c.26 5.23 3.84 10.42 10.75 14.41 14.39 8.3 37.69 8.3 52.09 0 6.91-4 10.53-9.18 10.79-14.41v-7.53h-1.97Z" fill="#FBD40B"/>
  <path opacity=".3" d="M116.78 158.72c-1.76-2.98-4.7-5.74-8.8-8.14-14.38-8.3-37.68-8.3-52.08 0-4.1 2.37-7.04 5.16-8.8 8.13h-1.98v7.53c.26 5.23 3.84 10.42 10.75 14.41 14.39 8.3 37.69 8.3 52.09 0 6.91-4 10.53-9.18 10.79-14.41v-7.53h-1.97Z" fill="#000"/>
  <path opacity=".1" d="M81.94 144.35c-9.42 0-18.84 2.08-26.04 6.23-4.1 2.37-7.04 5.16-8.8 8.13h-1.98v7.53c.26 5.23 3.84 10.42 10.75 14.41 7.2 4.15 16.62 6.23 26.04 6.23l.03-42.53Z" fill="#000"/>
  <path opacity=".1" d="M61.83 147.8c-2.05.77-4.03 1.7-5.93 2.78-4.1 2.37-7.04 5.16-8.8 8.13h-1.98v7.53c.26 5.23 3.84 10.42 10.75 14.41a39.46 39.46 0 0 0 5.93 2.77l.03-35.62Z" fill="#000"/>
  <path opacity=".5" d="M102.06 147.8c2.05.77 4.03 1.7 5.92 2.78 4.1 2.37 7.04 5.16 8.8 8.13h2v7.53c-.27 5.24-3.88 10.42-10.8 14.42a41 41 0 0 1-5.92 2.77V147.8Z" fill="#FBD40B"/>
  <path d="M55.9 143.68c-14.39 8.31-14.38 21.77 0 30.08 12.58 7.26 32.01 8.19 46.3 2.72l.58-.22c1.8-.71 3.53-1.55 5.2-2.5 12-6.93 13.99-17.44 5.98-25.55a27.75 27.75 0 0 0-5.97-4.52c-14.38-8.31-37.7-8.31-52.1 0Z" fill="#FBD40B"/>
  <path opacity=".2" d="M55.9 143.68c-14.39 8.31-14.38 21.77 0 30.08 12.58 7.26 32.01 8.19 46.3 2.72l.58-.22c1.8-.71 3.53-1.55 5.2-2.5 12-6.93 13.99-17.44 5.98-25.55a27.75 27.75 0 0 0-5.97-4.52c-14.38-8.31-37.7-8.31-52.1 0Z" fill="#000"/>
  <path opacity=".5" d="M113.96 148.2c.15.18 5.18 5.49 3.85 13.11-1.27 7.31-11.47 13.46-15.03 14.94 1.8-.71 3.53-1.54 5.2-2.5 12-6.92 13.99-17.44 5.98-25.54Zm-64.04 21.03c-.15-.17-5.18-5.48-3.85-13.1 1.27-7.31 11.47-13.46 15.04-14.94-1.8.7-3.54 1.54-5.21 2.5-12 6.91-13.99 17.43-5.98 25.54Z" fill="#F5F5F5"/>
  <path d="M81.96 178.46c18.9 0 34.23-8.85 34.23-19.77s-15.33-19.77-34.23-19.77c-18.91 0-34.24 8.85-34.24 19.77s15.33 19.77 34.24 19.77Z" fill="#FBD40B"/>
  <path opacity=".1" d="M81.96 178.46c18.9 0 34.23-8.85 34.23-19.77s-15.33-19.77-34.23-19.77c-18.91 0-34.24 8.85-34.24 19.77s15.33 19.77 34.24 19.77Z" fill="#fff"/>
  <path opacity=".2" d="M114.64 164.59c2.75-5.08 1.85-10.65-2.7-15.44a23.4 23.4 0 0 0-2.9-2.55 31.74 31.74 0 0 0-4.45-2.74c1.42 2.35.9 4.85-7.17 5.32-15.78.92 4.22 16 4.22 16s10.18-4.9 13-.6Z" fill="#fff"/>
  <path opacity=".3" d="M113 160.42c2.37-.26 3.55-2.7 2.63-5.44-.93-2.74-3.58-4.74-5.95-4.47-2.37.27-3.55 2.7-2.62 5.44.92 2.74 3.58 4.74 5.94 4.47Z" fill="#fff"/>
  <path d="M88.05 172.99c-.78-5.86-26.4-22.08-26.4-22.08s-5.67-2.28-3.79-6.25a28.95 28.95 0 0 0-4.37 3.09c-7.62 6.6-7.64 15.28 0 21.89.51.45 1.07.88 1.64 1.32a32.9 32.9 0 0 0 7.56 4.05 49.53 49.53 0 0 0 11.76 2.96 59.37 59.37 0 0 0 16.98-.3s-4.12-.82-3.38-4.68Z" fill="#FBD40B"/>
  <path opacity=".2" d="M87.68 172.99c-.78-5.86-26.39-22.08-26.39-22.08s-5.68-2.28-3.8-6.25a30.3 30.3 0 0 0-2.73 1.77c-.6.42-1.15.86-1.64 1.32-7.63 6.6-7.64 15.28 0 21.89.52.45 1.07.88 1.64 1.32a32.92 32.92 0 0 0 7.56 4.05 49.66 49.66 0 0 0 11.76 2.96 59.19 59.19 0 0 0 17-.3s-4.13-.82-3.4-4.68Z" fill="#fff"/>
  <path d="M63.9 148.29c-9.55 5.51-9.94 14.3-1.16 20.1.37.24.77.48 1.17.72 9.96 5.74 26.1 5.74 36.04 0 9.94-5.73 9.97-15.07 0-20.82-.4-.24-.81-.46-1.25-.68-10-5.06-25.24-4.85-34.8.68Z" fill="#FBD40B"/>
  <path opacity=".2" d="M63.9 148.29c-9.55 5.51-9.94 14.3-1.16 20.1.37.24.77.48 1.17.72 9.96 5.74 26.1 5.74 36.04 0 9.94-5.73 9.97-15.07 0-20.82-.4-.24-.81-.46-1.25-.68-10-5.06-25.24-4.85-34.8.68Z" fill="#000"/>
  <path d="M81.96 172.76c13.46 0 24.38-6.3 24.38-14.07 0-7.77-10.92-14.07-24.38-14.07-13.47 0-24.38 6.3-24.38 14.07 0 7.77 10.91 14.07 24.38 14.07Z" fill="#FBD40B"/>
  <path opacity=".5" d="M81.96 172.76c13.46 0 24.38-6.3 24.38-14.07 0-7.77-10.92-14.07-24.38-14.07-13.47 0-24.38 6.3-24.38 14.07 0 7.77 10.91 14.07 24.38 14.07Z" fill="#000"/>
  <path d="M64.72 152.66c9.52-5.5 24.95-5.5 34.47 0 3.9 2.25 6.2 5.07 6.9 7.99-.7 2.92-3 5.73-6.9 8-9.52 5.5-24.95 5.5-34.47 0-3.9-2.26-6.2-5.08-6.9-8 .7-2.93 3-5.74 6.9-7.99Z" fill="#FBD40B"/>
  <path opacity=".35" d="M64.72 152.66c9.52-5.5 24.95-5.5 34.47 0 3.9 2.25 6.2 5.07 6.9 7.99-.7 2.92-3 5.73-6.9 8-9.52 5.5-24.95 5.5-34.47 0-3.9-2.26-6.2-5.08-6.9-8 .7-2.93 3-5.74 6.9-7.99Z" fill="#000"/>
  <path d="M97.3 162.93v-2.91c0-1.2-.81-2.35-2.6-3.4l-.05-.03c-3.28-1.89-6.66-1.64-9.67-.89-1.28.32-2.46.74-3.6 1.12-1.27.48-2.57.88-3.88 1.2-.6.14-1.22.2-1.84.17a3.94 3.94 0 0 1-1.53-.4l.12-.09.38-.24c.33-.19.68-.36 1.03-.5a7.1 7.1 0 0 1 5.41-.13l3.13-3.15v-2.9a14.88 14.88 0 0 0-8.54-.3c-.93.24-1.84.55-2.72.94l-3.13-1.8-3.73 2.15v2.89l1.28.74c-.34.5-.53 1.08-.55 1.69v2.89c0 1.2.82 2.34 2.65 3.38a11 11 0 0 0 5.16 1.48h1.03a20.2 20.2 0 0 0 5.53-1.2l1.08-.36-3.15 3.15v2.9a15.3 15.3 0 0 0 12.05-.52l3.1 1.78 3.72-2.16v-2.89l-1.28-.74c.38-.55.6-1.2.6-1.87Zm-7.86-.25a8.04 8.04 0 0 1-6.97.52c2.93-1.03 5.37-1.93 7.44-.81l-.47.3Z" fill="#FBD40B"/>
  <path d="M84.98 155.7c-1.28.32-2.46.74-3.6 1.12-1.27.48-2.57.88-3.88 1.2-.6.14-1.22.2-1.84.17a3.97 3.97 0 0 1-1.78-.53c-1.2-.69-1.38-1.7.37-2.85l.38-.24c.33-.2.67-.36 1.03-.5a7.08 7.08 0 0 1 5.41-.13l3.13-3.16a14.88 14.88 0 0 0-8.54-.3c-.93.24-1.84.55-2.72.94l-3.13-1.8-3.73 2.15 3.09 1.78c-3.14 2.38-3.2 4.85.33 6.9 1.56.9 3.33 1.42 5.15 1.48h1.03a20.1 20.1 0 0 0 5.53-1.2c3.58-1.2 6.48-2.6 8.89-1.21 1.64.93 1.17 2.1-.6 3.13a8.02 8.02 0 0 1-7.08.43l-3.27 3.28a15.3 15.3 0 0 0 12.05-.53l3.09 1.79 3.72-2.15-3.09-1.78c3.1-2.41 3.47-5.02-.16-7.15l-.06-.04c-3.33-1.8-6.71-1.55-9.72-.8Z" fill="#FBD40B"/>
  <path d="M84.98 155.7c-1.28.32-2.46.74-3.6 1.12-1.27.48-2.57.88-3.88 1.2-.6.14-1.22.2-1.84.17a3.97 3.97 0 0 1-1.78-.53c-1.2-.69-1.38-1.7.37-2.85l.38-.24c.33-.2.67-.36 1.03-.5a7.08 7.08 0 0 1 5.41-.13l3.13-3.16a14.88 14.88 0 0 0-8.54-.3c-.93.24-1.84.55-2.72.94l-3.13-1.8-3.73 2.15 3.09 1.78c-3.14 2.38-3.2 4.85.33 6.9 1.56.9 3.33 1.42 5.15 1.48h1.03a20.1 20.1 0 0 0 5.53-1.2c3.58-1.2 6.48-2.6 8.89-1.21 1.64.93 1.17 2.1-.6 3.13a8.02 8.02 0 0 1-7.08.43l-3.27 3.28a15.3 15.3 0 0 0 12.05-.53l3.09 1.79 3.72-2.15-3.09-1.78c3.1-2.41 3.47-5.02-.16-7.15l-.06-.04c-3.33-1.8-6.71-1.55-9.72-.8Z" fill="#fff" opacity=".2"/>
  <path opacity=".45" d="m66.05 151.78 3.76-1.7 3.1 1.35-3.13-1.8-3.73 2.16Zm9.14-1.17a17.5 17.5 0 0 1 8.02.27l-2.16 3.08 3.12-3.16a14.93 14.93 0 0 0-8.98-.19Zm19.46 5.98.05.04c3.63 2.12 3.28 4.73.17 7.14 2.75-3 2.26-5.09-.73-6.82-3-1.72-6.8-1.7-9.16-1.25 3-.75 6.39-1 9.67.89Zm.22 7.18 2.36 1.82-3 2.11 3.73-2.15-3.1-1.78Zm-6.29-.65a8.06 8.06 0 0 1-5.95.51l-3.54 2.81 3.28-3.28a8.01 8.01 0 0 0 6.2-.04Zm-11.11-5.09c-1.42.55-3.44.46-4.48-.42-1.03-.89-.38-1.93 1.22-2.79-1.74 1.15-1.56 2.17-.36 2.86.54.31 1.15.5 1.77.53.62.02 1.24-.04 1.85-.18Zm-8.37-4.43c-.26.22-2.5 2.32-1.51 4.41 1.05 2.24 4.34 3.66 7 3.96a10.99 10.99 0 0 1-5.16-1.48c-3.52-2.05-3.46-4.52-.33-6.9Z" fill="#F5F5F5"/>
  <path d="M44.6 208.03s8.54 13.05 10.13 18.54c1.64 5.74 3.55 7.33 4.02 13.85.1 1.42 0 4.33.09 5.49a1.71 1.71 0 0 0 2 1.72c2.7-.06 5.85-5.74 6.68-11.33.83-5.6 1-17.82.82-19.26a8 8 0 0 0-1.76-3.86 12.36 12.36 0 0 0-1.64-1.84c-1.44-2.33-2.97-7.03-4.46-10.19l-15.88 6.88Z" fill="#C8856A"/>
  <path d="M74.63 221.2c.47.5.86 1.1 1.13 1.74.34 1.14-1.44 5.54-2.16 7.16a9.3 9.3 0 0 0-.39 7.02c1.02 3.67.18 7.6-1.54 11.2a26.3 26.3 0 0 1-10.99 11.15c-5.8 3.28-8.7.72-8.7.72s-2.63-2.52-1.75-3.99c.87-1.46 24.4-35 24.4-35Z" fill="#263238"/>
  <path d="M64.94 211.37c.19-.05.5-.18 1.14.28.23.18 2.01 2.67 3.28 3.9 1.26 1.22 4.4 3.41 5.26 5.68-.39 4.84-4 8.96-3.64 13.38.35 4.41 1.43 9.39-4.06 16.11-5.49 6.73-12.29 8.82-15.06 8-2.78-.84-3.18-3.5-.89-9.2 2.46-6.09 2.26-18.03 2.26-18.03a37.8 37.8 0 0 0-.49-5c-.24-1.57-1.1-3.14-1.58-4.68-.3-.7-.38-1.49-.2-2.23a3.8 3.8 0 0 1 1.56-1.64c.99-.75 2.05-1.4 3.18-1.91a5.66 5.66 0 0 1 3.64-.38c.84.34 1.69.64 2.55.89a3.28 3.28 0 0 0 3.16-1.31 2.7 2.7 0 0 0 .2-3.17c-.09-.23-.2-.47-.31-.7Z" fill="#37474F"/>
  <path d="M69.92 245.64s-3.8-4.6-10.93-2.97c-7.12 1.62-8.75 5.74-9.34 8.05-.72 2.76-1 7.57 2.23 8.19 3.5.68 7.09-.58 12.2-4.7 5.13-4.13 5.84-8.57 5.84-8.57Zm-6.25-20.71a.77.77 0 0 1-.65.14c-1.23-.3-7.33-.19-10 3.65-.52-.25-.57-.9-.22-1.91 3.4-3.35 9.16-3.48 10.65-3.12a.67.67 0 0 1 .44.32.67.67 0 0 1 .05.55.72.72 0 0 1-.27.37Zm-10.43 8.02a2.15 2.15 0 0 1-.04-2.01c3.43-2.95 8.8-3.06 10.22-2.71a.7.7 0 0 1 .43.33.69.69 0 0 1 .06.54.77.77 0 0 1-.91.51c-1.2-.3-7-.18-9.76 3.34Zm-.7 10.06a4 4 0 0 1 .32-2.72c3.4-3.22 9-3.35 10.5-2.99a.68.68 0 0 1 .5.82.76.76 0 0 1-.92.53c-1.3-.25-8.01-.13-10.4 4.36Zm11.08-9a.75.75 0 0 1-.65.14c-1.22-.3-7.19-.18-9.9 3.52a2.46 2.46 0 0 1 .1-2.2c3.44-2.95 8.8-3.06 10.22-2.7a.69.69 0 0 1 .5.86.82.82 0 0 1-.27.38Z" fill="#FAFAFA"/>
  <path d="M41.41 229.06s.23 13.5.34 23.94c.06 7.58-5.4 11.37-9.8 16.67-.95 1.16-3.14 3.28-3.92 4.25a1.75 1.75 0 0 0 .28 2.7c2.1 1.86 10.74 2.09 15.45-1.63 4.7-3.72 8.83-11.36 11.6-14.29a44.94 44.94 0 0 0 2.95-3.41c.9-1.15.6-2.2.64-3.47 0-.6-.13-2.27-.13-2.27.56-2.98 2.2-12.12 3.04-15.04l-20.45-7.45Z" fill="#C8856A"/>
  <path d="M61 264.88c.08.72.03 1.45-.14 2.15-.44 1.17-4.72 3.79-6.35 4.7-1.63.92-3.39 2.2-4.75 5.67-1.45 3.7-4.64 6.5-8.36 8.47a28.3 28.3 0 0 1-16.32 2.67c-6.96-.82-7.8-4.73-7.8-4.73s-.63-3.7 1.04-4.4c1.67-.7 42.68-14.53 42.68-14.53Z" fill="#263238"/>
  <path d="M59.03 250.7c.2.06.55.16.82.93.1.29 0 3.47.33 5.29.33 1.94 1.57 5.55.86 7.98-3.38 3.84-9.01 5.1-11.5 9.02-2.5 3.91-4.72 8.76-13.6 11.06-8.86 2.3-15.9-.07-17.75-2.45-1.84-2.39-.5-4.88 5.06-8.28 5.89-3.62 13.25-13.77 13.25-13.77a42.06 42.06 0 0 0 2.74-4.49c.82-1.48 1.06-3.28 1.64-4.91a3.7 3.7 0 0 1 1.19-2.03 4.1 4.1 0 0 1 2.36-.45c1.3-.03 2.6.08 3.89.34 1.28.25 2.45.92 3.32 1.9.48.8 1.01 1.57 1.58 2.3a3.5 3.5 0 0 0 3.5.83 2.85 2.85 0 0 0 2.16-2.54c.06-.25.12-.5.15-.74Z" fill="#37474F"/>
  <path d="M41.58 282.52s-.32-6.19-7.37-9.18c-7.04-2.99-10.98-.53-12.95 1.06-2.34 1.9-5.62 5.73-3.28 8.27 2.53 2.71 6.34 3.85 13.27 3.5 6.93-.34 10.33-3.65 10.33-3.65Zm7.82-21.18a.83.83 0 0 1-.65-.28c-.82-1-6.06-4.63-10.74-3.05-.28-.52.08-1.1 1.02-1.73 4.98-.76 9.94 2.66 10.95 3.87a.68.68 0 0 1 .17.54.7.7 0 0 1-.3.49c-.13.1-.3.15-.46.16Zm-13.89.35a2.29 2.29 0 0 1 1.24-1.72c4.75-.38 9.36 2.8 10.33 3.97a.7.7 0 0 1-.12 1.02.82.82 0 0 1-1.1-.12c-.81-.98-5.77-4.42-10.35-3.15Zm-6.91 8.03a4.2 4.2 0 0 1 1.98-2.1c4.92-.62 9.74 2.72 10.75 3.91a.69.69 0 0 1 .07.81.82.82 0 0 1-.65.38.83.83 0 0 1-.64-.28c-.9-1.06-6.67-5.05-11.52-2.72Zm15.03-.8a.83.83 0 0 1-.64-.28c-.82-1-5.95-4.55-10.59-3.09a2.62 2.62 0 0 1 1.48-1.75c4.75-.4 9.35 2.8 10.33 3.95a.7.7 0 0 1-.13 1.04.89.89 0 0 1-.45.13Z" fill="#FAFAFA"/>
  <path d="M66.09 125.06S39.5 141.6 27.32 156.02c-4.37 5.16-7 9.6-1.26 21.85 4.42 9.42 11.66 19.66 18.52 31.8l53.33-72.1-31.82-12.5Z" fill="#33280A"/>
  <path opacity=".4" d="M66.09 125.06S39.5 141.6 27.32 156.02c-4.37 5.16-7 9.6-1.26 21.85 4.42 9.42 11.66 19.66 18.52 31.8l53.33-72.1-31.82-12.5Z" fill="#fff"/>
  <path opacity=".5" d="M43.63 208.03c8.45-8.74 33.66-57.29 33.66-57.29l-1.3-.12c-7.18-2.59-10.65-11.86-10.65-11.86-.6 3.83 1.31 9.12 3.84 11.85a2942.35 2942.35 0 0 0-25.24 21.46c-2.26 1.94-6.85 5.64-6.1 12.29.95 8.67 1.77 17.18 1.77 17.18l4.02 6.49Z" fill="#33280A"/>
  <path d="m66.05 125.06 57.65 4.79c.46 6.84-.75 18.36-5.41 26.42-3.38 5.84-7.3 9.52-21.37 18.15-13.1 8.05-24.86 14.8-27.85 16.69-2.26 1.4-1.48 6.63-1.78 12.86-.3 6.55-.75 10.18-3.39 24.26a325.42 325.42 0 0 1-2.68 12.76s-11.24 2.02-19.96-1.94c0 0-.9-34.13-1.02-42.51-.1-7.16-1.02-13.77 4.1-19.46C48.7 172.21 76 150.65 76 150.65s-14-12.49-9.96-25.59Z" fill="#33280A"/>
  <path opacity=".4" d="m66.05 125.06 57.65 4.79c.46 6.84-.75 18.36-5.41 26.42-3.38 5.84-7.3 9.52-21.37 18.15-13.1 8.05-24.86 14.8-27.85 16.69-2.26 1.4-1.48 6.63-1.78 12.86-.3 6.55-.75 10.18-3.39 24.26a325.42 325.42 0 0 1-2.68 12.76s-11.24 2.02-19.96-1.94c0 0-.9-34.13-1.02-42.51-.1-7.16-1.02-13.77 4.1-19.46C48.7 172.21 76 150.65 76 150.65s-14-12.49-9.96-25.59Z" fill="#fff"/>
  <path opacity=".5" d="m116.92 129.28-.82-.06c.31 9.4-.5 16.63-6.81 23.99-4.51-2.62-3.8-5.38-2.51-10.3.38-1.5.82-3.18 1.16-5.07.6-3.03.9-6.12.9-9.22l-.82-.07a47.6 47.6 0 0 1-.82 9.16 65.09 65.09 0 0 1-1.16 5c-1.29 4.91-2.13 8.19 2.75 11.11a45.9 45.9 0 0 1-5.19 4.92c-9.62 7.86-23.3 17.25-31.5 22.86-2.85 1.96-5.11 3.51-6.27 4.36-4.72 3.47-4.74 5.34-4.01 13.62.63 7.24-2.73 31.78-4.61 41.87l.82-.06c1.9-10.28 5.22-34.64 4.58-41.88-.73-8.38-.55-9.79 3.7-12.9 1.15-.83 3.4-2.4 6.26-4.35 8.19-5.62 21.9-15.02 31.54-22.94 11.79-9.65 13.2-18.11 12.81-30.04Z" fill="#33280A"/>
  <path d="M78.93 54.44C66.07 53.49 61.8 65.18 58.9 75.56c-1 3.64-5.97 20.67-5.97 20.67S39.4 93.4 32.97 90.94c-3.74-1.43-5.4-3.2-6.56-6.18-1.64-4.2-1.94-6.6-2.65-7.37-.72-.78-5.53-3.57-7.22-5.19-1.69-1.6-2.53-1.07-4.5-1.1C9.64 71.05.68 72.34.87 73a3.68 3.68 0 0 0 3.15 3.08c1.84.31 6.76-.18 6.76-.18s-.75 2.28-1.15 3.28c-.4 1 0 1.54 1.89 3.53a2.46 2.46 0 0 0-.75 1.85c.27.9.77 1.72 1.45 2.37a2.5 2.5 0 0 0-.61 1.5c0 .87 1.4 2.6 2.88 3.98a28.5 28.5 0 0 0 3.63 5.91c1.56 1.85 3.28 2.16 5.17 2.46 2.16.36 3.5 1.21 6.93 2.95 3.42 1.73 20.59 10.56 26.88 11.98 6.29 1.43 8.05-.15 9.9-4.67 3.53-8.59 10.5-22.84 13.23-32.18l-1.3-24.42Z" fill="#C8856A"/>
  <path d="M80.04 53.7c-5.59-.43-12.18-.71-16.62 8.67-4.44 9.4-9.06 27.52-9.06 27.52s2.15 3.44 8.96 6.66c6.8 3.22 9.74 2.08 9.74 2.08l7.74-19.56-.76-25.37Z" fill="#37474F"/>
  <path d="M52.9 96.23c3.4.85 6.5 2.65 8.94 5.18-1.53-2.78-4.48-6.03-8.34-7.22l-.6 2.04ZM21.7 79.1a8.42 8.42 0 0 1-4.63-2.9c-1.11-1.47-2.24-3.18-2.8-2.97-.93.33-1.97 2.8-.37 5.34 1.6 2.55 4 5 4.39 5.73.38.73.45 2.79.45 4.39a7.78 7.78 0 0 0 5.57 6.98 7.23 7.23 0 0 1-4.82-2.35c-2.46-2.4-1.84-6.03-2.05-7.58-.2-1.55-.24-1.85-2.06-3.91s-3.8-4.27-2.86-7.37c.93-3.1 2.23-2.3 2.87-1.64.63.66 3.18 5.44 6.3 6.27Z" fill="#AF6152"/>
  <path d="m10.76 75.85 2.04.16-.37.66a2.38 2.38 0 0 0-2.31 1.09l.64-1.91Zm.74 6.81c.6.68 2.62 2.65 3.02 3.05.4.4 1.27-.11 1.45-1.26a3.7 3.7 0 0 0-.45-2.73c.63.78.96 1.76.92 2.76-.17 1.48-.98 1.99-1.58 2.04-.6.05-2.06-2.43-3.36-3.86Z" fill="#AF6152"/>
  <path d="M12.2 86.89c.45.51 1.19 1.1 2.46 2.45.74.82 1.18 1.35 1.73 1.04.56-.3 1.08-1.95.49-3.04a9.2 9.2 0 0 0-1.25-1.78l.39-.39a7.2 7.2 0 0 1 1.72 2.93c.3 1.49-.6 3.1-1.35 2.99-.74-.12-1.14-.6-2.15-1.79l-2.04-2.4Z" fill="#AF6152"/>
  <path d="M16 90.74c.25.36.4 1.36-.25 1.63a1.58 1.58 0 0 1-1.27 0 1.33 1.33 0 0 0 1.49.36c.82-.36.82-1.34.7-2.1l-.67.1Z" fill="#AF6152"/>
  <path d="M64.19 78.2c.59-16.63 7.46-23.44 15.88-24.5 0 0 10.3.82 17.03 1.74 8.2 1.1 16.33 4.2 18.65 5 3.28 1.47 8.01 9.66 8.73 21.38.52 8.33 1.9 18.92.92 33.69-.64 9.63-.75 16.97-2.35 29.64-11.47 4.54-49.43.19-59.41-19.02 1.02-2.93 1.26-12.8 1.1-18.38-.15-5.59-.77-24.31-.55-29.55Z" fill="#455A64"/>
  <path d="M99.2 47.46c.21-4.7 4.22-10.06 5.8-14.32 1.52-4.1 2.34-7.27 1.67-10.88-.4-2.14-2.1-4.92-3.78-5.32.88-8.24-5.58-11.23-8.87-11.6a34.4 34.4 0 0 1-4.57-.7c-1.83-.52-2.38-1.87-3.93-2.89C82.87 0 78.8.44 77.63 3.72c-1.86-1.87-4.03-1.55-6.46-.61a4.32 4.32 0 0 0-2.7 5.25c-3.6-1.47-6.4 1.27-6.46 3.28-.05 1.48.4 2.68-.39 4.1-.9 1.63-2.93 1.82-3.7.7-.1 2.12.9 3.6 3.15 3.21a4.73 4.73 0 0 0-.11 4.02 4.3 4.3 0 0 0 4.23 2.46c.38 1.11.55 2.15 1.39 3.04.8.92 1.8 1.63 2.93 2.06 3.6 1.22 7.42 1.3 11.18 1.64l4.45.38c.26 0 1.58-.06 1.77.15L99.2 47.46Z" fill="#263238"/>
  <path d="M104.05 40.83c-3 2.32-5.45.5-5.45.5l2.08 15.2c-1.75 6.8-12.73 9.24-16.99 7.9-4.26-1.36-4.04-3.82-1.86-7.77l-.58-2.46c-1.82.25-3.66.39-5.5.42-3.68-.06-6.75-2.66-8.25-6.45a40.9 40.9 0 0 1-2.33-15.44c.1-1.28 0-2.57-.26-3.82-.76-3.28-.39-5.35.14-8.28 3.59-3.68 12.65-5.89 21.85-1.7-.37 5.21 2.1 9 6.04 10.5 0 1.4.25 4.92 2.5 4.57 1.65-.25 1.5-2.3 2.95-4.31 1.46-2.01 5.3-2.96 7.14-.49 2.57 3.44 1.81 9.08-1.48 11.63Z" fill="#C8856A"/>
  <path d="m87.8 27.32 11.22 1.64c-.62.5-1.1 1.17-1.36 1.93l-9.72-1.02-.13-2.55Z" fill="#263238"/>
  <path d="M61.6 28.73c.14.59.44 1.13.86 1.57.15.16.27.35.34.56.38 1.48.87 2.93 1.45 4.34a5.35 5.35 0 0 0 4.97 3.06c.53 0 1.06-.05 1.57-.18h.11c.44-.1.85-.3 1.23-.55l.06-.04.1-.08.13-.1.11-.1.13-.12.12-.12.21-.27c.38-.51.65-1.09.82-1.7.47-1.55 0-3.67 1.07-3.93h.27c1.47 0 1.64 2.31 2.69 3.96a6.44 6.44 0 0 0 5.93 3.27h.76c.26-.02.51-.06.76-.13l.24-.05.22-.09c.05 0 .1-.02.15-.04.29-.12.56-.27.82-.45l.26-.21a4.2 4.2 0 0 0 1.16-2.06c.31-1.17.1-3.27.18-4.34 0-.22.05-.43.14-.63.32-.45.48-1 .47-1.55a1.64 1.64 0 0 0-1.1-1.32l-.83-.09c-2.55-.25-5.83-.32-7.7.26-2.36.73-3.1 1.54-4.47 1.55-1.38 0-2.22-.82-4.64-1.53-1.92-.57-4.91-.49-7.26-.23l-.7.1c-.39-.06-.75.56-.63 1.24Zm16.33 1.22c.16-.25.37-.45.63-.6a.34.34 0 0 1 .11-.07l.07-.04c.1-.06.2-.12.32-.17l.3-.14c.33-.14.66-.26 1-.36l.4-.1c.35-.09.7-.15 1.06-.2h.24c2.34-.23 3.9.3 4.5.78.62.47.75 2.74.71 3.89v.92c0 .16-.05.32-.08.49l-.04.16v.21l-.05.14c-.01.06-.03.1-.06.16l-.06.16-.08.17a3.23 3.23 0 0 1-3.12 1.7 5.18 5.18 0 0 1-5.24-3.62c-.6-1.3-.97-2.79-.6-3.48Zm-14.05-.89c.16-.16.34-.29.54-.38h.04l.24-.1.16-.07.12-.04h.22l.53-.1h1.24c.35 0 .7 0 1.11.09 1.7.21 3.56.96 4.1 1.64.53.67.63 2.17.57 3.44a6 6 0 0 1-.1.93v.25l-.07.22-.07.18v.06l-.05.13a.45.45 0 0 1-.05.1c-.48.95-1.45 1.79-3.36 1.75-.64 0-1.28-.14-1.85-.41-1.8-.82-2.46-2.8-2.75-3.7-.44-1.25-1-3.49-.56-3.99Z" fill="#37474F"/>
  <path d="m69.78 39.27 5.78 2.17.92-9.4c-.32-.6-.7-1.03-1.35-1.03a.27.27 0 0 0-.14 0h-.13a.52.52 0 0 0-.18.07l-.25.28c-.62.73-1.17 1.52-1.64 2.36-.5.82-1.03 1.8-1.54 2.77-.3.54-.57 1.09-.86 1.63l-.6 1.15Zm11.47 14.9c5.65-1.37 9.93-2.52 12.41-7.03a36.05 36.05 0 0 0 2.63-7.21s0 5.14-1.42 8.81c-1.13 2.82-4.25 5.57-13.11 7.44l-.5-2Z" fill="#AF6152"/>
  <path d="M80.64 32.64a1.64 1.64 0 1 0 3.25-.35 1.64 1.64 0 0 0-3.25.35Zm.04-7.52 3.87.82A2.07 2.07 0 0 0 83 23.48a1.94 1.94 0 0 0-2.32 1.64Z" fill="#263238"/>
  <path d="m82.48 41.96-5.19 2.28a2.96 2.96 0 0 0 3.81 1.5 2.75 2.75 0 0 0 1.38-3.78Z" fill="#AF6152"/>
  <path d="M79.58 45.88a3.33 3.33 0 0 1 3.13-3.14 2.72 2.72 0 0 1-3.13 3.14Z" fill="#FFA8A7"/>
  <path d="m66.1 26.78 3.89-.93a1.92 1.92 0 0 0-2.34-1.51 2.1 2.1 0 0 0-1.55 2.44Zm1.91 6.15a1.64 1.64 0 1 0 3.22-.64 1.64 1.64 0 0 0-3.22.64Z" fill="#263238"/>
  <path d="M17.6 145.4v.75a3.1 3.1 0 0 0 1.46 2.72l52.96 32.93a3.1 3.1 0 0 0 3.09.1l29.98-15.97a3.09 3.09 0 0 0 1.64-2.62v-1.03a.36.36 0 0 1-.2.33l-32.95 17.63-55.97-34.84Z" fill="#37474F"/>
  <path d="m73.6 180.24-.08 2.05a3.04 3.04 0 0 1-1.53-.46l-52.95-32.94a3.06 3.06 0 0 1-1.46-2.72v-.75l56.01 34.82Z" fill="#263238"/>
  <path d="M106.45 162.52a.32.32 0 0 0 .16-.25c0-.05-.01-.1-.04-.15a.28.28 0 0 0-.1-.1l-54.48-33.89a1.64 1.64 0 0 0-.9-.26c-.29 0-.57.07-.82.2L17.83 145.4l55.75 34.67 32.87-17.55Z" fill="#455A64"/>
  <path d="M51.08 128c.29 0 .57.08.82.23l54.47 33.89.06.06.02.08a.16.16 0 0 1-.09.14L73.6 179.93l-55.51-34.52 32.25-17.2c.23-.13.49-.19.75-.2m0-.24c-.3 0-.6.08-.87.22L17.6 145.42l56 34.82 32.9-17.6a.42.42 0 0 0 0-.71l-54.47-33.88a1.78 1.78 0 0 0-.97-.28h.02Z" fill="#37474F"/>
  <path d="m73.98 177.5 17.59-9.39-49.53-30.8-17.68 9.34 49.62 30.86Z" fill="#37474F"/>
  <path d="m24.36 146.65.65.4 17-8.97 48.88 30.4.67-.36-49.52-30.8-17.68 9.33Zm59 3.44-.31.17-8.63 4.6-14.76-9.17-.3-.19 8.94-4.78 15.06 9.37Z" fill="#263238"/>
  <path d="m83.05 150.26-8.63 4.6-14.76-9.17 8.62-4.61 14.77 9.18Z" fill="#37474F"/>
  <path d="M143.48 114.1c-4.1-13.34-8-26.1-11.84-36.15-2.12-5.56-3.4-13.2-15.64-16.6-7.18 6.13-3.58 21.78-2.15 25.7l9.45 30.59s-2 2.74-8.79 10.1c-5.77 6.28-8.6 8.6-15.5 10.04-6.9 1.44-7.55 1.01-11.04 2.91-1.86 1.01-6.1 3.35-7.55 4.25-1.44.89-3.89 3.85-6.22 5.9-2.19 2.08.82 2.86 2.61 2.17a23.83 23.83 0 0 0 5.24-3.13c1.46-.86 2.98-1.6 4.55-2.22a28.2 28.2 0 0 0-.52 5.58c.09 1 0 2.23.9 2.89.7.33 1.43.56 2.19.68.04.36.22.7.5.93.54.33 1.2.44 1.81.3a8.3 8.3 0 0 0 1.01-.24 1.85 1.85 0 0 0 1.25 1.35c1.43.3 2.9.23 4.29-.23.2-.1 1.72-1.1 2.16-1.38.65-.41 1.23-.67 1.5-1.13.25-.47-.83-1.64-1.64-1.73a8.38 8.38 0 0 0-2.7.41c.3-.77.5-1.58.58-2.41.64-1.26 6.1-.51 10.77-1.75 3.53-.94 5.93-4.43 7.38-5.44 8.9-6.26 11.19-7.7 20.48-15.57 8.84-7.49 9.1-8.67 6.92-15.81Z" fill="#C8856A"/>
  <path d="m85.7 148.06.9-.4c.26-1.1.68-2.16 1.24-3.15-1 .5-1.7 2.14-2.14 3.56Zm3.78-.1c-.3.95-.48 1.94-.54 2.94-.1.98-.14 1.97-.13 2.97-.01.99.1 1.98.36 2.94-.04-.98-.01-1.96.08-2.94.08-.97.15-1.95.25-2.91.07-.97.2-1.93.4-2.88.11-.47.26-.93.44-1.38a4 4 0 0 1 .7-1.26 5.31 5.31 0 0 0-1.56 2.52Zm2.94 4.03c-.12.97-.18 1.94-.18 2.9-.03.98.06 1.95.25 2.9.06-1.93.26-3.83.5-5.73.1-.95.24-1.89.4-2.83.08-.47.17-.94.3-1.4.09-.47.27-.92.54-1.32a5.61 5.61 0 0 0-1.27 2.62c-.25.94-.43 1.9-.54 2.86Zm6.27 2.65c-.38.05-.76.17-1.11.34l-.21.11.04.23c.02.1.02.21 0 .32-.01.14-.04.27-.08.4-.1.28-.25.56-.42.82.3-.13.57-.34.77-.61a1.4 1.4 0 0 0 .28-.81 5.05 5.05 0 0 1 2.1-.73 2.46 2.46 0 0 0-1.37-.07Z" fill="#AF6152"/>
  <path d="M115.72 60.44c6.35 2.09 11.47 3.56 14.74 12.22 4 10.51 9.08 26.6 9.08 26.6s-1.56 4.29-9.22 6.64c-7.66 2.35-11.24.54-11.24.54s-4.57-13.35-6.35-18.92c-1.79-5.56-5.18-21.79 2.99-27.08Z" fill="#37474F"/>
  <path d="M72.7 180.64a3.7 3.7 0 0 1-3.14-.35l-52.72-32.82a3.64 3.64 0 0 1-1.7-2.62l-4.73-35.27v-.6a3.64 3.64 0 0 1 1.17-2.57l54.8 34.09a2.73 2.73 0 0 1 1.25 1.93l5.08 38.2Z" fill="#263238"/>
  <path d="m73.6 180.24-.39.2c-.16.08-.33.16-.5.22l-5.12-38.17a2.74 2.74 0 0 0-1.25-1.94l-54.79-34.09c.23-.2.49-.39.76-.54l54.9 34.15a2.7 2.7 0 0 1 1.24 1.93l5.14 38.24Z" fill="#455A64"/>
  <path d="m67.11 141.27.89-.47c.24.35.4.75.46 1.18l5.13 38.26-.38.2c-.16.08-.33.16-.5.22l-5.12-38.17a2.8 2.8 0 0 0-.48-1.22Z" fill="#37474F"/>
  <path d="M43.5 147.25c-.32-2.35-2.65-5.56-5.2-7.14-2.54-1.58-4.35-.96-4.03 1.41.32 2.37 2.64 5.56 5.18 7.14 2.55 1.59 4.36.96 4.05-1.4Z" fill="#E4E4E4"/>
</svg>
