<svg width="15" height="23" fill="none" xmlns="http://www.w3.org/2000/svg">
  <path d="m7.5 20.04-.55 2.4-3.27-.72.57-2.39C2.1 18.51.15 16.87.2 13.94l4.41-.18a2.46 2.46 0 0 0 2.06 2.62c1.07.24 1.9-.04 2.1-.99.34-1.53-1.49-2.03-3.45-3.07-1.95-1.04-3.93-2.64-3.23-5.8.63-2.83 2.73-4.09 5.6-3.85l.53-2.4 3.27.73-.53 2.4c2.46.96 3.78 2.69 3.9 5l-4.2.18c0-1.09-.63-1.93-2.08-2.25-1.45-.32-1.99.2-2.15.92-.26 1.19.7 1.64 2.77 2.71 2.07 1.07 4.92 2.59 4.15 6.17-.65 2.88-2.95 4.1-5.85 3.9Z" fill="#F0F0F0"/>
</svg>
