<svg width="33" height="42" fill="none" xmlns="http://www.w3.org/2000/svg">
  <path d="m24 41.81-2.33-4.2c-3.72 1.31-8.84 1.77-12.83-2.92l-.32-.38 6.9-6.55.36.45a4.17 4.17 0 0 0 5.61 1.01c1.2-.66 2.46-1.78 1.56-3.37-.9-1.6-2.8-1.27-6.01-.39-.72.2-1.48.41-2.26.6-4.44 1.02-9.4 1.29-12.6-4.48-2.64-4.8-1.6-9.41 2.95-13.05L2.7 4.33 9.26.71l2.33 4.21c4.73-1.61 8.92-.8 12.07 2.49l.37.38-6.6 6.37-.36-.44c-1.25-1.49-3.05-1.64-5.2-.47-1.23.68-2.54 1.82-1.7 3.32.83 1.51 2.34 1.32 6.82.13 4.47-1.18 10.78-2.72 14.4 3.88 2.65 4.77 1.47 9.66-3.21 13.46l2.32 4.2-6.5 3.57Zm-1.85-5.52 2.24 4.1 4.65-2.57-2.24-4.1.35-.27c4.6-3.54 5.74-7.95 3.28-12.4-3.28-5.87-8.77-4.48-13.22-3.36-4.3 1.15-6.68 1.78-8.01-.63-.46-.82-1.17-2.95 2.13-4.77 2.36-1.3 4.56-1.19 6.12.3l5.03-4.85C19.54 5.01 15.84 4.46 11.47 6l-.43.16-2.24-4.1L4.13 4.7l2.24 4.1-.36.28C1.63 12.35.57 16.64 3 21.04c2.82 5.13 7.15 4.91 11.41 3.96.77-.18 1.51-.38 2.21-.58 3.14-.87 5.85-1.64 7.23.89 1 1.81.29 3.57-1.97 4.81a5.19 5.19 0 0 1-6.56-.82l-5.36 5.12c3.7 3.99 8.42 3.35 11.76 2.08l.42-.2Z" fill="#F0F0F0"/>
</svg>
