<svg width="69" height="104" viewBox="0 0 69 104" fill="none" xmlns="http://www.w3.org/2000/svg">
<path d="M16.8671 100.809L18.9026 89.6574C10.1013 86.3605 0.325394 79.4514 0.0100403 64.9451V63.1963L23.5755 61.3616V63.397C23.4675 65.7261 24.2531 68.0084 25.7718 69.7776C27.2905 71.5467 29.4275 72.669 31.746 72.915C33.4096 73.321 35.1565 73.2212 36.763 72.6283C37.3153 72.352 37.7934 71.9476 38.1575 71.4489C38.5215 70.9502 38.761 70.3716 38.8558 69.7614C39.5725 65.7478 35.989 64.0277 28.8505 60.8169C27.2451 60.1288 25.5823 59.3834 23.8622 58.552C14.0862 53.7071 4.48229 46.6833 7.32047 31.1163C9.61395 18.5022 18.5872 11.335 32.0327 11.2777L34.0682 0.125671L52.4733 3.33654L50.4379 14.5173C61.3319 18.7889 67.639 26.644 68.5564 37.28L68.7284 39.1721L46.0516 41.0643V39.0575C46.0516 33.7251 41.5507 31.7757 37.8524 31.1163C33.4948 30.3136 31.0293 31.3456 30.542 33.9831C29.8252 37.7674 32.8354 39.3155 42.3534 43.6444C51.8713 47.9734 66.4636 54.9398 63.1094 72.6856C60.7872 85.4144 51.4126 92.7536 37.3077 92.7536L35.2722 103.906L16.8671 100.809ZM23.1455 87.1632L21.1961 97.7992L32.2047 99.806L34.1255 89.1986H35.731C43.3854 89.428 56.659 87.4786 59.4398 71.9976C62.2206 56.5166 50.3232 51.4709 40.7766 47.0273C31.23 42.5837 25.5823 40.1469 26.8437 33.2951C27.1591 31.4603 29.0225 25.5833 38.4831 27.3034C44.7615 28.4501 48.6891 31.8904 49.5492 36.8787L64.6288 35.6173C63.1954 27.0167 57.519 20.767 47.7144 17.3268L46.2236 16.7821L48.1444 6.17472L37.021 4.16793L35.0716 14.7753H33.4662C24.6363 14.4599 13.3982 17.1261 10.9327 31.5463C8.66792 43.9311 15.0897 49.8655 25.439 54.9685C27.1017 55.7712 28.7359 56.4879 30.284 57.176C37.2217 60.2435 43.7581 63.1103 42.4681 70.1914C42.3025 71.4161 41.8363 72.5807 41.1109 73.5812C40.3855 74.5818 39.4236 75.387 38.3111 75.9251C36.0052 76.8771 33.4602 77.0875 31.0293 76.5272C28.1954 76.1549 25.5654 74.8521 23.5521 72.8233C21.5389 70.7945 20.2563 68.1545 19.9059 65.3178L3.82291 66.5506C4.88364 78.534 13.9716 84.067 21.5974 86.6185L23.1455 87.1632Z" fill="#C6C6C6"/>
</svg>
