<svg width="52" height="78" viewBox="0 0 52 78" fill="none" xmlns="http://www.w3.org/2000/svg">
<path d="M26.0717 69.4732L24.1796 77.8731L12.7122 75.3503L14.719 67.0077C7.17915 64.1409 0.384714 58.4072 0.556725 48.1439L15.9804 47.5132C15.8085 49.6666 16.4532 51.8058 17.7865 53.5056C19.1197 55.2053 21.0438 56.3411 23.1762 56.6871C26.9317 57.5185 29.7986 56.5437 30.544 53.2182C31.7194 47.8572 25.3263 46.1084 18.4745 42.4675C11.6228 38.8266 4.71365 33.2363 7.15048 22.1989C9.35795 12.2796 16.6971 7.86465 26.7311 8.69604L28.5945 0.296173L40.0619 2.84767L38.1985 11.2475C46.799 14.6304 51.4146 20.6508 51.8446 28.7353L37.1377 29.3947C37.1377 25.5818 34.9302 22.6289 29.8559 21.5109C24.7816 20.3928 22.9182 22.1989 22.3448 24.7217C21.4274 28.8787 24.7816 30.4554 32.0347 34.211C39.2878 37.9666 49.2358 43.2702 46.5696 55.7984C44.2762 65.8897 36.2203 70.1326 26.0717 69.4732Z" fill="#C6C6C6"/>
</svg>
