<svg width="379" height="377" fill="none" xmlns="http://www.w3.org/2000/svg">
  <path d="M55.98 344.73c-73.84-42.6-73.84-111.75 0-154.38 73.83-42.63 193.56-42.6 267.4 0 73.83 42.6 73.83 111.74 0 154.38-73.84 42.63-193.57 42.63-267.4 0Z" fill="#F5F5F5"/>
  <path d="m48.65 238.72 10.32 5.95 16.99-9.8V27.44l11.33-6.54L67.85 5.96 57.53 0l-20.2 37.82 10.31 5.97 1.01-.58v195.5Z" fill="#63C461"/>
  <path opacity=".8" d="m48.65 238.72 10.32 5.95 16.99-9.8V27.44l11.33-6.54L67.85 5.96 57.53 0l-20.2 37.82 10.31 5.97 1.01-.58v195.5Z" fill="#fff"/>
  <path d="m58.97 244.67 16.99-9.8V27.44l11.33-6.54L67.85 5.96l-20.2 37.83 11.32-6.55v207.43Z" fill="#63C461"/>
  <path opacity=".7" d="m58.97 244.67 16.99-9.8V27.44l11.33-6.54L67.85 5.96l-20.2 37.83 11.32-6.55v207.43Z" fill="#fff"/>
  <path d="m48.65 238.72 10.32 5.95V37.24l-10.32 5.97v195.5Z" fill="#63C461"/>
  <path opacity=".5" d="m48.65 238.72 10.32 5.95V37.24l-10.32 5.97v195.5Z" fill="#fff"/>
  <path d="m96.95 213.77 7.74 4.47 12.73-7.36V42.3l8.49-4.9-14.57-11.2-7.73-4.46L88.46 50.1l7.74 4.47.75-.44v159.64Z" fill="#63C461"/>
  <path opacity=".1" d="m96.2 54.57 15.14-28.35-7.73-4.47L88.46 50.1l7.74 4.47Z" fill="#fff"/>
  <path d="m104.69 218.24 12.73-7.36V42.3l8.49-4.9-14.57-11.2L96.2 54.58l8.49-4.9v168.56Z" fill="#63C461"/>
  <path opacity=".1" d="m104.69 218.24 12.73-7.36V42.3l8.49-4.9-14.57-11.2L96.2 54.58l8.49-4.9v168.56Z" fill="#000"/>
  <path opacity=".3" d="m96.95 213.77 7.74 4.47V49.66l-7.74 4.47v159.64Z" fill="#000"/>
  <path d="m46.01 276.37 109.95 63.48a10.75 10.75 0 0 0 9.72 0l177.38-102.4c2.69-1.55 2.69-4.06 0-5.6l-109.97-63.5a10.75 10.75 0 0 0-9.71 0L46 270.75c-2.67 1.56-2.67 4.07.01 5.62Z" fill="#E0E0E0"/>
  <path d="M48.47 266.05c0 2.75 2.05 4.5 4.59 5.97L156.91 332a10.15 10.15 0 0 0 9.17 0l167.62-96.76c2.54-1.46 4.58-3.35 4.58-6.1 0-2.74-2.04-4.44-4.58-5.9l-103.88-60a10.12 10.12 0 0 0-9.18 0L53.06 260.02c-2.54 1.46-4.59 3.28-4.59 6.03Z" fill="#37474F"/>
  <path d="m53.06 265.32 103.85 59.97a10.12 10.12 0 0 0 9.17 0l167.62-96.75c2.54-1.47 2.54-3.84 0-5.3l-103.88-60a10.12 10.12 0 0 0-9.18 0L53.06 260.02c-2.54 1.46-2.54 3.83 0 5.3Z" fill="#455A64"/>
  <path d="M161.53 326.4v6.68a9.39 9.39 0 0 1-4.62-1.08L53.06 272.02c-2.54-1.47-4.59-3.22-4.59-5.97 0-2.58 1.85-4.37 4.23-5.83-1.97 1.4-2 3.73.36 5.1l103.85 59.97a9.32 9.32 0 0 0 4.62 1.1Zm-94.3-65.6 154.02-88.92a4.8 4.8 0 0 1 4.32 0l5.62 3.15c1.2.7 1.2 1.81 0 2.5L77.13 266.46a4.8 4.8 0 0 1-4.32 0l-5.59-3.13c-1.2-.72-1.2-1.84 0-2.53Zm15.13 8.94 154.01-88.94a4.4 4.4 0 0 1 3.96-.2l40.08 23.14c.99.56.82 1.58-.37 2.27l-153.84 88.8a4.45 4.45 0 0 1-3.96.22L82 271.99c-1-.56-.83-1.59.37-2.25Z" fill="#263238"/>
  <path d="m215.8 218.13 4.82-2.79c.2-.12.23-.3.04-.4l-4.61-2.67a.82.82 0 0 0-.7 0l-4.83 2.79c-.2.11-.22.3-.04.4l4.62 2.66a.82.82 0 0 0 .7 0Zm-7.05-9.63-4.81 2.78c-.2.12-.22.3-.04.4l4.6 2.66a.75.75 0 0 0 .7 0l4.83-2.78c.2-.12.22-.3 0-.4l-4.61-2.66a.76.76 0 0 0-.66.02v-.03Zm-15.56 9-8.2 4.72c-.2.11-.21.3 0 .4l4.62 2.66a.75.75 0 0 0 .7 0l8.19-4.71c.2-.11.23-.3.04-.4l-4.61-2.66a.75.75 0 0 0-.75 0Zm8.53-4.9-4.82 2.78c-.2.12-.23.3-.04.4l4.61 2.67a.8.8 0 0 0 .7 0l4.82-2.79c.2-.12.22-.3.04-.4l-4.6-2.67a.83.83 0 0 0-.72 0Zm-18.93 10.9-4.81 2.79c-.2.12-.23.3-.04.4l4.6 2.67a.81.81 0 0 0 .7 0l4.83-2.79c.2-.1.22-.29.04-.4l-4.61-2.66a.83.83 0 0 0-.7 0Zm-7.04 4.1-4.83 2.78c-.2.12-.22.3-.04.4l4.61 2.67a.77.77 0 0 0 .7 0l4.83-2.78c.2-.12.22-.3.04-.4l-4.62-2.67a.83.83 0 0 0-.7-.03v.03Zm18.08 10.87 4.82-2.78c.2-.13.22-.3.04-.4l-4.6-2.68a.82.82 0 0 0-.71 0l-4.82 2.79c-.2.12-.23.3-.05.4l4.62 2.67a.82.82 0 0 0 .7-.02v.02Zm-7.05 4.1 4.82-2.78c.2-.12.23-.3.04-.41l-4.61-2.66a.82.82 0 0 0-.7 0l-4.82 2.78c-.2.12-.22.3-.04.4l4.6 2.67a.78.78 0 0 0 .71-.06v.06Zm-7.04 4.1 4.81-2.8c.2-.1.23-.29.05-.4l-4.62-2.66a.75.75 0 0 0-.7 0l-4.82 2.72c-.2.12-.22.3-.04.4l4.61 2.67a.81.81 0 0 0 .7-.02v.08Zm-7.06 4.09 4.83-2.79c.2-.12.22-.3 0-.4l-4.61-2.67a.82.82 0 0 0-.7 0l-4.82 2.79c-.2.12-.23.3-.05.4l4.62 2.67a.8.8 0 0 0 .73-.1v.1Zm36.05-28.44 4.82-2.78c.2-.12.22-.3.04-.4l-4.61-2.67a.75.75 0 0 0-.7 0l-4.83 2.79c-.2.11-.22.3-.04.4l4.62 2.66a.77.77 0 0 0 .72-.1l-.02.1Zm-7.88 12.16 10.76-6.2c.2-.12.22-.31.04-.41l-11.2-6.47a.81.81 0 0 0-.7 0l-5.57 3.2c-.2.13-.22.31-.04.42l5.93 3.41c.18.11.17.3-.04.41l-4.45 2.57c-.2.12-.23.3-.04.4l4.61 2.67a.81.81 0 0 0 .72-.1l-.02.1Zm-32.15-2.83-4.82 2.78c-.2.12-.22.3 0 .4l4.6 2.67a.77.77 0 0 0 .71 0l4.82-2.79c.2-.11.23-.3 0-.4l-4.61-2.66a.75.75 0 0 0-.7 0Zm-7.04 4.1-4.83 2.78c-.2.12-.22.3 0 .4l4.61 2.67a.82.82 0 0 0 .7 0l4.83-2.78c.2-.12.22-.3.04-.4l-4.62-2.67a.76.76 0 0 0-.73-.04v.03Zm-39 43.41a.77.77 0 0 0 .7 0l4.82-2.78c.2-.12.22-.3 0-.4l-4.62-2.67a.75.75 0 0 0-.7 0l-4.82 2.79c-.2.11-.22.3-.04.4l4.65 2.66Zm-17.37-10.9-4.82 2.78c-.2.13-.22.3-.04.41l4.61 2.67a.8.8 0 0 0 .7 0l4.82-2.79c.2-.12.23-.3.04-.4l-4.61-2.66a.75.75 0 0 0-.7 0Zm8.94 8.16a.75.75 0 0 0 .7 0l4.82-2.78c.2-.12.22-.3.04-.4l-4.62-2.68a.81.81 0 0 0-.7 0l-4.83 2.79c-.2.11-.22.29-.05.4l4.64 2.67Zm19.44 4.37 4.83-2.78c.2-.12.22-.3.04-.4l-4.61-2.67a.77.77 0 0 0-.7 0l-4.83 2.79c-.2.11-.22.3-.05.4l4.62 2.66a.77.77 0 0 0 .69 0h.01Zm-7.75 4.1a.81.81 0 0 0 .7 0l4.82-2.79c.2-.11.23-.3 0-.4l-4.6-2.66a.76.76 0 0 0-.7 0l-4.83 2.78c-.2.13-.22.3-.04.41l4.65 2.66Zm-13.58-20.7-4.83 2.79c-.2.11-.22.3-.04.4l4.61 2.66a.77.77 0 0 0 .71 0l4.8-2.76c.2-.12.22-.3.04-.4l-4.62-2.67a.81.81 0 0 0-.69-.02h.02Zm35.23-20.34-4.83 2.79c-.2.11-.22.3 0 .4l4.62 2.66a.76.76 0 0 0 .7 0l4.82-2.78c.2-.12.22-.3.04-.4l-4.6-2.67a.77.77 0 0 0-.76 0Zm-28.2 16.27-4.81 2.79c-.2.12-.23.3-.04.4l4.61 2.67a.82.82 0 0 0 .7 0l4.82-2.79c.2-.12.22-.3 0-.4l-4.61-2.7a.83.83 0 0 0-.67.03Zm35.23-20.34-4.81 2.79c-.2.11-.23.3-.04.4l4.6 2.66a.75.75 0 0 0 .7 0l4.83-2.78c.2-.12.22-.3.04-.4l-4.61-2.67a.82.82 0 0 0-.7 0Zm-14.08 8.14-4.82 2.78c-.2.13-.23.3 0 .41l4.6 2.66a.82.82 0 0 0 .71 0l4.82-2.78c.2-.12.23-.3.04-.4l-4.61-2.67a.82.82 0 0 0-.74 0Zm-7.05 4.1-4.82 2.78c-.2.11-.22.3-.04.4l4.61 2.66a.77.77 0 0 0 .7 0l4.82-2.78c.2-.12.22-.3.04-.4l-4.6-2.67a.84.84 0 0 0-.71-.02v.02Zm-7.05 4.09-4.81 2.78c-.21.12-.23.3-.05.4l4.62 2.67a.82.82 0 0 0 .7 0l4.82-2.79c.2-.11.22-.3.04-.4l-4.61-2.66a.77.77 0 0 0-.72-.05l.01.05Zm32.18 2.73 4.82-2.79c.2-.11.23-.3.05-.4l-4.62-2.66a.75.75 0 0 0-.7 0l-4.83 2.77c-.2.13-.22.3-.03.41l4.6 2.67a.83.83 0 0 0 .7-.05l.01.05Zm65.75-59.27-4.83 2.79c-.2.11-.22.3-.04.4l4.61 2.66a.77.77 0 0 0 .7 0l4.83-2.78c.2-.12.22-.3.04-.4l-4.62-2.67a.76.76 0 0 0-.7-.05v.05Zm-8.53 4.92-4.84 2.74c-.21.12-.23.3-.05.4l4.62 2.67a.77.77 0 0 0 .7 0l4.82-2.78c.2-.12.22-.3.04-.41l-4.61-2.66a.82.82 0 0 0-.7 0l.02.04Zm15.56-9.01-4.81 2.78c-.21.12-.23.3 0 .4l4.6 2.67a.77.77 0 0 0 .7 0l4.83-2.79c.2-.12.22-.3 0-.4l-4.61-2.67a.82.82 0 0 0-.7-.02v.03Zm-38.95 36.18 4.82-2.78c.2-.12.22-.3.04-.4l-4.6-2.67a.82.82 0 0 0-.7 0l-4.83 2.79c-.2.11-.22.3-.04.4l4.61 2.66a.76.76 0 0 0 .7-.02v.02Zm46.7-40.27a.77.77 0 0 0-.71 0l-4.82 2.78c-.2.12-.22.3-.04.4l4.61 2.67a.82.82 0 0 0 .7 0l4.82-2.79c.21-.11.23-.3.05-.4l-4.62-2.66Zm-73.5 63.35 4.83-2.78c.2-.12.22-.3 0-.4l-4.54-2.7a.76.76 0 0 0-.7 0l-4.82 2.8c-.2.1-.23.29 0 .4l4.6 2.66a.76.76 0 0 0 .64 0l-.01.02Zm86.42-49.9 4.83-2.78c.2-.11.22-.3 0-.4l-4.62-2.66a.8.8 0 0 0-.7 0l-4.82 2.78c-.2.13-.23.3-.04.41l4.61 2.67a.83.83 0 0 0 .75-.04v.03Zm-13.63.27 4.82-2.78c.2-.12.22-.3.04-.4l-4.62-2.67a.75.75 0 0 0-.7 0l-4.82 2.78c-.2.12-.22.3-.04.4l4.62 2.67a.82.82 0 0 0 .7-.02v.02Zm7.29-9.92a.82.82 0 0 0-.7 0l-4.82 2.79c-.2.11-.22.3-.04.4l4.61 2.66a.77.77 0 0 0 .7 0l4.82-2.78c.2-.12.23-.3.04-.4l-4.61-2.67Zm1.48-.82 11.21 6.47a.75.75 0 0 0 .7 0l4.82-2.79c.2-.12.22-.3.04-.4l-11.2-6.56a.83.83 0 0 0-.7 0l-4.83 2.79c-.2.15-.2.33-.03.43v.06Zm-16.28 9.01-4.81 2.79c-.2.12-.22.3-.04.4l4.6 2.67a.82.82 0 0 0 .7 0l4.83-2.78c.2-.13.22-.3 0-.42l-4.61-2.66a.82.82 0 0 0-.66-.06v.06Zm-53.03 30.63-4.82 2.78c-.21.12-.23.3-.05.4l4.62 2.66a.77.77 0 0 0 .7 0l4.82-2.78c.2-.12.22-.3 0-.41l-4.6-2.66a.82.82 0 0 0-.66-.05l-.01.06Zm66.42-25.04a.77.77 0 0 0 .7 0l4.83-2.78c.2-.12.22-.3.04-.4l-4.62-2.67a.8.8 0 0 0-.7 0l-4.82 2.79c-.2.11-.22.3-.04.4l4.61 2.66Zm-59.38 20.97-4.81 2.78c-.2.12-.23.3-.05.4l4.62 2.67a.81.81 0 0 0 .7 0l4.82-2.78c.2-.12.22-.3 0-.4l-4.61-2.67a.78.78 0 0 0-.66-.06v.06Zm-55.21 45.14a.75.75 0 0 0 .7 0l4.82-2.77c.2-.13.22-.3.04-.42l-4.58-2.68a.82.82 0 0 0-.7 0l-4.82 2.78c-.2.12-.23.3-.05.4l4.59 2.7Zm-8.2-8.58-4.81 2.78c-.2.13-.23.3 0 .41l4.61 2.66a.82.82 0 0 0 .7 0l4.82-2.78c.2-.12.22-.3.04-.4l-4.66-2.7a.8.8 0 0 0-.7 0v.03Zm15.95 4.5 4.82-2.8c.2-.1.22-.3.04-.4l-4.6-2.66a.77.77 0 0 0-.71 0l-4.82 2.78c-.2.13-.23.3 0 .41l4.61 2.66a.82.82 0 0 0 .65 0Zm7.04-4.1 4.83-2.79c.2-.11.22-.3 0-.4l-4.62-2.66a.75.75 0 0 0-.7 0l-4.82 2.78c-.2.12-.22.3 0 .4l4.62 2.67a.76.76 0 0 0 .68.02l.01-.02Zm7.06-4.1 4.81-2.78c.2-.13.23-.3 0-.41l-4.6-2.67a.82.82 0 0 0-.7 0l-4.83 2.79c-.2.11-.22.3-.04.4l4.61 2.66a.82.82 0 0 0 .74.07v-.06Zm-23-.42-4.82 2.78c-.2.12-.22.3 0 .4l4.61 2.67a.77.77 0 0 0 .71 0l4.82-2.79c.2-.12.22-.3 0-.4l-4.62-2.66a.75.75 0 0 0-.7.05v-.05Zm7.05-4.1-4.82 2.79c-.2.11-.22.29-.04.4l4.61 2.66a.77.77 0 0 0 .7 0l4.82-2.78c.2-.12.23-.3 0-.4l-4.61-2.67a.82.82 0 0 0-.67.08l.01-.08Zm28.2-16.27-4.83 2.78c-.2.12-.22.3-.04.4l4.61 2.67a.82.82 0 0 0 .7 0l4.82-2.79c.2-.11.22-.3 0-.4l-4.61-2.66a.75.75 0 0 0-.67.08l.01-.08Zm-7.06 4.1-4.82 2.78c-.2.12-.22.3 0 .4l4.61 2.67a.77.77 0 0 0 .7 0l4.83-2.79c.2-.12.22-.3 0-.41l-4.62-2.66a.82.82 0 0 0-.7.06v-.05Zm14.08-8.09-4.82 2.78c-.2.12-.22.3-.04.4l4.6 2.67a.77.77 0 0 0 .71 0l4.82-2.79c.2-.11.23-.3.04-.4l-4.61-2.66a.75.75 0 0 0-.7 0Zm-28.18 16.27-4.82 2.78c-.2.13-.23.3-.05.42l4.62 2.66a.8.8 0 0 0 .7 0l4.83-2.79c.2-.11.22-.3.04-.4l-4.62-2.66a.76.76 0 0 0-.7-.01Zm7.05-4.1-4.82 2.79c-.2.11-.23.3 0 .4l4.61 2.66a.76.76 0 0 0 .7 0l4.82-2.78c.2-.12.22-.3.04-.4l-4.6-2.67a.77.77 0 0 0-.75.04v-.04Zm-9.01 26.5 4.82-2.78c.2-.12.22-.3 0-.4l-4.61-2.67a.83.83 0 0 0-.7 0l-4.82 2.78c-.2.12-.23.3 0 .4l4.6 2.68a.83.83 0 0 0 .72.03l-.01-.03Zm-37.17-1.75-4.6-2.67a.82.82 0 0 0-.7 0l-4.83 2.79c-.2.12-.22.3-.04.4l4.61 2.67a.82.82 0 0 0 .7 0l4.82-2.79c.22-.09.24-.27.06-.37l-.02-.04Zm9.19 2.3-4.6-2.58a.75.75 0 0 0-.7 0l-7.42 4.28c-.2.12-.22.3-.04.4l4.61 2.67a.77.77 0 0 0 .7 0l7.42-4.29c.2-.16.23-.34.04-.44l-.01-.03Zm-16.05-7.5-4.61-2.66a.82.82 0 0 0-.7 0l-5.94 3.42c-.2.13-.23.3 0 .41l4.61 2.66a.82.82 0 0 0 .7 0l5.94-3.42c.16-.15.18-.34 0-.4Zm4.55-2.62a.82.82 0 0 0 .7 0l4.82-2.79c.2-.11.22-.3.04-.4l-4.61-2.66a.77.77 0 0 0-.7 0l-4.83 2.79c-.2.12-.22.3-.04.4l4.62 2.66Zm19.96 12.93-4.61-2.67a.77.77 0 0 0-.7 0l-9.27 5.36c-.2.12-.22.3-.04.4l4.61 2.67a.78.78 0 0 0 .7 0l9.27-5.42c.2-.09.22-.28.04-.38v.04Zm3.28 5.73-4.62-2.66a.82.82 0 0 0-.7 0l-5.93 3.42c-.2.13-.22.3-.04.41l4.61 2.67a.8.8 0 0 0 .7 0l5.91-3.5c.2-.1.22-.27.04-.38l.03.04Zm29.18-48.95a.75.75 0 0 0 .7 0l4.82-2.78c.2-.12.22-.3 0-.4l-4.61-2.67a.77.77 0 0 0-.7 0l-4.82 2.79c-.2.11-.23.3 0 .4l4.6 2.66Zm-14.1 8.14a.82.82 0 0 0 .7 0l4.82-2.79c.2-.12.23-.3.04-.4l-4.61-2.67a.82.82 0 0 0-.7 0l-4.82 2.78c-.2.12-.22.3-.04.4l4.61 2.68Zm-31.25 18.02a.77.77 0 0 0 .7 0l4.82-2.79c.2-.11.23-.29.04-.4l-4.61-2.66a.75.75 0 0 0-.7 0l-4.83 2.79c-.2.11-.22.3-.04.4l4.62 2.66Zm38.3-22.12a.82.82 0 0 0 .7 0l4.82-2.78c.21-.12.23-.3 0-.4l-4.6-2.67a.81.81 0 0 0-.71 0l-4.82 2.79c-.2.12-.23.3 0 .4l4.61 2.66Zm-14.1 8.14a.77.77 0 0 0 .7 0l4.83-2.79c.2-.11.23-.3 0-.4l-4.62-2.66a.76.76 0 0 0-.7 0l-4.82 2.78c-.2.12-.22.3-.04.4l4.65 2.67Zm-4.57 36.98a.83.83 0 0 0-.7 0l-7.42 4.29c-.2.11-.23.3 0 .4l4.62 2.66a.75.75 0 0 0 .7 0l7.42-4.27c.2-.13.22-.3.04-.41l-4.66-2.67Zm-5.53-31.13a.82.82 0 0 0 .7 0l4.82-2.78c.2-.12.22-.3.04-.4l-4.62-2.67a.77.77 0 0 0-.7 0l-4.83 2.77c-.2.13-.22.3-.04.41l4.63 2.67Zm-7.06 4.1a.83.83 0 0 0 .7 0l4.83-2.79c.2-.12.22-.3 0-.4l-4.62-2.67a.82.82 0 0 0-.7 0l-4.82 2.79c-.2.11-.22.3 0 .4l4.61 2.67Zm143.15-48.3a.76.76 0 0 0-.7 0l-11.87 6.85c-.2.13-.22.3-.04.41l4.61 2.67a.83.83 0 0 0 .7 0l11.87-6.86c.2-.11.23-.3.04-.4l-4.61-2.66Zm-15.57 9.02a.77.77 0 0 0-.7 0l-4.82 2.78c-.2.12-.23.3-.04.4l4.61 2.67a.75.75 0 0 0 .7 0l4.82-2.79c.2-.11.22-.3.04-.4l-4.61-2.66Zm-95.15 52.98 4.82-2.79c.2-.11.22-.3 0-.4l-4.61-2.66a.77.77 0 0 0-.7 0l-4.82 2.77c-.2.13-.22.3 0 .42l4.61 2.66a.82.82 0 0 0 .7 0Zm81.02-44.88a.8.8 0 0 0-.7 0l-4.82 2.78c-.2.12-.22.3-.04.4l4.6 2.67a.77.77 0 0 0 .71 0l4.82-2.78c.2-.12.23-.3.04-.4l-4.61-2.67Zm36.72-21.2a.81.81 0 0 0-.7 0l-4.83 2.78c-.2.13-.22.3-.04.4l4.62 2.68a.81.81 0 0 0 .7 0l4.83-2.79c.2-.12.22-.3.04-.41l-4.62-2.66Zm11.66-1.4-11.2-6.47a.82.82 0 0 0-.7 0l-4.83 2.78c-.2.11-.22.3-.04.4l11.21 6.47a.82.82 0 0 0 .7 0l4.82-2.78c.22-.12.22-.3.04-.4Zm-74.71 37.8a.82.82 0 0 0-.7 0l-5.94 3.43c-.2.12-.22.3-.04.4l4.61 2.67a.82.82 0 0 0 .7 0l5.94-3.42c.2-.13.22-.3 0-.41l-4.57-2.67Zm17.8-10.28a.82.82 0 0 0-.7 0l-7.42 4.29c-.2.12-.22.3 0 .4l4.59 2.7a.8.8 0 0 0 .7 0l7.42-4.29c.2-.12.22-.3.04-.41l-4.63-2.69Zm-34.12 19.67a.8.8 0 0 0-.7 0l-39.69 22.93c-.2.12-.22.3-.04.4l4.61 2.67a.76.76 0 0 0 .7 0l39.7-22.94c.2-.12.21-.3 0-.41l-4.58-2.66ZM144.2 276.6a.77.77 0 0 0-.7 0l-5.94 3.42c-.2.12-.23.3-.04.4l4.61 2.67a.82.82 0 0 0 .7 0l5.94-3.43c.2-.12.22-.3 0-.4l-4.57-2.66Zm50.07-28.92a.82.82 0 0 0-.7 0l-5.94 3.43c-.2.12-.22.3-.04.4l4.61 2.67a.82.82 0 0 0 .7 0l5.94-3.42c.2-.13.22-.3.04-.41l-4.61-2.67Zm-58.23 33.6a.77.77 0 0 0-.7 0l-5.94 3.42c-.2.12-.23.3-.04.4l4.61 2.67a.82.82 0 0 0 .7 0l5.94-3.43c.2-.12.22-.3 0-.4l-4.57-2.67Zm74.55-43.05a.77.77 0 0 0-.7 0l-5.94 3.43c-.2.12-.22.3-.04.4l4.61 2.67a.82.82 0 0 0 .7 0l5.94-3.44c.2-.11.22-.29.04-.4l-4.61-2.66Zm25.22-14.56a.82.82 0 0 0-.7 0l-4.83 2.79c-.2.12-.22.3-.04.4l4.62 2.67a.82.82 0 0 0 .7 0l4.82-2.78c.2-.12.23-.3 0-.4l-4.57-2.68Zm15.78-11.02 4.83-2.78c.2-.12.22-.3 0-.4l-4.62-2.66a.77.77 0 0 0-.7 0l-4.82 2.77c-.2.13-.22.3-.04.41l4.61 2.66a.84.84 0 0 0 .74.04v-.03Zm-28.75 1.39 4.82-2.79c.2-.11.22-.3.04-.4l-4.61-2.66a.77.77 0 0 0-.7 0l-4.83 2.78c-.2.12-.22.3-.04.4l4.61 2.67a.8.8 0 0 0 .7.03v-.03Zm-18.72 26.03 14.1-8.15c.2-.11.22-.3 0-.4l-4.62-2.66a.77.77 0 0 0-.7 0L198.8 237c-.2.13-.22.3 0 .41l4.62 2.67a.81.81 0 0 0 .7.03v-.03Zm39.73-23.33a.78.78 0 0 0 .7 0l4.82-2.78c.2-.13.22-.3.04-.41l-4.61-2.66a.82.82 0 0 0-.7 0l-4.82 2.78c-.2.11-.23.3-.04.4l4.6 2.67Zm-5.85-3.79 4.82-2.79c.2-.11.23-.3.04-.4l-4.62-2.66a.75.75 0 0 0-.7 0l-4.82 2.79c-.2.11-.22.3-.04.4l4.62 2.66a.77.77 0 0 0 .7 0Zm-40.96 31.21 4.82-2.77c.2-.13.22-.3.04-.41l-4.6-2.67a.82.82 0 0 0-.71 0l-4.83 2.79c-.2.11-.22.3 0 .4l4.61 2.66a.76.76 0 0 0 .67 0Zm31.2-18.39a.77.77 0 0 0 .7 0l4.82-2.78c.2-.12.22-.3.04-.4l-4.62-2.67a.82.82 0 0 0-.7 0l-4.82 2.79c-.2.11-.22.3-.04.4l4.61 2.66Zm-66.43 38.74 4.82-2.78c.2-.13.23-.3.05-.41l-4.62-2.66a.8.8 0 0 0-.7 0l-4.83 2.78c-.2.12-.22.3-.04.4l4.62 2.67a.81.81 0 0 0 .7 0Zm7.05-4.1 4.82-2.78c.2-.11.22-.3 0-.4l-4.61-2.66a.77.77 0 0 0-.7 0l-4.82 2.77c-.2.13-.23.3-.05.41l4.62 2.67a.82.82 0 0 0 .76.02l-.02-.02Zm-14.1 8.14 4.82-2.78c.2-.12.23-.3.04-.4l-4.6-2.67a.75.75 0 0 0-.7 0l-4.83 2.79c-.2.11-.22.3-.04.4l4.61 2.66a.77.77 0 0 0 .73.02l-.02-.02Zm28.2-16.27 4.81-2.78c.2-.13.22-.3.04-.41l-4.6-2.67a.82.82 0 0 0-.7 0l-4.8 2.83c-.21.12-.23.3-.05.4l4.62 2.67a.82.82 0 0 0 .7-.01l-.03-.03Zm-7.06 4.1 4.83-2.79c.2-.11.22-.3 0-.4l-4.62-2.66a.77.77 0 0 0-.7 0l-4.75 2.82c-.2.11-.23.3-.04.4l4.61 2.66a.75.75 0 0 0 .7-.04h-.03Zm14.1-8.14 4.82-2.78c.2-.12.23-.3.04-.4l-4.61-2.67a.76.76 0 0 0-.7 0l-4.8 2.76c-.2.13-.22.3-.04.41l4.61 2.67a.82.82 0 0 0 .7 0l-.02.01Zm38.46-56.6a.82.82 0 0 0 .7 0l4.82-2.78c.2-.12.22-.3.04-.4l-1.23-.72a.82.82 0 0 0-.7 0l-4.82 2.79c-.2.11-.22.3-.04.4l1.23.71Zm-35.03 22.18a.77.77 0 0 0 .7 0l4.82-2.79c.2-.11.23-.3.05-.4l-4.63-2.66a.75.75 0 0 0-.7 0l-4.82 2.78c-.2.11-.23.3 0 .4l4.57 2.67Zm14.1-8.14a.82.82 0 0 0 .69 0l4.83-2.78c.2-.12.22-.3.04-.4l-4.58-2.7a.8.8 0 0 0-.7 0l-4.82 2.78c-.2.12-.23.3-.04.4l4.57 2.7Zm-22.7 13.11a.83.83 0 0 0 .7 0l4.81-2.79c.21-.12.23-.3 0-.4l-4.6-2.67a.82.82 0 0 0-.7 0l-4.83 2.79c-.2.11-.22.3 0 .4l4.61 2.67Zm15.65-9.01a.75.75 0 0 0 .7 0L206 207c.2-.12.22-.3 0-.4l-4.61-2.67a.8.8 0 0 0-.7 0l-4.82 2.78c-.2.12-.23.3 0 .4l4.6 2.67Zm-29.75 17.2a.82.82 0 0 0 .7 0l4.82-2.78c.2-.12.23-.3.05-.4l-4.62-2.67a.81.81 0 0 0-.7 0l-4.83 2.79c-.2.12-.22.3 0 .4l4.58 2.66Zm7.05-4.1a.75.75 0 0 0 .7 0l4.82-2.78c.2-.11.22-.3.04-.4l-4.61-2.66a.76.76 0 0 0-.7 0l-4.82 2.78c-.2.12-.23.3-.04.4l4.6 2.67Zm36.59-23.07a.75.75 0 0 0 .7 0l4.82-2.79c.2-.11.22-.3.04-.4l-1.23-.7a.8.8 0 0 0-.7 0l-4.82 2.78c-.2.13-.23.3-.04.41l1.22.7Zm21.17-12.25a.77.77 0 0 0 .7 0l4.82-2.78c.2-.12.23-.3 0-.4l-1.22-.71a.75.75 0 0 0-.7 0l-4.83 2.78c-.2.12-.22.3 0 .4l1.23.71Zm9.7 5.6a.77.77 0 0 0 .7 0l4.81-2.79c.21-.11.23-.3.05-.4l-4.6-2.69a.75.75 0 0 0-.7 0l-4.83 2.79c-.2.11-.22.3-.04.4l4.6 2.69Zm13.4 15.46 4.82-2.79c.2-.11.22-.3.04-.4l-4.61-2.66a.75.75 0 0 0-.7 0l-4.82 2.78c-.2.12-.22.3-.04.4l4.61 2.67a.77.77 0 0 0 .7 0Zm-37.2-12.91a.82.82 0 0 0 .7 0l4.82-2.8c.2-.11.22-.3.04-.4l-1.23-.7a.77.77 0 0 0-.7 0l-4.82 2.78c-.2.12-.22.3-.04.4l1.22.72Zm-57.74 35.27a.77.77 0 0 0 .7 0l4.83-2.78c.2-.12.22-.3 0-.4l-4.62-2.67a.8.8 0 0 0-.7 0l-4.82 2.79c-.2.11-.22.3 0 .4l4.61 2.66Z" fill="#455A64"/>
  <path d="m183.9 271.1 1.05.6 27.84 16.08 49.53-28.6 1.03-.58-28.9-16.68-50.55 29.18Z" fill="#263238"/>
  <path d="m261.69 259.55-27.24-15.7-48.86 28.22 27.2 15.71 48.9-28.23Zm-215.22 1.18c-2-.93-2.55-2.52-2.74-5.34l-9.01-131.75a9.14 9.14 0 0 1 4.22-7.75l167.6-96.75c2.53-1.47 4.4-2.26 6.74-.66 2.34 1.6 2.39 2.46 2.58 5.3l9 131.74a9.1 9.1 0 0 1-4.24 7.75L53.03 260.03c-2.53 1.46-3.96 1.9-6.56.7Z" fill="#37474F"/>
  <path d="M215.89 23.77c-.19-2.8-2.4-3.9-4.91-2.45L43.34 118.08a8.58 8.58 0 0 0-3.14 3.38l-4.38-2.2a8.8 8.8 0 0 1 3.12-3.37l167.6-96.75c2.53-1.47 4.4-2.28 6.73-.67 2.47 1.7 2.4 2.5 2.62 5.3Z" fill="#455A64"/>
  <path d="M52.7 260.22c-2.31 1.37-3.77 1.53-6.23.5-1.87-.82-2.55-2.51-2.74-5.33l-9.01-131.76a8.08 8.08 0 0 1 1.1-4.37l4.38 2.2a8.37 8.37 0 0 0-1.1 4.37l9 131.76c.18 2.6 2.44 3.9 4.6 2.63Z" fill="#263238"/>
  <path d="m46.24 123.1 161.28-93.06c1.52-.88 2.85-.22 2.96 1.47l8.4 122.88a5.48 5.48 0 0 1-2.54 4.65l-161.27 93.1c-1.53.89-2.85.23-2.97-1.46l-8.4-122.89a5.47 5.47 0 0 1 2.54-4.7Z" fill="#000"/>
  <path d="M46.24 123.1a5.47 5.47 0 0 0-2.54 4.64l8.26 120.89L211.4 156.6a5.48 5.48 0 0 0 2.55-4.65L205.67 31.1l-159.43 92Z" fill="#fff"/>
</svg>
