<svg width="132" height="158" fill="none" xmlns="http://www.w3.org/2000/svg">
  <path d="M106.86 47.24c6.67-1.07 10.1-4.31 12.37-8.33 1.64-2.93 2.28-8.02 1.54-11.78a20.88 20.88 0 0 0-2.18-6.03c1.19-3.06.43-6.48-1.07-9.43-1.91-3.74-5.55-6.55-9.95-5.94-.72.1-.2.78.4 1.04 5.04 2.3 6.59 6.12 7.06 9.97-.36-.3-.72-.57-1.11-.82a16.02 16.02 0 0 0-13.4-1.21c-4 1.63-4.59 5.53-1.86 8.64a13.1 13.1 0 0 0 15.42 2.7c.54 1.78.76 3.64.66 5.5a10.72 10.72 0 0 1-5.4 8.62 11.17 11.17 0 0 1-5.07 1.15 12.78 12.78 0 0 1-5.15-1.19 1.73 1.73 0 0 0-2.2 1.24c-1.86 5.43 6.34 6.43 9.94 5.87Zm5.31-25.1c-1.96 1.04-4.8 1.54-6.87.76a6.56 6.56 0 0 1-3.03-1.93c-1.17-1.55.5-2.32 2.34-2.32a9.16 9.16 0 0 1 7.56 3.5Z" fill="#EB9FDF"/>
  <path opacity=".2" d="M118.59 21.1c.79 1.44 1.4 2.97 1.83 4.55a9.83 9.83 0 0 1-5.74 3.47c-.1-1.04-.3-2.07-.6-3.07a9.4 9.4 0 0 0 4.5-4.95Zm-6.42 1.04a9.28 9.28 0 0 0-.72-.82 7.99 7.99 0 0 0 2.2-1.85 5.36 5.36 0 0 0 1.38-2.7 6.57 6.57 0 0 1-2.86 5.37Z" fill="#000"/>
  <path d="M55.52 128.84v-.23c-.38-2.67 1.18-5.42 4.7-7.5 6.37-3.78 16.8-3.9 23.26-.25 3.55 2 5.17 4.72 4.85 7.38v.12c0 .04 6.82-.96 6.82-.96l-1.56 1.64a30.43 30.43 0 0 0-7.82 16.24l-.87 5.78v.06c-.27 1.63-1.48 3.22-3.63 4.5-4.96 2.94-13.1 3.02-18.1.19-2.16-1.23-3.4-2.8-3.71-4.41v-.1l-3.94-22.46Z" fill="#EB9FDF"/>
  <path opacity=".1" d="M55.52 128.84v-.23c-.38-2.67 1.18-5.42 4.7-7.5 6.37-3.78 16.8-3.9 23.26-.25 3.55 2 5.17 4.72 4.85 7.38v.12c0 .04 6.82-.96 6.82-.96l-1.56 1.64a30.43 30.43 0 0 0-7.82 16.24l-.87 5.78v.06c-.27 1.63-1.48 3.22-3.63 4.5-4.96 2.94-13.1 3.02-18.1.19-2.16-1.23-3.4-2.8-3.71-4.41v-.1l-3.94-22.46Z" fill="#fff"/>
  <path d="M89.73 108.6v-.23c-.38-2.66 1.23-5.34 4.68-7.5 2.46-1.52 15.28-1.64 22.7-1.74 4.41-.05 6.83-.53 6.5 2.15v.12c0 .04 4.83-6.09 4.83-6.09a83.64 83.64 0 0 0-7.6 24.23l-1.72 11.27v.07c-.28 1.64-1.48 3.22-3.63 4.49-4.96 2.94-13.06 3.03-18.1.2-2.17-1.22-3.41-2.8-3.72-4.42v-.05l-3.94-22.5Zm-38.16 7.43v-.24c.33-2.67-1.34-5.3-4.84-7.37-2.46-1.48-15.3-1.34-22.73-1.26-4.4.05-6.84-.37-6.45 2.29v.24l5.14 29.19v.05c.31 1.64 1.56 3.2 3.73 4.42 5.03 2.83 13.1 2.74 18.1-.2 2.14-1.27 3.35-2.86 3.62-4.5v-.08l3.43-22.54Z" fill="#EB9FDF"/>
  <path d="M51.57 116.03v-.24c.33-2.67-1.34-5.3-4.84-7.37-2.46-1.48-15.3-1.34-22.73-1.26-4.4.05-6.84-.37-6.45 2.29v.24l5.14 29.19v.05c.31 1.64 1.56 3.2 3.73 4.42 5.03 2.83 13.1 2.74 18.1-.2 2.14-1.27 3.35-2.86 3.62-4.5v-.08l3.43-22.54Z" fill="#EB9FDF"/>
  <path d="M52.38 31.9c7.26-3.23 17.15-4.58 25.64-4.67a52.43 52.43 0 0 1 53 51.88c.21 19.26-9.83 37.34-24.1 48.33a114.18 114.18 0 0 1-23.18 13.25c-10.7 4.35-17.43 4.81-27.1 4.92A52.43 52.43 0 0 1 3.62 93.74c-.15-13.3 4.78-25.12 12.66-34.58 3.28-3.92 8.47-9.92 12.6-12.97 8.02-5.96 15.44-10.7 23.49-14.29Z" fill="#EB9FDF"/>
  <path opacity=".3" d="M52.38 31.9c7.26-3.23 17.15-4.58 25.64-4.67a52.43 52.43 0 0 1 53 51.88c.21 19.26-9.83 37.34-24.1 48.33a114.18 114.18 0 0 1-23.18 13.25c-10.7 4.35-17.43 4.81-27.1 4.92A52.43 52.43 0 0 1 3.62 93.74c-.15-13.3 4.78-25.12 12.66-34.58 3.28-3.92 8.47-9.92 12.6-12.97 8.02-5.96 15.44-10.7 23.49-14.29Z" fill="#fff"/>
  <path opacity=".5" d="M66.2 116.48a9.58 9.58 0 1 0-18.65-4.4 9.58 9.58 0 0 0 18.64 4.4Zm-55.89-26.2a9.57 9.57 0 0 0-5.39-8.62 51.04 51.04 0 0 0-.94 17.63 9.57 9.57 0 0 0 6.33-9.01Z" fill="#EB9FDF"/>
  <path opacity=".3" d="M99.03 116.86c20.08-16.59 31.8-52.93 15.41-75.47a52.3 52.3 0 0 1 16.61 37.68c.2 19.27-9.83 37.34-24.1 48.34a114.17 114.17 0 0 1-23.19 13.25c-10.69 4.34-17.42 4.81-27.1 4.92a52.3 52.3 0 0 1-38.89-16.63l-.5-.55c29.63 20.86 61.7 5.04 81.76-11.54Z" fill="#EB9FDF"/>
  <path d="m43.66 50.82-8.04 4.76c-8.13-2.25-17.8-.72-23.87 9.83 0 0-2.38-24.46.67-31.26l2.34-1.39a7.08 7.08 0 0 1 4.64-.48c10.02 1.61 19.13 9.82 24.26 18.54Z" fill="#EB9FDF"/>
  <path d="M35.62 55.59C25.1 53 17.14 56.4 11.75 65.42c0 0-9.58-35.1 5.41-31.8C27.3 35.8 35.62 55.58 35.62 55.58Z" fill="#EB9FDF"/>
  <path opacity=".2" d="M35.62 55.59C25.1 53 17.14 56.4 11.75 65.42c0 0-9.58-35.1 5.41-31.8C27.3 35.8 35.62 55.58 35.62 55.58Z" fill="#fff"/>
  <path opacity=".5" d="M20.4 52.24c9.7-3.68 15.22 3.35 15.22 3.35-10.52-2.58-18.48.81-23.87 9.83a12.91 12.91 0 0 1 8.65-13.18Z" fill="#EB9FDF"/>
  <path d="M51.91 64.74c8.96 7.98 17.04 18.14 23.04 33.42l7.7-4.53c2.88-2.98 10.17-28.16-4.51-37.35-9.81-6.13-26.23 8.46-26.23 8.46Z" fill="#EB9FDF"/>
  <path d="M51.91 64.74a84.38 84.38 0 0 1 23.04 33.42s15.99-28.37 1.18-40.69c-8.65-7.18-24.22 7.27-24.22 7.27Z" fill="#EB9FDF"/>
  <path opacity=".2" d="M51.91 64.74a84.38 84.38 0 0 1 23.04 33.42s15.99-28.37 1.18-40.69c-8.65-7.18-24.22 7.27-24.22 7.27Z" fill="#fff"/>
  <path opacity=".5" d="M51.91 64.74s8.92-.09 16.7 10.34c7.3 9.77 6.34 23.08 6.34 23.08A84.38 84.38 0 0 0 51.9 64.74Z" fill="#EB9FDF"/>
  <path d="M13.36 91.53c3.11-1.85 7.57-1.59 12.53 1.2 9.56 5.4 17.41 18.13 17.52 28.46.06 4.92-1.64 8.41-4.52 10.13-1.37.82-6.76 4.03-8.19 4.83-3.11 1.8-7.54 1.53-12.48-1.25C8.66 129.52.82 116.78.7 106.45c-.06-4.91 1.64-8.4 4.5-10.12l8.16-4.8Z" fill="#EB9FDF"/>
  <path opacity=".2" d="m5.24 96.33 8.12-4.8c3.11-1.85 7.57-1.59 12.53 1.2a34.5 34.5 0 0 1 10.65 9.84L5.17 121.13c-2.7-4.78-4.36-10-4.41-14.74-.08-4.86 1.64-8.34 4.48-10.06Z" fill="#fff"/>
  <path opacity=".1" d="m41.53 111.94-30.05 17.7a40.22 40.22 0 0 1-6.35-8.47L36.5 102.6a40.02 40.02 0 0 1 5.03 9.34Z" fill="#fff"/>
  <path d="M17.85 97.51C8.29 92.13.65 96.14.73 106.46c.1 10.32 7.96 23.07 17.52 28.45 9.56 5.38 17.2 1.38 17.11-8.95-.09-10.33-7.95-23.07-17.51-28.45Z" fill="#EB9FDF"/>
  <path d="M17.85 97.51C8.29 92.13.65 96.14.73 106.46c.1 10.32 7.96 23.07 17.52 28.45 9.56 5.38 17.2 1.38 17.11-8.95-.09-10.33-7.95-23.07-17.51-28.45Z" fill="#EB9FDF"/>
  <path opacity=".3" d="M17.85 97.51C8.29 92.13.65 96.14.73 106.46c.1 10.32 7.96 23.07 17.52 28.45 9.56 5.38 17.2 1.38 17.11-8.95-.09-10.33-7.95-23.07-17.51-28.45Z" fill="#fff"/>
  <path d="M24.22 126.38c1.17.66 2.1-.06 2.08-1.64l-.08-7.88a5.02 5.02 0 0 0-2.15-4c-1.16-.65-2.1.07-2.08 1.64l.1 7.89a5.03 5.03 0 0 0 2.13 3.98Z" fill="#EB9FDF"/>
  <path d="m26.22 116.89.08 7.88c.01.31-.03.62-.13.92a2.09 2.09 0 0 1-.46-.2 5.02 5.02 0 0 1-2.14-3.98l-.08-7.88c0-.31.03-.62.13-.92.15.05.3.11.45.19a5.02 5.02 0 0 1 2.15 3.99Z" fill="#EB9FDF"/>
  <path opacity=".15" d="m26.22 116.89.08 7.88c.01.31-.03.62-.13.92a2.09 2.09 0 0 1-.46-.2 5.02 5.02 0 0 1-2.14-3.98l-.08-7.88c0-.31.03-.62.13-.92.15.05.3.11.45.19a5.02 5.02 0 0 1 2.15 3.99Z" fill="#000"/>
  <path d="M12.04 119.5c1.16.66 2.1-.06 2.08-1.64l-.09-7.88A5.03 5.03 0 0 0 11.9 106c-1.17-.65-2.1.07-2.08 1.64l.08 7.88a5.01 5.01 0 0 0 2.15 4Z" fill="#EB9FDF"/>
  <path d="m14.01 110.02.1 7.88c0 .3-.05.62-.14.91a1.97 1.97 0 0 1-.46-.2 5 5 0 0 1-2.14-3.97l-.08-7.89c-.01-.3.03-.62.13-.91.16.04.31.1.46.19A5.03 5.03 0 0 1 14 110Z" fill="#EB9FDF"/>
  <path opacity=".15" d="m14.01 110.02.1 7.88c0 .3-.05.62-.14.91a1.97 1.97 0 0 1-.46-.2 5 5 0 0 1-2.14-3.97l-.08-7.89c-.01-.3.03-.62.13-.91.16.04.31.1.46.19A5.03 5.03 0 0 1 14 110Z" fill="#000"/>
  <path opacity=".3" d="M31.99 133.4c4.28-6.03 1.35-18.54-3.56-26.09 4.16 5.74 6.87 12.6 6.93 18.64.12 10.33-7.55 14.34-17.11 8.95a32.64 32.64 0 0 1-8.62-7.3c6.06 7.1 17.79 12.24 22.36 5.8Z" fill="#fff"/>
  <path d="M43.87 94.1c-.58 2.17 1.75.47 3.91 1.05 2.17.57 3.34 3.2 3.92 1.04a4.05 4.05 0 0 0-7.83-2.08ZM14.56 79.19c-1.32 1.82 1.46 1.06 3.27 2.37s1.98 4.18 3.28 2.37a4.05 4.05 0 1 0-6.55-4.74Z" fill="#263238"/>
  <path d="m54.65 54.6 25.9-15.33-5.83-3.28-25.9 15.33 5.83 3.28Z" fill="#EB9FDF"/>
  <path opacity=".2" d="m54.65 54.6 25.9-15.33-5.83-3.28-25.9 15.33 5.83 3.28Z" fill="#000"/>
  <path d="m74.72 35.99.04 3.34-23.03 13.63-2.9-1.64 25.89-15.33Z" fill="#EB9FDF"/>
  <path opacity=".2" d="m74.72 35.99.04 3.34 2.92 1.64 2.87-1.7-5.83-3.28Z" fill="#000"/>
  <path d="m70.15 5.14.87-1.84-3.88-2.24a6.22 6.22 0 0 0-2.01-.73 7.2 7.2 0 0 0-3.72.34 11.1 11.1 0 0 0-2.33 1.06 14.04 14.04 0 0 0-2.37 1.72c-4.82 4.1-8.62 11.33-9.58 18.3a28.77 28.77 0 0 0-.24 3.43c0 .54 0 1.07.07 1.58l.14 1.27c.06.4.14.82.23 1.18a11.6 11.6 0 0 0 1.46 3.53A7.1 7.1 0 0 0 51.14 35l3.68 2.13.82-1.7.66-.17a11.9 11.9 0 0 0 2.55-1.14 16.94 16.94 0 0 0 3.34-2.56 31.27 31.27 0 0 0 8.74-18.66c.07-.74.1-1.47.1-2.2 0-1.05-.08-2.1-.25-3.12a13.6 13.6 0 0 0-.63-2.45Z" fill="#FBD40B"/>
  <path opacity=".25" d="m48.03 17.58 7.88 4.56 1.04-3-7.89-4.57c-.4.99-.74 2-1.03 3.01ZM67.15 1.04a6.22 6.22 0 0 0-2.02-.73A7.2 7.2 0 0 0 62.4.4l-.36.09 8.12 4.68.86-1.86-3.87-2.26Zm-.85 11.52 1.04-1.25-11.82-6.8c-.38.36-.75.76-1.1 1.16l11.89 6.89ZM51.9 9.04l10.24 5.91L63.27 12l-9.53-5.5c-.66.8-1.27 1.66-1.84 2.54Z" fill="#fff"/>
  <path opacity=".4" d="M67.15 1.04a6.22 6.22 0 0 0-2.02-.73 7.2 7.2 0 0 0-3.71.35 11.12 11.12 0 0 0-2.33 1.05 14.05 14.05 0 0 0-2.37 1.72c-4.49 3.8-8.1 10.35-9.34 16.87l16.45 9.5c3.39-4.1 5.7-8.99 6.73-14.21a28.1 28.1 0 0 0 .47-4.88c0-1.05-.08-2.1-.25-3.12a13.6 13.6 0 0 0-.63-2.41l.87-1.88-3.87-2.26Z" fill="#fff"/>
  <path opacity=".1" d="m54.83 37.1.82-1.7.65-.17c.9-.28 1.76-.66 2.56-1.14a16.9 16.9 0 0 0 3.34-2.57c.57-.54 1.1-1.13 1.64-1.75l-16.45-9.5a29.53 29.53 0 0 0-.4 2.86c-.06.68-.08 1.34-.08 2 0 .55 0 1.07.06 1.58.07.5.1.86.15 1.27.06.4.14.82.23 1.18a11.6 11.6 0 0 0 1.46 3.53 7.1 7.1 0 0 0 1.72 1.86c.2.15.42.28.63.42l3.67 2.13Z" fill="#000"/>
  <path opacity=".1" d="m48.47 32.16.33.54a7.1 7.1 0 0 0 2.35 2.27l3.68 2.13.82-1.7.06-.7-8.2-4.72c.24.76.56 1.49.96 2.18Z" fill="#000"/>
  <path d="M74.93 9.95a13.1 13.1 0 0 0-.9-3.1 7.99 7.99 0 0 0-2.4-3.15 6.14 6.14 0 0 0-2.14-1.07l-.54-.11a7.2 7.2 0 0 0-2.73.07 9.21 9.21 0 0 0-2.01.65 16.82 16.82 0 0 0-3.67 2.38c-4.83 4.1-8.62 11.35-9.59 18.33a28.76 28.76 0 0 0-.23 3.42c0 .54 0 1.07.06 1.57.07.51.08.86.15 1.27.06.41.14.82.23 1.18a11.58 11.58 0 0 0 1.45 3.53 7.23 7.23 0 0 0 1.72 1.86 6.13 6.13 0 0 0 3.4 1.22c.92.04 1.84-.08 2.72-.35.9-.28 1.75-.66 2.55-1.14a17.29 17.29 0 0 0 3.35-2.57A31.3 31.3 0 0 0 75.1 15.3a19.46 19.46 0 0 0-.16-5.35Z" fill="#FBD40B"/>
  <path opacity=".05" d="M51.2 22.46a29.65 29.65 0 0 0-.4 2.87 23.64 23.64 0 0 0-.02 3.58c.07.5.08.86.15 1.27.06.41.14.82.23 1.18a11.58 11.58 0 0 0 1.45 3.53 7.23 7.23 0 0 0 1.72 1.86 6.13 6.13 0 0 0 3.4 1.22c.92.04 1.84-.08 2.72-.35.9-.28 1.75-.66 2.55-1.14.46-.27.91-.56 1.34-.88L51.19 22.46Z" fill="#000"/>
  <path opacity=".05" d="M51.36 32.21a11.65 11.65 0 0 0 1.23 2.69 7.23 7.23 0 0 0 1.72 1.86c.81.6 1.76 1 2.76 1.15l-5.7-5.7Z" fill="#000"/>
  <path opacity=".1" d="M52.87 16.79c-.4.98-.74 1.98-1.03 3L66.16 34.1l.2-.18c.61-.6 1.2-1.23 1.75-1.9L52.87 16.8Zm4.68-8.11a32.1 32.1 0 0 0-1.84 2.54L71.48 27c.51-.97.98-1.96 1.4-2.98L57.55 8.68Zm1.78-1.98c-.37.38-.74.77-1.1 1.18l15.06 15.08c.22-.56.41-1.13.59-1.7L59.33 6.7Zm15.79 5.28c0-.29 0-.58-.06-.82v-.28c0-.1 0-.2-.05-.29-.04-.09-.05-.4-.09-.61a13.1 13.1 0 0 0-.9-3.1 7.99 7.99 0 0 0-2.39-3.15 6.14 6.14 0 0 0-2.15-1.07l-.54-.11a7.2 7.2 0 0 0-2.73.07l-.36.1 9.27 9.26Z" fill="#fff"/>
  <path d="M72.07 14.94c0 6.44-3.76 13.88-8.5 17.04-.2.13-.41.27-.61.38-5.04 2.9-9.14-.17-9.14-6.89s4.1-14.52 9.12-17.42l.6-.33c4.77-2.33 8.53.78 8.53 7.22Z" fill="#FBD40B"/>
  <path opacity=".4" d="M72.07 14.94c0 6.44-3.76 13.88-8.5 17.04-.2.13-.41.27-.61.38-5.04 2.9-9.14-.17-9.14-6.89s4.1-14.52 9.12-17.42l.6-.33c4.77-2.33 8.53.78 8.53 7.22Z" fill="#000"/>
  <path d="M71.66 15.17v.63c-.23 6-3.72 12.73-8.11 15.66l-.13.07-.46.29c-.84.5-1.78.83-2.75.97a4.61 4.61 0 0 1-4.8-2.45 9.54 9.54 0 0 1-1.14-4.17v-1.9a22.01 22.01 0 0 1 6.62-14.19 11.47 11.47 0 0 1 2.07-1.53c.23-.13.4-.21.59-.3l.16-.08a5.85 5.85 0 0 1 3.6-.58c1.84.36 3.28 1.82 3.93 4.15.3 1.12.45 2.27.42 3.43Z" fill="#FBD40B"/>
  <path opacity=".5" d="M71.66 15.17v.63c-.23 6-3.72 12.73-8.11 15.66l-.13.07-.46.29c-.84.5-1.78.83-2.75.97a4.61 4.61 0 0 1-4.8-2.45 9.54 9.54 0 0 1-1.14-4.17v-1.9a22.01 22.01 0 0 1 6.62-14.19 11.47 11.47 0 0 1 2.07-1.53c.23-.13.4-.21.59-.3l.16-.08a5.85 5.85 0 0 1 3.6-.58c1.84.36 3.28 1.82 3.93 4.15.3 1.12.45 2.27.42 3.43Z" fill="#000"/>
  <path d="M70.2 14.96v-.62a11.8 11.8 0 0 0-.44-3.4 6.37 6.37 0 0 0-1.87-3.15c-.2-.07-.4-.13-.6-.16-1.23-.2-2.5 0-3.6.57l-.17.07-.58.32a12.85 12.85 0 0 0-2.07 1.53 22.01 22.01 0 0 0-6.62 14.19v1.9a9.54 9.54 0 0 0 1.13 4.16c.3.53.69 1 1.14 1.4.72.25 1.47.32 2.22.2.96-.15 1.9-.48 2.73-.99l.47-.28.11-.09c4.43-2.91 7.93-9.65 8.16-15.65Z" fill="#FBD40B"/>
  <path opacity=".25" d="M70.2 14.96v-.62a11.8 11.8 0 0 0-.44-3.4 6.37 6.37 0 0 0-1.87-3.15c-.2-.07-.4-.13-.6-.16-1.23-.2-2.5 0-3.6.57l-.17.07-.58.32a12.85 12.85 0 0 0-2.07 1.53 22.01 22.01 0 0 0-6.62 14.19v1.9a9.54 9.54 0 0 0 1.13 4.16c.3.53.69 1 1.14 1.4.72.25 1.47.32 2.22.2.96-.15 1.9-.48 2.73-.99l.47-.28.11-.09c4.43-2.91 7.93-9.65 8.16-15.65Z" fill="#000"/>
  <path d="M68.95 2.48c-5.27-.6-9.55 3.77-12.4 7.69-4.1 6.08-6.75 13.8-5.33 21.17a9.24 9.24 0 0 0 3.1 5.4 9.26 9.26 0 0 1-3.27-5.4c-1.32-6.03.34-12.37 3.1-17.77 3-5.3 8-11.78 14.8-11.09Z" fill="#F5F5F5"/>
  <path opacity=".35" d="m64.96 16.8-1.74-1.02 3.38-2.88 1.75 1-3.39 2.9Zm1.08.66c-.89-.64-2.45-.16-3.76.26l-.82.28c-.09.19-.13.4-.13.6 0 1.02.86.75 2.74.13.63-.22 1.28-.39 1.94-.51.06.52.42 1 1.82.25l-1.79-1.01Z" fill="#000"/>
  <path opacity=".45" d="m61.71 30.72-1.75-1v-2.07l1.75 1v2.07Z" fill="#000"/>
  <path opacity=".35" d="M64.67 22.88a2.62 2.62 0 0 1-1.53 2.1c-1.45.81-2.03.15-2.15-.53l-.3-.18c.24-.08.48-.18.7-.32a3.13 3.13 0 0 0 1.43-1.5c1.08-.36 1.85-.5 1.85.43Zm-6.51 5.06a1.17 1.17 0 0 0-.64-.15c0-.1-.06-.21-.09-.33l-1.74-1a2.15 2.15 0 0 0 .97 1.48l1.75 1.01a.82.82 0 0 0-.25-1Z" fill="#000"/>
  <path d="M64.03 18.73c-1.88.62-2.75.9-2.75-.12 0-.21.05-.42.14-.61-1.28.4-1.88.44-1.88-.4 0-.63.42-1.4 1.58-2.07 1.16-.67 1.93-.55 2.1.25l3.38-2.88-.05-.14c.21-.04.42-.12.6-.23l-1.4-.81-.12-.09c-.42-.2-.88-.27-1.33-.22a6 6 0 0 0-1.75.49l1.75-1.03-1.77-1.01-1.19.68-1.64.94v2.06c-2.36 1.73-3.85 3.98-3.85 6.43a2.27 2.27 0 0 0 .78 2.05l.13.07 1.46.82c.04-.22.01-.45-.08-.65.46-.06.92-.17 1.37-.3 1.77-.54 3.36-1.38 3.36-.07 0 .2-.04.4-.11.58 1.08-.35 1.85-.49 1.85.44A2.62 2.62 0 0 1 63.09 25c-1.46.81-2.04.15-2.16-.53l-.3-.17-1.44-.82-3.56 3.01 1.75 1.01c.05.26.14.51.27.75a5.74 5.74 0 0 0 2.25-.56v.82l2.77-.39v-2.06c2.4-1.76 4.05-4.15 4.05-6.63 0-.42-.06-.84-.2-1.24a9.8 9.8 0 0 0-2.5.54Z" fill="#FBD40B"/>
  <path opacity=".15" d="M64.03 18.73c-1.88.62-2.75.9-2.75-.12 0-.21.05-.42.14-.61-1.28.4-1.88.44-1.88-.4 0-.63.42-1.4 1.58-2.07 1.16-.67 1.93-.55 2.1.25l3.38-2.88-.05-.14c.21-.04.42-.12.6-.23l-1.4-.81-.12-.09c-.42-.2-.88-.27-1.33-.22a6 6 0 0 0-1.75.49l1.75-1.03-1.77-1.01-1.19.68-1.64.94v2.06c-2.36 1.73-3.85 3.98-3.85 6.43a2.27 2.27 0 0 0 .78 2.05l.13.07 1.46.82c.04-.22.01-.45-.08-.65.46-.06.92-.17 1.37-.3 1.77-.54 3.36-1.38 3.36-.07 0 .2-.04.4-.11.58 1.08-.35 1.85-.49 1.85.44A2.62 2.62 0 0 1 63.09 25c-1.46.81-2.04.15-2.16-.53l-.3-.17-1.44-.82-3.56 3.01 1.75 1.01c.05.26.14.51.27.75a5.74 5.74 0 0 0 2.25-.56v.82l2.77-.39v-2.06c2.4-1.76 4.05-4.15 4.05-6.63 0-.42-.06-.84-.2-1.24a9.8 9.8 0 0 0-2.5.54Z" fill="#000"/>
  <path d="M59.74 13.5a10.97 10.97 0 0 0-3.17 3.81 6.55 6.55 0 0 0-.6 2.4c-.03.4 0 .82.08 1.23.07.41.29.78.61 1.04-.35-.23-.61-.6-.7-1.02a3.9 3.9 0 0 1-.15-1.27c.02-.84.21-1.68.57-2.45.37-.77.85-1.48 1.42-2.1.58-.63 1.23-1.17 1.94-1.64Z" fill="#000" opacity=".2"/>
  <path d="M66.58 18.16c-.87.08-1.73.27-2.55.57-1.88.62-2.75.9-2.75-.12 0-.21.05-.42.14-.61a3.2 3.2 0 0 1 1.45-1.46c1.23-.71 1.92-.55 2.1.25l3.38-2.89a2 2 0 0 0-1.96-1.5c-.73.01-1.45.18-2.12.49v-2.07l-1.74 1.03-1.04.6v2.06c-2.38 1.73-3.86 3.98-3.86 6.42-.02.45.06.9.21 1.33.53 1.31 1.96 1.13 3.47.69l1.5-.5c1.09-.36 1.86-.5 1.86.43a2.62 2.62 0 0 1-1.53 2.1c-1.45.81-2.03.15-2.15-.53l-3.56 3.01c.06.26.15.51.27.75a2 2 0 0 0 2.26.97c.6-.09 1.2-.27 1.75-.52v2.06l2.76-1.6v-2.06c2.4-1.77 4.06-4.15 4.06-6.64.04-1.79-.86-2.28-1.95-2.26Z" fill="#FBD40B"/>
  <path d="M66.58 18.16c-.87.08-1.73.27-2.55.57-1.88.62-2.75.9-2.75-.12 0-.21.05-.42.14-.61a3.2 3.2 0 0 1 1.45-1.46c1.23-.71 1.92-.55 2.1.25l3.38-2.89a2 2 0 0 0-1.96-1.5c-.73.01-1.45.18-2.12.49v-2.07l-1.74 1.03-1.04.6v2.06c-2.38 1.73-3.86 3.98-3.86 6.42-.02.45.06.9.21 1.33.53 1.31 1.96 1.13 3.47.69l1.5-.5c1.09-.36 1.86-.5 1.86.43a2.62 2.62 0 0 1-1.53 2.1c-1.45.81-2.03.15-2.15-.53l-3.56 3.01c.06.26.15.51.27.75a2 2 0 0 0 2.26.97c.6-.09 1.2-.27 1.75-.52v2.06l2.76-1.6v-2.06c2.4-1.77 4.06-4.15 4.06-6.64.04-1.79-.86-2.28-1.95-2.26Z" fill="#fff" opacity=".1"/>
  <path opacity=".1" d="m60.74 24.66-2.18 1.84 2.46 2.46c.24-.08.48-.17.72-.28v1l.67.67 2.1-1.2v-.74l-3.77-3.75Zm5.84-6.5c-.87.08-1.73.27-2.55.57l-.6.2 4.37 4.37c.46-.9.71-1.88.73-2.88 0-.28-.03-.55-.09-.82l-1.38-1.39a2.36 2.36 0 0 0-.48-.05Zm-4.74-.81c.3-.32.64-.6 1.03-.82 1.23-.71 1.92-.55 2.1.25l.37-.31-3.85-3.86v1.9c-.48.34-.93.72-1.35 1.13l1.7 1.71Zm3.36-4.78c-.31.08-.62.2-.93.32v-1.25l-.51-.51-1.23.72-.22.12 3.82 3.83 1.24-1.06-2.17-2.17Zm-5.85 10.7-1.64-1.64c.03.23.08.45.17.66a1.55 1.55 0 0 0 1.47.98Z" fill="#fff"/>
  <path d="m61.48 14.5-1.74-1v-2.06l1.74 1v2.07Z" fill="#FBD40B"/>
  <path opacity=".35" d="m61.48 14.5-1.74-1v-2.06l1.74 1v2.07Z" fill="#000"/>
  <path d="m64.47 27.06.27-.22.31-.25.39-.34.43-.42.24-.24.23-.25.24-.28.23-.28c.07-.1.3-.4.43-.6l.4-.64c.1-.22.22-.44.31-.66.1-.2.18-.4.25-.62l.09-.3.04-.15v-.14a4.44 4.44 0 0 0 .14-.9v-.35.75c0 .15-.05.32-.08.5v.15l-.04.14-.09.32c-.07.2-.14.41-.24.63-.1.23-.2.45-.31.66-.13.21-.25.43-.4.65-.14.21-.3.4-.44.6-.15.2-.15.2-.24.29l-.23.27-.24.25-.24.23c-.15.16-.31.29-.45.42s-.28.23-.4.33l-.31.24-.29.21Z" fill="#fff"/>
  <path d="m61.48 12.44 2.8-1.6v2.05l-.2-1.73-2.6 1.28Zm.23 16.22.15 1.8 2.61-1.34-2.76 1.6v-2.06Z" fill="#FAFAFA"/>
  <path d="m72.25 6.96.23-3.07.24 3.07 3.06.24-3.06.23-.24 3.07-.23-3.07-3.07-.23 3.07-.24Zm-3.03-2.24.12-1.5.11 1.5 1.5.11-1.5.12-.11 1.48-.12-1.48-1.48-.12 1.48-.11Z" fill="#fff"/>
</svg>
