<svg width="369" height="355" fill="none" xmlns="http://www.w3.org/2000/svg">
  <path d="M186.62 354.32c100.66 0 182.25-47.1 182.25-105.22 0-58.11-81.6-105.22-182.25-105.22S4.38 190.98 4.38 249.1c0 58.11 81.6 105.22 182.24 105.22Z" fill="#F5F5F5"/>
  <path d="m175.21 335.5 165.95-95.8c1.96-1.13 1.96-2.97 0-4.1l-135.99-78.52a7.84 7.84 0 0 0-7.1 0L32.14 252.93c-1.96 1.13-1.96 2.96 0 4.1l136 78.52a7.84 7.84 0 0 0 7.08-.04Z" fill="#E0E0E0"/>
  <path d="M43.88 224.64c-.55-6.82-3.67-18.02-11.6-28.67-8.5-11.42-18.85-18.56-26.53-15.22-7.16 3.12-4.45 13 7.88 22.74 8.64 6.85 17.61 15.75 22.43 26.5l7.82 13.66v-19.01Z" fill="#3B9C19"/>
  <path d="M43.88 224.64c-.55-6.82-3.67-18.02-11.6-28.67-8.5-11.42-18.85-18.56-26.53-15.22-7.16 3.12-4.45 13 7.88 22.74 8.64 6.85 17.61 15.75 22.43 26.5l7.82 13.66v-19.01Z" fill="#000" opacity=".2"/>
  <path d="M43.2 229.84a.48.48 0 0 1-.47-.32C35.9 210.6 21.56 191.46 9.46 185a.49.49 0 0 1-.2-.66.5.5 0 0 1 .66-.2c12.28 6.55 26.78 25.93 33.72 45.05a.48.48 0 0 1-.28.63.42.42 0 0 1-.17.02Z" fill="#fff"/>
  <path d="M46.87 257.16a28.84 28.84 0 0 1-13.69 5.87c-8.62 1.36-12.43-2.76-12.43-2.76s3.4-8.1 8.3-10.37c0 0-8.31 1.7-14.97 6.15 0 0-5.27.08-7.38-7.97 0 0 3.13-4.83 13.6-7.44 0 0-6.38-1.64-15.57.74-.69.27-3.62-10.12-4.51-14.91-.9-4.8 1.04-4.76 4.77-5.74 3.74-.98 16.47-1.64 18.84.43 2.38 2.06 3.54 9.08 3.54 9.08.42-2.8.5-5.65.23-8.47 3.18-.16 6.36.22 9.42 1.13 4.2 1.47 3.93 3.52 3.93 6.56a32.4 32.4 0 0 1-1.26 9.1s2.9-2.52 3-11.77c0 0 5.68 4.86 7.96 9.02 2.28 4.15 1.7 15.13-3.78 21.35Z" fill="#3B9C19"/>
  <path d="M46.87 257.65a.57.57 0 0 1-.44-.27c-9.93-14.3-32.84-31.27-42.1-33.07a.5.5 0 0 1-.39-.57.5.5 0 0 1 .57-.39c9.42 1.84 33 18.49 42.8 33.6a.46.46 0 0 1-.07.53.45.45 0 0 1-.16.1.46.46 0 0 1-.2.07Z" fill="#fff"/>
  <path d="m317.05 217.95-7.13-4.1s-3.43-18.84-.86-35.08c3.6-22.8 19.11-30.66 24.75-28.39 5.63 2.27 6.96 9.02-3.22 22.19-6 7.8-13.7 24.22-13.54 45.38Z" fill="#3B9C19"/>
  <path d="m317.05 217.95-7.13-4.1s-3.43-18.84-.86-35.08c3.6-22.8 19.11-30.66 24.75-28.39 5.63 2.27 6.96 9.02-3.22 22.19-6 7.8-13.7 24.22-13.54 45.38Z" fill="#000" opacity=".2"/>
  <path d="M314.46 208.9h.08a.51.51 0 0 0 .43-.58c-2.95-21.34 5.63-44.72 15.27-54.14a.51.51 0 0 0-.35-.88.51.51 0 0 0-.36.15c-9.83 9.6-18.56 33.35-15.56 55a.5.5 0 0 0 .5.44Z" fill="#fff"/>
  <path d="M336.86 229.38c1.12.65 3.44-.76 4.33-1.36a10.77 10.77 0 0 0 3.58-4.1c.92-1.87 1.24-3.98.9-6.05a24.56 24.56 0 0 0-.77-3.22l-.9-3.13c-.37-1-.52-2.08-.45-3.14.27-2.14 2.17-3.64 3.89-4.92 1.9-1.42 3.9-3.28 3.88-5.89a8.9 8.9 0 0 0-2.27-5.38c-1.23-1.57-2.68-2.94-3.8-4.58a6.32 6.32 0 0 1-1.3-4c.13-.89.43-1.74.88-2.5.9-1.64 2.11-3.22 2.73-5.01.63-1.8.54-4.04-.87-5.33-1.15-1.06-2.86-1.2-4.42-1.1-1.45.18-2.85.68-4.1 1.45-4.1 2.27-6.41 7.1-10.75 8.85-1.64.68-3.5.82-5.25 1.29-1.73.47-3.52 1.35-4.33 2.97-1.59 3.18 1.37 7.1.25 10.47-1 2.98-3.9 4.1-5.52 6.81a6.38 6.38 0 0 0-.77 3.91c.14 2.29.7 4.53 1.64 6.61a47.57 47.57 0 0 0 3.63 5.95l19.79 11.4Z" fill="#3B9C19"/>
  <path d="M325.27 223.21a.5.5 0 0 0 .36-.16.52.52 0 0 0 .14-.37c-.82-20.2 8.68-42.5 15.57-48.97a.51.51 0 1 0-.7-.75c-7.06 6.61-16.77 29.28-15.93 49.76a.52.52 0 0 0 .56.5Z" fill="#fff"/>
  <path d="M328.3 199.35h.14a67.89 67.89 0 0 1 14.66-2.4.52.52 0 0 0 .48-.53.47.47 0 0 0-.33-.46.49.49 0 0 0-.2-.02 69.01 69.01 0 0 0-14.91 2.41.5.5 0 0 0-.34.63.5.5 0 0 0 .5.37Z" fill="#fff"/>
  <path d="M45.96 254.46a8.96 8.96 0 0 0 4.18 6.94l117.15 67.62a9.23 9.23 0 0 0 8.37 0l160.22-92.53a7.85 7.85 0 0 0 0-13.88L218.73 155a9.26 9.26 0 0 0-8.36 0L50.14 247.5a8.96 8.96 0 0 0-4.18 6.95Z" fill="#37474F"/>
  <path d="M171.44 320.97v9.01a8.45 8.45 0 0 1-4.17-1L50.12 261.36a7.83 7.83 0 0 1-.4-13.61c-1.88 1.34-1.73 3.28.42 4.56l117.15 67.62c1.27.7 2.7 1.05 4.15 1.04Z" fill="#263238"/>
  <path d="M42.04 247.67a9 9 0 0 1-3.93-7.1V100.8a9.27 9.27 0 0 1 4.18-7.24L202.55 1.04a9.01 9.01 0 0 1 8.1-.15 9 9 0 0 1 3.93 7.1v139.76a9.24 9.24 0 0 1-4.18 7.24L50.14 247.5a9.02 9.02 0 0 1-8.1.16Z" fill="#455A64"/>
  <path d="M49.65 247.75a9.01 9.01 0 0 1-7.61-.1 8.96 8.96 0 0 1-3.92-7.1V100.8a8.42 8.42 0 0 1 1.22-4.1l7.84 4.52a8.6 8.6 0 0 0-1.23 4.1V245.1c0 2.48 1.62 3.58 3.7 2.65Z" fill="#263238"/>
  <path d="M45.96 105.33V245.1c0 2.67 1.87 3.75 4.18 2.41L210.38 155a9.25 9.25 0 0 0 4.18-7.24V7.98c0-2.67-1.88-3.74-4.18-2.41L50.14 98.09a9.23 9.23 0 0 0-4.18 7.24Z" fill="#37474F"/>
  <path d="m50.14 252.34 117.15 67.62a9.3 9.3 0 0 0 8.37 0l160.22-92.52c2.3-1.34 2.3-3.5 0-4.82l-117.15-67.63a9.26 9.26 0 0 0-8.36 0L50.14 247.5c-2.31 1.34-2.31 3.52 0 4.84Z" fill="#455A64"/>
  <path d="M52.38 105.85 206.9 16.67c1.39-.82 2.5-.16 2.5 1.45v121a5.56 5.56 0 0 1-2.5 4.33L52.4 232.63c-1.39.82-2.51.15-2.51-1.45V110.2a5.54 5.54 0 0 1 2.5-4.34Z" fill="#FBD40B"/>
  <path opacity=".9" d="M52.38 105.85 206.9 16.67c1.39-.82 2.5-.16 2.5 1.45v121a5.56 5.56 0 0 1-2.5 4.33L52.4 232.63c-1.39.82-2.51.15-2.51-1.45V110.2a5.54 5.54 0 0 1 2.5-4.34Z" fill="#fff"/>
  <path d="m63.74 248.72 148.75-85.88a4.59 4.59 0 0 1 4.17 0l7.62 4.4c1.15.66 1.15 1.74 0 2.4L75.5 255.52a4.65 4.65 0 0 1-4.18 0l-7.58-4.39c-1.16-.66-1.16-1.74 0-2.4Z" fill="#37474F"/>
  <path d="M83.34 260.04 231 174.84a4.63 4.63 0 0 1 4.17 0l46.8 27.03c1.15.67 1.15 1.75 0 2.46l-147.46 85.1a4.65 4.65 0 0 1-4.19 0l-46.96-26.91c-1.16-.74-1.16-1.81 0-2.48Z" fill="#263238"/>
  <path d="m216.68 212.8 4.66-2.69c.2-.11.18-.3 0-.43l-5.38-3.1a.82.82 0 0 0-.75 0l-4.68 2.66c-.2.12-.19.3 0 .43l5.38 3.11a.81.81 0 0 0 .77.02Zm-9.19-10.65-4.65 2.69c-.2.11-.2.3 0 .42l5.38 3.12a.82.82 0 0 0 .75 0l4.66-2.7c.2-.11.18-.3 0-.42l-5.39-3.12a.82.82 0 0 0-.75-.02v.03Zm-15.04 8.69-7.89 4.54c-.2.12-.18.31 0 .44l5.38 3.1a.83.83 0 0 0 .75 0l7.88-4.55c.2-.11.19-.3 0-.43l-5.4-3.12a.8.8 0 0 0-.72-.02v.03Zm8.23-4.77-4.65 2.7c-.2.1-.19.3 0 .43l5.38 3.1a.82.82 0 0 0 .75 0l4.66-2.69c.2-.11.18-.3 0-.42l-5.38-3.12a.8.8 0 0 0-.76-.03v.03Zm-18.27 10.55-4.65 2.69c-.2.11-.19.3 0 .43l5.38 3.1a.82.82 0 0 0 .75 0l4.65-2.68c.2-.12.19-.31 0-.44l-5.38-3.1a.83.83 0 0 0-.75 0Zm-6.8 3.93-4.66 2.69c-.2.11-.19.3 0 .42l5.38 3.12a.82.82 0 0 0 .75 0l4.65-2.7c.2-.11.2-.3 0-.42l-5.38-3.1a.81.81 0 0 0-.75-.03v.02Zm21.18 12.64 4.65-2.69c.2-.11.2-.3 0-.43l-5.38-3.1a.82.82 0 0 0-.74 0l-4.66 2.68c-.2.12-.19.31 0 .44l5.38 3.1a.83.83 0 0 0 .75-.02v.02Zm-6.8 3.9 4.65-2.68c.2-.11.19-.3 0-.43l-5.38-3.1a.82.82 0 0 0-.74 0l-4.66 2.68c-.2.12-.19.3 0 .43l5.39 3.1a.81.81 0 0 0 .73 0Zm-6.81 3.94 4.66-2.7c.2-.1.18-.3 0-.42l-5.39-3.11a.82.82 0 0 0-.74 0l-4.66 2.68c-.2.12-.18.3 0 .43l5.39 3.11a.8.8 0 0 0 .74.01Zm-6.81 3.93 4.66-2.7c.2-.1.18-.3 0-.42l-5.4-3.11a.82.82 0 0 0-.74 0l-4.65 2.67c-.2.11-.19.31 0 .43l5.39 3.1a.81.81 0 0 0 .74.03Zm33.5-28.24 4.66-2.68c.2-.12.19-.3 0-.43l-5.38-3.11a.82.82 0 0 0-.74 0l-4.66 2.7c-.2.1-.2.3 0 .42l5.39 3.11a.81.81 0 0 0 .73 0Zm-6.27 12.52 10.39-6c.2-.12.19-.3 0-.43l-13.11-7.55a.82.82 0 0 0-.74 0l-5.37 3.1c-.2.12-.2.3 0 .43l6.92 4c.21.12.22.32 0 .43l-4.3 2.46c-.2.11-.18.3 0 .42l5.39 3.11a.82.82 0 0 0 .82.03Zm-34.8-4.79-4.66 2.7c-.2.11-.18.3 0 .42l5.39 3.12a.82.82 0 0 0 .74 0l4.66-2.7c.2-.1.18-.3 0-.42l-5.38-3.11a.8.8 0 0 0-.75-.01Zm-6.81 3.93-4.65 2.69c-.2.11-.2.31 0 .43l5.38 3.1a.82.82 0 0 0 .74 0l4.67-2.68c.2-.11.18-.31 0-.42l-5.39-3.12a.8.8 0 0 0-.75 0Zm-34.02 44.07a.82.82 0 0 0 .75 0l4.66-2.69c.2-.11.18-.3 0-.42l-5.38-3.12a.82.82 0 0 0-.75 0l-4.65 2.69c-.2.11-.19.31 0 .43l5.38 3.1Zm-20.44-12.63-4.65 2.68c-.2.11-.19.3 0 .42l5.38 3.12a.82.82 0 0 0 .75 0l4.65-2.7c.2-.1.2-.3 0-.43l-5.38-3.1a.82.82 0 0 0-.75.01Zm10.97 9.23a.81.81 0 0 0 .73 0l4.66-2.69c.2-.11.19-.3 0-.42l-5.38-3.12a.82.82 0 0 0-.74 0l-4.66 2.7c-.2.11-.18.3 0 .42l5.39 3.1Zm21.5 5.8 4.66-2.69c.2-.11.18-.3 0-.43l-5.4-3.1a.82.82 0 0 0-.73 0l-4.66 2.68c-.2.12-.2.31 0 .44l5.39 3.1a.82.82 0 0 0 .73 0Zm-7.55 3.91a.82.82 0 0 0 .74 0l4.66-2.69c.2-.11.19-.3 0-.43l-5.4-3.1a.82.82 0 0 0-.73 0l-4.66 2.69c-.2.11-.2.3 0 .42l5.39 3.12Zm-18.1-22.86-4.66 2.69c-.2.11-.19.3 0 .43l5.38 3.1a.82.82 0 0 0 .75 0l4.65-2.68c.2-.12.19-.3 0-.43l-5.38-3.1a.8.8 0 0 0-.75-.02v.01Zm34.03-19.66-4.66 2.69c-.2.11-.19.3 0 .42l5.4 3.12a.82.82 0 0 0 .73 0l4.66-2.7c.2-.12.19-.3 0-.43l-5.39-3.1a.82.82 0 0 0-.74.04v-.04Zm-27.23 15.71-4.66 2.7c-.2.11-.18.3 0 .42l5.38 3.12a.82.82 0 0 0 .75 0l4.65-2.7c.2-.1.19-.3 0-.42l-5.38-3.11a.82.82 0 0 0-.74 0Zm34.03-19.66-4.65 2.69c-.2.11-.19.3 0 .42l5.39 3.12a.83.83 0 0 0 .74 0l4.66-2.7c.2-.1.18-.3 0-.42l-5.4-3.11a.82.82 0 0 0-.74.03v-.03Zm-13.61 7.88-4.66 2.66c-.2.12-.19.31 0 .44l5.4 3.1a.82.82 0 0 0 .74 0l4.65-2.68c.2-.12.2-.3 0-.43l-5.39-3.11a.83.83 0 0 0-.74.02Zm-6.81 3.93-4.66 2.7c-.2.1-.18.3 0 .42l5.38 3.11a.82.82 0 0 0 .75 0l4.65-2.69c.2-.11.19-.3 0-.43l-5.38-3.1a.81.81 0 0 0-.73 0h-.01Zm-6.8 3.94-4.67 2.68c-.2.12-.18.3 0 .43l5.38 3.11a.82.82 0 0 0 .75 0l4.65-2.7c.2-.1.19-.3 0-.42l-5.38-3.1a.82.82 0 0 0-.73 0Zm34.78 4.78 4.66-2.7c.2-.1.2-.3 0-.42l-5.39-3.1a.82.82 0 0 0-.73 0l-4.66 2.68c-.2.12-.2.3 0 .43l5.39 3.11a.82.82 0 0 0 .74 0Zm59.8-59.4-4.65 2.72c-.2.11-.2.3 0 .43l5.38 3.1a.82.82 0 0 0 .74 0l4.66-2.68c.2-.12.19-.3 0-.43l-5.38-3.1a.81.81 0 0 0-.75-.03Zm-8.23 4.77-4.66 2.68c-.2.12-.19.3 0 .43l5.38 3.11a.82.82 0 0 0 .75 0l4.65-2.69c.2-.11.2-.3 0-.43l-5.38-3.1a.8.8 0 0 0-.75 0Zm15.04-8.7-4.66 2.7c-.2.11-.18.3 0 .43l5.39 3.1a.82.82 0 0 0 .74 0l4.66-2.68c.2-.11.18-.3 0-.42l-5.39-3.12a.82.82 0 0 0-.74 0Zm-35.22 36.34 4.66-2.69c.2-.11.18-.3 0-.43l-5.38-3.11a.83.83 0 0 0-.75 0l-4.65 2.7c-.2.11-.19.3 0 .42l5.38 3.12a.8.8 0 0 0 .72-.01h.02Zm42.78-40.24a.82.82 0 0 0-.74 0l-4.66 2.68c-.2.12-.18.3 0 .43l5.38 3.11a.82.82 0 0 0 .75 0l4.65-2.7c.2-.1.19-.3 0-.42l-5.38-3.1Zm-67.33 63.3 4.66-2.69c.2-.11.19-.31 0-.43l-5.4-3.1a.82.82 0 0 0-.73 0l-4.66 2.68c-.2.11-.19.31 0 .43l5.39 3.1a.82.82 0 0 0 .72 0h.02Zm83.48-48.2 4.65-2.68c.2-.12.19-.32 0-.44l-5.42-3.07a.82.82 0 0 0-.75 0l-4.66 2.69c-.2.11-.18.3 0 .43l5.38 3.1a.8.8 0 0 0 .78-.03h.02Zm-14.5-.5 4.65-2.7c.2-.12.19-.3 0-.43l-5.38-3.11a.82.82 0 0 0-.75 0l-4.65 2.69c-.2.11-.2.3 0 .42l5.38 3.12a.8.8 0 0 0 .73 0h.02Zm6.05-10.16a.82.82 0 0 0-.75 0l-4.66 2.68c-.2.12-.18.31 0 .43l5.39 3.11a.82.82 0 0 0 .74 0l4.65-2.69c.2-.1.2-.3 0-.43l-5.37-3.1Zm1.43-.82 13.11 7.54a.82.82 0 0 0 .75 0l4.65-2.69c.2-.11.19-.3 0-.42l-13.1-7.55a.82.82 0 0 0-.75 0l-4.7 2.67c-.2.12-.19.32.03.44h.01Zm-15.8 8.66-4.65 2.7c-.2.1-.18.3 0 .43l5.39 3.1a.82.82 0 0 0 .74 0l4.66-2.69c.2-.11.19-.3 0-.42l-5.39-3.12a.83.83 0 0 0-.76 0h.02ZM179 227.45l-4.66 2.69c-.2.11-.2.3 0 .42l5.39 3.12a.82.82 0 0 0 .73 0l4.66-2.7c.2-.1.19-.3 0-.43l-5.39-3.1a.8.8 0 0 0-.72 0Zm66.49-22.84a.83.83 0 0 0 .74 0l4.66-2.69c.2-.11.18-.31 0-.43l-5.39-3.1a.82.82 0 0 0-.74 0l-4.68 2.66c-.2.12-.19.3 0 .43l5.4 3.13Zm-59.69 18.9-4.65 2.7c-.2.1-.19.3 0 .43l5.4 3.1a.83.83 0 0 0 .73 0l4.66-2.69c.2-.1.18-.3 0-.42l-5.38-3.11a.83.83 0 0 0-.75 0Zm-51.02 45.01a.82.82 0 0 0 .75 0l4.65-2.69c.2-.12.19-.3 0-.43l-5.38-3.1a.82.82 0 0 0-.75 0l-4.67 2.65c-.2.12-.2.3 0 .43l5.4 3.14Zm-10.24-9.63-4.65 2.69c-.2.11-.19.3 0 .42l5.38 3.12a.82.82 0 0 0 .75 0l4.66-2.7c.2-.11.18-.3 0-.42l-5.38-3.12a.82.82 0 0 0-.76.01Zm17.8 5.74 4.65-2.7c.2-.1.19-.3 0-.43l-5.42-3.1a.82.82 0 0 0-.75 0l-4.66 2.69c-.2.11-.18.3 0 .42l5.38 3.12a.83.83 0 0 0 .8-.02v.02Zm6.8-3.94 4.66-2.68c.2-.12.19-.31 0-.43l-5.39-3.11a.82.82 0 0 0-.74 0l-4.66 2.68c-.2.12-.18.31 0 .44l5.38 3.1a.82.82 0 0 0 .75-.01v.01Zm6.81-3.93 4.66-2.69c.2-.11.18-.3 0-.42l-5.4-3.12a.82.82 0 0 0-.73 0l-4.72 2.67c-.2.11-.18.3 0 .42l5.38 3.1a.82.82 0 0 0 .81.04Zm-24.57-1.78-4.66 2.68c-.2.12-.19.3 0 .43l5.38 3.11a.82.82 0 0 0 .75 0l4.66-2.69c.2-.11.18-.3 0-.43l-5.38-3.1a.83.83 0 0 0-.78-.02l.03.01Zm6.8-3.94-4.65 2.69c-.2.11-.19.31 0 .43l5.38 3.1a.82.82 0 0 0 .75 0l4.65-2.68c.2-.11.19-.3 0-.42l-5.38-3.12a.81.81 0 0 0-.77-.01l.02.01Zm27.23-15.72-4.66 2.69c-.2.11-.19.31 0 .43l5.4 3.1a.83.83 0 0 0 .73 0l4.66-2.68c.2-.11.19-.3 0-.43l-5.39-3.1a.81.81 0 0 0-.76-.03l.02.02Zm-6.8 3.93-4.67 2.7c-.2.1-.18.3 0 .43l5.39 3.1a.82.82 0 0 0 .74 0l4.66-2.69c.2-.11.18-.3 0-.43l-5.4-3.1a.82.82 0 0 0-.75-.02l.03.01Zm13.59-7.88-4.66 2.68c-.2.12-.2.3 0 .43l5.39 3.11a.83.83 0 0 0 .73 0l4.66-2.7c.2-.1.2-.3 0-.42l-5.38-3.11a.83.83 0 0 0-.74 0Zm-27.23 15.72-4.66 2.7c-.2.11-.19.3 0 .43l5.38 3.1a.82.82 0 0 0 .75 0l4.65-2.68c.2-.11.2-.3 0-.42l-5.38-3.12a.83.83 0 0 0-.74 0Zm6.8-3.92-4.66 2.69c-.2.11-.18.3 0 .42l5.38 3.12a.82.82 0 0 0 .75 0l4.65-2.7c.2-.1.2-.3 0-.42l-5.38-3.11a.81.81 0 0 0-.74 0Zm-4.97 27.74 4.66-2.69c.2-.11.18-.3 0-.42l-5.39-3.12a.82.82 0 0 0-.73 0l-4.67 2.69c-.2.12-.18.31 0 .43l5.4 3.1a.81.81 0 0 0 .73 0Zm-39.95-4.03-5.38-3.12a.82.82 0 0 0-.74 0l-4.66 2.7c-.2.1-.18.3 0 .42l5.39 3.11a.82.82 0 0 0 .74 0l4.66-2.7c.22-.1.2-.29 0-.41Zm10.21 2.99-5.39-3.1a.81.81 0 0 0-.73 0l-7.17 4.13c-.2.12-.2.3 0 .43l5.39 3.11a.82.82 0 0 0 .73 0l7.17-4.14c.22-.11.22-.3 0-.43Zm-18.46-9.01-5.37-3.1a.83.83 0 0 0-.74 0l-5.73 3.28c-.2.11-.19.3 0 .42l5.39 3.12a.81.81 0 0 0 .74 0l5.73-3.28c.2-.12.2-.31-.02-.44Zm4.39-2.54a.82.82 0 0 0 .74 0l4.66-2.69c.2-.11.19-.3 0-.43l-5.39-3.1a.82.82 0 0 0-.74 0l-4.65 2.69c-.2.11-.2.3 0 .42l5.38 3.1Zm23.55 14.95-5.38-3.1a.82.82 0 0 0-.75 0l-8.95 5.16c-.2.12-.19.31 0 .44l5.39 3.1a.82.82 0 0 0 .74 0l8.96-5.17c.22-.1.2-.3 0-.42v-.01Zm4.47 6.3-5.39-3.1a.83.83 0 0 0-.73 0l-5.74 3.27c-.2.12-.19.31 0 .44l5.4 3.1a.81.81 0 0 0 .73 0l5.73-3.28c.23-.1.22-.3 0-.42Zm22.6-50.47a.82.82 0 0 0 .74 0l4.65-2.7c.2-.1.19-.3 0-.42l-5.38-3.11a.82.82 0 0 0-.75 0l-4.66 2.69c-.2.11-.18.3 0 .42l5.4 3.12Zm-13.63 7.86a.82.82 0 0 0 .75 0l4.65-2.69c.2-.11.2-.3 0-.43l-5.38-3.1a.82.82 0 0 0-.74 0l-4.66 2.68c-.2.12-.19.31 0 .44l5.39 3.1Zm-30.18 17.43a.82.82 0 0 0 .74 0l4.65-2.7c.2-.1.2-.3 0-.42l-5.38-3.11a.82.82 0 0 0-.74 0l-4.66 2.69c-.2.11-.18.3 0 .42l5.39 3.12Zm37-21.39a.82.82 0 0 0 .74 0l4.65-2.68c.2-.12.19-.3 0-.43l-5.38-3.11a.82.82 0 0 0-.75 0l-4.65 2.7c-.2.1-.19.3 0 .42l5.38 3.1Zm-13.62 7.87a.82.82 0 0 0 .74 0l4.66-2.69c.2-.11.18-.31 0-.43l-5.38-3.1a.82.82 0 0 0-.74 0l-4.66 2.68c-.2.11-.19.3 0 .42l5.38 3.12Zm1.58 39.19a.82.82 0 0 0-.75 0l-7.19 4.15c-.2.12-.18.3 0 .43l5.4 3.1a.82.82 0 0 0 .74 0l7.16-4.1c.2-.1.19-.3 0-.42l-5.36-3.16Zm-11.35-33.59a.82.82 0 0 0 .75 0l4.65-2.69c.2-.11.19-.3 0-.42l-5.38-3.12a.82.82 0 0 0-.75 0l-4.66 2.7c-.2.1-.18.3 0 .43l5.4 3.1Zm-6.8 3.93a.82.82 0 0 0 .74 0l4.65-2.68c.2-.12.2-.31 0-.44l-5.38-3.1a.84.84 0 0 0-.75 0l-4.68 2.75c-.2.11-.18.31 0 .43l5.41 3.04Zm144.25-43.12a.82.82 0 0 0-.74 0l-11.47 6.62c-.2.11-.19.31 0 .43l5.39 3.1a.82.82 0 0 0 .74 0l11.47-6.61c.2-.12.18-.3 0-.43l-5.39-3.11Zm-15.05 8.68a.82.82 0 0 0-.73 0l-4.67 2.69c-.2.11-.18.3 0 .43l5.4 3.1a.82.82 0 0 0 .73 0l4.66-2.69c.2-.11.2-.3 0-.42l-5.39-3.1ZM153.61 267l4.66-2.7c.2-.12.18-.3 0-.43l-5.38-3.1a.82.82 0 0 0-.75 0l-4.65 2.68c-.2.11-.19.3 0 .42l5.39 3.12a.82.82 0 0 0 .73 0Zm78.6-43.16a.82.82 0 0 0-.75 0l-4.7 2.67c-.19.11-.17.31 0 .43l5.39 3.1a.83.83 0 0 0 .74 0l4.66-2.68c.2-.11.19-.31 0-.43l-5.34-3.1Zm35.46-20.48a.82.82 0 0 0-.75 0l-4.65 2.7c-.2.1-.19.3 0 .42l5.38 3.11a.82.82 0 0 0 .75 0l4.66-2.69c.2-.11.18-.3 0-.42l-5.39-3.12Zm12.2-.82-13.12-7.56a.82.82 0 0 0-.74 0l-4.66 2.7c-.2.1-.18.3 0 .42l13.11 7.55a.82.82 0 0 0 .75 0l4.65-2.7c.23-.1.21-.25 0-.41Zm-73.1 35.99a.82.82 0 0 0-.75 0l-5.73 3.27c-.2.12-.19.3 0 .43l5.39 3.11a.83.83 0 0 0 .74 0l5.73-3.27c.2-.11.19-.3 0-.43l-5.38-3.11Zm17.2-9.93a.82.82 0 0 0-.74 0l-7.17 4.13c-.2.12-.18.3 0 .43l5.38 3.11a.82.82 0 0 0 .75 0l7.16-4.1c.2-.1.19-.3 0-.43l-5.38-3.14Zm-32.96 19.02a.82.82 0 0 0-.74 0l-38.34 22.12c-.2.11-.18.31 0 .43l5.38 3.1a.82.82 0 0 0 .75 0l38.33-22.11c.2-.12.19-.3 0-.43l-5.38-3.11ZM150.53 271a.82.82 0 0 0-.75 0l-5.73 3.28c-.2.11-.18.3 0 .42l5.38 3.12a.82.82 0 0 0 .75 0l5.73-3.28c.2-.11.19-.3 0-.43l-5.38-3.1Zm48.33-27.93a.82.82 0 0 0-.73 0l-5.74 3.28c-.2.12-.19.31 0 .43l5.4 3.1a.82.82 0 0 0 .73 0l5.73-3.27c.2-.11.2-.3 0-.42l-5.39-3.12Zm-56.24 32.48a.82.82 0 0 0-.74 0l-5.74 3.27c-.2.12-.18.32 0 .43l5.4 3.11a.82.82 0 0 0 .74 0l5.73-3.27c.2-.12.2-.3 0-.43l-5.39-3.11Zm72.01-41.58a.82.82 0 0 0-.74 0l-5.74 3.28c-.2.11-.18.31 0 .43l5.4 3.1a.82.82 0 0 0 .74 0l5.73-3.27c.2-.11.2-.3 0-.43l-5.39-3.1Zm24.38-14.06a.83.83 0 0 0-.74 0l-4.66 2.7c-.2.1-.18.3 0 .42l5.39 3.1a.82.82 0 0 0 .74 0l4.66-2.69c.2-.11.19-.3 0-.42l-5.4-3.11Zm14.91-10.84 4.66-2.68c.2-.12.19-.31 0-.44l-5.38-3.1a.82.82 0 0 0-.75 0l-4.65 2.69c-.2.11-.2.3 0 .43l5.38 3.1a.82.82 0 0 0 .74 0Zm-30.43-.2 4.66-2.68c.2-.11.18-.31 0-.43l-5.38-3.1a.82.82 0 0 0-.75 0l-4.65 2.68c-.2.11-.19.31 0 .43l5.38 3.1a.83.83 0 0 0 .74 0Zm-15.43 26.68 13.62-7.86c.2-.12.19-.3 0-.43l-5.38-3.11a.82.82 0 0 0-.75 0L201.94 232c-.2.11-.2.3 0 .42l5.39 3.12a.83.83 0 0 0 .73 0Zm38.31-22.56a.82.82 0 0 0 .75 0l4.66-2.7c.2-.1.18-.3 0-.42l-5.42-3.07a.82.82 0 0 0-.74 0l-4.66 2.69c-.2.1-.19.3 0 .42l5.41 3.08Zm-6.95-4.42 4.67-2.7c.2-.11.17-.3 0-.42l-5.39-3.12a.82.82 0 0 0-.74 0l-4.66 2.7c-.2.11-.18.3 0 .42l5.39 3.12a.82.82 0 0 0 .73 0Zm-38.16 30.91 4.66-2.69c.2-.12.19-.3 0-.43l-5.4-3.1a.81.81 0 0 0-.73 0l-4.66 2.69c-.2.11-.2.3 0 .42l5.39 3.11a.82.82 0 0 0 .74 0Zm30.07-17.8a.81.81 0 0 0 .74 0l4.66-2.7c.2-.1.19-.3 0-.42l-5.4-3.11a.82.82 0 0 0-.73 0l-4.65 2.69c-.2.11-.2.3 0 .43l5.38 3.1Zm-64.1 37.45 4.65-2.69c.2-.11.18-.3 0-.43l-5.38-3.1a.82.82 0 0 0-.75 0l-4.65 2.68c-.2.12-.2.31 0 .43l5.38 3.11a.82.82 0 0 0 .75 0Zm6.8-3.93 4.66-2.69c.2-.11.18-.3 0-.43l-5.39-3.1a.82.82 0 0 0-.74 0l-4.66 2.69c-.2.11-.18.3 0 .42l5.39 3.1a.82.82 0 0 0 .74 0Zm-13.62 7.86 4.66-2.68c.2-.12.18-.32 0-.44l-5.38-3.1a.82.82 0 0 0-.75 0l-4.65 2.68c-.2.12-.19.3 0 .43l5.38 3.11a.83.83 0 0 0 .74 0Zm27.23-15.72 4.65-2.69c.2-.11.2-.3 0-.43l-5.38-3.1a.82.82 0 0 0-.75 0l-4.66 2.68c-.2.12-.18.31 0 .43l5.39 3.11a.83.83 0 0 0 .76 0h-.01Zm-6.8 3.93 4.65-2.7c.2-.1.18-.3 0-.42l-5.42-3.1a.82.82 0 0 0-.75 0l-4.64 2.7c-.2.12-.18.31 0 .44l5.38 3.1a.8.8 0 0 0 .78-.02Zm13.6-7.86 4.66-2.69c.2-.11.19-.3 0-.42l-5.39-3.12a.81.81 0 0 0-.74 0l-4.7 2.67c-.2.12-.19.31 0 .44l5.38 3.1a.8.8 0 0 0 .8.02Zm31.14-58.17a.82.82 0 0 0 .74 0l4.66-2.68c.2-.12.19-.3 0-.43l-1.44-.82a.82.82 0 0 0-.74 0l-4.66 2.69c-.2.11-.18.3 0 .42l1.44.82Zm-33.5 21.62a.82.82 0 0 0 .75 0l4.66-2.7c.2-.1.19-.3 0-.42l-5.4-3.11a.82.82 0 0 0-.73 0l-4.66 2.69c-.2.11-.2.3 0 .43l5.39 3.1ZM205.7 199a.83.83 0 0 0 .74 0l4.66-2.69c.2-.11.18-.31 0-.43l-5.38-3.1a.82.82 0 0 0-.75 0l-4.65 2.68c-.2.11-.19.3 0 .43l5.38 3.1Zm-21.9 12.7a.82.82 0 0 0 .75 0l4.65-2.68c.2-.12.19-.31 0-.44l-5.38-3.1a.82.82 0 0 0-.75 0l-4.65 2.68c-.2.12-.2.31 0 .44l5.38 3.1Zm15.12-8.75a.82.82 0 0 0 .74 0l4.66-2.7c.2-.1.19-.3 0-.42l-5.39-3.11a.83.83 0 0 0-.74 0l-4.68 2.7c-.2.1-.2.3 0 .42l5.41 3.11Zm-28.74 16.6a.82.82 0 0 0 .75 0l4.66-2.7c.2-.1.18-.3 0-.42l-5.38-3.11a.82.82 0 0 0-.75 0l-4.65 2.7c-.2.1-.19.3 0 .42l5.37 3.1Zm6.81-3.94a.82.82 0 0 0 .75 0l4.65-2.7c.2-.1.19-.3 0-.42l-5.38-3.1a.82.82 0 0 0-.75 0l-4.65 2.68c-.2.12-.19.3 0 .43l5.38 3.11Zm35.04-22.49a.82.82 0 0 0 .75 0l4.65-2.68c.2-.12.19-.32 0-.44l-1.43-.82a.82.82 0 0 0-.75 0l-4.65 2.7c-.2.11-.2.3 0 .42l1.43.82Zm20.42-11.79a.82.82 0 0 0 .75 0l4.65-2.7c.2-.1.2-.3 0-.42l-1.43-.82a.82.82 0 0 0-.75 0l-4.65 2.7c-.2.1-.19.3 0 .42l1.43.82Zm11.32 6.56a.82.82 0 0 0 .74 0l4.66-2.69c.2-.11.19-.31 0-.43l-5.4-3.1a.82.82 0 0 0-.73 0l-4.66 2.68c-.2.11-.2.31 0 .43l5.39 3.1Zm16.97 17.26 4.65-2.69c.21-.11.2-.3 0-.42l-5.38-3.12a.82.82 0 0 0-.74 0l-4.64 2.66c-.2.11-.19.3 0 .43l5.38 3.1a.81.81 0 0 0 .73.04ZM218.8 189.2a.82.82 0 0 0 .74 0l4.66-2.69c.2-.12.18-.31 0-.43l-1.44-.82a.82.82 0 0 0-.74 0l-4.68 2.67c-.2.12-.19.3 0 .43l1.46.84Zm-55.42 34.27a.82.82 0 0 0 .74 0l4.66-2.68c.2-.12.18-.3 0-.43l-5.38-3.11a.84.84 0 0 0-.74 0l-4.7 2.64c-.2.11-.19.3 0 .43l5.42 3.15Z" fill="#455A64"/>
  <path d="m193.56 264.33 45.95-26.53a5.53 5.53 0 0 1 5.03 0l26.35 15.2c1.38.83 1.38 2.1 0 2.9l-45.97 26.54a5.57 5.57 0 0 1-5.01 0l-26.35-15.22c-1.39-.8-1.39-2.1 0-2.89Z" fill="#263238"/>
  <path d="m167.95 123.38 7.2-12.55-26.94-15.65c-4.51-2.58-10.74-2.2-17.61 1.78-13.88 7.93-25.08 27.3-25.08 43.23 0 7.98 2.8 13.59 7.37 16.18l27.17 15.77 7.37-12.9c10.56-8.16 18.88-22.65 20.52-35.86Z" fill="#455A64"/>
  <path d="M157.63 112.67c-13.8 7.97-24.98 27.33-24.98 43.27 0 15.93 11.19 22.38 24.98 14.42 13.8-7.97 24.98-27.34 24.98-43.27 0-15.92-11.18-22.39-24.98-14.42Z" fill="#263238"/>
  <path d="m183.01 131.42 6.8-11.9-13.45-7.76c-4.28-2.46-10.18-2.1-16.7 1.68-13.1 7.54-23.66 25.9-23.66 40.96 0 7.56 2.66 12.87 6.95 15.33l13.67 7.9 6.98-12.23c9.97-7.68 17.86-21.45 19.41-33.98Z" fill="#F5F5F5"/>
  <path d="M136.7 147.12c-.49 2.4-.74 4.86-.75 7.31 0 7.56 2.66 12.87 6.95 15.34l13.67 7.89 6.98-12.23c.68-.51 1.35-1.07 2.01-1.64l-28.86-16.67Z" fill="#EBEBEB"/>
  <path d="M173.23 121.3c-13.1 7.55-23.67 25.9-23.67 41 0 15.1 10.6 21.2 23.67 13.66 13.07-7.55 23.68-25.9 23.68-40.96 0-15.06-10.6-21.25-23.68-13.7Z" fill="#E0E0E0"/>
  <path d="M289.52 215.46c-2.88 2.13-9.27.44-9.67.34.3.13 5.29 2.46 6.55 7.44.46 1.87-1 4.1-2.34 5-4.42 3.03-10.94-.1-14.47-2.01a13.35 13.35 0 0 1 3.2 4.91c.64 2.12.26 4.44-1.4 5.53-3.6 2.35-8.54 2.54-24.54-7.06a6.15 6.15 0 0 1 1.1 3.14 3.19 3.19 0 0 1-.82 2.15 5.3 5.3 0 0 1-2.2 1.36c-5.43 1.98-19.94-7.37-29.78-13.52-9.84-6.15-23.76-16.1-30.63-22.46-10.08-9.31-8.52-13.72-18.25-21.48a82.7 82.7 0 0 0-9.2-6.25c-.3-.13-3.83-2.33-6.83-4.2a29.43 29.43 0 0 1-.47-9.5c1.43-14.34 11.4-30.56 23.48-37.53a25.67 25.67 0 0 1 6.34-2.67l7.9 5a47.55 47.55 0 0 0 8.66 4.85c1.48.62 2.91 1.12 4.4 1.6 4.4 1.38 18.97 4.75 27.28 7.82 8.3 3.08 15.96 6.56 19.16 8.6 3.19 2.04 11.87 12.75 17.79 17.22 5.91 4.48 6.55 8.03 1.42 9.02-5.12.98-12.58.73-18.84-3.94-6.26-4.66-8.25-6.28-10.4-6.13-2.14.15 2.58 4.28 5.41 6.92a53.67 53.67 0 0 1 5.16 5.9 43.55 43.55 0 0 0 4.63 5.06c3.33 3.1 8.96 8.07 14.27 11.34 8.24 5.08 17.8 10.4 21.3 13.65 3.5 3.24 4.76 7.72 1.79 9.9Z" fill="#FFA8A7"/>
  <path d="M288.51 212.95c-2 1.15-4.76.73-9.28-.89-4.52-1.61-15.43-7.29-19.42-9.59-2.26-1.3-11.1-6.46-18.28-10.65a.43.43 0 1 0-.46.72c6.3 4.32 14.03 9.56 17.46 11.68 7.68 4.73 14.05 7.86 21.3 11.59 0 0 6.72 1.86 9.69-.33 1.92-1.42 2.05-3.78.97-6.16a4.45 4.45 0 0 1-1.98 3.63Zm-5.43 13.61c-3.67 1.04-9.83-2.12-12.29-3.38-2.46-1.26-19.5-10.41-22.36-12.12l-16.38-9.84a.86.86 0 0 0-.93 1.45c8.42 5.73 18.56 11.36 23.45 14.07 5.2 2.81 10.2 5.99 14.96 9.5 3.53 1.91 10.05 5.04 14.47 2.01 1.34-.9 2.8-3.13 2.34-5 .03-.01-.04 2.38-3.26 3.3Zm-11.73 10.1c1.5-.99 1.96-2.98 1.56-4.92a3.28 3.28 0 0 1-2.91 3.16c-2.9.45-5.5-.22-9.01-1.45-3.51-1.24-14.39-8.1-17.88-10.02-2.18-1.2-14.86-9.15-24.1-14.96-.56-.35-.66.43-.1.82 6.84 4.53 10.58 7.26 13.68 9.44 5.78 4.06 11.37 7.62 14.2 10.88 16.02 9.58 20.94 9.39 24.56 7.05Zm-23.41-3.93a3.18 3.18 0 0 1-.82 2.15 5.28 5.28 0 0 1-2.22 1.37c-5.42 1.97-19.93-7.38-29.77-13.53-9.84-6.15-23.75-16.09-30.63-22.45-10.07-9.32-8.52-13.73-18.25-21.48-2.92-2.3-6-4.38-9.2-6.25a289.1 289.1 0 0 1-6.82-4.22 28.84 28.84 0 0 1-.47-9.5c9.39 5.82 20.82 12.29 24.52 15.9l.37.36c4.77 4.76 6.55 9.65 9.83 17.32 3.4 7.87 17.02 16.2 30.64 25.8 13.61 9.6 22.86 14.98 27.24 16.25.68.2 1.38.31 2.1.32a3.28 3.28 0 0 0 3.44-2.3c.03.07.03.17.03.26Z" fill="#F28F8F"/>
  <path d="m181.6 119.95-2.03-1.28c-2.22.6-4.36 1.5-6.34 2.67-12.08 6.93-22.05 23.19-23.47 37.48a29.42 29.42 0 0 0 .47 9.5c3 1.89 6.55 4.1 6.82 4.22 1.16.7 2.22 1.36 3.22 2 .18-2.86.33-5.87.44-9.02 1.2-35.46 20.88-45.57 20.88-45.57Z" fill="#F28F8F"/>
  <path opacity=".5" d="M242.37 169.6c-2.84-2.64-7.54-6.76-5.4-6.92-4.8.24-10.14 5.99-23.43 7.06-13.3 1.07-25.64-4.86-25.64-4.86s11.92 6.88 13.62 17.7c1.01 6.43-.95 12.88 5.68 13.1 6.88.25 13.19-3.19 21.16-14.84 6.46-9.44 15.1-9.52 20.14-4.13-.25-.34-.62-.76-.97-1.2a53.66 53.66 0 0 0-5.16-5.9Z" fill="#F28F8F"/>
  <path d="M245.78 184.55c-3.45 6.45-18.65 22.64-33.64 25.78a33.17 33.17 0 0 0 21.3-7.86c10.24-8.51 12.34-17.92 12.34-17.92Z" fill="#F28F8F"/>
</svg>
