<svg width="16" height="16" viewBox="0 0 16 16" fill="none" xmlns="http://www.w3.org/2000/svg">
<path d="M8.86382 3.72209L9.74372 5.49644C9.86371 5.74343 10.1837 5.98035 10.4536 6.02572L12.0485 6.29288C13.0684 6.46426 13.3083 7.2103 12.5734 7.94625L11.3335 9.19636C11.1236 9.40807 11.0086 9.81637 11.0736 10.1087L11.4285 11.6562C11.7085 12.8812 11.0636 13.355 9.98869 12.7148L8.49386 11.8226C8.22389 11.6613 7.77894 11.6613 7.50397 11.8226L6.00913 12.7148C4.93925 13.355 4.28932 12.8761 4.56929 11.6562L4.92425 10.1087C4.98925 9.81637 4.87426 9.40807 4.66428 9.19636L3.42442 7.94625C2.6945 7.2103 2.92947 6.46426 3.94936 6.29288L5.54419 6.02572C5.80916 5.98035 6.12912 5.74343 6.24911 5.49644L7.12901 3.72209C7.60896 2.7593 8.38887 2.7593 8.86382 3.72209Z" stroke="black" stroke-width="1.5" stroke-linecap="round" stroke-linejoin="round"/>
</svg>
