<svg width="88" height="69" viewBox="0 0 88 69" fill="none" xmlns="http://www.w3.org/2000/svg">
<mask id="path-1-outside-1_860_933" maskUnits="userSpaceOnUse" x="0.437988" y="0.615723" width="88" height="68" fill="black">
<rect fill="white" x="0.437988" y="0.615723" width="88" height="68"/>
<path d="M78.3038 67.2732C79.2323 67.8927 80.4917 67.6428 81.0646 66.6849C84.6818 60.636 86.7639 53.7776 87.1126 46.7129C87.4947 38.9733 85.7822 31.2742 82.1565 24.4306C78.5308 17.587 73.1267 11.8537 66.5165 7.83755C59.9063 3.82143 52.3359 1.672 44.6068 1.61681C36.8776 1.56163 29.2775 3.60274 22.6109 7.52407C15.9443 11.4454 10.4593 17.101 6.73673 23.8921C3.01416 30.6832 1.19247 38.3571 1.46455 46.1013C1.71291 53.1704 3.69741 60.0579 7.22837 66.1578C7.78751 67.1238 9.04319 67.3915 9.98038 66.7854V66.7854C10.9145 66.1813 11.1784 64.9375 10.6256 63.9721C7.48321 58.4849 5.71707 52.3026 5.4942 45.959C5.24772 38.9433 6.89803 31.9913 10.2704 25.839C13.6428 19.6867 18.6118 14.5632 24.6513 11.0107C30.6908 7.45826 37.576 5.60915 44.578 5.65915C51.5801 5.70914 58.4383 7.65638 64.4267 11.2947C70.4152 14.933 75.3108 20.127 78.5955 26.3268C81.8801 32.5266 83.4315 39.5015 83.0854 46.513C82.7724 52.8528 80.9187 59.0092 77.6987 64.451C77.1322 65.4084 77.3783 66.6558 78.3038 67.2732V67.2732Z"/>
</mask>
<path d="M78.3038 67.2732C79.2323 67.8927 80.4917 67.6428 81.0646 66.6849C84.6818 60.636 86.7639 53.7776 87.1126 46.7129C87.4947 38.9733 85.7822 31.2742 82.1565 24.4306C78.5308 17.587 73.1267 11.8537 66.5165 7.83755C59.9063 3.82143 52.3359 1.672 44.6068 1.61681C36.8776 1.56163 29.2775 3.60274 22.6109 7.52407C15.9443 11.4454 10.4593 17.101 6.73673 23.8921C3.01416 30.6832 1.19247 38.3571 1.46455 46.1013C1.71291 53.1704 3.69741 60.0579 7.22837 66.1578C7.78751 67.1238 9.04319 67.3915 9.98038 66.7854V66.7854C10.9145 66.1813 11.1784 64.9375 10.6256 63.9721C7.48321 58.4849 5.71707 52.3026 5.4942 45.959C5.24772 38.9433 6.89803 31.9913 10.2704 25.839C13.6428 19.6867 18.6118 14.5632 24.6513 11.0107C30.6908 7.45826 37.576 5.60915 44.578 5.65915C51.5801 5.70914 58.4383 7.65638 64.4267 11.2947C70.4152 14.933 75.3108 20.127 78.5955 26.3268C81.8801 32.5266 83.4315 39.5015 83.0854 46.513C82.7724 52.8528 80.9187 59.0092 77.6987 64.451C77.1322 65.4084 77.3783 66.6558 78.3038 67.2732V67.2732Z" fill="url(#paint0_linear_860_933)"/>
<path d="M78.3038 67.2732C79.2323 67.8927 80.4917 67.6428 81.0646 66.6849C84.6818 60.636 86.7639 53.7776 87.1126 46.7129C87.4947 38.9733 85.7822 31.2742 82.1565 24.4306C78.5308 17.587 73.1267 11.8537 66.5165 7.83755C59.9063 3.82143 52.3359 1.672 44.6068 1.61681C36.8776 1.56163 29.2775 3.60274 22.6109 7.52407C15.9443 11.4454 10.4593 17.101 6.73673 23.8921C3.01416 30.6832 1.19247 38.3571 1.46455 46.1013C1.71291 53.1704 3.69741 60.0579 7.22837 66.1578C7.78751 67.1238 9.04319 67.3915 9.98038 66.7854V66.7854C10.9145 66.1813 11.1784 64.9375 10.6256 63.9721C7.48321 58.4849 5.71707 52.3026 5.4942 45.959C5.24772 38.9433 6.89803 31.9913 10.2704 25.839C13.6428 19.6867 18.6118 14.5632 24.6513 11.0107C30.6908 7.45826 37.576 5.60915 44.578 5.65915C51.5801 5.70914 58.4383 7.65638 64.4267 11.2947C70.4152 14.933 75.3108 20.127 78.5955 26.3268C81.8801 32.5266 83.4315 39.5015 83.0854 46.513C82.7724 52.8528 80.9187 59.0092 77.6987 64.451C77.1322 65.4084 77.3783 66.6558 78.3038 67.2732V67.2732Z" stroke="url(#paint1_linear_860_933)" stroke-width="1.57544" mask="url(#path-1-outside-1_860_933)"/>
<defs>
<linearGradient id="paint0_linear_860_933" x1="-16.6512" y1="41.4347" x2="281.847" y2="81.447" gradientUnits="userSpaceOnUse">
<stop/>
<stop offset="1" stop-color="white"/>
</linearGradient>
<linearGradient id="paint1_linear_860_933" x1="1.43799" y1="76.8183" x2="92.1029" y2="-9.19235" gradientUnits="userSpaceOnUse">
<stop stop-color="#C0C0C0"/>
<stop offset="1" stop-color="#525453"/>
</linearGradient>
</defs>
</svg>
