<svg width="18" height="18" viewBox="0 0 18 18" fill="none" xmlns="http://www.w3.org/2000/svg">
<path d="M12.1128 9.62249L10.8153 10.0575C10.4553 10.1775 10.1778 10.455 10.0578 10.815L9.62276 12.1125C9.25526 13.23 7.68026 13.2075 7.33526 12.09L5.87276 7.38C5.58776 6.4425 6.45026 5.58001 7.37276 5.86501L12.0903 7.32749C13.2078 7.67999 13.2228 9.25499 12.1128 9.62249Z" stroke="#666666" stroke-width="1.5" stroke-linecap="round" stroke-linejoin="round"/>
<path d="M9 16.5C13.1421 16.5 16.5 13.1421 16.5 9C16.5 4.85786 13.1421 1.5 9 1.5C4.85786 1.5 1.5 4.85786 1.5 9C1.5 13.1421 4.85786 16.5 9 16.5Z" stroke="#666666" stroke-width="1.5" stroke-linecap="round" stroke-linejoin="round"/>
</svg>
