<svg width="56" height="56" viewBox="0 0 56 56" fill="none" xmlns="http://www.w3.org/2000/svg">
<rect x="56.0005" y="56" width="56" height="56" rx="28" transform="rotate(-180 56.0005 56)" fill="black"/>
<path d="M18.437 40.5996H37.5586C41.0744 40.5996 43.3028 36.807 41.534 33.7412L29.7328 13.2864C28.9628 11.9508 27.0328 11.9508 26.2627 13.2864L14.4591 33.7412C12.6928 36.8022 14.9211 40.5996 18.4345 40.5996H18.437ZM29.7424 19.4205L32.3125 24.3946L38.5139 35.4859C38.923 36.1958 38.4177 37.1054 37.561 37.1054H29.7448V19.4181L29.7424 19.4205ZM17.4864 35.4883L23.6854 24.3922L26.2555 19.4205V37.1079H18.4394C17.5827 37.1079 17.0773 36.1982 17.4864 35.4883Z" fill="white"/>
</svg>
