<svg width="500" height="500" fill="none" xmlns="http://www.w3.org/2000/svg">
  <path d="M454.28 481.69c0 .14-91.47.26-204.27.26-112.8 0-204.29-.12-204.29-.26s91.45-.26 204.29-.26c112.84 0 204.27.12 204.27.26Z" fill="#263238"/>
  <path d="M101.45 444.12s-19.61-22.57-27-45.14c-7.39-22.57-3.88-20-3.88-20s10 21.93 17.57 32.52c7.57 10.59 21.09 26.13 21.09 26.13l-7.78 6.49Z" fill="#455A64"/>
  <path d="M105.36 382.51a1.15 1.15 0 0 0-2.13.73c1.2 7.93 3.79 26.53 3.68 38.6a857.3 857.3 0 0 0 0 21.74h8.16s-1.45-32.41-3.29-42.29c-1.29-6.93-4.03-14.62-6.42-18.78Z" fill="#455A64"/>
  <path d="M109.81 440.94a86.35 86.35 0 0 0 6.72-24.37c.67-5.77-.53-13.57-2.31-24a64.7 64.7 0 0 1-1-11.53 1.94 1.94 0 0 1 3.65-.92c1 1.76 3.84 7.77 4.56 11.53 2 10.28 4.22 15.42 2.51 25.16s-8 24.77-8 24.77l-6.13-.64Zm7.35.66s21.54-46.27 23-53.14c1.46-6.87 6.57-22.68 7.16-21.79.59.89 1.5 9.25-2.38 18.81-3.88 9.56-20.42 57.52-20.42 57.52h-7.36" fill="#455A64"/>
  <path d="M107.45 439.53a5.8 5.8 0 0 1-.6-.41c-.38-.29-1-.7-1.67-1.28a75.13 75.13 0 0 1-5.78-5.11 96.88 96.88 0 0 1-15.63-20.05 131.08 131.08 0 0 1-10.66-23.1 161.74 161.74 0 0 1-2.39-7.33c-.26-.87-.44-1.56-.57-2a3.8 3.8 0 0 1-.16-.71c.1.22.18.45.25.68l.66 2c.56 1.73 1.4 4.23 2.52 7.28a139.16 139.16 0 0 0 10.75 23c4.3 7.28 9.49 14 15.45 20 2.31 2.29 4.28 4 5.68 5.2.68.6 1.24 1 1.61 1.34.2.15.38.31.54.49Zm2.36-22.2a7.8 7.8 0 0 1-.19-1.36l-.4-3.71c-.34-3.13-.87-7.44-1.63-12.19-.76-4.75-1.62-9-2.27-12.09l-.79-3.64c-.11-.44-.2-.9-.24-1.35.18.42.32.85.41 1.3a166.66 166.66 0 0 1 4.84 27.94c.13 1.57.22 2.85.26 3.73.04.46.04.91.01 1.37Zm5.04-37.55c.1.19.2.38.26.59l.64 1.72c.26.72.62 1.66.93 2.75.31 1.09.73 2.32 1 3.71l.54 2.18c.18.75.31 1.55.47 2.38.35 1.64.57 3.42.83 5.29.46 4.07.63 8.17.52 12.26-.18 4.1-.64 8.17-1.39 12.2-.4 1.85-.74 3.61-1.21 5.22-.23.81-.41 1.6-.65 2.35l-.68 2.13c-.41 1.37-.92 2.56-1.31 3.62s-.78 2-1.12 2.68c-.34.68-.57 1.25-.77 1.67-.08.2-.18.39-.29.57.05-.21.12-.42.21-.61l.68-1.7c.32-.73.68-1.63 1-2.7.32-1.07.85-2.26 1.24-3.63l.65-2.13c.22-.74.4-1.53.62-2.34.45-1.61.78-3.37 1.16-5.21.72-4 1.17-8.06 1.35-12.13.12-4.07-.04-8.15-.48-12.2-.25-1.86-.45-3.64-.78-5.27-.16-.82-.28-1.62-.45-2.38l-.5-2.17c-.29-1.4-.68-2.62-1-3.71-.32-1.09-.59-2-.85-2.77s-.42-1.31-.56-1.75a6.2 6.2 0 0 1-.06-.62Zm32.26-12.18v.21l-.1.6c-.09.53-.21 1.31-.42 2.3-.42 2-1.11 4.86-2.19 8.33a182.16 182.16 0 0 1-4.28 12c-1.74 4.44-3.76 9.36-5.67 14.56-1.91 5.2-3.44 10.25-4.84 14.85s-2.72 8.72-4 12.13a78.08 78.08 0 0 1-3.4 7.91c-.44.92-.84 1.6-1.1 2.07l-.3.53a.78.78 0 0 1-.11.17s0-.07.07-.19l.26-.55c.23-.49.6-1.18 1-2.11.86-1.83 2-4.53 3.25-7.95a216.7 216.7 0 0 0 3.89-12.14c1.37-4.61 2.87-9.68 4.82-14.88 1.95-5.2 3.94-10.08 5.7-14.55a199 199 0 0 0 4.37-12c1.11-3.48 1.86-6.3 2.32-8.28.24-1 .39-1.76.51-2.28l.14-.59.08-.14Z" fill="#263238"/>
  <path d="M80.71 357.38a1.85 1.85 0 0 0-3 1.89 54.4 54.4 0 0 0 2.7 7c3 6.29 11.66 28.86 15.73 41.26 4.07 12.4 9.8 35.52 9.8 35.52l8.7-1.41s-8-38-15.73-51.69c-6.29-11.04-12.53-26.95-18.2-32.57Z" fill="#455A64"/>
  <path d="M98.47 415.24c.18.32.33.65.44 1 .26.68.61 1.68 1 2.92.8 2.48 1.78 5.94 2.76 9.79.98 3.85 1.81 7.35 2.38 9.89l.65 3a5 5 0 0 1 .18 1.12c-.15-.35-.27-.7-.35-1.08l-.8-3-2.5-9.86a336.79 336.79 0 0 0-3.76-13.78Zm11.79 27.07a1.15 1.15 0 0 1-.05-.24l-.1-.68c-.09-.6-.17-1.49-.35-2.63-.32-2.29-.89-5.58-1.83-9.59a136.6 136.6 0 0 0-4.06-13.89c-1.79-5.15-4-10.71-6.56-16.47-5.11-11.5-10.22-21.71-13.58-29.25-1.69-3.77-3-6.84-3.87-9-.44-1.06-.76-1.9-1-2.47a24.92 24.92 0 0 1-.31-.88c.05.06.09.13.11.21l.29.63 1 2.44c.92 2.12 2.28 5.17 4 8.91 3.43 7.51 8.58 17.68 13.7 29.2a212.37 212.37 0 0 1 6.54 16.52 128.4 128.4 0 0 1 4 14 94.3 94.3 0 0 1 1.68 9.63c.16 1.15.21 2 .27 2.65a2.33 2.33 0 0 0 .12.91Zm4.33-.71a7.98 7.98 0 0 1-.3-1.46l-.67-4a164.14 164.14 0 0 0-6.73-25.83l-1.36-3.82a9.97 9.97 0 0 1-.46-1.41c.25.43.46.88.63 1.35a124.74 124.74 0 0 1 5.5 16.54 133.3 133.3 0 0 1 2.71 13.12 141.12 141.12 0 0 1 .68 5.51Z" fill="#263238"/>
  <path d="M132.43 440.35H98.5v41.34h33.93v-41.34Z" fill="#FF725E"/>
  <path d="M132.43 440.35H98.5v41.34h33.93v-41.34Z" fill="#000" opacity=".3"/>
  <path d="M121.6 440.35H91.5v41.34h30.1v-41.34Z" fill="#FF725E"/>
  <path d="m294.79 304.4 11.81 54 34.24 35.93-24.06 55.49 9.56 15.43s51.52-57.38 50.1-71.53c-2.44-24.65-54.69-76.34-66.44-86.05-3.95-3.27-15.21-3.27-15.21-3.27Z" fill="#FFBE9D"/>
  <path d="M358.82 386.26c0 .13-1.21 0-3.09.16a19.34 19.34 0 0 0-12.85 6.48c-1.25 1.42-1.85 2.46-2 2.39.3-1.02.82-1.96 1.52-2.75a17.3 17.3 0 0 1 13.27-6.7 7.2 7.2 0 0 1 3.15.42Z" fill="#EB996E"/>
  <path d="M296.17 312.76s10.18 30.09 10.47 47c.14 7.92-3.4 53.39-3.4 77.29l16.86 44.65H180.22l15.32-50.05L183 341.17l18.42-21.64 94.75-6.77Z" fill="#455A64"/>
  <path d="M227.3 187.31c-5.53-5.33-18.19-3.64-21 .29a9.72 9.72 0 0 0-12.42 5.05l-13.33 3.85c-2.28.66-4.66 1.37-6.33 3.05-1.67 1.68-2.31 4.63-.72 6.39-4.69 1.55-6.09 8.77-2.33 12a5.15 5.15 0 0 0 1.25 7.37 51.47 51.47 0 0 0-7.73 15.64c-.69 2.34-1.2 4.94-.2 7.17 1 2.23 4.11 3.61 6 2a6 6 0 0 0 .15 6.5c-2.29.21-2.74 3.79-1.06 5.35 1.68 1.56 4.25 1.57 6.54 1.37 2.29-.2 4.75-.49 6.72.69a2.09 2.09 0 0 1-.65 1.5c-3.72 3.46-4.48 9-1.26 13l.82 1c1.45 1.79 4.84 3.3 6.95 4.23 5.36 2.36 8.4 1.64 14.24 2.1-1.33 3.83 8.59 11.46 18.79 2.65 21.81 4.35 37.39 5.52 59.58 4.12 3.17-.2 6.94-.88 8.16-3.81 2.61.52 5.3-.86 7.08-2.84a23.22 23.22 0 0 0 3.8-7 13.81 13.81 0 0 0 9.11-13.08 17.06 17.06 0 0 0 5.64-12.54c5.22-2 7.7-9.08 4.84-13.88a60.07 60.07 0 0 0-7.81-18.24c3.58-1 4.63-6 2.91-9.31-1.72-3.31-5.16-5.27-8.42-7.06 2.76.54 4.9-3 4.07-5.71-.83-2.71-3.4-4.41-5.91-5.7a51.22 51.22 0 0 0-11.57-4.27c-1.61-4.7-8.07-9.73-12.68-11.56-18.6-7.35-31.38-8.68-53.26 9.67" fill="#263238"/>
  <path d="M280.19 253.71a6.5 6.5 0 0 1 2.44-1.94h-.2c.18-.06.36-.12.54-.15a2.6 2.6 0 0 1 2 .07 4.83 4.83 0 0 1 2.83 2.05 5.7 5.7 0 0 1-.14 5.91 4.36 4.36 0 0 1-8.1-.78 5.39 5.39 0 0 1 .63-5.16Z" fill="#455A64"/>
  <path d="M279.79 218.39c-2.26-12.32-12.29-26.58-24.51-23.81l-37.48 14.34a7.34 7.34 0 0 0-5.64 8.16l11.11 82.63a22.87 22.87 0 0 0 45.46-4.71l-.73-10s15.56-4.51 16.39-25.6c.42-10.5-2.1-27.31-4.6-41.01Z" fill="#FFBE9D"/>
  <path d="M271.71 235a2.68 2.68 0 0 1-2.24 3 2.57 2.57 0 0 1-3-2.07 2.66 2.66 0 0 1 2.24-3 2.55 2.55 0 0 1 3 2.07Zm3.65-8c-.28.38-2.47-.87-5.33-.52s-4.78 2-5.13 1.71c-.17-.14.09-.81.93-1.58a7.27 7.27 0 0 1 4.05-1.79 7 7 0 0 1 4.3.84c.96.53 1.33 1.12 1.18 1.34ZM244 237.55a2.67 2.67 0 0 1-2.25 3 2.55 2.55 0 0 1-3-2.06 2.67 2.67 0 0 1 2.23-3 2.58 2.58 0 0 1 3.02 2.06Zm4.28-7.14c-.29.39-2.48-.86-5.33-.52-2.85.34-4.78 2-5.13 1.71-.17-.14.09-.8.93-1.57a7.24 7.24 0 0 1 8.35-.95c.95.57 1.33 1.16 1.18 1.33ZM262 251.42c0-.16 1.7-.67 4.54-1.38.72-.17 1.39-.39 1.45-.9a3.7 3.7 0 0 0-.74-2.11l-2.81-5.3c-3.94-7.55-6.87-13.8-6.57-13.95.3-.15 3.74 5.84 7.67 13.39 1 1.87 1.87 3.64 2.73 5.34.56.83.82 1.82.72 2.82a1.85 1.85 0 0 1-1.07 1.21c-.39.16-.8.27-1.22.32-2.85.5-4.64.72-4.7.56Z" fill="#263238"/>
  <path d="M268 285a53 53 0 0 1-28.59-4.11s8.41 13.42 28.89 9L268 285Zm-5.59-26.73a7.12 7.12 0 0 0-6.15-2.39 4.61 4.61 0 0 0-3.52 2.49 4.23 4.23 0 0 0 5.45 5.73c1.53-.7 2.87-1.77 3.9-3.1.34-.33.6-.74.77-1.18a1.44 1.44 0 0 0-.28-1.43" fill="#EB996E"/>
  <path d="M253.85 254.39c.46-.08.84 3 3.75 4.91 2.91 1.91 6.18 1.15 6.25 1.58.07.19-.66.69-2.05.9a7.8 7.8 0 0 1-5.2-1.15 6.74 6.74 0 0 1-2.94-4.14c-.28-1.28-.02-2.09.19-2.1ZM249 219.56c-.19.81-3.09.78-6.39 1.58s-5.91 2-6.43 1.39c-.24-.31.14-1.1 1.15-2a11.41 11.41 0 0 1 9.77-2.26c1.3.37 2 .9 1.9 1.29Zm26-1.66c-.43.7-2.48.26-4.85.51-2.37.25-4.32 1-4.86.33-.24-.3 0-1 .8-1.71a6.83 6.83 0 0 1 3.81-1.53 6.7 6.7 0 0 1 4 .85c.93.57 1.28 1.2 1.1 1.55Z" fill="#263238"/>
  <path d="M289.85 227.69a14.22 14.22 0 0 0-4.1-8.69c-1.31-1.22-2.93-2.1-4.12-3.44-2.56-2.9-2.55-7.19-3.81-10.84a15.73 15.73 0 0 0-10.49-9.84c-4-1.11-8.41-.6-12.21-2.27-2.8-1.24-5-3.57-7.92-4.64-5.6-2.08-11.68 1.16-16.58 4.58-.72 4.14 2.12 7.47 4.84 10.67a14.58 14.58 0 0 0 11.12 5c3.26 0 7-1.06 9.44 1.09 2.44 2.15 2 6.62 4.14 9.27 3.11 3.78 9.42 1.79 13.82 3.95 3.39 1.67 5 5.46 6.94 8.74 1.94 3.28 5 6.62 8.74 6.16.44-3.23.5-6.5.19-9.74Z" fill="#263238"/>
  <path d="M239.26 199.36a74.01 74.01 0 0 0-27.45 7.06c-2.56 1.22-5.18 2.73-6.51 5.24-1.16 2.2-1.13 4.82-.92 7.31.66 7.77 4.5 17.06 8 24l10.15 5.1c7.35-2.32 3-15 2.13-21.43a15.35 15.35 0 0 0 7.94-14.16 17 17 0 0 0 6.66-13.12Z" fill="#263238"/>
  <path d="M222.18 245.33c-.63-4.43-6.15-4.89-9.81-2.32-2 1.41-3.4 4-2.78 8.72 1.64 12.55 13.9 8.31 13.87 7.94-.03-.37-.56-9.16-1.28-14.34Z" fill="#FFBE9D"/>
  <path d="M219 255.42c-.06 0-.2.19-.55.4-.49.3-1.07.39-1.63.25-1.39-.31-2.78-2.27-3.14-4.52a7.41 7.41 0 0 1 .2-3.21 2.54 2.54 0 0 1 1.43-1.89 1.1 1.1 0 0 1 1.36.43c.22.32.17.59.24.6.07.01.24-.25.07-.75a1.4 1.4 0 0 0-.59-.72 1.66 1.66 0 0 0-1.25-.16 3.08 3.08 0 0 0-2 2.24c-.4 1.16-.5 2.4-.3 3.6.41 2.52 2 4.71 3.9 5a2.39 2.39 0 0 0 2-.6c.26-.36.31-.65.26-.67Z" fill="#EB996E"/>
  <path d="M212.17 258.76a6.58 6.58 0 0 1 2.44-1.94h-.2l.54-.15a2.6 2.6 0 0 1 2.05.07 4.83 4.83 0 0 1 2.83 2.05 5.7 5.7 0 0 1-.14 5.91 4.36 4.36 0 0 1-8.1-.78 5.4 5.4 0 0 1 .58-5.16Z" fill="#455A64"/>
  <path d="M218 260.82v.17a1.6 1.6 0 0 1-.13.5 3 3 0 0 1-1.37 1.41c-.95.5-2 .8-3.07.88-.67.06-1.34.06-2 0a7.32 7.32 0 0 1-2.25-.51l.14-.08a6.28 6.28 0 0 1-9.68 4.71l.21-.05a2.6 2.6 0 0 1-1.57 1.22c-.67.2-1.38.2-2.05 0a3.3 3.3 0 0 1-1.74-1.21 4.38 4.38 0 0 1-.8-2 6.46 6.46 0 0 1 1.07-4.3 19.1 19.1 0 0 1 3.08-3.48v.29a4.48 4.48 0 0 1-2.22-2.84 6.53 6.53 0 0 1 .09-3.74 10.23 10.23 0 0 1 2-3.31c.88-.97 1.81-1.89 2.8-2.74v.26a4.78 4.78 0 0 1-1.51-3.57 6.86 6.86 0 0 1 1.15-3.85c1.47-2.18 3.74-3.5 5.83-4.74l-.09.23a8.38 8.38 0 0 1 8.33-11l-.18.23a7.25 7.25 0 0 1 1.25-6.25 7.13 7.13 0 0 1 5.13-3l-.14.17a7.08 7.08 0 0 1 2.45-5.7 7 7 0 0 1 5.16-1.85l-.13.14a7 7 0 0 1 .78-3.31 9.05 9.05 0 0 1 1.74-2.45 7.27 7.27 0 0 1 4.17-2.18l.48-.07h.44a5.48 5.48 0 0 1 2.03.25l.73.25.24.09a.8.8 0 0 1-.25-.06l-.73-.21c-.4-.1-.8-.18-1.22-.22a6.67 6.67 0 0 0-.8 0h-.43l-.47.07a7.16 7.16 0 0 0-4 2.18 8.9 8.9 0 0 0-1.68 2.42c-.5.99-.75 2.08-.74 3.19v.14h-.14a6.68 6.68 0 0 0-4.95 1.81 6.8 6.8 0 0 0-2.33 5.46v.16h-.15a6.81 6.81 0 0 0-4.88 2.89 6.88 6.88 0 0 0-1.19 6l.07.24h-.25a8 8 0 0 0-8 10.52l.05.14-.13.08c-2.09 1.24-4.3 2.54-5.7 4.63a6.5 6.5 0 0 0-1.09 3.63 4.35 4.35 0 0 0 1.38 3.28l.17.14-.17.14c-1.93 1.73-3.88 3.54-4.67 5.89a6.12 6.12 0 0 0-.08 3.52 4.07 4.07 0 0 0 2 2.62l.23.11-.18.18a18.6 18.6 0 0 0-3 3.4 6.12 6.12 0 0 0-1 4.08 3.4 3.4 0 0 0 2.3 3 2.77 2.77 0 0 0 3.27-1l.07-.14.14.08a6.11 6.11 0 0 0 6.39.14 6.2 6.2 0 0 0 2.93-4.62v-.14l.13.05c.7.29 1.44.46 2.19.51.66.06 1.33.06 2 0a7.88 7.88 0 0 0 3-.81 3 3 0 0 0 1.37-1.35c.17-.48.17-.72.17-.72Zm-49-9.97a6.46 6.46 0 0 1 1.2-9.25 6.7 6.7 0 0 1 2.51-1.16l-.09.16a8.65 8.65 0 0 1 .68-6.3 8.34 8.34 0 0 1 2.28-2.8 19.6 19.6 0 0 1 3.32-1.88c.58-.29 1.1-.66 1.58-1.1a4.2 4.2 0 0 0 1-1.64c.47-1.24.54-2.69 1.16-4a7.66 7.66 0 0 1 7.39-4.36l-.2.22a10.13 10.13 0 0 1 10.35-12.26l-.2.23a8.89 8.89 0 0 1 13.18-9.3h-.2c1.17-1.3 2.6-2.31 4.2-3a18.1 18.1 0 0 1 4.45-1.37c2.48-.45 5.03-.45 7.51 0 1.6.25 3.14.77 4.57 1.52a8.17 8.17 0 0 1 1.43.92s-.5-.33-1.48-.84a15.57 15.57 0 0 0-4.56-1.42 21.19 21.19 0 0 0-11.79 1.5c-1.56.7-2.96 1.72-4.09 3l-.09.1-.11-.07a8.54 8.54 0 0 0-12.65 8.95v.23h-.24a9.75 9.75 0 0 0-10 11.8l.06.25h-.26a7.33 7.33 0 0 0-7 4.14c-.59 1.27-.67 2.7-1.17 4a4.54 4.54 0 0 1-1.12 1.75c-.5.46-1.05.85-1.66 1.16a18.9 18.9 0 0 0-3.29 1.83 8.02 8.02 0 0 0-2.2 2.68 8.44 8.44 0 0 0-.71 6.1v.13h-.13a6.5 6.5 0 0 0-4.24 3.09 6.3 6.3 0 0 0-.78 3.91c.1.85.37 1.68.78 2.43.44.4.61.64.61.65Zm120.77-5.37a1.24 1.24 0 0 1-.13-1c.12-.42.35-.8.66-1.1.44-.4.94-.7 1.5-.89a7.46 7.46 0 0 0 1.91-1 3.92 3.92 0 0 0 1.27-2.12 7.8 7.8 0 0 0 .11-2.91c-.12-1-.37-2.13-.45-3.31-.2-2.38.64-4.88 1.06-7.56.23-1.38.19-2.8-.13-4.16a5.07 5.07 0 0 0-2.55-3.37 18.75 18.75 0 0 0-4.52-1.18 7.34 7.34 0 0 1-2.34-.89 5.12 5.12 0 0 1-1.74-1.87 24.52 24.52 0 0 1-1.68-4.86 8.75 8.75 0 0 0-1.05-2.33 3.82 3.82 0 0 0-2-1.49c-1.16-.22-2.34-.3-3.52-.23-.61 0-1.22-.1-1.8-.31a3.54 3.54 0 0 1-1.48-1.07 12.5 12.5 0 0 1-1.55-3.13 7.75 7.75 0 0 0-7.47-4.95c-1.96.1-3.82.93-5.2 2.33l-.16.16-.11-.2a12 12 0 0 0-8-5.91 11 11 0 0 0-7.63 1.16 9.2 9.2 0 0 0-4.13 5.2l-.05.11v-.12c0-.12.07-.19.11-.33a8.76 8.76 0 0 1 3.92-5.03 11.27 11.27 0 0 1 7.78-1.28 12.31 12.31 0 0 1 8.19 6h-.26a7.99 7.99 0 0 1 11.38-.14c.82.8 1.46 1.78 1.88 2.85.36 1.07.86 2.08 1.5 3a3.68 3.68 0 0 0 3 1.25 14 14 0 0 1 3.62.24 4.2 4.2 0 0 1 2.18 1.64c.49.75.86 1.57 1.1 2.43.38 1.65.94 3.25 1.65 4.79.38.71.93 1.31 1.61 1.75.69.4 1.44.69 2.22.84 1.58.21 3.13.62 4.61 1.22.7.36 1.31.89 1.77 1.54.43.63.75 1.33.93 2.07.33 1.4.37 2.87.12 4.29-.44 2.72-1.28 5.18-1.1 7.5.07 1.15.31 2.24.42 3.29.15 1 .1 2.02-.14 3a4.1 4.1 0 0 1-1.36 2.21 7.5 7.5 0 0 1-2 1 4 4 0 0 0-1.48.84c-.3.27-.53.62-.66 1-.06.36 0 .72.19 1.03Z" fill="#455A64"/>
  <path d="m312.8 224.18-.14-.22-.4-.68-1.5-2.64c-.66-1.14-1.4-2.58-2.44-4.13a11.18 11.18 0 0 0-4.55-4.21c-1.06-.48-2.26-.76-3.48-1.2a7.89 7.89 0 0 1-1.8-.88 4.37 4.37 0 0 1-1.4-1.55c-.69-1.27-.82-2.75-1.4-4.06a3.52 3.52 0 0 0-1.33-1.64 6.84 6.84 0 0 0-2.1-.79c-.78-.16-1.55-.39-2.29-.69a4 4 0 0 1-1.85-1.66c-.87-1.47-1-3.2-1.43-4.8a6.27 6.27 0 0 0-1-2.26 3.21 3.21 0 0 0-2.1-1.17c-1.68-.22-3.42.49-5.28.33a4.42 4.42 0 0 1-2.52-1.11c-.65-.6-1.23-1.27-1.73-2a22.2 22.2 0 0 0-1.54-2.07 4.74 4.74 0 0 0-2-1.45c-1.55-.58-3.23-.09-4.75.39-1.51.6-3.14.85-4.76.76-1.52-.27-2.97-.8-4.3-1.59a21.5 21.5 0 0 0-3.86-1.79 13 13 0 0 0-7.49.3 14 14 0 0 0-8.13 7.1c-.44.9-.81 1.84-1.11 2.81l-.24.75a.9.9 0 0 1-.09.25.9.9 0 0 1 .06-.26c0-.19.11-.45.2-.77a15.4 15.4 0 0 1 3.82-6.77 14.16 14.16 0 0 1 5.4-3.36c2.47-.87 5.13-1 7.67-.36a21.8 21.8 0 0 1 3.93 1.8c1.3.76 2.7 1.28 4.18 1.54a10.7 10.7 0 0 0 4.61-.77c.8-.26 1.6-.46 2.42-.6a5.13 5.13 0 0 1 2.57.22 5.3 5.3 0 0 1 2.13 1.55c.58.66 1.06 1.39 1.57 2.1.47.73 1.03 1.4 1.66 2 .64.57 1.45.92 2.31 1 1.73.16 3.47-.55 5.3-.32a3.6 3.6 0 0 1 2.34 1.31c.52.72.88 1.53 1.07 2.39.43 1.65.58 3.35 1.38 4.72.4.67.98 1.2 1.69 1.51.72.3 1.47.53 2.23.68a7.2 7.2 0 0 1 2.19.84 3.85 3.85 0 0 1 1.46 1.79c.6 1.39.72 2.86 1.37 4.05a5.18 5.18 0 0 0 3 2.3c1.19.44 2.41.73 3.5 1.23 1.91.98 3.51 2.49 4.61 4.34 1 1.58 1.75 3 2.39 4.18l1.44 2.67.36.7.15.19Z" fill="#455A64"/>
  <path d="m298.43 212 .23-.05c.23-.03.47 0 .68.1a2.72 2.72 0 0 1 1.42 2.14c.05.64 0 1.28-.14 1.9a7.6 7.6 0 0 0-.16 2.21c.15.83.5 1.61 1.05 2.26.55.72 1.23 1.42 1.79 2.29a3.58 3.58 0 0 1 .55 3.15c-.32 1.1-1 2.06-1.34 3.18a4.73 4.73 0 0 0 .6 3.44c.57 1.11 1.36 2.18 1.93 3.42a5.12 5.12 0 0 1 .23 4.12 24.17 24.17 0 0 1-2.14 3.77 5.77 5.77 0 0 0-1 4.09 19 19 0 0 0 1.83 4.14c.35.71.57 1.49.64 2.28.03.8-.12 1.58-.43 2.31-.67 1.35-1.5 2.6-2.46 3.76-.9 1.1-1.56 2.37-1.94 3.73-.24 1.35-.58 2.7-1 4a4.57 4.57 0 0 1-2.88 2.68c-.58.22-1.15.47-1.7.75-.51.3-.98.67-1.39 1.1-.74.86-1.37 1.82-1.86 2.85-.51 1-1 1.94-1.53 2.81a8.6 8.6 0 0 1-4.15 3.55c-1.3.54-2.7.78-4.09.7a8.61 8.61 0 0 1-2.56-.55 6.1 6.1 0 0 1-.83-.4 9.22 9.22 0 0 0 7.4.05 8.42 8.42 0 0 0 4-3.49c.53-.86 1-1.82 1.49-2.81.5-1.06 1.14-2.04 1.9-2.93.43-.45.92-.84 1.46-1.16.56-.3 1.14-.56 1.73-.78a5.43 5.43 0 0 0 1.62-.93 4.2 4.2 0 0 0 1.06-1.57c.42-1.3.76-2.65 1-4a10.45 10.45 0 0 1 2-3.86 18.97 18.97 0 0 0 2.41-3.69c.3-.67.43-1.4.39-2.14a5.92 5.92 0 0 0-.6-2.14 18.84 18.84 0 0 1-1.86-4.23c-.14-.77-.1-1.56.14-2.31.24-.7.56-1.37.95-2a24.04 24.04 0 0 0 2.11-3.71c.25-.63.36-1.32.31-2a5.26 5.26 0 0 0-.51-1.9c-.55-1.2-1.33-2.27-1.91-3.42a5 5 0 0 1-.61-3.68c.34-1.19 1.06-2.14 1.37-3.17a3.34 3.34 0 0 0-.49-2.92c-.54-.84-1.21-1.55-1.76-2.29a5.16 5.16 0 0 1-1.08-2.39 8.1 8.1 0 0 1 .2-2.26c.14-.6.2-1.23.17-1.85a2.66 2.66 0 0 0-1.3-2.09c-.3-.11-.63-.13-.94-.06Z" fill="#455A64"/>
  <path d="M169.29 250.41a4.4 4.4 0 0 1-1 0 6.83 6.83 0 0 1-2.74-.95 6.73 6.73 0 0 1-3.3-6.58c.1-1.03.43-2.03.96-2.93.68-1 1.46-1.93 2.32-2.77a8.49 8.49 0 0 0 2.14-3.17 5.58 5.58 0 0 0-.49-4c-.58-1.32-1.42-2.58-2-4a12.4 12.4 0 0 1 8.14-16.43l-.1.31a6.31 6.31 0 0 1-1.29-2.68 8.75 8.75 0 0 1 1.06-5.86c.54-.89 1.22-1.7 2-2.38a19.68 19.68 0 0 1 8-4c2.75-.73 5.6-1.07 8.45-1l-.19.19a8.95 8.95 0 0 1 8.85-9.3c1.44.05 2.86.32 4.22.78.65.18 1.32.29 2 .31.64 0 1.28-.12 1.88-.35a15.07 15.07 0 0 0 3.22-1.87c.95-.7 1.98-1.26 3.07-1.69a11 11 0 0 1 3.16-.66 10.7 10.7 0 0 1 5.34 1 11 11 0 0 1 4.75 4.51c.14.26.26.52.37.79l-.43-.76a11.12 11.12 0 0 0-4.77-4.35 10.53 10.53 0 0 0-8.33-.33c-1.07.43-2.08 1-3 1.68-1 .77-2.1 1.42-3.27 1.92-.63.25-1.31.38-2 .37a8.4 8.4 0 0 1-2.05-.3 14.39 14.39 0 0 0-4.13-.76 8.63 8.63 0 0 0-8.49 8.96v.2h-.2c-2.81-.07-5.62.27-8.34 1-2.9.67-5.59 2-7.88 3.89-.74.66-1.38 1.43-1.9 2.28a8.31 8.31 0 0 0-1 5.6c.2.92.61 1.78 1.21 2.51l.19.23-.28.08a12 12 0 0 0-7.93 15.94c.54 1.42 1.37 2.69 2 4 .67 1.28.85 2.76.49 4.16a8.7 8.7 0 0 1-2.22 3.27c-.86.82-1.64 1.74-2.31 2.72a6.92 6.92 0 0 0-.62 5.83 6.68 6.68 0 0 0 2.82 3.47 7.2 7.2 0 0 0 2.68 1c.65.12.95.1.94.12ZM302.23 203a.68.68 0 0 1-.05-.24l-.12-.71-.46-2.7c-.2-1.16-.48-2.6-.92-4.22a24.78 24.78 0 0 0-2.07-5.32 16.2 16.2 0 0 0-4.42-5.22 11.93 11.93 0 0 0-3.38-1.76 38.71 38.71 0 0 0-4-.84 11.53 11.53 0 0 1-4.11-1.46 18.58 18.58 0 0 1-3.45-3c-1.06-1.11-2.08-2.28-3.25-3.33a12.9 12.9 0 0 0-4-2.51 22.86 22.86 0 0 0-9.25-1.27 58.2 58.2 0 0 0-8.73 1 45.12 45.12 0 0 0-14 5 31.6 31.6 0 0 0-7.8 6.25c-.39.45-.75.83-1 1.19s-.5.67-.7.92l-.43.57-.16.18.12-.21.41-.58.67-.95c.28-.37.63-.76 1-1.22a31.2 31.2 0 0 1 7.79-6.39 44.93 44.93 0 0 1 14-5.14c2.9-.56 5.84-.9 8.79-1 3.19-.23 6.4.2 9.4 1.28 1.52.6 2.91 1.48 4.11 2.59 1.19 1.06 2.21 2.25 3.27 3.35 1 1.1 2.12 2.08 3.36 2.9 1.23.74 2.59 1.22 4 1.44 1.35.2 2.69.5 4 .86 1.25.42 2.42 1.03 3.47 1.82a16.46 16.46 0 0 1 4.47 5.35 24.6 24.6 0 0 1 2 5.39 59.3 59.3 0 0 1 1.24 6.97c0 .3.06.53.08.71.06.1.1.2.12.3Z" fill="#263238"/>
  <path d="M305 314.92s-3-11.31-4-11.31l-31.64-8s-10.83 11.93-23.6 10.59c-12.77-1.34-23.16-11.79-23.16-11.79l-35.27 8.42c-2.55.51-7.22 2.13-11.67 8.5-5 7.1-31.16 44.09-31.16 44.09l40.61 19.45 121.57-19.24-1.68-40.71Z" fill="#455A64"/>
  <path d="M301 303.61s10.78 1.1 24 15.09c6.86 7.3 25.9 27.3 25.9 27.3l-36 33.67-13.9-21.44.29-36.86-.29-17.76Z" fill="#455A64"/>
  <path d="M143.64 314.62c-.72-.58 2.44-12.12 2.44-12.12s-8.37-12.95-8.59-17.13c-.22-4.18 3.3-12.74 3.3-12.74l24-5.85s7.71 13.57 9.24 18.38c1.53 4.81-2.64 21.1-2.64 21.1l-4.06 8.36s-12.26 9.19-23.69 0Z" fill="#FFBE9D"/>
  <path d="M137.54 287.87a49.43 49.43 0 0 1-2.53-5.06c-1.51-3.42-3.38-6.77 0-8.68a4.64 4.64 0 0 1 3.62-.55s-.52-2.87 1.29-3.95a4.1 4.1 0 0 1 3.56-.3s-.58-4.06 2-5.78a6.62 6.62 0 0 1 6.64-.18s-2.06-17.77-2.24-18.71c-.66-3.45.69-6.51 4.31-5.66 1.33.31 2.07 1.64 3.62 7.43 1.55 5.79 4.06 15.66 4.06 15.66s4.21 7 6.2 10.72c1.99 3.72 5.92 12.35 6.25 14.62.85 5.88-2.78 13.66-2.78 13.66l-25.49 1.41-8.51-14.63Z" fill="#FFBE9D"/>
  <path d="M139.13 274.35c.74.82 1.4 1.7 2 2.62l2 2.91c.42.57.79 1.18 1.1 1.82.36.71.46 1.53.3 2.31a2.38 2.38 0 0 1-1.61 1.79c-.77.19-1.58.1-2.29-.27a10.1 10.1 0 0 1-1.7-1c-.5-.34-1-.67-1.37-1a31.56 31.56 0 0 1-1.91-1.51c-.44-.38-.65-.6-.63-.63.02-.03 1.06.71 2.76 1.86.95.68 1.96 1.3 3 1.83.6.3 1.28.37 1.93.22a1.85 1.85 0 0 0 1.24-1.43 3.1 3.1 0 0 0-.26-2c-.28-.61-.62-1.2-1-1.76l-1.92-3c-.62-.87-1.17-1.8-1.64-2.76Zm20.87 2.11a7.8 7.8 0 0 1 .27-3.8 7.9 7.9 0 0 1 1.59-3.5c.14.06-.57 1.61-1.07 3.62-.5 2.01-.59 3.68-.79 3.68Z" fill="#EB996E"/>
  <path d="M170.15 281.66a17.15 17.15 0 0 0-8.53-4.23 33.6 33.6 0 0 0-9.71-.35c-2.6.22-5.56.86-6.74 3.06-1.18 2.2.25 5.19 2.55 6.5 2.3 1.31 5.14 1.35 7.81 1.12 2.67-.23 5.37-.7 8-.31" fill="#FFBE9D"/>
  <path d="M163.54 287.45s-.72-.06-2-.05c-1.28.01-3.15.22-5.46.49-1.27.15-2.55.2-3.83.16a10.86 10.86 0 0 1-4.3-1 6.39 6.39 0 0 1-3.19-3.52 4.5 4.5 0 0 1-.18-2.52c.22-.88.71-1.66 1.41-2.24a9.55 9.55 0 0 1 4.9-1.81 43 43 0 0 1 4.84-.27 25.8 25.8 0 0 1 8.11 1.16c1.75.56 3.4 1.4 4.87 2.49a12.67 12.67 0 0 1 1.45 1.39c-.01.02-.53-.47-1.58-1.19a18 18 0 0 0-4.86-2.31c-2.6-.74-5.3-1.08-8-1-1.6 0-3.2.1-4.78.3a9 9 0 0 0-4.61 1.69 3.8 3.8 0 0 0-1.25 2 4.1 4.1 0 0 0 .16 2.25 5.9 5.9 0 0 0 2.93 3.27c1.28.6 2.67.95 4.09 1 1.25.06 2.51.03 3.76-.09a43.9 43.9 0 0 1 5.5-.34c.5.01 1 .06 1.5.13.17-.02.35-.02.52.01Z" fill="#EB996E"/>
  <path d="M139.32 274.63c2.64 3.95 5.08 8.03 7.31 12.22a7.62 7.62 0 0 0 2.56 3.16c1 .57 3.37-.46 4.44-.81l-7.37-15.91" fill="#FFBE9D"/>
  <path d="M146.26 273.29c.26.37.48.77.66 1.19.42.86 1 2 1.63 3.33a911.7 911.7 0 0 1 5.32 11.29l.12.25-.27.09c-.8.27-1.65.61-2.57.83-.37.09-.75.14-1.13.16-.2.01-.4-.01-.6-.06a1.7 1.7 0 0 1-.56-.26 5.46 5.46 0 0 1-1.48-1.51c-.76-1.13-1.29-2.26-1.89-3.31-1.16-2.12-2.22-4-3.14-5.59-.92-1.59-1.69-2.83-2.23-3.7-.3-.43-.58-.89-.8-1.37.37.39.7.81 1 1.26.59.84 1.42 2.08 2.38 3.64s2.06 3.44 3.24 5.54c.61 1 1.17 2.2 1.89 3.26.36.53.82 1 1.35 1.36a2.34 2.34 0 0 0 1.86.09c.87-.21 1.7-.54 2.52-.82l-.15.34a819.98 819.98 0 0 1-5.16-11.36l-1.49-3.39a7.2 7.2 0 0 1-.5-1.26Z" fill="#EB996E"/>
  <path d="m144.28 268.56 7.1 16.91a11.23 11.23 0 0 0 1.91 3.39 4.24 4.24 0 0 0 3.58 1.48 4 4 0 0 0 3.15-3.9 12 12 0 0 0-1.33-5.13 103.03 103.03 0 0 1-5.09-15.82" fill="#FFBE9D"/>
  <path d="M153.6 265.49c.09.16.15.33.18.51l.42 1.5c.37 1.29.9 3.17 1.65 5.46.75 2.29 1.72 5 2.94 8a15.67 15.67 0 0 1 1.49 4.84 5 5 0 0 1-.54 2.68 4 4 0 0 1-2.13 2 3.84 3.84 0 0 1-3-.23 5.52 5.52 0 0 1-2.09-1.88c-.85-1.46-1.57-3-2.15-4.59-1.21-3-2.31-5.61-3.24-7.87-.93-2.26-1.61-4-2.14-5.31l-.56-1.46a1.94 1.94 0 0 1-.16-.52c.1.15.2.3.26.48l.65 1.42 2.3 5.26c1 2.25 2.09 4.9 3.35 7.82.6 1.52 1.32 3 2.17 4.4a5 5 0 0 0 1.9 1.7 3.17 3.17 0 0 0 2.54.2 3.54 3.54 0 0 0 1.86-1.73c.38-.75.55-1.6.49-2.44a15.68 15.68 0 0 0-1.43-4.69c-1.2-3-2.13-5.7-2.84-8a76.14 76.14 0 0 1-1.92-7.55Z" fill="#EB996E"/>
  <path d="M144.85 308.21s-16.27 45.52-16.91 47.79l32.67 10.69 11-61.49-26.76 3.01Z" fill="#FFBE9D"/>
  <path d="M160.69 301.14a3.42 3.42 0 0 1-1.53-.19 8.55 8.55 0 0 1-3.24-1.77 8.07 8.07 0 0 1-2.13-2.91 2.73 2.73 0 0 1-.33-1.43 13 13 0 0 0 2.82 4 14.2 14.2 0 0 0 4.41 2.3Z" fill="#EB996E"/>
  <path d="M127.94 356s-5.34 13.27-5 22.25c.34 8.98 5 26 18.12 25.9 9.46-.05 18.93-3.8 29.06-15.4 5.62-6.44 12.72-14.87 12.72-14.87l-30-14.34-24.9-3.54Z" fill="#FFBE9D"/>
  <path d="M153.8 391.12c.06-.24.15-.47.26-.68l.83-1.91c.38-.81.68-1.88 1.12-3.08.44-1.2.83-2.61 1.29-4.16 1.8-6.2 3.75-14.92 5.6-24.6a859.8 859.8 0 0 0 4.31-24.88l1.21-7.56.34-2.05c.03-.24.08-.49.15-.72.02.24.02.49 0 .73l-.24 2.07-1 7.59a617.03 617.03 0 0 1-4.17 24.92c-1.84 9.7-3.87 18.41-5.75 24.6-.49 1.55-.89 3-1.37 4.15-.48 1.15-.8 2.26-1.21 3.07l-.93 1.87c-.13.22-.28.44-.44.64Z" fill="#EB996E"/>
  <path d="M180.22 332.44c.1.24.19.49.25.74l.61 2.15c.5 1.89 1.17 4.62 1.92 8a582.58 582.58 0 0 1 5.12 26.69c1.79 10.47 3.14 20 3.95 26.89.4 3.45.67 6.25.82 8.19l.13 2.24c.02.26.02.52 0 .78a4 4 0 0 1-.12-.77l-.23-2.23c-.21-1.93-.54-4.72-1-8.17-.9-6.89-2.34-16.38-4.1-26.85a642.78 642.78 0 0 0-5-26.7c-.71-3.4-1.32-6.14-1.76-8l-.51-2.17a6.98 6.98 0 0 1-.08-.79Zm124.7 52.63c-.02-.2-.02-.39 0-.58 0-.44.08-1 .13-1.66l.52-6.11c.61-6.7.85-13.43.73-20.16-.12-3.7-.43-7.4-.94-11.06-.28-1.68-.51-3.29-.85-4.77-.17-.74-.3-1.46-.47-2.14-.17-.68-.35-1.33-.51-2-.3-1.26-.69-2.36-1-3.34-.31-.98-.6-1.81-.86-2.49-.26-.68-.42-1.15-.56-1.56a2.24 2.24 0 0 1-.17-.56c.11.16.2.34.26.52l.66 1.53c.29.67.62 1.49.94 2.47.32.98.75 2.07 1.07 3.33l.55 2c.19.72.33 1.41.5 2.15.37 1.49.61 3.1.91 4.79.54 3.68.88 7.4 1 11.11.14 6.75-.16 13.5-.88 20.22-.26 2.57-.5 4.65-.69 6.09l-.23 1.65c0 .2-.04.39-.11.57Z" fill="#263238"/>
  <path d="M290.4 436.53s-1.67-4.4 2-4.75c2-.14 4-.18 6-.12a7.6 7.6 0 0 1 7.11 5.28l1.49 4.76 5.05 5.05h5.57l8.71 18.53s-7.49 6.32-11.85 4.26c-4.36-2.06-5-1.72-5-1.72s-17.24 10.1-18.46 9.58c-1.22-.52-3.3-2.38 0-5.23 3.3-2.85 14.8-10.79 14.8-10.79l-21.94 8.16s-3.65-.85-1.56-3.64 20.54-11.38 20.54-11.38l-1.39-1.5s-17.76 6.62-19 5.75c-1.24-.87-4.07-2.62-.82-4.88 3.25-2.26 19.28-8.7 19.28-8.7l-2.44-5.75-2.49-1.22s-5.09-.1-5.6-1.69Z" fill="#FFBE9D"/>
  <path d="M323.19 453.48c-.24.06-.74-2.08-2.51-4-1.77-1.92-3.83-2.6-3.75-2.84.08-.24 2.44.12 4.38 2.26 1.94 2.14 2.11 4.6 1.88 4.58Zm-14.34-5.26c-.2.15-1.45-1.61-3.8-2.43-2.35-.82-4.43-.24-4.48-.49-.05-.25.44-.4 1.31-.58a6.67 6.67 0 0 1 6.31 2.22c.57.69.75 1.22.66 1.28Zm.24 6.66c-.14.2-1.53-.62-3.41-.53-1.88.09-3.22 1-3.37.77-.15-.23 1.12-1.56 3.34-1.63 2.22-.07 3.62 1.24 3.44 1.39Zm3.09 6.19c-.07.24-1.73-.13-3.74.17-2.01.3-3.5 1.08-3.64.87-.14-.21 1.29-1.41 3.52-1.72 2.23-.31 3.95.48 3.86.68Z" fill="#EB996E"/>
  <path d="M266.73 361.24c-.07.2-.16.38-.27.55l-.84 1.53a143.5 143.5 0 0 1-16.03 22.57 156.26 156.26 0 0 1-15 15.08 108.34 108.34 0 0 1-5 4.12l-1.39 1.06c-.16.13-.33.25-.51.34.13-.16.28-.3.44-.42l1.33-1.14c1.16-1 2.83-2.42 4.84-4.23a165.88 165.88 0 0 0 31.16-37.48l.93-1.48c.1-.18.2-.35.34-.5Z" fill="#263238"/>
  <path d="M259.9 370.73h-.42c-.4 0-.82-.02-1.22-.09a9 9 0 0 1-4.21-2.05 12.43 12.43 0 0 1-3.92-6.25 26.1 26.1 0 0 1-.39-9.82l.34-2.78c.1-.98.28-1.95.53-2.9a6 6 0 0 1 1.55-2.7 3.83 3.83 0 0 1 3-1.17 3.7 3.7 0 0 1 2.74 1.92 8.86 8.86 0 0 1 1.06 3.27c.19 2.37.06 4.75-.37 7.08a30.2 30.2 0 0 1-6.34 13.67 29.19 29.19 0 0 1-5.9 5.45 16.55 16.55 0 0 1-3.63 2 8.73 8.73 0 0 1-4.18.62 6.22 6.22 0 0 1-3.77-1.94 10.38 10.38 0 0 1-2.11-3.59 22.2 22.2 0 0 1-1-3.95 38.1 38.1 0 0 1 .58-15.44 9.44 9.44 0 0 1 1.62-3.36c.38-.5.88-.92 1.44-1.21.57-.29 1.22-.4 1.86-.32a3.91 3.91 0 0 1 2.8 2.2 7 7 0 0 1 .58 3.4c-.08 1.1-.22 2.18-.41 3.26a33.84 33.84 0 0 1-18.98 24.29c-.6.3-1.21.54-1.84.76l-1.15.4c-.13.05-.26.1-.4.12.12-.07.25-.13.38-.17l1.13-.45c.62-.23 1.22-.5 1.81-.8a34.14 34.14 0 0 0 18.62-24.25c.19-1.06.32-2.13.4-3.21a6.67 6.67 0 0 0-.55-3.18 3.44 3.44 0 0 0-2.45-1.93 3.1 3.1 0 0 0-2.86 1.36c-1.47 1.85-1.84 4.38-2.23 6.83a36.56 36.56 0 0 0 .16 11.55c.21 1.31.55 2.6 1 3.85a9.79 9.79 0 0 0 2 3.41c.9.98 2.13 1.61 3.45 1.78a8.29 8.29 0 0 0 3.93-.58c1.25-.5 2.43-1.14 3.52-1.93 2.18-1.5 4.13-3.3 5.8-5.35a29.76 29.76 0 0 0 6.27-13.43c.43-2.28.56-4.61.38-6.93a8.3 8.3 0 0 0-1-3.1 3.25 3.25 0 0 0-2.4-1.72 3.43 3.43 0 0 0-2.68 1A5.54 5.54 0 0 0 251 347a18.9 18.9 0 0 0-.54 2.84l-.35 2.77c-.5 3.22-.4 6.51.3 9.7a12.38 12.38 0 0 0 3.77 6.18 9.13 9.13 0 0 0 4.1 2.1c1.05.16 1.62.1 1.62.14Zm20.5 3.17a2.4 2.4 0 0 1-.17.75c-.25.7-.68 1.31-1.24 1.8a5.6 5.6 0 0 1-3.18 1.37 6.26 6.26 0 0 1-4.35-1.38 9.18 9.18 0 0 1-3.13-4.59 18.5 18.5 0 0 1-.68-6.34 34.2 34.2 0 0 1 3.52-14.1c.34-.6.83-1.1 1.42-1.46a2.3 2.3 0 0 1 2.06-.08c.6.33 1.08.84 1.37 1.46.29.57.48 1.2.56 1.83.18 2.4-.23 4.8-1.2 7a22.5 22.5 0 0 1-7.46 9.17 41.88 41.88 0 0 1-6.92 4.07 32.03 32.03 0 0 1-2.71 1.19c.21-.14.43-.26.66-.37l1.93-1c2.4-1.2 4.67-2.62 6.82-4.22a22.53 22.53 0 0 0 7.24-9.07c.91-2.11 1.3-4.4 1.14-6.7a5.5 5.5 0 0 0-.52-1.67 2.63 2.63 0 0 0-1.13-1.22 1.77 1.77 0 0 0-1.59.07c-.5.31-.93.75-1.22 1.27a30.58 30.58 0 0 0-2.53 7 35.97 35.97 0 0 0-1 6.87 18.1 18.1 0 0 0 .61 6.2 8.93 8.93 0 0 0 2.94 4.43 6 6 0 0 0 4.11 1.38 5.44 5.44 0 0 0 3.06-1.24c.56-.45 1-1.02 1.28-1.68.24-.48.27-.75.31-.74Z" fill="#fff"/>
  <path d="M264.88 364.37a58.69 58.69 0 0 1-23.49 30s13.94-13.47 23.49-30Zm36.8-33.93v.41c4.5 10.15 4.69 25.45 4.74 36.91a62.83 62.83 0 0 0 4-19.17c.05-5.97-3.66-15.02-8.74-18.15Z" fill="#000" opacity=".3"/>
</svg>
